<?xml version="1.0" encoding="UTF-8" standalone="no"?>
<!-- Created with Inkscape (http://www.inkscape.org/) -->

<svg
   xmlns:dc="http://purl.org/dc/elements/1.1/"
   xmlns:cc="http://creativecommons.org/ns#"
   xmlns:rdf="http://www.w3.org/1999/02/22-rdf-syntax-ns#"
   xmlns:svg="http://www.w3.org/2000/svg"
   xmlns="http://www.w3.org/2000/svg"
   xmlns:sodipodi="http://sodipodi.sourceforge.net/DTD/sodipodi-0.dtd"
   xmlns:inkscape="http://www.inkscape.org/namespaces/inkscape"
   width="620pt"
   height="239.51045pt"
   viewBox="0 0 775.00002 299.38806"
   id="svg2"
   version="1.1"
   inkscape:version="0.91 r13725"
   sodipodi:docname="press.svg">
  <defs
     id="defs4">
    <clipPath
       id="clipPath4154"
       clipPathUnits="userSpaceOnUse">
      <path
         inkscape:connector-curvature="0"
         id="path4156"
         d="m 0,268.5 626.5,0 L 626.5,0 0,0 0,268.5 Z" />
    </clipPath>
  </defs>
  <sodipodi:namedview
     id="base"
     pagecolor="#FFFFFF"
     bordercolor="#666666"
     borderopacity="1.0"
     inkscape:pageopacity="0.0"
     inkscape:pageshadow="2"
     inkscape:zoom="0.35"
     inkscape:cx="-73.787252"
     inkscape:cy="-31.804798"
     inkscape:document-units="px"
     inkscape:current-layer="layer1"
     showgrid="false"
     units="pt"
     fit-margin-top="10"
     fit-margin-left="10"
     fit-margin-right="10"
     fit-margin-bottom="10"
     inkscape:window-width="1280"
     inkscape:window-height="962"
     inkscape:window-x="-8"
     inkscape:window-y="-8"
     inkscape:window-maximized="1" />
  <metadata
     id="metadata7">
    <rdf:RDF>
      <cc:Work
         rdf:about="">
        <dc:format>image/svg+xml</dc:format>
        <dc:type
           rdf:resource="http://purl.org/dc/dcmitype/StillImage" />
        <dc:title></dc:title>
      </cc:Work>
    </rdf:RDF>
  </metadata>
  <g
     inkscape:label="Layer 1"
     inkscape:groupmode="layer"
     id="layer1"
     transform="translate(8.3556046,-201.16936)">
    <g
       transform="matrix(1.2377455,0,0,-1.2377455,-7.6880481,527.75755)"
       inkscape:label="module"
       id="g4144">
      <g
         transform="translate(308.7969,131.0557)"
         id="g4146">
        <path
           inkscape:connector-curvature="0"
           id="path4148"
           style="fill:none;stroke:#03234B;stroke-width:1;stroke-linecap:butt;stroke-linejoin:miter;stroke-miterlimit:10;stroke-dasharray:none;stroke-opacity:1"
           d="M 0,0 217.703,-28.764" />
      </g>
      <g
         id="g4150">
        <g
           clip-path="url(#clipPath4154)"
           id="g4152">
          <g
             transform="translate(542.5156,148.9487)"
             id="g4158">
            <path
               inkscape:connector-curvature="0"
               id="path4160"
               style="fill:#E6007E;fill-opacity:1;fill-rule:nonzero;stroke:none"
               d="M 0,0 -1.066,4.689 C -1.689,4.545 -2.305,4.392 -2.918,4.223 c -23.164,-6.381 -37.783,-29.331 -33.777,-53.02 0.134,-0.789 0.287,-1.58 0.463,-2.373 0.175,-0.791 0.371,-1.573 0.582,-2.346 1.99,-7.217 5.588,-13.598 10.31,-18.85 l 3.524,3.278 c -4.664,5.209 -8.1,11.648 -9.721,18.959 C -36.535,-27.575 -22.437,-5.239 0,0" />
          </g>
          <g
             transform="translate(540.8535,156.062)"
             id="g4162">
            <path
               inkscape:connector-curvature="0"
               id="path4164"
               style="fill:#03234B;fill-opacity:1;fill-rule:nonzero;stroke:none"
               d="m 0,0 -1.252,5.503 c -0.73,-0.17 -1.455,-0.348 -2.172,-0.546 -27.183,-7.491 -44.338,-34.418 -39.637,-62.217 0.157,-0.928 0.338,-1.858 0.543,-2.783 0.207,-0.932 0.436,-1.848 0.686,-2.754 2.332,-8.467 6.555,-15.957 12.096,-22.12 l 4.136,3.848 c -5.472,6.11 -9.504,13.668 -11.406,22.246 C -42.875,-32.358 -26.33,-6.147 0,0" />
          </g>
          <g
             transform="translate(599.0371,92.4385)"
             id="g4166">
            <path
               inkscape:connector-curvature="0"
               id="path4168"
               style="fill:#49B170;fill-opacity:1;fill-rule:nonzero;stroke:none"
               d="m 0,0 c -5.295,-15.977 -18.611,-28.85 -36.238,-32.758 -17.649,-3.912 -35.18,2.147 -46.729,14.422 l -4.137,-3.848 c 12.87,-13.691 32.415,-20.445 52.086,-16.084 19.643,4.354 34.487,18.694 40.383,36.497 L 0,0 Z" />
          </g>
          <g
             transform="translate(536.9258,139.8853)"
             id="g4170">
            <path
               inkscape:connector-curvature="0"
               id="path4172"
               style="fill:#03234B;fill-opacity:1;fill-rule:nonzero;stroke:none"
               d="M 0,0 C 17.76,8.572 39.18,1.273 47.844,-16.302 56.506,-33.878 49.127,-55.074 31.371,-63.648 13.609,-72.22 -7.811,-64.921 -16.471,-47.347 -25.133,-29.771 -17.76,-8.574 0,0" />
          </g>
          <g
             transform="translate(364.627,235.8813)"
             id="g4174">
            <path
               inkscape:connector-curvature="0"
               id="path4176"
               style="fill:none;stroke:#03234B;stroke-width:1;stroke-linecap:butt;stroke-linejoin:miter;stroke-miterlimit:10;stroke-dasharray:none;stroke-opacity:1"
               d="M 0,0 -34.578,-45.828" />
          </g>
          <g
             transform="translate(329.9746,222.3003)"
             id="g4178">
            <path
               inkscape:connector-curvature="0"
               id="path4180"
               style="fill:#49B170;fill-opacity:1;fill-rule:nonzero;stroke:none"
               d="m 0,0 c 18.998,-10.75 25.686,-34.866 14.936,-53.862 -10.745,-18.998 -34.862,-25.688 -53.86,-14.94 -19,10.752 -25.688,34.864 -14.936,53.866 C -43.114,4.062 -18.998,10.749 0,0" />
          </g>
          <g
             transform="translate(344.2773,72.0869)"
             id="g4182">
            <path
               inkscape:connector-curvature="0"
               id="path4184"
               style="fill:#49B170;fill-opacity:1;fill-rule:nonzero;stroke:none"
               d="m 0,0 c -0.652,-1.947 -2.229,-3.537 -4.352,-4.105 -3.38,-0.905 -6.859,1.123 -7.773,4.533 -0.787,2.935 0.592,5.937 3.154,7.289 L -9.004,7.76 c 0,0 8.129,2.638 9.502,11.767 C 0.498,19.527 2.6,6.381 0,0" />
          </g>
          <g
             transform="translate(61.3345,92.4385)"
             id="g4186">
            <path
               inkscape:connector-curvature="0"
               id="path4188"
               style="fill:none;stroke:#03234B;stroke-width:1;stroke-linecap:butt;stroke-linejoin:miter;stroke-miterlimit:10;stroke-dasharray:none;stroke-opacity:1"
               d="M 0,0 202.002,36.047" />
          </g>
          <g
             transform="translate(500.2227,177.2593)"
             id="g4190">
            <path
               inkscape:connector-curvature="0"
               id="path4192"
               style="fill:#E6007E;fill-opacity:1;fill-rule:nonzero;stroke:none"
               d="M 0,0 17.109,-15.694 11.576,4.946 0,0 Z" />
          </g>
          <g
             transform="translate(48.8018,149.6333)"
             id="g4194">
            <path
               inkscape:connector-curvature="0"
               id="path4196"
               style="fill:#3CB4E6;fill-opacity:1;fill-rule:nonzero;stroke:none"
               d="M 0,0 7.529,-16.455 9.812,0.043 0,0 Z" />
          </g>
          <g
             transform="translate(326.3926,132.9619)"
             id="g4198">
            <path
               inkscape:connector-curvature="0"
               id="path4200"
               style="fill:#03234B;fill-opacity:1;fill-rule:nonzero;stroke:none"
               d="m 0,0 c -7.156,-12.65 -23.203,-17.1 -35.854,-9.945 -12.64,7.156 -17.095,23.209 -9.94,35.855 7.156,12.646 23.21,17.096 35.855,9.941 C 2.707,28.696 7.158,12.645 0,0" />
          </g>
          <g
             transform="translate(296.166,110.208)"
             id="g4202">
            <path
               inkscape:connector-curvature="0"
               id="path4204"
               style="fill:#03234B;fill-opacity:1;fill-rule:nonzero;stroke:none"
               d="m 0,0 c -8.457,-14.764 -27.43,-19.971 -42.369,-11.609 -14.953,8.351 -20.216,27.099 -11.762,41.863 8.458,14.771 27.426,19.969 42.379,11.613 C 3.191,33.512 8.456,14.768 0,0" />
          </g>
          <g
             transform="translate(334.8262,98.1045)"
             id="g4206">
            <path
               inkscape:connector-curvature="0"
               id="path4208"
               style="fill:#03234B;fill-opacity:1;fill-rule:nonzero;stroke:none"
               d="M 0,0 C -11.105,-19.625 -36.018,-26.533 -55.638,-15.432 -75.264,-4.324 -82.17,20.586 -71.07,40.208 -59.966,59.833 -35.063,66.745 -15.434,55.635 4.191,44.537 11.104,19.627 0,0" />
          </g>
          <g
             transform="translate(301.7773,148.8716)"
             id="g4210">
            <path
               inkscape:connector-curvature="0"
               id="path4212"
               style="fill:#03234B;fill-opacity:1;fill-rule:nonzero;stroke:none"
               d="m 0,0 c -5.618,-9.928 -18.221,-13.423 -28.148,-7.809 -9.93,5.621 -13.428,18.226 -7.808,28.154 5.614,9.927 18.22,13.423 28.151,7.804 C 2.122,22.533 5.615,9.931 0,0" />
          </g>
          <g
             transform="translate(369.4727,232.6138)"
             id="g4214">
            <path
               inkscape:connector-curvature="0"
               id="path4216"
               style="fill:#E6007E;fill-opacity:1;fill-rule:nonzero;stroke:none"
               d="m 0,0 c -1.807,-2.678 -5.437,-3.383 -8.113,-1.577 -2.676,1.806 -3.381,5.436 -1.578,8.114 1.806,2.676 5.437,3.381 8.115,1.576 C 1.098,6.307 1.805,2.677 0,0" />
          </g>
          <g
             transform="translate(377.3262,225.5767)"
             id="g4218">
            <path
               inkscape:connector-curvature="0"
               id="path4220"
               style="fill:none;stroke:#03234B;stroke-width:1.5;stroke-linecap:round;stroke-linejoin:round;stroke-miterlimit:4;stroke-dasharray:none;stroke-opacity:1"
               d="m 0,0 0,0 m 5.59,20.865 0,0 m -20.863,5.591 0,0 m -5.59,-20.865 0,0" />
          </g>
          <g
             transform="translate(111.1235,162.4678)"
             id="g4222">
            <path
               inkscape:connector-curvature="0"
               id="path4224"
               style="fill:none;stroke:#03234B;stroke-width:1;stroke-linecap:butt;stroke-linejoin:miter;stroke-miterlimit:10;stroke-dasharray:none;stroke-opacity:1"
               d="M 0,0 -36.562,-59.311" />
          </g>
          <g
             transform="translate(122.6191,149.3267)"
             id="g4226">
            <path
               inkscape:connector-curvature="0"
               id="path4228"
               style="fill:none;stroke:#03234B;stroke-width:1.32700002;stroke-linecap:round;stroke-linejoin:round;stroke-miterlimit:10;stroke-dasharray:none;stroke-opacity:1"
               d="m 0,0 0,0 m -26.807,17.445 0,0 m 17.444,26.808 0,0 m 26.809,-17.445 0,0" />
          </g>
          <g
             transform="translate(47.1904,55.002)"
             id="g4230">
            <path
               inkscape:connector-curvature="0"
               id="path4232"
               style="fill:#03234B;fill-opacity:1;fill-rule:nonzero;stroke:none"
               d="M 0,0 C 15.668,-7.814 34.701,-1.445 42.514,14.225 50.325,29.893 43.956,48.924 28.288,56.736 12.62,64.549 -6.414,58.182 -14.227,42.514 -22.038,26.844 -15.668,7.811 0,0" />
          </g>
          <g
             transform="translate(112.001,157.5898)"
             id="g4234">
            <path
               inkscape:connector-curvature="0"
               id="path4236"
               style="fill:#49B170;fill-opacity:1;fill-rule:nonzero;stroke:none"
               d="M 0,0 C 3.42,-0.093 6.272,2.605 6.365,6.028 6.458,9.448 3.756,12.3 0.336,12.393 -3.085,12.485 -5.935,9.785 -6.028,6.364 -6.121,2.942 -3.421,0.093 0,0" />
          </g>
          <g
             transform="translate(104.6689,92.8086)"
             id="g4238">
            <path
               inkscape:connector-curvature="0"
               id="path4240"
               style="fill:#3CB4E6;fill-opacity:1;fill-rule:nonzero;stroke:none"
               d="M 0,0 C 3.4,-15.121 -1.008,-31.596 -13.066,-43.041 -25.141,-54.5 -41.852,-58.033 -56.791,-53.82 l -1.439,-4.998 c 16.65,-4.703 35.282,-0.766 48.742,12.007 13.437,12.75 18.351,31.11 14.562,47.959 L 0,0 Z" />
          </g>
          <g
             transform="translate(28.5693,115.4336)"
             id="g4242">
            <path
               inkscape:connector-curvature="0"
               id="path4244"
               style="fill:#49B170;fill-opacity:1;fill-rule:nonzero;stroke:none"
               d="M 0,0 -3.599,3.75 C -4.095,3.271 -4.582,2.785 -5.053,2.289 c -17.904,-18.803 -18.674,-48.193 -1.779,-67.908 0.564,-0.656 1.147,-1.305 1.75,-1.94 0.603,-0.634 1.219,-1.25 1.846,-1.849 5.856,-5.574 12.742,-9.483 20.039,-11.719 l 1.439,4.996 C 11.023,-73.902 4.258,-69.85 -1.312,-63.98 -18.494,-45.873 -17.867,-17.34 0,0" />
          </g>
          <g
             transform="translate(33.2549,110.6074)"
             id="g4246">
            <path
               inkscape:connector-curvature="0"
               id="path4248"
               style="fill:#03234B;fill-opacity:1;fill-rule:nonzero;stroke:none"
               d="M 0,0 -3.066,3.197 C -3.488,2.787 -3.904,2.373 -4.306,1.951 -19.562,-14.074 -20.219,-39.121 -5.82,-55.92 c 0.479,-0.56 0.976,-1.111 1.49,-1.654 0.514,-0.541 1.038,-1.065 1.572,-1.574 4.991,-4.752 10.86,-8.084 17.078,-9.989 l 1.227,4.26 C 9.395,-62.979 3.631,-59.527 -1.117,-54.525 -15.761,-39.094 -15.226,-14.777 0,0" />
          </g>
          <g
             transform="translate(320.3047,140.2134)"
             id="g4250">
            <path
               inkscape:connector-curvature="0"
               id="path4252"
               style="fill:#FFFFFF;fill-opacity:1;fill-rule:nonzero;stroke:none"
               d="m 0,0 c 0,-2.104 -1.703,-3.81 -3.811,-3.81 -2.101,0 -3.808,1.706 -3.808,3.81 0,2.104 1.707,3.811 3.808,3.811 C -1.703,3.811 0,2.104 0,0" />
          </g>
          <g
             transform="translate(294.3477,129.8564)"
             id="g4254">
            <path
               inkscape:connector-curvature="0"
               id="path4256"
               style="fill:#FFFFFF;fill-opacity:1;fill-rule:nonzero;stroke:none"
               d="m 0,0 c 0,-4.307 -3.491,-7.799 -7.796,-7.799 -4.306,0 -7.796,3.492 -7.796,7.799 0,4.307 3.49,7.797 7.796,7.797 C -3.491,7.797 0,4.307 0,0" />
          </g>
          <g
             transform="translate(287.2324,131.0615)"
             id="g4258">
            <path
               inkscape:connector-curvature="0"
               id="path4260"
               style="fill:none;stroke:#FFFFFF;stroke-width:1.722;stroke-linecap:butt;stroke-linejoin:miter;stroke-miterlimit:10;stroke-dasharray:none;stroke-opacity:1"
               d="M 0,0 -11.074,27.946" />
          </g>
          <g
             transform="translate(279.1348,159.0073)"
             id="g4262">
            <path
               inkscape:connector-curvature="0"
               id="path4264"
               style="fill:#FFFFFF;fill-opacity:1;fill-rule:nonzero;stroke:none"
               d="m 0,0 c 0,-1.643 -1.334,-2.975 -2.977,-2.975 -1.642,0 -2.971,1.332 -2.971,2.975 0,1.642 1.329,2.975 2.971,2.975 C -1.334,2.975 0,1.642 0,0" />
          </g>
          <g
             transform="translate(283.6123,130.1748)"
             id="g4266">
            <path
               inkscape:connector-curvature="0"
               id="path4268"
               style="fill:none;stroke:#FFFFFF;stroke-width:1.722;stroke-linecap:butt;stroke-linejoin:miter;stroke-miterlimit:10;stroke-dasharray:none;stroke-opacity:1"
               d="M 0,0 31.206,-21.803" />
          </g>
          <g
             transform="translate(320.9004,108.374)"
             id="g4270">
            <path
               inkscape:connector-curvature="0"
               id="path4272"
               style="fill:#FFFFFF;fill-opacity:1;fill-rule:nonzero;stroke:none"
               d="m 0,0 c 0,-3.359 -2.723,-6.082 -6.082,-6.082 -3.361,0 -6.083,2.723 -6.083,6.082 0,3.357 2.722,6.082 6.083,6.082 C -2.723,6.082 0,3.357 0,0" />
          </g>
          <g
             transform="translate(275.9492,105.9697)"
             id="g4274">
            <path
               inkscape:connector-curvature="0"
               id="path4276"
               style="fill:#FFFFFF;fill-opacity:1;fill-rule:nonzero;stroke:none"
               d="m 0,0 c 0,-2.521 -2.047,-4.566 -4.566,-4.566 -2.526,0 -4.571,2.045 -4.571,4.566 0,2.523 2.045,4.566 4.571,4.566 C -2.047,4.566 0,2.523 0,0" />
          </g>
          <g
             transform="translate(266.4258,131.5713)"
             id="g4278">
            <path
               inkscape:connector-curvature="0"
               id="path4280"
               style="fill:#FFFFFF;fill-opacity:1;fill-rule:nonzero;stroke:none"
               d="m 0,0 c 0,-1.705 -1.385,-3.086 -3.089,-3.086 -1.703,0 -3.084,1.381 -3.084,3.086 0,1.705 1.381,3.087 3.084,3.087 C -1.385,3.087 0,1.705 0,0" />
          </g>
          <g
             transform="translate(287.2324,131.0615)"
             id="g4282">
            <path
               inkscape:connector-curvature="0"
               id="path4284"
               style="fill:none;stroke:#FFFFFF;stroke-width:1.722;stroke-linecap:butt;stroke-linejoin:miter;stroke-miterlimit:10;stroke-dasharray:none;stroke-opacity:1"
               d="m 0,0 -15.854,-25.092 m 7.377,23.887 -15.418,1.717 m 20.871,-2.532 33.37,12.386" />
          </g>
          <g
             transform="translate(381.7539,235.8813)"
             id="g4286">
            <path
               inkscape:connector-curvature="0"
               id="path4288"
               style="fill:none;stroke:#03234B;stroke-width:1.5;stroke-linecap:round;stroke-linejoin:round;stroke-miterlimit:4;stroke-dasharray:0, 4.89;stroke-dashoffset:0;stroke-opacity:1"
               d="m 0,0 c 0,-9.459 -7.668,-17.127 -17.127,-17.127 -9.459,0 -17.127,7.668 -17.127,17.127 0,9.459 7.668,17.127 17.127,17.127 C -7.668,17.127 0,9.459 0,0 Z" />
          </g>
          <g
             transform="translate(126.835,154.9399)"
             id="g4290">
            <path
               inkscape:connector-curvature="0"
               id="path4292"
               style="fill:none;stroke:#03234B;stroke-width:1.5;stroke-linecap:round;stroke-linejoin:round;stroke-miterlimit:4;stroke-dasharray:0, 4.89;stroke-dashoffset:0;stroke-opacity:1"
               d="m 0,0 c -4.886,-8.1 -15.413,-10.705 -23.512,-5.819 -8.1,4.885 -10.705,15.412 -5.82,23.511 4.886,8.1 15.413,10.705 23.513,5.82 C 2.28,18.626 4.886,8.1 0,0 Z" />
          </g>
          <g
             transform="translate(546.9434,150.7617)"
             id="g4294">
            <path
               inkscape:connector-curvature="0"
               id="path4296"
               style="fill:#3CB4E6;fill-opacity:1;fill-rule:nonzero;stroke:none"
               d="m 0,0 c 0,-0.289 0.292,-0.58 0.509,-0.652 0.219,-0.073 0.58,-0.725 0.58,-0.725 l 1.889,-2.685 c 0,0 -0.075,-0.438 -0.146,-0.727 -0.073,-0.292 -0.507,-2.107 -0.652,-2.685 -0.146,-0.583 -0.146,-0.872 0,-1.453 0.145,-0.58 -0.363,-1.452 -0.363,-1.452 l 1.523,-0.216 0.072,-0.436 c 0,0 -0.29,-0.799 -0.364,-1.308 -0.07,-0.509 0.364,-1.67 0.437,-2.102 0.073,-0.438 0.58,-2.903 0.509,-3.341 -0.073,-0.432 0.29,-2.394 0.29,-2.394 l 0.288,-0.075 c 0,0 0.149,-2.32 0,-2.828 -0.142,-0.511 -0.216,-2.253 -0.434,-3.194 -0.217,-0.945 -0.073,-1.744 0,-2.396 0.072,-0.653 0.943,-4.286 1.017,-4.648 0.073,-0.363 0.871,-3.046 0.871,-3.046 l -0.363,-0.291 0.072,-0.655 c 0,0 0,-0.942 -0.29,-1.159 -0.29,-0.22 -0.433,-1.381 -0.145,-1.527 0.29,-0.145 0.29,-0.359 0.943,-0.434 0.654,-0.071 0.944,0 0.944,0 l 0.218,0 c 0.216,0 0.362,-0.292 0.87,-0.434 0.507,-0.147 1.525,-0.293 1.888,-0.293 0.362,0 1.089,-0.072 1.597,0 0.436,0.065 1.161,0 1.45,0 0.291,0 1.035,0.532 0.727,0.874 -0.364,0.399 -0.943,0.433 -0.943,0.433 l -0.509,0.219 c 0,0 -0.109,0.036 -0.29,0.222 -0.161,0.157 -0.292,0.14 -0.363,0.358 -0.042,0.129 -0.109,0.202 -0.158,0.249 0.117,-0.081 0.392,-0.249 0.668,-0.249 0.362,0 0.722,-0.507 1.231,-0.652 0.509,-0.147 1.382,-0.438 1.742,-0.509 0.364,-0.071 2.469,-0.51 2.469,-0.51 0,0 0.508,0.15 0.799,0.439 0.289,0.287 -0.218,0.58 -0.361,0.943 -0.147,0.362 -0.872,0.509 -0.872,0.509 l -1.089,0.797 c 0,0 -0.291,0.433 -0.147,0.653 0.147,0.217 -0.218,0.363 -0.218,0.363 0,0 -0.144,0.216 -0.144,0.438 0,0.216 -0.364,-0.075 -0.217,0.287 0.144,0.363 -0.509,0.437 -0.509,0.437 0,0 -0.144,0.291 -0.144,0.655 0,0.363 -0.364,0.868 -0.364,0.868 0,0 -0.291,0 -0.581,-0.073 -0.29,-0.074 -0.364,-0.359 -0.364,-0.359 0,0 -0.217,0.285 -0.291,0.942 -0.072,0.653 0,0 0.509,2.468 0.509,2.465 0.872,4.281 0.872,4.5 0,0.214 0.145,2.034 0.219,2.394 0.073,0.362 0.506,1.308 0.506,1.308 0,0 0.364,0.507 0.437,0.868 0.071,0.365 0.071,0.945 0,1.234 -0.073,0.293 -0.51,1.019 -0.29,1.019 0.217,0 0.144,0.219 0.144,0.219 0,0 -0.291,0.58 -0.364,2.105 -0.072,1.522 -0.36,2.248 -0.36,2.248 0,0 -0.22,3.047 -0.147,3.34 0.071,0.289 -0.073,1.231 0,1.524 0.071,0.289 -0.581,2.685 -0.581,2.685 0,0 -0.072,0.725 0.145,1.234 0.218,0.506 -0.29,1.304 -0.581,1.74 -0.29,0.436 -0.362,1.524 -0.362,1.887 0,0.362 -0.147,1.963 -0.073,2.251 0.073,0.291 -0.724,1.599 -0.724,1.888 0,0.289 -0.073,2.467 -0.073,2.467 l 0.651,0.145 c 0,0 -0.216,1.888 -0.289,2.326 -0.073,0.434 0.073,1.014 0.217,1.666 0.144,0.655 -0.144,2.105 0,2.685 0.144,0.583 -0.363,1.237 -0.434,1.526 -0.072,0.289 -2.104,1.019 -2.324,1.526 -0.217,0.506 -0.871,1.086 -0.871,1.086 l 0,0.511 c 0,0 0.58,-0.151 0.871,-0.151 0.291,0 0.435,0.367 0.435,0.657 0,0.291 0.073,0.437 0.365,0.798 0.289,0.364 0.58,1.67 0.652,1.961 0.071,0.29 0,0.363 0,0.363 l 0.071,0.361 c 0,0 -0.071,0.147 -0.071,0.509 0,0.363 0.218,0.799 0.436,1.233 0.217,0.438 0,0.509 -0.073,1.09 -0.073,0.58 -0.435,0.509 -0.726,0.798 -0.289,0.29 -0.509,0.363 -0.798,0.652 C 10.38,23.592 9.729,23.446 9.509,23.808 9.292,24.171 9.22,23.592 8.493,23.735 7.767,23.881 7.767,23.519 6.897,23.446 6.026,23.373 6.605,23.373 6.243,23.156 5.88,22.937 5.88,22.574 5.88,22.574 c 0,0 0,-0.07 -0.217,-0.359 -0.218,-0.293 -0.582,-1.308 -0.582,-1.673 0,-0.364 0.364,-1.452 0.364,-1.452 0,0 0.072,-1.014 0.29,-1.377 0.164,-0.277 0.371,-0.428 0.461,-0.482 0.015,-0.052 0.031,-0.112 0.047,-0.172 0.508,-1.89 -0.58,-2.106 -0.58,-2.106 L 4.646,15.028 4.502,14.226 c 0,0 -0.292,-0.579 -0.581,-0.726 C 3.63,13.357 3.048,12.849 2.688,12.706 2.325,12.559 1.598,11.905 1.31,11.616 1.015,11.325 0.8,10.306 0.8,9.874 0.8,9.438 0.8,8.277 0.728,7.841 0.654,7.405 0.509,6.898 0.437,6.606 0.363,6.317 0.363,5.879 0.219,5.374 c -0.146,-0.509 0,-1.454 0,-1.454 0,0 0.218,-0.292 0.218,-0.581 C 0.437,3.05 0.146,2.178 0.146,2.178 0.146,2.178 0,0.292 0,0 m 7.694,-30.408 c 0.073,0.505 0,3.699 0.073,4.207 0.074,0.507 0.364,2.25 0.508,2.54 0.146,0.289 0.435,0.941 0.58,1.232 0.146,0.293 0.218,1.672 0.218,1.672 l 0.292,0.219 0.073,0.287 c 0,0 0.651,0 0.942,0.145 0.291,0.148 0.872,0.221 0.872,0.221 0,0 0.144,-1.67 0.291,-2.106 0.145,-0.438 -0.074,-1.019 -0.219,-1.454 -0.144,-0.432 -0.581,-1.741 -0.581,-2.249 0,-0.507 -0.507,-2.249 -0.218,-3.048 0.29,-0.798 0.363,-3.339 0.29,-3.992 -0.072,-0.653 -0.579,-1.745 -0.579,-1.745 0,0 -0.436,-0.142 -0.582,-0.362 -0.145,-0.216 -0.434,-0.941 -0.434,-0.941 l -0.799,-0.073 c 0,0 -0.146,0.291 -0.29,0.725 -0.145,0.436 -0.22,0.944 -0.29,1.381 -0.074,0.432 -0.22,2.831 -0.147,3.341" />
          </g>
          <g
             transform="translate(584.4424,133.4736)"
             id="g4298">
            <path
               inkscape:connector-curvature="0"
               id="path4300"
               style="fill:#3CB4E6;fill-opacity:1;fill-rule:nonzero;stroke:none"
               d="m 0,0 c 0.206,0.171 0.331,0.542 0.331,0.542 0.672,0.897 1.378,0.893 1.451,0.889 0.137,0.133 0.305,0.274 0.493,0.378 0,0 0.317,0.212 0.402,0.467 0,0 0.106,0.575 0.868,0.826 0,0 0.87,0.277 1.358,0.912 0,0 4.259,5.295 5.127,6.039 0,0 0.359,0.551 0.403,0.847 0,0 0.993,2.818 1.418,3.177 0,0 0.358,0.655 0.403,0.785 0,0 0.7,1.082 1.717,1.568 0,0 0.592,0.255 0.634,0.444 0,0 0.096,0.129 0.27,0.329 l -0.27,0.052 c -0.806,0 -1.038,0.953 -1.038,0.953 -0.023,0.128 -0.148,0.297 -0.148,0.297 -0.295,0.382 -0.512,1.335 -0.512,1.335 l -0.208,0.062 c -0.339,0.172 0.041,1.4 0.041,1.4 0.066,0.34 -0.191,0.656 -0.191,0.656 -0.168,0.361 0,0.594 0,0.594 0.043,0.276 0.087,0.552 0.087,0.552 0.01,0.299 0.136,0.658 0.257,0.936 0,0.007 0,0.019 -0.004,0.028 0,0 0.011,0 -0.111,0.247 0,0 -0.546,0.83 0.028,1.335 0,0 0.121,0.05 0.164,0.176 0,0 0.121,0.981 2.031,0.495 0,0 0.412,-0.042 0.673,0 0,0 2.366,0.573 2.931,-0.467 0,0 0.691,-1.041 0.819,-1.147 0,0 0.805,-1.437 0.177,-3.258 0,0 -0.24,-0.91 -0.22,-1.335 0,0 0.172,-0.702 -0.093,-0.843 0.093,-0.143 0.263,-0.357 0.525,-0.59 0.004,0.002 0.005,0.002 0.007,0.002 l 0.024,-0.027 -0.004,0 c 0.227,-0.197 0.524,-0.401 0.91,-0.596 0,0 3.791,-1.649 4.024,-3.389 0,0 0.616,-1.547 0.851,-1.738 0,0 0.568,-1.121 0.568,-1.503 0,0 0.975,-2.605 1.293,-3.075 0,0 1.209,-2.966 0.404,-3.896 0,0 -1.414,-1.292 -1.644,-1.373 l 0,-0.085 -0.006,0 c 0.01,-0.334 0.01,-1.651 -0.615,-1.89 0,0 -0.623,-0.247 -1.453,-0.332 0.039,-0.214 0.18,-0.953 0.307,-1.152 0,0 0.868,-3.622 -0.424,-7.054 0,0 -1.08,-2.627 -1.187,-3.07 0,0 -1.045,-2.882 -1.452,-3.36 0,0 0,-0.004 0.002,-0.004 l -0.012,-0.006 c 0,0 0.107,-0.234 0.382,-0.53 0,0 1.144,-2.246 1.144,-2.774 0,0 0.297,-1.04 0.488,-1.296 0,0 1.271,-3.453 1.292,-3.962 0,0 2.248,-4.976 2.733,-5.675 0,0 0.953,-1.91 0.953,-2.268 0,0 0.147,-0.595 0.404,-0.762 0,0 0.528,-0.743 0.445,-1.059 0,0 -0.046,-0.04 -0.127,-0.097 0.16,-0.03 0.318,-0.135 0.318,-0.412 0,0 0,-0.382 0.147,-0.594 0,0 0.615,-0.783 0.594,-0.996 0,0 0.38,-0.297 0.465,-0.509 0,0 0.593,-0.506 0.359,-0.868 0,0 -1.756,-0.934 -2.5,-0.934 0,0 -1.165,-0.146 -1.335,-0.104 0,0 -0.147,0.17 -0.463,0.019 0,0 -1.25,-0.74 -2.397,-0.844 0,0 -3.897,-0.109 -4.194,0.146 0,0 -0.297,0.34 0.021,0.637 0,0 -0.276,0.783 0.488,1.207 0,0 0.443,0.189 1.397,0.064 0,0 0.91,0.233 1.376,0.804 0,0 0.508,0.861 0.79,1.25 -0.044,-0.054 -0.089,-0.115 -0.131,-0.19 0,0 -0.384,-0.253 -0.384,0.022 0,0 -0.042,1.399 -0.253,1.715 0,0 -0.443,0.421 -0.423,0.934 0,0 -0.36,1.608 -0.784,2.011 0,0 -1.505,2.077 -1.76,2.777 0,0 -1.865,3.515 -2.223,3.707 0,0 -2.289,-6.929 -3.411,-8.264 0,0 -0.316,-0.382 -0.316,-0.76 0,0 -0.405,-1.824 -0.785,-1.971 0,0 -0.087,-0.004 -0.23,-0.004 0.112,-0.005 0.197,-0.005 0.23,0.004 0,0 -0.042,-0.446 0.041,-0.829 0,0 0.107,-0.76 0.042,-0.932 0,0 0.085,-0.422 0.106,-0.615 0,0 0.151,-0.635 -0.041,-0.675 0,0 -1.907,-0.213 -3.412,-0.128 0,0 -0.257,0 -0.257,0.085 l 0,0.421 c 0,0 -0.038,0.174 -0.316,0.192 0,0 -1.886,0.19 -2.032,1.611 0,0 -0.063,0.549 0.231,0.549 0.05,0.201 0.193,0.625 0.596,0.722 0,0 0.295,0.128 0.783,0.02 0,0 0.36,-0.062 0.615,0.15 0,0 0.02,0.229 0.097,0.366 -0.012,0.02 -0.023,0.037 -0.035,0.058 0,0 -0.232,0.108 -0.168,0.255 0,0 0.423,1.036 0.741,1.462 0,0 1.187,1.863 1.187,2.458 0,0 0.782,3.028 1.06,3.665 0,0 0.783,1.61 0.762,2.138 0,0 0.021,0.17 0.189,0.359 0,0 0.171,1.229 -0.041,1.718 0,0 0.064,3.727 0.976,5.127 0,0 0.294,0.487 0.102,1.335 0,0 -0.589,1.907 -1.014,2.734 0,0 -0.384,0.656 -0.384,2.033 0,0 -0.528,5.827 -0.189,6.334 0,0 0.274,0.7 0.319,0.978 0,0 0.133,0.858 0.256,1.126 -0.127,-0.026 -0.254,-0.021 -0.386,0.035 0,0 -0.505,0.024 -0.548,0.255 0,0 -0.19,0.721 0.02,1.25 0,0 0.108,1.103 -0.255,1.716 0,0 -0.38,1.463 -0.232,1.76 0,0 -1.567,-1.526 -1.822,-1.63 0,0 -0.592,-0.51 -0.722,-0.701 0,0 -1.268,-0.953 -2.158,-0.953 0,0 -1.25,0.041 -1.632,-0.404 0,0 -1.254,-0.762 -2.145,-0.784 0,0 -0.399,-0.083 -0.779,-0.297 0,0 -0.579,-0.413 -1.015,-0.389 l 0.005,-0.01 C 2.016,-1.084 1.138,-1.051 1.138,-1.051 c -0.159,0 -0.274,-0.22 -0.274,-0.22 0.034,-0.116 -0.195,-0.392 -0.195,-0.392 0.067,-0.185 0.102,-0.428 0.102,-0.428 0,0 0.023,0.034 0.163,-0.217 0.136,-0.254 -0.151,-0.383 -0.151,-0.383 -0.405,0.06 -0.716,0.704 -0.716,0.704 -0.16,0.129 -0.253,0.475 -0.253,0.475 C -0.486,-0.926 0,0 0,0" />
          </g>
          <g
             transform="translate(574.6152,112.208)"
             id="g4302">
            <path
               inkscape:connector-curvature="0"
               id="path4304"
               style="fill:#3CB4E6;fill-opacity:1;fill-rule:nonzero;stroke:none"
               d="m 0,0 c 0,0 0.114,1.104 0.049,1.44 0,0 0.048,0.675 0.16,0.996 0,0 0.209,1.234 0.048,1.539 -0.16,0.305 0.016,0.513 0.032,0.706 0.015,0.193 0,1.026 -0.016,1.297 -0.016,0.273 0.127,0.466 0.161,0.609 0.03,0.146 0.096,1.604 0.046,1.877 0,0 0.77,-0.496 1.09,-0.593 0,0 1.013,-0.962 0.914,-1.331 0,0 0.144,-1.458 0.628,-2.113 0,0 0.096,-0.548 0.062,-0.724 0,0 0.082,-0.53 0.224,-0.642 0,0 0.195,-0.08 -0.112,-0.208 0,0 -0.256,-0.255 -0.526,-0.722 0,0 -0.098,-0.16 -0.339,-0.287 0,0 -0.609,-0.404 -0.865,-0.691 C 1.556,1.153 0.32,0.032 0,0 m -9.01,24.191 c 0.417,-0.464 0.528,-1.282 0.528,-1.282 0,-0.432 0.465,-1.138 0.465,-1.138 0.241,-0.209 0.338,-0.625 0.338,-0.625 0,-0.178 0.16,-0.785 0.16,-0.785 0.05,-0.049 0.093,-0.118 0.129,-0.199 0.004,-0.008 0.004,-0.012 0.004,-0.016 l 0.002,0.004 c 0.175,-0.408 0.185,-1.103 0.185,-1.103 -0.03,-1.026 0.578,-3.609 0.578,-3.609 0.006,0 0.011,-0.001 0.02,-0.001 -0.268,-0.708 0.092,-1.505 0.092,-1.505 0.113,-0.259 0.129,-0.562 0.129,-0.562 -0.065,-0.321 0.304,-0.85 0.304,-0.85 0.24,-0.241 0.29,-1.314 0.29,-1.314 -0.017,-0.675 0.319,-1.187 0.319,-1.187 0.177,-0.24 0.274,-0.832 0.274,-0.832 -0.082,-0.29 0,-0.335 0.015,-0.899 0.016,-0.563 0.817,-2.213 0.817,-2.213 0.097,-0.337 0,-0.657 0,-0.657 C -4.521,5.129 -4.568,3.317 -4.568,3.317 -4.488,3.03 -4.762,1.267 -4.762,1.267 -4.858,0.866 -4.744,0.738 -4.744,0.738 -4.633,0.657 -4.667,0.432 -4.667,0.432 -4.825,0 -4.904,-1.942 -4.904,-1.942 -4.772,-2.29 -4.977,-3.748 -5.012,-4.003 -5.022,-4.015 -5.03,-4.028 -5.03,-4.038 l 0.013,-0.003 -0.161,-0.158 C -5.339,-4.312 -6.813,-5.5 -6.813,-5.5 c -0.242,-0.625 0.255,-1.33 0.255,-1.33 0,0 -1.007,-0.498 -0.976,-1.313 l 10e-4,-0.004 c -0.026,-0.057 -0.02,-0.091 -0.02,-0.091 0,-1.254 2.055,-3.16 2.055,-3.16 0.414,-0.398 0.59,-0.77 0.667,-1.03 -0.155,-0.391 -0.042,-1.744 -0.042,-1.744 0.143,-0.193 -0.064,-0.868 -0.064,-0.868 -0.096,-0.353 -0.111,-0.945 -0.111,-0.945 0.055,-0.035 0.111,-0.07 0.165,-0.1 -0.025,-0.138 -0.104,-0.61 0.17,-0.733 0,0 1.715,-0.386 3.367,0.177 0,0 1.362,0.305 2.356,0.289 0,0 1.938,-0.049 2.452,0.977 0,0 0.064,0.447 -0.047,0.368 l -0.017,0.176 c 0,1.076 -2.452,0.754 -2.452,0.754 l -0.009,-0.008 c -0.126,0.422 -0.508,0.951 -0.574,1.038 0,0 0.002,0.005 0.002,0.007 l -0.011,0.006 0.304,0.593 c 0.754,1.058 -0.514,4.569 -0.514,4.569 -0.271,0.48 -0.256,1.892 -0.256,1.892 0.08,0.256 0.803,0.849 0.803,0.849 1.217,0.434 3.895,2.309 3.895,2.309 0.225,0.289 1.829,1.523 1.829,1.523 1.136,0.996 2.034,4.329 2.034,4.329 0.53,0.752 0.577,4.168 0.305,4.76 -0.272,0.595 -0.691,2.728 -0.691,2.728 0.059,0.713 -0.536,3.688 -0.663,4.321 0.633,0.641 0.699,5.169 0.633,5.362 -0.004,0.011 -0.008,0.027 -0.013,0.042 -0.049,0.185 -0.002,0.423 -0.002,0.423 0.189,0.302 -0.196,0.929 -0.196,0.929 -0.206,0.336 -0.142,2.772 -0.142,2.772 0.063,0.642 0.257,1.348 0.257,1.348 0.512,0.834 0.576,5.419 0.576,5.419 0,0 -0.368,1.666 -0.078,2.166 0.285,0.495 0.047,2.644 0.047,2.644 -0.047,0.143 -0.114,0.706 -0.114,0.706 0,1.234 -2.789,2.629 -2.789,2.629 -0.017,0.353 -1.121,1.298 -1.121,1.298 -0.161,0.066 -0.257,0.239 -0.257,0.239 -0.03,0.059 -0.109,0.13 -0.22,0.209 0.157,0.054 0.308,0.249 0.404,0.397 0.048,-0.027 0.103,-0.027 0.103,-0.027 0.049,0.081 0.436,0.336 0.436,0.336 0.224,0.127 0.558,0.787 0.558,0.787 0.087,0.22 -0.025,0.312 -0.131,0.351 0.432,1.03 0.453,2.455 0.453,2.455 -0.065,0.13 -0.032,0.384 -0.032,0.384 0.209,1.393 -2.196,2.34 -2.196,2.34 -0.114,0 -0.305,0.193 -0.305,0.193 C 2.34,48.706 1.363,48.017 1.363,48.017 1.074,47.903 0.755,47.841 0.755,47.841 c -2.294,-0.916 -1.893,-3.383 -1.893,-3.383 0,-0.089 0.078,-0.104 0.159,-0.092 0.003,-0.077 0.007,-0.217 0.017,-0.324 -0.017,-0.099 0.066,-0.226 0.066,-0.226 0.047,-0.145 -0.066,-0.77 -0.066,-0.77 -0.062,-0.196 0.051,-0.904 0.064,-0.987 -0.671,-0.228 -0.834,-1.177 -0.834,-1.177 -0.032,-0.177 0.128,-0.289 0.128,-0.289 -0.08,-0.11 -0.382,-0.305 -0.382,-0.305 -0.337,-0.176 -0.947,-0.656 -0.947,-0.656 -0.275,-0.241 -1.252,-0.563 -1.252,-0.563 -0.881,-0.384 -2.595,-2.162 -2.595,-2.162 -1.396,-1.318 -1.605,-4.219 -1.605,-4.219 0.065,-0.382 -0.258,-1.313 -0.258,-1.313 -0.255,-0.801 -0.367,-2.869 -0.367,-2.869 0.065,-0.37 -0.128,-1.122 -0.128,-1.122 l -0.175,-0.947 c -0.18,-0.866 0.303,-2.246 0.303,-2.246" />
          </g>
          <g
             transform="translate(309.5869,182.9209)"
             id="g4306">
            <path
               inkscape:connector-curvature="0"
               id="path4308"
               style="fill:#FFFFFF;fill-opacity:1;fill-rule:nonzero;stroke:none"
               d="m 0,0 -5.463,5.465 c -0.203,0.2 -0.474,0.314 -0.757,0.314 l -8.858,0 0,12.17 8.242,0 c 0.304,0 0.59,0.127 0.796,0.353 L 0,24.903 0,0 Z M 1.465,28.675 C 1.05,28.839 0.58,28.729 0.28,28.4 l -7.588,-8.296 -8.848,0 c -0.593,0 -1.075,-0.485 -1.075,-1.079 l 0,-14.32 c 0,-0.595 0.482,-1.076 1.075,-1.076 l 9.488,0 6.981,-6.982 c 0.309,-0.309 0.771,-0.401 1.173,-0.234 0.401,0.167 0.663,0.556 0.663,0.991 l 0,30.272 c 0,0.443 -0.271,0.84 -0.684,0.999" />
          </g>
          <g
             transform="translate(317.6299,204.1748)"
             id="g4310">
            <path
               inkscape:connector-curvature="0"
               id="path4312"
               style="fill:#FFFFFF;fill-opacity:1;fill-rule:nonzero;stroke:none"
               d="m 0,0 c -0.299,0.549 -0.983,0.75 -1.533,0.453 -0.549,-0.297 -0.753,-0.984 -0.456,-1.534 0.046,-0.084 4.509,-8.547 -0.42,-16.37 -0.333,-0.529 -0.174,-1.228 0.354,-1.562 0.188,-0.117 0.397,-0.174 0.603,-0.174 0.376,0 0.743,0.188 0.959,0.529 C 5.154,-9.691 0.213,-0.392 0,0" />
          </g>
          <g
             transform="translate(320.4824,208.6099)"
             id="g4314">
            <path
               inkscape:connector-curvature="0"
               id="path4316"
               style="fill:#FFFFFF;fill-opacity:1;fill-rule:nonzero;stroke:none"
               d="m 0,0 c -0.328,0.513 -1.005,0.661 -1.518,0.336 -0.511,-0.325 -0.663,-1.005 -0.338,-1.518 0.335,-0.526 8.085,-13.049 -0.761,-25.039 -0.362,-0.489 -0.257,-1.178 0.231,-1.538 0.198,-0.146 0.426,-0.215 0.653,-0.215 0.337,0 0.671,0.154 0.885,0.446 C 8.909,-14.304 0.09,-0.142 0,0" />
          </g>
          <g
             transform="translate(323.5723,212.4604)"
             id="g4318">
            <path
               inkscape:connector-curvature="0"
               id="path4320"
               style="fill:#FFFFFF;fill-opacity:1;fill-rule:nonzero;stroke:none"
               d="m 0,0 c -0.358,0.528 -1.077,0.666 -1.606,0.308 -0.529,-0.358 -0.666,-1.078 -0.308,-1.606 0.113,-0.167 11.196,-16.897 -1.053,-32.506 -0.394,-0.502 -0.306,-1.23 0.196,-1.623 0.211,-0.167 0.462,-0.247 0.712,-0.247 0.343,0 0.683,0.151 0.911,0.442 C 12.132,-18.309 0.123,-0.181 0,0" />
          </g>
          <g
             transform="translate(81.3398,87.2637)"
             id="g4322">
            <path
               inkscape:connector-curvature="0"
               id="path4324"
               style="fill:#FFFFFF;fill-opacity:1;fill-rule:nonzero;stroke:none"
               d="M 0,0 C 0.078,-0.373 0.141,-0.751 0.196,-1.132 0.202,-1.13 0.206,-1.128 0.21,-1.127 0.153,-0.745 0.079,-0.372 0,0" />
          </g>
          <g
             transform="translate(78.0547,79.3877)"
             id="g4326">
            <path
               inkscape:connector-curvature="0"
               id="path4328"
               style="fill:#FFFFFF;fill-opacity:1;fill-rule:nonzero;stroke:none"
               d="m 0,0 c -0.063,-0.293 -0.326,-0.454 -0.328,-0.771 -0.002,-0.32 0.073,-0.631 0.068,-0.952 -0.006,-0.332 0.456,-0.686 0.313,-0.99 -0.388,-0.833 0.356,-1.678 -0.608,-2.272 -0.337,-0.21 -0.777,-0.4 -0.847,-0.841 -0.62,-0.125 -0.047,-0.864 -0.058,-1.168 -0.025,-0.698 -0.166,-0.555 -0.6,-0.918 -0.462,-0.386 -0.02,-0.727 -0.41,-1.19 -0.363,-0.426 -0.558,-0.947 -0.89,-1.398 -0.14,-0.189 -0.833,-0.437 -0.858,-0.589 -0.375,-0.039 -0.687,0.052 -1.048,-0.14 -0.346,-0.182 -0.741,0.064 -0.867,-0.009 0.013,1.225 -0.963,2.146 -1.103,3.427 -0.065,0.591 -0.081,0.815 -0.353,1.355 -0.284,0.56 -0.526,1.191 -0.41,1.833 0.084,0.459 0.455,0.775 0.561,1.221 0.105,0.446 -0.104,1.123 -0.22,1.552 -0.123,0.461 -0.157,1.031 -0.457,1.41 -0.297,0.378 -0.827,0.887 -0.631,1.425 0.307,0.837 0.452,1.701 -0.756,1.675 -0.372,-0.008 -0.334,0.731 -0.765,0.719 -0.59,-0.014 -1.076,-0.695 -1.562,-0.707 -0.208,-0.006 -0.371,0.181 -0.582,0.175 -0.255,-0.006 -0.439,-0.151 -0.669,-0.23 -0.502,-0.172 -0.873,0.326 -1.188,0.643 -0.417,0.42 -0.499,1 -0.89,1.43 -0.219,0.243 -0.432,0.495 -0.605,0.772 0.009,0 0.018,0 0.028,0.002 0.006,0.345 -0.211,0.664 -0.044,0.928 0.171,0.269 0.292,0.64 0.302,0.962 0.016,0.451 -0.302,1.112 -0.066,1.53 0.179,0.318 0.303,0.629 0.455,0.964 0.187,0.41 0.367,0.925 0.82,1.092 0.252,0.093 0.549,0.344 0.631,0.607 0.091,0.28 0.026,0.603 0.206,0.851 0.257,0.362 0.571,0.676 0.837,1.031 -0.007,0 -0.012,-10e-4 -0.018,-10e-4 0.301,0.405 0.776,-0.046 1.307,0.262 0.428,0.244 0.963,0.512 1.465,0.529 0.334,0.014 0.64,0.005 0.98,0.016 0.163,0.006 0.368,0.304 0.516,0.076 0.079,-0.106 0.168,-0.113 0.264,-0.02 -0.02,-0.294 -0.142,-0.546 -0.145,-0.876 -0.005,-0.581 0.556,-0.391 0.892,-0.498 0.313,-0.103 1.523,-1.424 1.503,-0.408 -0.016,0.878 1.275,0.124 1.597,0.008 0.452,-0.163 0.804,-0.22 1.259,-0.054 0.334,0.125 0.642,-0.097 0.992,-10e-4 0.208,-0.516 0.192,-0.653 0.068,-1.188 -0.201,0.033 -0.389,0.534 -0.559,0.715 0.028,-0.548 0.553,-1.206 0.806,-1.696 C -1.496,9.964 -1.454,9.63 -1.266,9.312 -1.053,8.944 -1.15,8.432 -0.886,8.133 -0.6,7.812 -0.494,7.66 -0.399,7.224 -0.274,6.649 0.654,6.276 0.778,5.733 0.958,4.956 1.202,5.141 1.848,5.259 2.211,5.338 2.551,5.526 2.893,5.641 3.268,4.745 2.275,3.003 1.772,2.266 1.188,1.412 0.242,1.107 0,0 m -15.655,18.963 c 0.076,-0.008 0.217,-0.002 0.281,0.007 0.01,-0.008 -0.216,0.099 -0.205,0.128 0.073,0.008 0.192,0.045 0.267,0.037 -0.071,-0.169 0.099,-0.104 0.159,-0.072 0.055,-0.082 0.153,-0.012 0.234,-0.057 0.008,0.066 0.589,0.005 0.66,0 -0.153,-0.04 0.072,-0.153 0.031,-0.224 -0.557,-0.24 -0.848,-0.019 -1.371,0.03 0.02,0.005 0.042,0.014 0.058,0.013 0.029,0.046 0.058,0.067 0.094,0.104 -0.072,0.021 -0.181,-0.006 -0.208,0.034 m -0.243,0.421 c -0.078,-0.233 -0.359,0.143 -0.406,0 0.072,-0.04 0.457,-0.105 0.413,-0.256 -0.031,-0.104 -0.497,0.069 -0.562,0.09 -0.021,-0.073 0.054,-0.073 -0.083,-0.089 -0.022,-0.071 0.41,-0.065 0.511,-0.081 -0.408,-0.14 -0.862,-0.215 -1.291,-0.209 -0.279,-0.079 -0.442,-0.261 -0.761,-0.253 0.004,0.016 0.01,0.031 0.012,0.048 -0.294,-0.057 -0.647,-0.655 -0.8,-0.642 -0.103,0.008 -0.83,0.339 -0.564,0.482 -0.053,0.065 -0.264,0.091 -0.141,0.255 -0.02,0.01 -0.04,0.012 -0.062,0.003 0.049,0.154 0.301,0.186 0.398,0.302 -0.091,0.02 -0.308,0.029 -0.302,0.083 0.087,0.021 0.21,-0.09 0.267,0.002 -0.026,0.006 -0.237,0.125 -0.312,0.119 0.087,0.045 0.094,0.077 0.005,0.1 0.129,0.331 -0.567,0.331 -0.751,0.28 0.005,-0.004 0.013,-0.01 0.019,-0.011 -0.06,-0.017 -0.12,-0.009 -0.18,0.025 0.027,0.01 0.045,0.013 0.06,0.028 -0.053,0.022 -0.111,0.029 -0.17,0.018 0.07,0.107 0.306,10e-4 0.391,0.096 -0.038,-0.001 -0.461,-0.033 -0.433,0.028 0.081,0.173 0.521,0.002 0.624,0.199 -0.062,-0.013 -0.121,-0.007 -0.178,0.016 0.102,0.2 1.063,0.239 1.203,0.249 0.036,0.066 0.141,0.048 0.217,0.021 -0.002,0.011 -0.014,0.017 -0.006,0.028 0.044,0.075 0.427,-0.003 0.508,0.003 -0.058,-0.003 -0.111,0.012 -0.156,0.046 0.047,0.017 0.095,0.026 0.145,0.025 -0.016,0.007 -0.043,0.007 -0.053,0.016 0.956,0.221 2.012,0.164 2.989,0.143 -0.069,-0.058 -0.18,-0.096 -0.312,-0.118 0.107,0.012 0.186,0.016 0.178,0.007 -0.006,-0.012 -0.388,-0.134 -0.413,-0.153 0.107,0.014 1.956,0.239 1.939,0.21 -0.057,-0.091 -0.449,-0.115 -0.655,-0.124 -0.057,-0.099 -0.801,-0.266 -0.938,-0.336 0.117,0.014 0.235,0.007 0.348,-0.023 -0.029,-0.008 -0.068,-0.013 -0.098,-0.015 0.069,-0.009 0.136,-0.03 0.198,-0.062 -0.053,-0.127 -0.446,0.05 -0.499,-0.076 -0.011,-0.028 0.234,-0.012 0.196,-0.119 -0.038,-0.097 -0.168,-0.004 -0.196,-0.079 0.058,-0.035 0.124,-0.049 0.194,-0.039 -0.045,-0.036 -0.157,-0.059 -0.257,-0.063 -0.005,-0.017 0.015,-0.03 0.04,-0.035 -0.13,-0.15 -0.367,-0.039 -0.513,-0.042 0.084,-0.023 0.161,-0.055 0.237,-0.097 m -4.86,-3.973 c 0.004,0.003 -0.388,-0.205 -0.37,-0.164 0.038,0.045 0.083,0.08 0.138,0.1 -0.099,0.001 -0.968,0.066 -0.965,0.075 0.042,0.084 0.178,0.057 0.22,0.148 -0.024,0 -0.051,0.011 -0.051,0.029 0.344,0.105 0.612,0.623 0.979,0.623 0.115,-0.001 -0.334,-0.366 -0.343,-0.384 0.084,0.053 0.172,0.059 0.26,0.016 -0.043,-0.01 -0.068,-0.036 -0.075,-0.079 0.049,-0.001 0.098,-0.002 0.149,-0.002 -0.002,-0.006 -0.014,-0.029 -0.014,-0.029 0.038,0.008 0.075,0.014 0.112,0.023 0.085,-0.02 0.194,-0.021 0.241,-0.003 -0.02,-0.052 -0.051,-0.105 -0.086,-0.195 0.021,0.011 0.068,0.018 0.101,0.017 -0.071,-0.129 -0.053,-0.062 -0.101,-0.19 0.084,-0.001 0.064,0.011 0.126,0.036 -0.173,-0.444 -0.154,-0.194 -0.321,-0.021 m -1.028,-0.265 c 0.08,0.092 0.179,0.164 0.292,0.211 0.005,-0.024 0.039,-0.039 0.028,-0.063 -0.033,-0.068 -0.166,-0.093 0.022,-0.096 -0.058,-0.118 -0.382,-0.132 -0.342,-0.052 m -0.562,0.187 c 0.01,0.017 0.034,0.034 0.054,0.041 0.092,-0.117 0.211,-0.152 0.362,-0.104 -0.094,-0.2 -0.449,0.005 -0.416,0.063 m 0.807,0.529 c -0.149,-0.108 -0.363,0.047 -0.474,0.135 0.258,0.036 0.345,-0.067 0.474,-0.135 m 0.016,0.232 c 0.157,-0.024 -0.135,-0.108 0,0 m 0.57,3.843 c -0.306,-0.295 -1.016,-0.037 -1.464,-0.08 -0.084,-0.021 -0.167,-0.047 -0.249,-0.08 0.082,0.033 0.165,0.059 0.249,0.08 0.089,0.021 0.181,0.037 0.274,0.043 -0.247,0.11 0.317,0.047 0.395,0.05 -0.123,0.097 -0.333,0.077 -0.457,0.051 0.002,-0.015 0.016,-0.017 0.011,-0.03 -0.109,-0.004 -0.445,0.023 -0.53,-0.011 0.018,-0.002 0.036,-0.003 0.06,0.005 -0.021,-0.004 -0.042,-0.01 -0.079,-0.012 0.004,0.002 0.012,0.004 0.019,0.007 -0.034,10e-4 -0.061,0.01 -0.081,0.038 0.132,0.025 0.265,0.04 0.4,0.042 -0.058,0.003 -0.253,0.022 -0.379,0.019 -0.032,-0.005 -0.06,-0.009 -0.101,-0.015 0.041,0.006 0.069,0.01 0.101,0.015 0.013,0.003 0.024,0.004 0.036,0.007 -0.152,-0.004 -0.237,-0.003 -0.175,0.038 0.079,0.002 0.159,0.005 0.235,0.005 -0.05,-0.005 -0.096,0.002 -0.139,0.026 0.054,0.026 0.126,0.022 0.194,0.02 -0.011,0.006 -0.023,0.008 -0.031,0.022 0.089,0.012 0.178,0.019 0.268,0.019 -0.04,0.006 -0.113,0.005 -0.081,0.023 0.152,0.003 0.464,-0.131 0.564,-0.073 -0.002,0.003 -0.002,0.005 -0.004,0.008 0.116,0.001 0.091,-0.017 0.013,-0.06 0.152,0.087 0.192,-0.109 0.44,0.061 0.015,0.011 -0.115,0.058 -0.164,0.064 0.119,-0.001 0.145,0.01 0.075,0.031 -0.124,0 -0.217,0.012 -0.238,0.044 0.047,0.006 0.093,0.012 0.14,0.018 -0.065,-0.001 -0.133,-0.003 -0.201,-0.006 0.111,0.037 0.208,0.036 0.334,0.049 -0.117,0.006 -0.229,-0.04 -0.346,-0.02 0.068,0.015 0.1,0.019 0.16,0.026 -0.102,-0.004 -0.2,-0.013 -0.303,-0.017 0.551,0.206 2.113,0.344 2.667,0.146 -0.288,-0.072 0.47,0.042 0.437,-0.023 -0.025,-0.05 -0.475,-0.05 -0.514,-0.057 0.023,-0.009 0.149,0.002 0.224,0.004 -0.4,-0.114 -0.833,-0.103 -1.233,-0.206 0.036,0.002 0.072,0.004 0.107,0.005 -0.022,-0.029 -0.067,-0.028 -0.136,-0.029 0.037,-0.007 0.074,-0.011 0.076,-0.03 -0.184,-0.037 -0.279,-0.082 -0.461,-0.093 -0.038,-0.087 -0.201,-0.058 -0.276,-0.121 0.05,0.003 0.179,0.012 0.163,-0.003 m -0.806,-0.511 c -0.011,-10e-4 -0.197,0.041 -0.149,0.076 0.147,0.109 0.494,0.01 0.647,-0.022 -0.121,-0.058 -0.374,-0.05 -0.498,-0.054 m -1.074,0.172 c -0.083,-0.003 -0.663,0.008 -0.357,0.062 -0.019,0.098 -0.075,0.117 -0.167,0.063 -0.083,-10e-4 -0.161,0.015 -0.235,0.048 0.072,0.043 0.802,0.036 0.828,-0.038 -0.064,-0.002 -0.127,-0.004 -0.19,-0.006 -0.047,-0.047 0.115,-0.016 0.151,-0.034 -0.1,-0.027 1.318,0.097 1.333,0.008 -0.032,-0.001 -0.064,-0.011 -0.091,-0.022 0.029,-0.002 0.063,0 0.063,0 -0.359,-0.225 -1.021,0.098 -1.335,-0.081 m -1.028,-0.015 c 0.03,0.018 0.095,0.03 0.105,0.03 0.1,0.051 0.199,0.063 0.303,0.033 0.145,-0.078 -0.399,-0.063 -0.408,-0.063 m -0.522,-0.015 c 0.063,0.041 0.189,0.057 0.249,0.072 -0.058,0.021 -0.138,0.02 -0.222,0.014 0.002,-0.001 0.004,-0.002 0.006,-0.003 -0.002,-0.003 -0.007,0.001 -0.014,0.002 -0.095,-0.007 -0.192,-0.022 -0.259,-0.024 0.006,0.005 0.01,0.011 0.017,0.017 -0.054,-0.007 -0.065,0.005 -0.082,0.014 l 0.055,0.032 c 0,-0.003 0.002,-0.003 0.002,-0.003 -0.002,0.061 0.21,-0.02 0.267,-0.036 0.002,0.001 0.005,0.001 0.008,0.001 -0.018,0.007 -0.029,0.017 -0.034,0.024 0.094,0.055 0.18,-0.032 0.283,0.032 -0.076,-0.003 -0.138,-0.006 -0.117,0.018 0.037,0.005 0.427,10e-4 0.427,0.003 0.004,-0.252 -0.486,-0.099 -0.586,-0.163 m -0.078,-0.234 c 0.064,0.006 0.234,0.06 0.11,-0.026 0.017,-0.002 0.073,-0.002 0.094,-0.006 -0.175,-0.11 -0.62,-0.261 -0.786,-0.031 0.123,0.083 0.244,-0.009 0.379,0.082 -0.356,0.006 0.435,0.043 0.466,0.065 -0.085,-0.038 -0.172,-0.065 -0.263,-0.084 m -0.297,-0.482 c -0.088,-0.023 -0.694,-0.022 -0.377,0.025 -0.123,-0.023 0.478,0.192 0.377,-0.025 m -0.547,0.106 c -0.081,-0.023 -0.24,-0.007 -0.311,-0.059 0.013,0.011 0.042,-0.047 0.044,-0.047 -0.22,-0.103 -1.518,-0.148 -1.578,-0.089 -0.014,0.014 -0.105,0.008 -0.174,0.003 0.192,0.154 0.295,0.144 0.528,0.166 -0.089,0.04 -0.235,0.015 -0.309,0.005 0.06,0.046 0.296,0.249 0.445,0.321 -0.008,0 -0.015,0 -0.026,0.002 0.036,0.027 0.074,0.052 0.111,0.079 0.005,-0.027 0.003,-0.042 -0.006,-0.056 0.038,10e-4 0.055,-0.021 0.042,-0.084 0.239,0.062 0.624,-0.074 0.584,-0.076 0.225,0.013 0.457,0.368 0.765,0.263 -0.019,0.006 -0.277,-0.157 -0.301,-0.205 -0.112,-0.24 0.02,-0.094 0.186,-0.223 m -2.027,-0.305 c -0.039,-0.014 -0.119,-0.016 -0.167,-0.027 0.04,0.034 0.082,0.063 0.124,0.099 0.057,10e-4 0.054,-0.015 0.043,-0.072 m 2.57,0.939 c -0.019,-0.047 -0.06,-0.065 -0.123,-0.054 -0.044,-0.003 -0.048,0.001 -0.086,-0.002 0.071,0.033 0.131,0.044 0.209,0.056 m -1.518,-0.044 c 0.044,0.032 0.082,0.033 0.138,0.032 -0.014,0.001 -0.023,0.004 -0.03,0.007 0.044,0.018 0.088,0.026 0.132,0.026 -0.013,0.002 -0.02,0.008 -0.002,0.017 0.216,0.023 0.442,-0.129 0.677,-0.038 -0.048,-0.002 -0.066,-0.002 -0.077,0.001 0.037,-0.001 0.069,0.012 0.096,0.034 -0.187,0.004 0.211,0.077 0.251,0.079 -0.212,-0.108 0.228,-0.075 0.192,-0.099 -0.311,-0.185 -0.813,-0.036 -1.153,-0.111 0.003,-0.069 -0.048,-0.09 -0.158,-0.06 0.046,0.029 0.101,0.046 0.158,0.06 0,0.002 0.003,0.006 0.003,0.01 -0.028,-0.004 -0.07,-0.016 -0.089,-0.027 -0.087,-0.02 -0.175,-0.026 -0.264,-0.02 0.041,0.063 0.094,0.092 0.159,0.085 -0.012,0.001 -0.022,0.002 -0.033,0.004 m 0.367,0.189 c 0.063,-0.019 0.038,-0.033 -0.074,-0.043 -0.042,-0.061 -0.106,-0.086 -0.193,-0.073 0.072,0.09 0.161,0.129 0.267,0.116 m 0.054,-0.057 c 0.049,0.002 0.096,0.005 0.145,0.007 -0.042,-0.024 -0.084,-0.034 -0.134,-0.027 -0.02,-0.002 -0.04,0.004 -0.011,0.02 m 0.297,0.105 c -0.049,-0.035 -0.093,-0.035 -0.131,0 0.038,-0.035 0.082,-0.035 0.131,0 m 0.122,0.045 c 0.069,0.039 0.299,0.025 0.426,0.027 0.028,0.003 0.056,0.005 0.085,0.01 -0.029,-0.005 -0.057,-0.007 -0.085,-0.01 -0.022,-0.003 -0.045,-0.005 -0.065,-0.007 0.014,-0.006 0.023,-0.015 0.025,-0.028 -0.258,-0.025 -0.292,-0.033 -0.101,-0.02 -0.054,-0.037 -0.222,-0.06 -0.314,-0.063 -0.109,-0.006 0.057,0.068 0.209,0.099 -0.06,0.015 -0.12,0.013 -0.18,-0.008 m 0.827,-0.008 c 0.113,0.003 0.061,-0.031 0.13,-0.039 -0.025,-0.012 -0.066,-0.02 -0.097,-0.023 -0.046,-0.001 -0.07,0.042 -0.033,0.062 m 0.294,0.115 c 0.019,0.003 0.043,0.009 0.059,0.016 -0.06,-0.003 -0.065,0.002 -0.03,0.021 0.124,0.011 0.506,0.052 0.603,-0.037 -0.017,-0.005 -0.046,-0.012 -0.063,-0.017 0.042,-0.039 -0.105,-0.062 -0.268,-0.065 -0.038,-0.009 -0.084,-0.012 -0.142,-0.016 0.028,0.004 0.064,0.011 0.1,0.015 -0.138,0 -0.279,0.013 -0.307,0.045 0.075,-0.008 0.141,0.006 0.198,0.043 -0.094,-0.003 -0.133,-0.015 -0.15,-0.005 m 1.322,-0.053 c -0.037,-0.027 -0.081,-0.041 -0.13,-0.039 -0.023,-0.002 -0.257,0.007 -0.257,0.007 0.127,0.031 0.26,0.02 0.387,0.032 m -0.416,0.018 c -0.116,0.096 0.356,0.13 0.246,-0.001 0.036,0.001 0.044,0 -0.002,-0.005 0.002,0.002 10e-4,0.003 0.002,0.005 -0.109,-0.003 -0.476,-0.025 -0.246,0.001 m 0.024,0.173 c 0.06,0.005 0.123,0.006 0.154,0.007 -0.017,-0.013 -0.035,-0.02 -0.054,-0.031 0.074,0.003 -0.164,-0.01 -0.1,0.024 m 11.115,-1.87 c 0.005,0.087 0.251,0.057 0.306,0.088 -0.14,0.155 0.239,0.14 0.313,0.134 0.439,-0.031 0.113,-0.229 0.111,-0.281 -0.009,-0.353 -0.249,-0.464 -0.64,-0.438 -0.406,0.027 0.016,0.279 0.047,0.383 -0.046,0.039 -0.092,0.076 -0.137,0.114 m 0.772,0.774 c 0,-0.046 -0.061,-0.093 -0.14,-0.086 -0.149,0.008 0.124,0.087 0.14,0.086 m 0.275,-0.825 c 0,0.026 0.008,0.044 0.052,0.056 0.008,-0.002 0.031,-0.003 0.037,-0.004 0,-0.013 -0.006,-0.033 -0.006,-0.058 -0.017,0.001 -0.039,0.003 -0.083,0.006 m 0.337,0.797 c -0.058,-0.038 -0.119,-0.07 -0.181,-0.097 0.073,-0.145 0.223,-0.167 0.449,-0.065 0.028,-0.119 -0.226,-0.219 -0.255,-0.291 0.294,-0.076 0.744,-0.376 0.757,-0.67 0.054,0.006 0.06,0.022 0.09,0.029 0.17,0.081 0.17,-0.108 -0.007,-0.313 0.053,-0.012 0.104,-0.022 0.156,-0.032 0.002,-0.062 -1.302,-0.179 -1.456,-0.17 0.091,0.153 0.517,0.221 0.515,0.311 -0.055,-0.056 -0.468,0.02 -0.468,0.045 0,0.099 0.152,0.12 0.152,0.304 0.124,-0.009 0.341,-0.013 0.339,0.146 -0.118,0 -0.217,0.02 -0.13,0.132 -0.042,0.004 -0.358,-0.031 -0.357,0.044 0.003,0.169 0.201,0.088 -0.048,0.215 -0.037,-0.035 -0.016,-0.05 -0.002,-0.069 -0.019,0.002 -0.038,0.003 -0.059,0.004 0.005,0.172 -0.027,0.138 -0.021,0.278 -0.108,0.02 -0.165,0.037 -0.164,0.093 0.017,-10e-4 0.195,-0.049 0.195,-0.026 -0.13,0.051 0.503,0.379 0.495,0.132 m 1.66,-4.194 c 0.011,-0.099 -0.172,0.036 -0.178,0.043 0.096,0.075 0.154,0.061 0.178,-0.043 m 1.24,0.052 c -0.007,0.057 -0.085,0.101 -0.101,0.16 0.627,0.096 0.18,-0.832 0.101,-0.16 m 0.085,0.643 c 0.005,-0.034 0.017,-0.07 0.043,-0.078 -0.015,-0.084 -0.019,-0.235 -0.039,-0.278 -0.085,0.021 -0.136,0.231 -0.182,0.291 0.065,0.003 0.125,0.024 0.178,0.065 m 1.523,-1.317 c -0.014,-0.072 -0.021,-0.35 -0.028,-0.35 -0.11,0.011 -0.607,0.285 -0.622,0.383 0.089,0.032 0.545,-0.006 0.65,-0.033 m 2.728,-1.03 c -0.134,-0.062 -0.424,0.041 -0.535,0.104 0.176,0.014 0.385,-0.048 0.535,-0.104 m 1.908,-0.068 c 0.007,-0.113 -0.379,-0.344 -0.435,-0.109 0.112,0.044 0.303,0.101 0.435,0.109 M -26.971,5.949 c 0.065,0.205 0.39,-0.073 0.394,-0.169 -0.1,-0.142 -0.461,-0.037 -0.394,0.169 m -0.925,0.256 c -0.021,0.19 -0.299,-0.244 -0.364,-0.231 -0.005,10e-4 -0.414,0.749 -0.593,0.267 -0.454,0.266 0.433,0.34 0.486,0.314 0.005,0.085 0.021,0.934 0.234,0.605 0.101,-0.154 0.251,-0.03 0.392,-0.053 0.291,-0.045 0.252,-0.337 0.362,-0.534 -0.021,0.075 -0.027,0.101 0.004,-0.011 -0.002,0.002 -0.004,0.007 -0.004,0.011 0.033,-0.126 0.108,-0.392 0.107,-0.376 -0.022,0.005 -0.624,0.005 -0.624,0.008 m -1.572,1.094 c 0.163,0.388 0.044,1.005 -0.539,1.076 -0.152,0.514 -0.206,-0.132 -0.667,-0.07 0.469,0.598 0.827,0.696 1.344,0.189 0.166,-0.162 0.545,-0.708 0.521,-0.851 0.261,-0.076 0.073,-0.222 0.192,-0.391 -0.27,-0.364 -0.556,-10e-4 -0.851,0.047 m -0.247,-0.764 c 0.098,-0.022 0.182,-0.129 0.22,-0.169 -0.005,0.01 0.004,0.024 -0.005,0.032 0.002,-0.01 0.004,-0.021 0.006,-0.032 l -0.001,0 c 0.02,-0.032 0.034,-0.064 0.022,-0.109 -0.552,-0.024 -0.308,0.292 -0.242,0.278 m -0.728,1.581 c 0.021,0.069 0.063,0.111 0.126,0.124 0.032,0.072 0.031,0.14 0.08,0.086 -0.143,-0.405 -0.168,-0.127 -0.206,-0.21 m 1.764,1.34 c 0.026,0.049 0.062,-0.137 0.045,-0.176 -0.095,-0.199 -0.058,0.147 -0.045,0.176 m 0.294,0.624 c 0.054,-0.007 0.052,-0.063 0.052,-0.098 -0.085,-0.002 -0.158,0.02 -0.204,0.026 0.037,0.04 0.112,0.077 0.152,0.072 m 0.179,-0.159 c -0.002,-0.031 -0.002,-0.061 -0.002,-0.093 -0.029,-0.008 -0.023,0.061 0.002,0.093 m 0.227,-1.928 c -0.013,-0.121 -0.086,-0.176 -0.218,-0.168 -0.13,0.034 0.189,0.139 0.218,0.168 m 3.346,9.934 c 0.016,0.014 0.031,0.028 0.045,0.042 0.114,0.052 0.224,0.116 0.352,0.082 -0.091,-0.041 -0.298,-0.114 -0.397,-0.124 m 15.479,2.638 C -9.172,20.56 -9.188,20.556 -9.2,20.55 c 0.04,-0.013 0.082,-0.014 0.109,-0.024 -0.085,0.018 0.2,-0.022 0.233,-0.028 -0.186,0.158 0.199,0.058 0.2,0.049 10e-4,-0.01 -0.01,-0.018 -0.01,-0.027 0.085,0.01 0.201,-0.002 0.316,-0.026 -0.021,0.01 -0.036,0.023 -0.046,0.037 0.072,-0.002 0.142,-10e-4 0.213,0.002 -0.02,0.002 -0.215,0.011 -0.224,0.011 -0.038,0.001 -0.204,-0.007 -0.235,0.052 0.054,0 0.105,-0.002 0.159,-0.006 0,0.002 -0.001,0.004 -0.001,0.006 0.026,-0.001 0.052,-0.001 0.077,-0.002 -0.009,0.004 -0.017,0.01 -0.025,0.014 0.316,-0.005 0.811,0.064 1.103,-0.081 -0.106,-0.017 -0.597,-0.099 -0.877,-0.07 0.044,-0.014 0.086,-0.027 0.122,-0.043 -0.016,0 -0.036,0 -0.051,10e-4 0.145,-0.019 0.332,-0.041 0.48,-0.117 -0.141,-0.008 -0.193,-0.038 -0.32,-0.046 -0.015,0.018 -0.017,0.026 -0.002,0.035 -0.065,0.007 -0.169,0.011 -0.234,0.017 0.005,0.033 0.059,0.021 0.065,0.047 -0.032,0.004 -0.07,0.03 -0.096,0.045 -0.205,-0.042 -0.825,-0.264 -0.842,-0.039 0.104,0 0.195,-0.008 0.3,-0.003 -0.04,0.011 -0.353,0 -0.356,0.047 0,-0.005 0.178,0.025 0.278,0.039 -0.123,-0.004 -0.352,-0.026 -0.408,0.015 0.011,0.002 0.018,0.003 0.031,0.003 -0.069,0.016 -0.127,0.028 -0.113,0.051 -0.043,0.008 -0.085,0.021 -0.125,0.041 0.105,0.033 0.214,0.037 0.325,0.015 M -9.474,20.5 c 0.002,0 0.003,0.002 0.007,0.002 l 0,-0.004 c -0.003,0 -0.005,10e-4 -0.007,0.002 0.048,-0.023 0.099,-0.03 0.128,-0.064 -0.074,0.01 -0.184,0.053 -0.128,0.064 m 1.878,-2.312 c -0.14,-0.016 -0.081,-0.289 -0.303,-0.138 0.02,0.028 0.038,0.028 0.051,0 0.052,0 0.098,0.032 0.093,0.056 -0.325,0.067 -0.009,0.369 0.159,0.082 m 1.186,0.35 c -0.044,-0.051 -0.085,-0.104 -0.125,-0.157 -0.096,0.077 0.081,0.16 0.125,0.157 m 0.767,0.105 c -0.004,-0.068 -0.044,-0.147 -0.134,-0.139 -0.064,0.007 -0.082,0.046 -0.089,0.073 0.055,0 0.091,0.022 0.145,0.022 -0.156,0.119 0.027,0.062 0.078,0.044 M 1.538,6.705 C 1.271,7.226 1.139,7.584 0.778,8.071 0.509,8.434 0.133,8.712 0.028,9.175 c -0.174,0.765 -1.429,1.227 -1.466,2.067 -0.006,0.124 -0.322,0.717 -0.292,0.739 0.078,0.062 0.049,0.378 0.056,0.469 0.02,0.32 0.089,0.563 0.005,0.881 -0.681,-0.185 -1.249,0.096 -1.94,0.164 0.024,0.003 0.053,0.025 0.057,0.039 -0.205,0.178 -0.339,0.32 -0.584,0.442 0.268,0.273 0,0.161 -0.037,0.331 -0.054,0.239 0.577,0.133 0.688,0.176 -0.013,0.024 -0.089,0.068 -0.088,0.101 -0.248,0.036 -0.213,-0.221 -0.487,-0.024 -0.211,0.15 -0.24,0.063 -0.441,0.024 0.029,-0.06 0.038,-0.105 0.036,-0.162 -0.006,10e-4 -0.345,0.236 -0.309,0.061 0.204,-0.197 0.317,-0.389 0.551,-0.585 -0.138,-0.073 -0.27,0.005 -0.385,0.108 0.011,-0.05 0.078,-0.358 0.124,-0.381 -0.276,0.029 -0.445,0.165 -0.329,0.401 -0.214,0.024 -0.67,0.473 -0.712,0.701 -0.071,0.383 -0.606,0.44 -0.651,0.694 -0.095,0.009 -1.203,0.775 -1.17,0.55 0.049,-0.354 0.623,-0.844 0.988,-0.878 0.051,-0.29 0.608,-0.218 0.615,-0.542 -0.524,0.139 -0.323,0.186 -0.258,-0.197 -0.007,0.048 -0.304,-0.408 -0.34,-0.176 0.549,-0.054 -1.212,1.324 -1.139,1.167 -0.393,0.405 -0.459,0.553 -0.972,0.294 -0.252,-0.128 -1.083,0.314 -0.864,-0.244 -0.014,-0.044 -1.164,-0.538 -0.663,-0.756 -0.151,-0.215 -0.39,-0.388 -0.602,-0.473 -0.254,0.097 -0.727,-0.263 -0.876,-0.029 -0.189,0.296 -0.305,0.183 -0.61,0.205 -0.313,0.023 -0.041,1.061 -0.041,1.202 0,0.197 -0.163,0.46 0.241,0.431 0.346,-0.027 0.682,-0.12 1.03,-0.146 0.387,0.051 0.537,-0.091 0.509,0.445 -0.004,-0.003 -0.01,-0.006 -0.014,-0.008 0.234,0.388 -0.83,0.502 -0.83,0.703 -0.002,0.138 0.618,0.014 0.695,0.025 -0.003,0.072 -0.044,0.126 -0.048,0.208 0.493,-0.039 0.563,0.144 0.987,0.235 0.351,0.076 0.305,0.451 0.727,0.417 0.125,-0.009 0.579,-0.034 0.467,0.16 -0.251,0.424 -0.244,0.423 0.207,0.603 0.022,-0.133 0.091,-0.18 0.12,-0.237 0.006,0 0.011,-0.009 0.015,-0.032 -0.004,0.023 -0.009,0.032 -0.015,0.032 -0.018,0.002 -0.045,-0.079 -0.067,-0.168 0.088,-0.014 0.143,-0.047 0.126,-0.158 -0.012,0.079 -0.096,0.048 -0.146,0.066 -0.022,-0.101 -0.033,-0.181 -0.014,-0.126 0.23,-0.021 0.506,-0.003 0.739,-0.043 -0.04,-0.267 0.836,0.038 1.049,-0.039 -0.008,-0.018 -0.02,-0.044 -0.016,-0.054 0.088,-0.004 0.175,-0.006 0.262,-0.009 -0.068,0.469 0.786,0.661 0.788,0.532 -0.002,0.114 -0.378,0.255 -0.272,0.308 0.327,0.17 0.708,-0.084 1.058,0.046 -0.132,0.144 -1.795,0.1 -1.545,0.41 -0.142,0.039 -0.125,0.136 -0.194,0.224 0.058,-0.006 0.744,0.242 0.735,0.27 -0.135,0.333 -0.675,0.043 -0.742,-0.048 0.052,-0.154 -0.707,-0.087 -0.668,-0.322 0.038,-0.245 0.34,-0.174 0.396,-0.398 0.01,-0.038 -0.74,-0.35 -0.265,-0.433 0.007,-0.184 -0.562,-0.323 -0.69,-0.313 -0.11,0.013 -0.337,0.453 -0.392,0.536 -0.145,0.212 -0.207,0.37 -0.454,0.221 -0.08,-0.049 -0.789,-0.234 -0.815,0.024 -0.006,0.073 0.121,-0.003 0.107,0.114 -0.098,0.007 -0.098,0.007 -0.182,-0.006 0.026,0.041 0.06,0.073 0.105,0.094 -0.499,0.346 0.455,0.53 0.671,0.505 -0.075,0.013 -0.102,0.022 -0.165,0.033 0.14,0.008 1.247,0.456 1.286,0.572 -0.155,-0.002 -0.208,-0.028 -0.361,-0.021 0.03,0.016 0.094,0.022 0.118,0.027 -0.033,0.002 -0.098,0.012 -0.098,0.012 0.016,0.065 0.511,0.02 0.524,0.022 -0.046,0.006 -0.046,0.008 -0.102,0.01 0.082,0.027 0.167,0.036 0.254,0.025 -0.036,0.013 -0.029,0.01 -0.056,0.019 0.231,0.078 0.511,0.002 0.755,0.038 -0.178,0.03 0.424,0.139 0.372,-0.038 0.233,-0.019 0.474,-0.094 0.719,-0.205 -2.943,1.859 -6.426,2.94 -10.165,2.94 -9.359,0 -17.127,-6.751 -18.741,-15.645 0.507,2.757 1.631,5.389 3.27,7.661 0.808,1.122 1.735,2.152 2.764,3.073 0.339,0.302 0.746,0.662 1.258,0.485 0.087,-0.03 0.355,-0.008 0.502,0.114 l -0.018,0 c -0.08,-0.011 -0.339,-0.054 -0.301,-0.025 0.036,0.025 0.15,0.03 0.301,0.025 0.015,0.004 0.025,0.005 0.024,0.004 -0.002,-0.001 -0.004,-0.003 -0.006,-0.004 0.401,-0.013 1.043,-0.092 1.276,-0.028 0.026,0.016 0.061,0.034 0.077,0.05 0.002,0.004 0.009,0.007 0.009,0.013 0,-0.006 -0.007,-0.009 -0.009,-0.013 -0.016,-0.016 -0.051,-0.034 -0.077,-0.05 -0.04,-0.026 -0.057,-0.044 0.045,-0.027 0.162,0.128 0.426,0.092 0.495,0.195 -0.053,-0.014 -0.09,-0.019 -0.137,-0.031 0.047,0.024 0.091,0.051 0.137,0.077 0.05,0.039 -0.229,0.064 -0.182,0.099 0.177,0.131 0.814,0.144 0.664,0.03 -0.067,-0.021 -0.134,-0.042 -0.2,-0.063 0.013,-0.034 0.153,-0.004 0.205,-0.025 -0.211,-0.06 0.044,-0.011 -0.096,-0.125 -0.026,-0.001 0.531,0.129 0.424,0.039 -0.134,0.006 -0.19,-0.042 -0.168,-0.142 0.159,-0.148 0.619,0.267 0.734,0.297 -0.007,0 -0.946,0.011 -0.828,0.105 0.132,-0.056 0.245,-0.045 0.338,0.031 -0.034,0.015 -0.322,0.02 -0.322,0.02 -0.064,0.128 0.35,0.175 0.422,0.211 -0.116,-0.035 -0.319,-0.018 -0.436,-0.075 0.021,0.001 0.042,0.001 0.063,0.002 -0.096,-0.058 -0.199,-0.084 -0.31,-0.081 0.335,0.237 0.507,0.234 0.966,0.253 -0.072,-0.038 -0.145,-0.053 -0.223,-0.076 0.22,0.043 0.415,0.043 0.633,0.03 0.016,0.003 0.02,0.003 0.01,0 0.01,0.003 0.006,0.003 -0.01,0 -0.081,-0.015 -0.453,-0.112 -0.337,-0.112 -0.243,-0.11 0.79,0.24 0.852,0.064 0.004,-0.011 -0.044,-0.1 -0.066,-0.1 0.441,-0.004 0.801,-0.136 1.219,-0.152 -0.005,-0.009 -0.009,-0.021 -0.013,-0.031 0.048,0.012 0.093,-0.002 0.13,-0.04 -0.048,-0.008 -0.09,-0.007 -0.126,-0.03 0.049,0.011 0.098,0.006 0.142,-0.016 -0.06,-0.017 -0.086,-0.02 -0.128,-0.051 0.035,-0.011 0.538,-0.182 0.536,-0.199 -0.033,-0.234 -0.41,-0.127 -0.593,-0.1 -0.022,-0.045 -0.057,-0.006 -0.078,-0.072 0.099,0.009 0.137,-0.124 0.278,-0.106 -0.106,-0.343 -0.093,-0.144 -0.492,-0.211 -0.004,0.004 0.437,-0.207 0.206,-0.263 -0.295,-0.063 -0.643,0.149 -0.825,0.24 -0.074,0.037 -0.85,-0.05 -0.822,-0.011 0.168,0.226 0.623,0.155 0.864,0.26 -0.192,0.064 0.49,0.188 0.263,0.352 -0.006,-0.149 -0.372,-0.046 -0.367,-0.04 0.094,0.063 0.197,0.088 0.307,0.074 -0.06,0.03 -0.328,0.041 -0.337,0.032 0.047,0.012 0.092,0.024 0.138,0.038 -0.032,0.029 -0.066,0.044 -0.1,0.048 -0.064,-10e-4 -0.119,-0.019 -0.166,-0.056 0.047,0.037 0.102,0.055 0.166,0.056 0.005,0.001 0.009,0.002 0.013,0.002 -0.114,0.066 -0.545,-0.047 -0.455,0.021 -0.064,0.001 -0.18,-0.004 -0.309,-0.008 0.091,-0.009 0.199,-0.051 0.29,-0.048 -0.176,-0.151 -0.527,-0.322 -0.893,-0.425 0.076,0.015 0.041,-0.018 0.052,-0.043 -0.066,0 -0.087,0.021 -0.062,0.041 -0.061,-0.018 -0.122,-0.035 -0.183,-0.047 -0.003,-0.019 0.002,-0.031 -0.003,-0.05 0.062,0.026 0.317,-0.009 0.344,-0.075 0.006,-0.019 -0.034,-0.042 -0.018,-0.053 0.053,-0.034 0.171,-0.014 0.185,-0.048 -0.263,-0.074 -0.702,-0.122 -0.965,-0.134 -0.066,-0.002 -0.017,0.03 0.028,0.062 -0.075,0.01 -0.188,-0.006 -0.237,-0.01 0.089,0.074 0.327,0.21 0.508,0.284 -0.201,-0.027 -0.394,-0.028 -0.548,0.02 -0.021,-0.082 0.177,-0.06 0.333,-0.077 -0.218,-0.191 -0.78,-0.251 -1.114,-0.223 0.027,-0.01 0.055,-0.024 0.079,-0.047 -0.291,-0.264 -0.993,-0.48 -1.359,-0.725 0.283,0.046 0.253,-0.066 0.068,-0.255 0.674,0.028 0.608,-0.369 1.154,-0.351 0.18,-0.128 -0.085,-0.294 -0.108,-0.394 0.07,0.016 0.189,0.014 0.133,-0.055 -0.043,-0.003 -0.087,0.007 -0.128,0.022 0.02,-0.038 0.11,-0.06 0.343,-0.055 0.265,0.292 -0.04,0.407 0.478,0.612 0.642,0.256 0.174,0.256 0.16,0.591 0.699,0.158 0.415,0.774 1.342,0.327 0.265,-0.126 1.066,-0.357 1.262,0.004 -0.12,-0.214 -0.04,-0.238 0.067,-0.273 -0.041,0.022 -0.078,0.048 -0.11,0.086 0.237,0.32 0.75,-0.365 0.341,-0.496 0.064,-0.041 0.121,-0.1 0.282,-0.098 l -0.009,-0.012 c -0.134,-0.225 0.545,-0.166 0.488,-0.236 -0.095,-0.088 -0.537,-0.129 -0.718,-0.183 0.016,-0.096 0.796,0.109 0.867,0.131 0.238,-0.807 -2.158,-0.723 -2.654,-1.12 0.059,0.004 1.263,0.279 1.168,0.108 -0.081,-0.145 -0.309,-0.108 -0.431,-0.186 0.07,0 0.145,-0.019 0.183,-0.02 -0.43,-0.529 0.535,-0.468 0.492,-0.559 -0.08,-0.157 -0.908,-0.287 -1.095,-0.384 -0.309,-0.162 0.015,0.358 0.425,0.377 -0.11,-0.016 -0.132,0.017 -0.07,0.098 -0.309,-0.011 -0.819,-0.36 -1.065,-0.308 -0.261,0.054 -1.042,-0.595 -0.61,-0.584 -0.268,-0.1 -0.661,-0.081 -0.95,-0.207 0.057,-10e-4 0.225,0.041 0.265,-0.007 -0.165,-0.042 -0.886,-0.304 -0.844,-0.407 -0.129,-0.078 -0.175,-0.503 -0.432,-0.498 0.016,0 0.102,0.365 0.113,0.392 -0.055,-0.054 -0.275,-0.429 -0.254,-0.491 0.014,0 0.037,-0.003 0.053,-0.003 -0.034,-0.09 -0.101,-0.15 -0.204,-0.176 0,-0.058 0.032,-0.065 0.065,-0.075 -0.076,-0.106 -0.279,-0.06 -0.145,-0.209 -0.174,-0.136 -0.394,-0.165 -0.576,-0.285 0.004,-0.006 0.008,-0.012 0.011,-0.017 -0.726,-0.319 -1.383,-0.626 -1.478,-1.503 -0.024,-0.22 -0.283,-1.201 -0.611,-1.158 -0.296,0.042 0.262,1.452 0.225,1.573 -0.004,0.015 -0.823,0.146 -0.779,0.225 -0.125,-0.029 -0.249,0 -0.39,-0.046 0.047,-0.033 0.035,-0.032 0.088,-0.006 -0.086,-0.138 -0.193,-0.217 -0.157,-0.297 -0.239,-0.107 -0.462,0.381 -0.787,0.208 -0.482,-0.262 -0.834,-0.488 -1.113,-0.978 -0.004,0.003 -0.008,0.005 -0.013,0.006 -0.074,-0.17 -1.499,-2.541 -0.839,-2.678 0.898,-0.195 0.937,1.068 1.911,0.891 -0.123,-0.252 -0.339,-0.436 -0.457,-0.69 -0.079,-0.167 -0.151,-0.249 -0.232,-0.344 -0.109,-0.191 -1.103,-0.998 -0.24,-1.05 1.038,-0.063 0.267,-1.051 0.06,-1.587 -0.18,-0.468 -0.567,-2.033 0.332,-1.645 0.427,0.184 0.436,-0.465 0.502,-0.703 -0.028,-0.044 -0.347,-0.338 -0.349,-0.333 -0.019,0.14 0.144,0.644 -0.054,0.718 -0.4,0.141 -0.433,-0.804 -0.626,-0.722 -0.383,0.157 -0.197,1.625 -0.485,1.722 -0.03,-0.042 -0.054,-0.104 -0.052,-0.141 -0.023,0.011 -0.046,0.019 -0.07,0.027 -0.072,0.29 0.182,0.603 0.16,0.91 -0.019,0.28 -0.063,0.512 0.015,0.791 -0.254,0.082 -0.499,0.258 -0.629,0.584 -0.05,0.126 0.01,0.738 -0.116,0.771 -0.093,0.355 -0.258,-0.103 -0.416,-0.061 -0.187,0.05 -0.241,0.654 -0.391,0.654 -0.2,-1.106 -0.32,-2.239 -0.32,-3.403 0,-6.943 3.714,-13.018 9.261,-16.352 -0.112,0.169 -0.022,0.342 -0.112,0.53 -0.118,0.26 -0.323,0.3 -0.325,0.66 -0.002,0.707 -0.048,1.145 -0.334,1.844 -0.306,0.403 -0.262,1.284 -0.339,1.789 -0.17,0.477 -0.238,0.963 -0.44,1.43 -0.219,0.512 -0.833,0.856 -1.382,0.931 -0.704,0.125 -0.812,0.728 -1.241,1.191 -0.362,0.39 -0.729,0.833 -1.015,1.255 -0.147,0.198 -0.434,0.213 -0.518,0.542 -0.078,0.312 0.224,0.44 0.217,0.716 -0.417,0.227 -0.292,0.286 -0.283,0.742 0.008,0.391 0.541,0.813 0.535,1.213 -0.109,0.033 -0.14,0.092 -0.095,0.18 -0.081,0.379 -0.571,1.015 -0.081,1.216 -0.101,0.525 0.539,0.877 0.932,1.049 0.084,0.038 0.18,0.313 0.295,0.154 0.059,-0.062 0.048,-0.126 -0.032,-0.188 0,-0.128 -0.075,-0.732 0.205,-0.715 0.12,0.007 -0.346,0.653 0.292,0.691 -0.058,0.12 -0.185,0.061 -0.208,0.181 0.226,0.009 0.504,-0.189 0.638,-0.343 0.098,-0.11 0.508,-0.056 0.649,-0.106 0.198,-0.071 0.573,0.184 0.836,0.184 -0.031,-0.032 -0.099,-0.046 -0.13,-0.027 0.085,-0.437 1.042,-0.539 1.303,-0.936 0.211,-0.31 1.101,-0.388 1.439,-0.379 0.393,0.031 1.057,-0.93 0.875,-1.173 -0.279,-0.369 0.119,-0.829 0.472,-0.788 0.354,0.033 0.031,0.668 0.716,0.381 0.259,-0.109 0.356,-0.097 0.426,-0.395 0.321,0.032 0.731,0.153 1.103,0.047 0.375,-0.105 0.598,-0.342 0.992,-0.422 0.844,-0.183 0.037,-1.736 -0.16,-2.112 -0.148,-0.283 0.285,-1.248 0.225,-1.673 -0.185,-0.725 -0.294,-0.986 -0.928,-1.385 -0.173,-0.111 -0.498,-0.456 -0.456,-0.695 0.061,-0.209 0.127,-0.415 0.197,-0.62 -0.118,-0.137 -0.176,-0.296 -0.173,-0.478 -0.001,0.003 -0.002,0.007 -0.002,0.009 -0.064,-0.467 -0.238,-0.879 -0.328,-1.352 -0.059,-0.315 -1.032,-0.464 -1.072,-0.361 0.185,-0.483 0.874,-0.28 0.55,-1.01 -0.116,-0.26 -0.515,-0.313 -0.751,-0.372 -0.279,-0.068 0.015,-0.387 0.009,-0.541 0.129,-0.301 -0.323,-0.158 -0.507,-0.207 -0.341,-0.093 0.518,-0.483 0.463,-0.364 0.084,-0.189 -0.206,-0.091 -0.268,-0.108 0.081,-0.178 0.348,-0.618 0.013,-0.775 -0.511,-0.311 0.389,-0.49 0.475,-0.74 2.203,-0.888 4.608,-1.382 7.126,-1.382 7.208,0 13.48,3.999 16.72,9.899 0.033,0.212 0.112,0.328 0.213,0.408 1.36,2.623 2.133,5.6 2.133,8.757 0,0.942 -0.092,1.859 -0.223,2.763 C 2.688,6.515 2.035,5.73 1.538,6.705" />
          </g>
          <g
             transform="translate(81.3398,87.2637)"
             id="g4330">
            <path
               inkscape:connector-curvature="0"
               id="path4332"
               style="fill:#FFFFFF;fill-opacity:1;fill-rule:nonzero;stroke:none"
               d="M 0,0 C -0.085,0.407 -0.19,0.807 -0.3,1.203 -0.187,0.807 -0.086,0.407 0,0" />
          </g>
          <g
             transform="translate(74.7148,98.165)"
             id="g4334">
            <path
               inkscape:connector-curvature="0"
               id="path4336"
               style="fill:#FFFFFF;fill-opacity:1;fill-rule:nonzero;stroke:none"
               d="m 0,0 c 0.329,-0.299 0.633,-0.591 0.889,-0.826 1.331,-1.226 2.486,-2.637 3.421,-4.183 -0.022,0 -0.043,-0.004 -0.06,-0.012 0.639,-0.926 1.133,-1.962 1.542,-3.034 -0.231,0.326 -1.008,0.807 -0.635,0.05 0.185,-0.372 0.634,-0.561 0.766,-0.929 0.092,0.017 0.043,0.139 0.119,0.148 C 6.132,-8.965 6.033,-9.167 6.209,-9.302 5.095,-5.607 2.918,-2.375 0,0" />
          </g>
        </g>
      </g>
    </g>
  </g>
</svg>
