<?xml version="1.0" encoding="UTF-8" standalone="no"?>
<svg
   xmlns:dc="http://purl.org/dc/elements/1.1/"
   xmlns:cc="http://creativecommons.org/ns#"
   xmlns:rdf="http://www.w3.org/1999/02/22-rdf-syntax-ns#"
   xmlns:svg="http://www.w3.org/2000/svg"
   xmlns="http://www.w3.org/2000/svg"
   xmlns:sodipodi="http://sodipodi.sourceforge.net/DTD/sodipodi-0.dtd"
   xmlns:inkscape="http://www.inkscape.org/namespaces/inkscape"
   inkscape:version="1.0beta1 (32d4812, 2019-09-19)"
   height="200pt"
   width="170pt"
   sodipodi:docname="search_button.svg"
   xml:space="preserve"
   viewBox="0 0 226.66665 266.66665"
   y="0px"
   x="0px"
   id="Layer_1"
   version="1.1"><style></style>
<metadata
   id="metadata25">
  <rdf:RDF>
    <cc:Work
       rdf:about="">
      <dc:format>image/svg+xml</dc:format>
      <dc:type
         rdf:resource="http://purl.org/dc/dcmitype/StillImage" />
      <dc:title></dc:title>
    </cc:Work>
  </rdf:RDF>
</metadata>
<defs
   id="defs23" />
<sodipodi:namedview
   inkscape:current-layer="Layer_1"
   inkscape:window-maximized="1"
   inkscape:window-y="23"
   inkscape:window-x="1280"
   inkscape:cy="457.14286"
   inkscape:cx="400"
   inkscape:zoom="0.35"
   units="pt"
   showgrid="false"
   id="namedview21"
   inkscape:window-height="1005"
   inkscape:window-width="1680"
   inkscape:pageshadow="2"
   inkscape:pageopacity="0"
   guidetolerance="10"
   gridtolerance="10"
   objecttolerance="10"
   borderopacity="1"
   inkscape:document-rotation="0"
   bordercolor="#666666"
   pagecolor="#FFFFFF" />

<path
   inkscape:connector-curvature="0"
   d="M 113.24638,13.333343 A 99.99998,99.99998 0 0 0 13.333333,113.3332 99.99998,99.99998 0 0 0 113.33319,213.33334 99.99998,99.99998 0 0 0 213.33333,113.3332 99.99998,99.99998 0 0 0 113.33319,13.333343 a 99.99998,99.99998 0 0 0 -0.0868,0 z m 18.86893,28.589067 c 3.17681,0.0109 6.37496,0.399399 9.56028,1.16334 5.02186,1.214261 9.80324,3.526365 14.21199,6.891019 4.40027,3.359857 7.9225,7.362562 10.44993,11.920311 2.56868,4.60347 4.22623,9.521772 4.94716,14.622094 0.71233,5.096653 0.47232,10.27174 -0.72925,15.405646 -1.16007,5.071536 -3.439,9.89429 -6.76203,14.34042 l -0.0334,0.0579 c -2.7511,3.84105 -6.09937,6.99819 -9.96073,9.39326 -3.93616,2.44475 -8.1295,4.23864 -12.45554,5.34101 -4.34214,1.08147 -8.78384,1.39188 -13.22532,0.93623 -4.51019,-0.45564 -8.84428,-1.68227 -12.88824,-3.62975 l -6.80613,-3.28993 1.96811,7.36727 c 0.42037,1.54094 0.48069,3.02431 0.20919,4.53265 -0.28166,1.50833 -0.8868,2.88402 -1.88516,4.20991 l -34.846463,46.58487 -0.05374,0.0703 c -1.609796,2.27457 -3.752054,3.57169 -6.565529,3.97343 -2.838028,0.3937 -5.353225,-0.26931 -7.636263,-2.01358 l -0.461644,-0.36435 c -2.32678,-1.76505 -3.650792,-4.02364 -4.052535,-6.89102 -0.400192,-2.87105 0.219282,-5.24526 1.96398,-7.47834 l 34.639208,-46.75493 c 1.017553,-1.247 2.22335,-2.22102 3.692318,-2.99558 1.394601,-0.73364 2.782317,-1.10234 4.149825,-1.10657 l 7.644253,-0.004 -5.05712,-5.81698 c -2.974767,-3.41841 -5.323812,-7.30067 -7.004023,-11.535558 -1.651424,-4.217813 -2.577463,-8.634951 -2.737059,-13.126096 -0.153247,-4.520919 0.422334,-9.029054 1.717311,-13.450208 1.28637,-4.379385 3.352219,-8.589329 6.144951,-12.5046 3.31653,-4.433853 7.27133,-7.9682 11.75274,-10.503685 4.55774,-2.58558 9.40989,-4.255227 14.42117,-4.955703 1.8832,-0.265748 3.78163,-0.395147 5.68772,-0.388607 z m -0.004,5.307653 c -1.64954,-0.0042 -3.29733,0.107957 -4.93806,0.334864 -4.36076,0.613128 -8.56253,2.055163 -12.48641,4.267786 -3.95478,2.233084 -7.43315,5.270153 -10.33143,9.016231 l -0.081,0.116032 c -2.75745,3.849227 -4.679697,8.063227 -5.719686,12.529678 -1.02983,4.425387 -1.239144,8.912474 -0.615433,13.333628 0.623288,4.425246 2.059308,8.676084 4.265579,12.629172 2.21488,3.994296 5.22284,7.520346 8.94761,10.478886 l 0.10997,0.0744 c 3.78516,2.7885 7.95348,4.78149 12.38691,5.92915 4.40238,1.11464 8.86909,1.37165 13.23634,0.76233 4.38376,-0.61736 8.59324,-2.09635 12.52967,-4.39181 3.93616,-2.32467 7.39188,-5.39033 10.27577,-9.09478 l 0.0741,-0.12016 c 2.75153,-3.832584 4.69925,-8.042313 5.793,-12.48421 1.11845,-4.425387 1.35904,-8.933471 0.72898,-13.387647 -0.62117,-4.44994 -2.10453,-8.721685 -4.3918,-12.68705 -2.30393,-3.98625 -5.32873,-7.487466 -9.01624,-10.408326 l -0.0995,-0.08682 c -3.8203,-2.796965 -8.00522,-4.752937 -12.43019,-5.81367 -2.73482,-0.660311 -5.48896,-0.99064 -8.23819,-0.9977 z m 6.87917,7.942465 c 15.34697,2.701432 25.5983,17.340238 22.8884,32.687629 -2.70143,15.347393 -17.34437,25.597923 -32.69177,22.892253 0,0 14.80037,-2.70119 18.79452,-25.345438 3.40586,-19.316566 -8.99115,-30.234444 -8.99115,-30.234444 z"
   style="fill:#3CB4E6;stroke-width:0.141111"
   id="circle12" />

<g
   id="g18">
	
	
</g>

</svg>
