<?xml version="1.0" encoding="UTF-8" standalone="no"?>
<!--
  ~ Copyright (c) 2017  STMicroelectronics – All rights reserved
  ~ The STMicroelectronics corporate logo is a trademark of STMicroelectronics
  ~
  ~ Redistribution and use in source and binary forms, with or without modification,
  ~ are permitted provided that the following conditions are met:
  ~
  ~ - Redistributions of source code must retain the above copyright notice, this list of conditions
  ~   and the following disclaimer.
  ~
  ~ - Redistributions in binary form must reproduce the above copyright notice, this list of
  ~   conditions and the following disclaimer in the documentation and/or other materials provided
  ~   with the distribution.
  ~
  ~ - Neither the name nor trademarks of STMicroelectronics International N.V. nor any other
  ~   STMicroelectronics company nor the names of its contributors may be used to endorse or
  ~   promote products derived from this software without specific prior written permission.
  ~
  ~ - All of the icons, pictures, logos and other images that are provided with the source code
  ~   in a directory whose title begins with st_images may only be used for internal purposes and
  ~   shall not be redistributed to any third party or modified in any way.
  ~
  ~ - Any redistributions in binary form shall not include the capability to display any of the
  ~   icons, pictures, logos and other images that are provided with the source code in a directory
  ~   whose title begins with st_images.
  ~
  ~ THIS SOFTWARE IS PROVIDED BY THE COPYRIGHT HOLDERS AND CONTRIBUTORS "AS IS" AND ANY EXPRESS OR
  ~ IMPLIED WARRANTIES, INCLUDING, BUT NOT LIMITED TO, THE IMPLIED WARRANTIES OF MERCHANTABILITY
  ~ AND FITNESS FOR A PARTICULAR PURPOSE ARE DISCLAIMED. IN NO EVENT SHALL THE COPYRIGHT HOLDER
  ~ OR CONTRIBUTORS BE LIABLE FOR ANY DIRECT, INDIRECT, INCIDENTAL, SPECIAL, EXEMPLARY, OR
  ~ CONSEQUENTIAL DAMAGES (INCLUDING, BUT NOT LIMITED TO, PROCUREMENT OF SUBSTITUTE GOODS OR
  ~ SERVICES; LOSS OF USE, DATA, OR PROFITS; OR BUSINESS INTERRUPTION) HOWEVER CAUSED AND ON ANY
  ~ THEORY OF LIABILITY, WHETHER IN CONTRACT, STRICT LIABILITY, OR TORT (INCLUDING NEGLIGENCE OR
  ~ OTHERWISE) ARISING IN ANY WAY OUT OF THE USE OF THIS SOFTWARE, EVEN IF ADVISED OF THE POSSIBILITY
  ~ OF SUCH DAMAGE.
  -->

<svg
   xmlns:dc="http://purl.org/dc/elements/1.1/"
   xmlns:cc="http://creativecommons.org/ns#"
   xmlns:rdf="http://www.w3.org/1999/02/22-rdf-syntax-ns#"
   xmlns="http://www.w3.org/2000/svg"
   xml:space="preserve"
   enable-background="new 0 0 400 400"
   viewBox="0 0 187.5 212.5"
   height="170pt"
   width="150pt"
   y="0px"
   x="0px"
   id="Layer_1"
   version="1.1"><metadata
     id="metadata3464"><rdf:RDF><cc:Work
         rdf:about=""><dc:format>image/svg+xml</dc:format><dc:type
           rdf:resource="http://purl.org/dc/dcmitype/StillImage" /><dc:title></dc:title></cc:Work></rdf:RDF></metadata><defs
     id="defs3462" /><g
     transform="matrix(0.43619227,0,0,0.43619227,6.5113758,6.5115757)"
     id="g3424"><path
       style="fill:#bbcc00"
       id="path3426"
       d="m 197.496,386.271 c -1.974,0 -3.944,-0.037 -5.934,-0.109 -2.102,-0.078 -4.274,-0.207 -6.463,-0.381 l 0.808,-10.103 c 2.045,0.163 4.073,0.282 6.03,0.355 1.857,0.068 3.711,0.102 5.555,0.102 77.029,0.002 141.729,-58.855 148.5,-136.269 2.245,-25.606 -2.174,-51.452 -12.781,-74.742 l 9.224,-4.201 c 11.33,24.879 16.052,52.483 13.655,79.827 -7.233,82.665 -76.334,145.516 -158.594,145.521 z" /><path
       style="fill:#d4007a"
       id="path3428"
       d="m 181.895,383.868 c -2.313,-0.226 -4.396,-0.468 -6.369,-0.742 -38.71,-5.371 -73.896,-24.85 -99.076,-54.848 -25.18,-29.998 -38.26,-68.02 -36.83,-107.062 0.095,-2.702 0.265,-5.432 0.502,-8.11 0.244,-2.747 0.55,-5.462 0.909,-8.068 3.39,-24.396 12.172,-47.059 26.104,-67.359 l 3.482,2.389 c -13.559,19.756 -22.106,41.81 -25.404,65.549 -0.35,2.536 -0.646,5.183 -0.885,7.863 -0.232,2.604 -0.396,5.258 -0.49,7.888 -2.889,78.971 53.975,146.712 132.269,157.575 1.915,0.265 3.942,0.501 6.197,0.721 l -0.409,4.204 z" /><path
       style="fill:#39a9dc"
       id="path3430"
       d="m 196.559,361.446 c -1.665,0 -3.33,-0.03 -5.001,-0.091 -2.317,-0.083 -4.677,-0.228 -7.007,-0.433 -2.385,-0.209 -4.728,-0.474 -6.966,-0.787 -21.062,-2.925 -40.622,-10.506 -58.135,-22.531 l 2.868,-4.177 c 16.859,11.576 35.688,18.874 55.967,21.689 2.153,0.301 4.41,0.556 6.709,0.758 2.244,0.197 4.514,0.337 6.747,0.417 67.411,2.477 125.274,-46.081 134.56,-112.941 0.23,-1.699 0.436,-3.483 0.612,-5.295 l 5.044,0.489 c -0.183,1.876 -0.396,3.725 -0.637,5.495 -4.641,33.423 -21.456,63.794 -47.348,85.528 -24.611,20.657 -55.481,31.879 -87.413,31.879 z" /><path
       style="fill:#002052"
       id="path3432"
       d="m 193.696,19.644 c 2.336,-3.552 6.321,-5.896 10.854,-5.915 7.229,-0.033 13.115,5.851 13.151,13.143 0.019,6.283 -4.314,11.557 -10.137,12.907 l 0.041,0.099 c 0,0 -17.633,1.003 -25.18,18.522 10e-4,0 2.719,-27.38 11.271,-38.756" /><polygon
       style="fill:#d4007a"
       id="polygon3434"
       points="122.598,76.287 105.408,23.838 76.253,38.236 " /><path
       style="fill:#39a9dc"
       id="path3436"
       d="M 181.955,322.75 C 117.287,311.057 74.34,249.153 86.038,184.477 97.726,119.807 159.635,76.864 224.303,88.559 c 64.674,11.691 107.625,73.598 95.932,138.271 -11.701,64.673 -73.609,107.613 -138.28,95.92" /><path
       style="fill:#39a9dc"
       id="path3438"
       d="m 261.264,225.536 c -45.743,-8.272 -76.084,-52.196 -67.786,-98.111 8.308,-45.924 52.117,-76.454 97.856,-68.187 45.742,8.283 76.084,52.209 67.786,98.13 -8.305,45.922 -52.117,76.44 -97.856,68.168" /><g
       id="g3440"><path
         style="clip-rule:evenodd;fill:#002052;fill-rule:evenodd"
         id="path3442"
         d="m 303.912,156.922 c -0.054,0.56 -0.062,3.075 0.422,1.704 0.061,-0.563 0.064,-3.081 -0.422,-1.704 z" /><path
         style="clip-rule:evenodd;fill:#002052;fill-rule:evenodd"
         id="path3444"
         d="m 304.762,166.702 c 0.119,-0.576 -0.263,-1.659 -0.428,-0.853 -0.112,0.581 0.267,1.659 0.428,0.853 z" /><path
         style="clip-rule:evenodd;fill:#002052;fill-rule:evenodd"
         id="path3446"
         d="m 302.809,173.929 c 0.969,0.449 -0.347,2.671 -0.086,3.827 -28.712,29.108 -57.923,57.969 -87.41,86.303 -0.048,-1.227 0.105,-2.784 -0.551,-3.398 -7.511,-2.701 -15.367,-5.103 -23.021,-7.657 -0.729,-0.094 -1.086,0.481 -0.031,0.427 7.671,3.241 15.45,6.349 22.938,9.781 -21.618,-6.97 -46.18,-15.696 -68.027,-23.811 -11.27,-4.18 -25.301,-7.436 -28.914,-18.282 1.002,0.13 0.246,2.018 1.699,1.702 0.433,-3.792 -1.85,-7.048 1.271,-9.78 2.059,-0.667 3.932,-0.648 5.524,-0.847 -0.729,0.022 -1.089,-0.327 -1.276,-0.851 14.87,4.657 28.227,10.081 42.571,15.306 14.298,5.194 28.394,11.165 42.577,15.73 0,-0.854 0,-1.702 0,-2.552 5.674,-0.448 2.203,0.014 3.341,-0.853 28.046,-28.917 57.633,-56.695 86.701,-84.604 -0.021,-3.288 4.194,-4.787 2.753,-8.075 -30.061,30.881 -61.139,60.64 -92.163,90.557 -14.77,-5.923 -30.436,-10.899 -45.016,-17.007 15.371,5.321 30.391,11.017 45.514,16.577 22.975,-22.941 48.54,-47.667 71.442,-70.574 0.188,-0.186 0.222,-0.418 0.133,-0.696 L 302.232,146.3 234.745,127.75 c -1.643,-0.573 -3.398,-1.044 -5.229,-1.441 -10.131,9.145 -17.235,18.761 -27.199,28.067 0.193,0.526 -1.231,1.027 -0.851,1.276 l -1.279,1.275 c -0.594,-0.355 -3.321,1.98 -2.974,2.548 l -5.103,3.827 c -0.015,-0.219 -0.174,-1.572 -0.438,-1.699 0.377,1.357 -1.098,0.875 -1.271,1.696 0.054,0.119 0.345,2.516 0.432,2.554 l -0.859,-1.704 0,0 c -8.906,7.366 -17.639,15.173 -26.355,23.379 -0.871,0.823 -8.452,7.475 -8.505,7.658 0.606,-1.979 8.325,-4.818 10.209,-7.647 10.204,-15.306 40.268,-38.579 59.514,-57.825 1.343,-1.343 3.814,-2.573 3.827,-4.795 -5.43,-0.959 -9.521,-4.377 -14.879,-4.377 -0.854,0 -1.701,0 -2.554,0 -4.825,0 -12.522,9.563 -16.577,13.342 -12.336,11.458 -24.686,22.98 -36.387,34.463 l 0,0 0.743,0.022 0,-0.02 -0.706,-0.008 c -0.226,0.128 -1.087,0.576 -1.608,1.238 -1.863,1.87 -3.87,3.743 -5.653,5.624 -0.787,-0.808 1.767,-1.806 2.036,-2.975 -2.815,2.147 -4.835,5.13 -7.271,7.649 -0.786,-0.81 1.836,-1.798 2.107,-2.976 -3.103,1.487 -4.07,5.81 -7.25,7.233 -1.097,0.488 -4.352,4.081 -6.378,5.949 -2.024,1.872 -3.961,3.344 -5.956,5.103 -4.872,4.304 -7.651,9.488 -13.312,12.324 -0.67,1.599 -1.398,2.998 -1.398,4.683 0,1.98 0,3.967 0,5.953 0,16.553 17.814,18.777 32.436,24.319 22.48,8.513 50.115,20.874 69.85,25.592 0.146,0 0.29,0 0.429,0 30.155,-25.941 60.546,-59.573 90.556,-93.615 0.145,0 2.471,0 2.471,0 0,0 0,2.886 0,2.036 -0.004,-1.193 -5.446,-2.647 -6.554,-2.549 z m -143.8,-5.593 0,-0.006 0,0.006 z m -1.31,0.674 -0.002,0 0.002,0 z m -0.036,-0.241 -0.007,0 0.007,0 z" /><path
         style="clip-rule:evenodd;fill:#002052;fill-rule:evenodd"
         id="path3448"
         d="m 144.452,182.756 c -0.313,0.224 -0.648,0.465 -0.709,0.507 0.04,-0.025 0.245,-0.172 0.709,-0.507 z" /><path
         style="clip-rule:evenodd;fill:#002052;fill-rule:evenodd"
         id="path3450"
         d="m 144.971,182.385 c 0.035,-0.022 0.062,-0.04 0.064,-0.045 -0.009,0.006 -0.029,0.023 -0.064,0.045 z" /><path
         style="clip-rule:evenodd;fill:#002052;fill-rule:evenodd"
         id="path3452"
         d="m 144.908,182.432 c -0.178,0.122 -0.321,0.233 -0.456,0.325 0.221,-0.156 0.421,-0.297 0.519,-0.371 -0.016,0.012 -0.033,0.026 -0.063,0.046 z" /><path
         style="clip-rule:evenodd;fill:#002052;fill-rule:evenodd"
         id="path3454"
         d="m 210.806,245.354 c 1.662,0.886 4.013,1.084 5.099,2.548 0.483,-2.27 -5.122,-2.628 -5.099,-2.548 z" /><path
         style="clip-rule:evenodd;fill:#002052;fill-rule:evenodd"
         id="path3456"
         d="m 216.759,252.58 c -5.837,-1.961 -12.45,-5.404 -18.279,-5.948 1.358,0.905 2.982,1.551 4.25,2.549 -3.033,-0.796 -5.653,-2 -8.931,-2.549 -0.842,-1.006 -0.842,0.036 0,0.421 7.968,2.235 15.713,6.965 23.387,8.075 -0.946,-0.049 -0.18,-1.803 -0.427,-2.548 z" /><path
         style="clip-rule:evenodd;fill:#002052;fill-rule:evenodd"
         id="path3458"
         d="m 216.764,256.833 c 0.023,0.833 -2.536,-0.488 -1.696,0.426 0.557,0.432 1.703,0.418 2.129,0.848 0,-0.286 0,-0.565 0,-0.848 -0.001,-0.261 -0.073,-0.508 -0.433,-0.426 z" /></g></g></svg>