<?xml version="1.0" encoding="UTF-8" standalone="no"?>
<!--
  ~ Copyright (c) 2017  STMicroelectronics – All rights reserved
  ~ The STMicroelectronics corporate logo is a trademark of STMicroelectronics
  ~
  ~ Redistribution and use in source and binary forms, with or without modification,
  ~ are permitted provided that the following conditions are met:
  ~
  ~ - Redistributions of source code must retain the above copyright notice, this list of conditions
  ~   and the following disclaimer.
  ~
  ~ - Redistributions in binary form must reproduce the above copyright notice, this list of
  ~   conditions and the following disclaimer in the documentation and/or other materials provided
  ~   with the distribution.
  ~
  ~ - Neither the name nor trademarks of STMicroelectronics International N.V. nor any other
  ~   STMicroelectronics company nor the names of its contributors may be used to endorse or
  ~   promote products derived from this software without specific prior written permission.
  ~
  ~ - All of the icons, pictures, logos and other images that are provided with the source code
  ~   in a directory whose title begins with st_images may only be used for internal purposes and
  ~   shall not be redistributed to any third party or modified in any way.
  ~
  ~ - Any redistributions in binary form shall not include the capability to display any of the
  ~   icons, pictures, logos and other images that are provided with the source code in a directory
  ~   whose title begins with st_images.
  ~
  ~ THIS SOFTWARE IS PROVIDED BY THE COPYRIGHT HOLDERS AND CONTRIBUTORS "AS IS" AND ANY EXPRESS OR
  ~ IMPLIED WARRANTIES, INCLUDING, BUT NOT LIMITED TO, THE IMPLIED WARRANTIES OF MERCHANTABILITY
  ~ AND FITNESS FOR A PARTICULAR PURPOSE ARE DISCLAIMED. IN NO EVENT SHALL THE COPYRIGHT HOLDER
  ~ OR CONTRIBUTORS BE LIABLE FOR ANY DIRECT, INDIRECT, INCIDENTAL, SPECIAL, EXEMPLARY, OR
  ~ CONSEQUENTIAL DAMAGES (INCLUDING, BUT NOT LIMITED TO, PROCUREMENT OF SUBSTITUTE GOODS OR
  ~ SERVICES; LOSS OF USE, DATA, OR PROFITS; OR BUSINESS INTERRUPTION) HOWEVER CAUSED AND ON ANY
  ~ THEORY OF LIABILITY, WHETHER IN CONTRACT, STRICT LIABILITY, OR TORT (INCLUDING NEGLIGENCE OR
  ~ OTHERWISE) ARISING IN ANY WAY OUT OF THE USE OF THIS SOFTWARE, EVEN IF ADVISED OF THE POSSIBILITY
  ~ OF SUCH DAMAGE.
  -->

<svg  xmlns="http://www.w3.org/2000/svg" enable-background="new 0 0 140 140" xml:space="preserve" height="140pt" viewBox="0 0 175 175" width="140pt" version="1.1" y="0px" x="0px"  ><g fill="#39a9dc"><rect height="28.999" width="7.5" y="80.5" x="123.62"/><rect height="28.999" width="7.5" y="80.5" x="97.024"/><rect height="28.999" width="7.5" y="80.5" x="70.435"/><rect height="28.999" width="7.5" y="80.5" x="43.845"/><polygon points="64.045 55.61 64.045 57.61 64.045 69.438 75.316 69.438 75.316 57.61 75.316 55.61 77.316 55.61 83.316 55.61 85.316 55.61 85.316 57.61 85.316 69.438 96.589 69.438 96.589 57.61 96.589 55.61 98.589 55.61 104.59 55.61 106.59 55.61 106.59 57.61 106.59 69.438 129.7 69.438 129.7 45.611 45.281 45.611 45.281 48.611 30.281 48.611 30.281 45.611 9.697 45.611 9.697 69.438 32.773 69.438 32.773 57.61 32.773 55.61 34.773 55.61 40.773 55.61 42.773 55.61 42.773 57.61 42.773 69.438 54.045 69.438 54.045 57.61 54.045 55.61 56.045 55.61 62.045 55.61" transform="matrix(1.25 0 0 1.25 .37875 8.4875)"/></g></svg>
