<?xml version="1.0" encoding="UTF-8" standalone="no"?>
<!--
  ~ Copyright (c) 2017  STMicroelectronics – All rights reserved
  ~ The STMicroelectronics corporate logo is a trademark of STMicroelectronics
  ~
  ~ Redistribution and use in source and binary forms, with or without modification,
  ~ are permitted provided that the following conditions are met:
  ~
  ~ - Redistributions of source code must retain the above copyright notice, this list of conditions
  ~   and the following disclaimer.
  ~
  ~ - Redistributions in binary form must reproduce the above copyright notice, this list of
  ~   conditions and the following disclaimer in the documentation and/or other materials provided
  ~   with the distribution.
  ~
  ~ - Neither the name nor trademarks of STMicroelectronics International N.V. nor any other
  ~   STMicroelectronics company nor the names of its contributors may be used to endorse or
  ~   promote products derived from this software without specific prior written permission.
  ~
  ~ - All of the icons, pictures, logos and other images that are provided with the source code
  ~   in a directory whose title begins with st_images may only be used for internal purposes and
  ~   shall not be redistributed to any third party or modified in any way.
  ~
  ~ - Any redistributions in binary form shall not include the capability to display any of the
  ~   icons, pictures, logos and other images that are provided with the source code in a directory
  ~   whose title begins with st_images.
  ~
  ~ THIS SOFTWARE IS PROVIDED BY THE COPYRIGHT HOLDERS AND CONTRIBUTORS "AS IS" AND ANY EXPRESS OR
  ~ IMPLIED WARRANTIES, INCLUDING, BUT NOT LIMITED TO, THE IMPLIED WARRANTIES OF MERCHANTABILITY
  ~ AND FITNESS FOR A PARTICULAR PURPOSE ARE DISCLAIMED. IN NO EVENT SHALL THE COPYRIGHT HOLDER
  ~ OR CONTRIBUTORS BE LIABLE FOR ANY DIRECT, INDIRECT, INCIDENTAL, SPECIAL, EXEMPLARY, OR
  ~ CONSEQUENTIAL DAMAGES (INCLUDING, BUT NOT LIMITED TO, PROCUREMENT OF SUBSTITUTE GOODS OR
  ~ SERVICES; LOSS OF USE, DATA, OR PROFITS; OR BUSINESS INTERRUPTION) HOWEVER CAUSED AND ON ANY
  ~ THEORY OF LIABILITY, WHETHER IN CONTRACT, STRICT LIABILITY, OR TORT (INCLUDING NEGLIGENCE OR
  ~ OTHERWISE) ARISING IN ANY WAY OUT OF THE USE OF THIS SOFTWARE, EVEN IF ADVISED OF THE POSSIBILITY
  ~ OF SUCH DAMAGE.
  -->

<!-- Generator: Adobe Illustrator 16.0.0, SVG Export Plug-In . SVG Version: 6.00 Build 0)  -->

<svg
   xmlns:dc="http://purl.org/dc/elements/1.1/"
   xmlns:cc="http://creativecommons.org/ns#"
   xmlns:rdf="http://www.w3.org/1999/02/22-rdf-syntax-ns#"
   xmlns="http://www.w3.org/2000/svg"
   xmlns:sodipodi="http://sodipodi.sourceforge.net/DTD/sodipodi-0.dtd"
   xmlns:inkscape="http://www.inkscape.org/namespaces/inkscape"
   version="1.1"
   id="svg3567"
   inkscape:version="0.91 r13725"
   sodipodi:docname="acc_event_tap_double.svg"
   x="0px"
   y="0px"
   width="140pt"
   height="140pt"
   viewBox="0 0 175 175"
   enable-background="new 0 0 140 140"
   xml:space="preserve"><metadata
     id="metadata8153"><rdf:RDF><cc:Work
         rdf:about=""><dc:format>image/svg+xml</dc:format><dc:type
           rdf:resource="http://purl.org/dc/dcmitype/StillImage" /><dc:title></dc:title></cc:Work></rdf:RDF></metadata><defs
     id="defs8151" /><sodipodi:namedview
     units="pt"
     fit-margin-bottom="10"
     fit-margin-right="10"
     id="base"
     inkscape:window-maximized="1"
     inkscape:pageopacity="0.0"
     inkscape:window-width="1280"
     inkscape:pageshadow="2"
     inkscape:window-x="-8"
     inkscape:window-height="962"
     inkscape:document-units="px"
     inkscape:window-y="-8"
     inkscape:current-layer="svg3567"
     borderopacity="1.0"
     inkscape:zoom="0.98994949"
     pagecolor="#ffffff"
     inkscape:cy="-111.36542"
     bordercolor="#666666"
     inkscape:cx="-155.38205"
     fit-margin-left="10"
     fit-margin-top="10"
     showgrid="false" /><g
     id="g8695"
     transform="matrix(1.1810808,0,0,1.1810808,5.5631098,-35.773132)"><circle
       style="fill:none;stroke:#d4007a;stroke-width:2.5;stroke-miterlimit:10"
       id="circle8145"
       r="15.578"
       cy="68.296997"
       cx="47.459"
       stroke-miterlimit="10" /><circle
       style="fill:none;stroke:#d4007a;stroke-width:2.5;stroke-miterlimit:10"
       id="circle8147"
       r="26.174999"
       cy="68.296997"
       cx="47.459"
       stroke-miterlimit="10" /><path
       style="fill:#39a9dc"
       inkscape:connector-curvature="0"
       id="path8149"
       d="m 115.681,144.929 c -0.975,-1.58 -2,-3.268 -3.07,-5.078 -1.072,-1.807 -1.002,-3.568 0.205,-5.271 0.611,-2.146 0.703,-3.965 0.285,-5.455 -0.4,-1.482 -1.259,-3.123 -2.543,-4.926 -0.834,-0.971 -1.695,-1.99 -2.604,-3.068 -0.907,-1.063 -1.759,-2.168 -2.563,-3.303 -1.281,-1.801 -2.158,-3.531 -2.629,-5.188 -0.928,-1.912 -1.998,-3.717 -3.205,-5.418 C 97.329,104.097 92.752,99.22 85.835,92.593 79.483,86.524 72.916,79.059 72.916,79.059 l -1.902,-1.657 -5.909,-4.289 c 0,0 -1.141,-0.844 -1.756,-1.305 -1.445,-1.073 -3.934,-2.855 -3.934,-2.855 l -2.67,-1.832 c 0,0 -2.875,-1.814 -3.789,-2.24 -1.556,-1.604 -3.436,-1.622 -5.61,-0.078 -0.85,0.607 -1.47,1.34 -1.864,2.192 -0.558,0.814 -0.638,1.704 -0.265,2.638 0.39,0.937 0.798,1.816 1.238,2.644 1.703,1.677 16.491,16.061 16.491,16.061 l 1.697,1.652 c 0,0 5.048,4.945 7.578,7.381 0.243,0.533 0.528,1.05 0.865,1.522 -0.21,0.287 -0.408,0.508 -0.607,0.644 -0.959,-0.747 -2.025,-1.451 -3.207,-2.106 -1.173,-0.654 -2.312,-1.247 -3.39,-1.759 -0.888,-0.642 -1.716,-0.918 -2.494,-0.799 -0.767,0.132 -1.522,0.455 -2.279,0.991 -0.194,0.142 -0.645,0.57 -1.339,1.281 -0.706,0.716 -1.56,1.573 -2.565,2.563 -0.577,0.98 -0.781,1.955 -0.618,2.9 0.178,0.938 0.65,2.142 1.397,3.61 -1.244,0.455 -2.451,1.418 -3.615,2.88 -1.166,1.473 -1.598,2.86 -1.323,4.155 0.278,1.299 0.865,2.556 1.736,3.787 0.931,0.912 0.843,1.94 -0.266,3.086 -1.11,1.142 -1.502,2.344 -1.173,3.604 0.324,1.26 0.854,2.502 1.558,3.709 0.716,1.197 1.75,2.74 3.097,4.633 0.674,0.949 1.795,2.437 3.369,4.455 1.581,2 2.734,3.537 3.475,4.58 2.151,3.025 5.864,6.271 11.109,9.748 5.244,3.457 8.688,6.043 10.318,7.729 0.785,0.72 1.569,2.056 2.318,4.019 0.747,1.959 1.292,3.178 1.629,3.658 1.006,1.405 2.436,1.903 4.26,1.452 3.812,-0.437 6.736,-0.94 8.754,-1.519 2.004,-0.582 4.063,-1.61 6.138,-3.088 1.614,-1.151 2.899,-2.344 3.86,-3.597 l 5.487,-8.827 -3.034,-5.753 z" /></g></svg>