<?xml version="1.0" encoding="UTF-8" standalone="no"?>
<!--
  ~ Copyright (c) 2017  STMicroelectronics – All rights reserved
  ~ The STMicroelectronics corporate logo is a trademark of STMicroelectronics
  ~
  ~ Redistribution and use in source and binary forms, with or without modification,
  ~ are permitted provided that the following conditions are met:
  ~
  ~ - Redistributions of source code must retain the above copyright notice, this list of conditions
  ~   and the following disclaimer.
  ~
  ~ - Redistributions in binary form must reproduce the above copyright notice, this list of
  ~   conditions and the following disclaimer in the documentation and/or other materials provided
  ~   with the distribution.
  ~
  ~ - Neither the name nor trademarks of STMicroelectronics International N.V. nor any other
  ~   STMicroelectronics company nor the names of its contributors may be used to endorse or
  ~   promote products derived from this software without specific prior written permission.
  ~
  ~ - All of the icons, pictures, logos and other images that are provided with the source code
  ~   in a directory whose title begins with st_images may only be used for internal purposes and
  ~   shall not be redistributed to any third party or modified in any way.
  ~
  ~ - Any redistributions in binary form shall not include the capability to display any of the
  ~   icons, pictures, logos and other images that are provided with the source code in a directory
  ~   whose title begins with st_images.
  ~
  ~ THIS SOFTWARE IS PROVIDED BY THE COPYRIGHT HOLDERS AND CONTRIBUTORS "AS IS" AND ANY EXPRESS OR
  ~ IMPLIED WARRANTIES, INCLUDING, BUT NOT LIMITED TO, THE IMPLIED WARRANTIES OF MERCHANTABILITY
  ~ AND FITNESS FOR A PARTICULAR PURPOSE ARE DISCLAIMED. IN NO EVENT SHALL THE COPYRIGHT HOLDER
  ~ OR CONTRIBUTORS BE LIABLE FOR ANY DIRECT, INDIRECT, INCIDENTAL, SPECIAL, EXEMPLARY, OR
  ~ CONSEQUENTIAL DAMAGES (INCLUDING, BUT NOT LIMITED TO, PROCUREMENT OF SUBSTITUTE GOODS OR
  ~ SERVICES; LOSS OF USE, DATA, OR PROFITS; OR BUSINESS INTERRUPTION) HOWEVER CAUSED AND ON ANY
  ~ THEORY OF LIABILITY, WHETHER IN CONTRACT, STRICT LIABILITY, OR TORT (INCLUDING NEGLIGENCE OR
  ~ OTHERWISE) ARISING IN ANY WAY OUT OF THE USE OF THIS SOFTWARE, EVEN IF ADVISED OF THE POSSIBILITY
  ~ OF SUCH DAMAGE.
  -->

<svg xmlns:dc="http://purl.org/dc/elements/1.1/" xmlns:cc="http://creativecommons.org/ns#" xmlns:rdf="http://www.w3.org/1999/02/22-rdf-syntax-ns#"
    xmlns="http://www.w3.org/2000/svg" version="1.1" id="svg2" viewBox="0 0 125 125" height="100pt"
    width="100pt">
  <defs
     id="defs4">
    <clipPath
       clipPathUnits="userSpaceOnUse"
       id="clipPath4162">
      <path
         d="m 0,85.04 85.04,0 L 85.04,0 0,0 0,85.04 Z"
         id="path4164" />
    </clipPath>
  </defs>
  <metadata
     id="metadata7">
    <rdf:RDF>
      <cc:Work
         rdf:about="">
        <dc:format>image/svg+xml</dc:format>
        <dc:type
           rdf:resource="http://purl.org/dc/dcmitype/StillImage" />
        <dc:title></dc:title>
      </cc:Work>
    </rdf:RDF>
  </metadata>
  <g
     transform="translate(0,-927.36222)"
     id="layer1">
    <g
       style="fill:#000000"
       id="g4144"
       transform="matrix(1.25,0,0,-1.25,9.3496875,1043.0122)">
      <g
         style="fill:#000000"
         id="g4146"
         transform="translate(49.0352,43.1084)">
        <path
           d="m 0,0 1.747,0 0,27.035 L 4.012,26.092 0.873,31.137 -2.266,26.092 0,27.035 0,0 Z"
           style="fill:#000000;fill-opacity:1;fill-rule:evenodd;stroke:none"
           id="path4148" />
      </g>
      <g
         style="fill:#000000"
         id="g4150"
         transform="translate(63.918,15.3896)">
        <path
           d="m 0,0 -7.061,12.538 -1.895,0 7.348,-12.971 -1.955,-0.14 L 1.891,-4.595 1.271,0.842 0,0 Z"
           style="fill:#000000;fill-opacity:1;fill-rule:evenodd;stroke:none"
           id="path4152" />
      </g>
      <g
         style="fill:#000000"
         id="g4154"
         transform="translate(27.6089,37.3066)">
        <path
           d="M 0,0 -0.827,1.316 -21.8,1.279 -21.663,2.634 -25.687,0.405 -20.19,-1.81 -21.336,-0.028 0,0 Z"
           style="fill:#000000;fill-opacity:1;fill-rule:evenodd;stroke:none"
           id="path4156" />
      </g>
      <g
         style="fill:#000000"
         id="g4158">
        <g
           style="fill:#000000"
           id="g4160"
           clip-path="url(#clipPath4162)">
          <g
             style="fill:#000000"
             id="g4166"
             transform="translate(58.8896,52.4326)">
            <path
               d="m 0,0 -6.717,0 0,-10.413 -4.529,0 0,10.413 -24.917,0 c 1.579,-2.594 9.565,-15.705 12.115,-19.889 l 48.277,0 C 22.784,-18.705 1.787,-1.469 0,0"
               style="fill:#000000;fill-opacity:1;fill-rule:evenodd;stroke:none"
               id="path4168" />
          </g>
          <g
             style="fill:#000000"
             id="g4170"
             transform="translate(21.9551,50.875)">
            <path
               d="m 0,0 c 0.077,-1.474 0.152,-2.925 0.227,-4.357 0.074,-1.415 0.146,-2.815 0.218,-4.194 0.489,-0.83 0.986,-1.674 1.483,-2.517 l 3.35,-0.003 2.251,-3.574 -3.494,0 c 0.637,-1.082 1.277,-2.167 1.925,-3.269 1.937,-3.287 3.927,-6.666 5.972,-10.138 l 0,4.142 0,4.318 C 9.803,-16.097 7.732,-12.696 5.72,-9.393 3.761,-6.179 1.855,-3.047 0,0"
               style="fill:#000000;fill-opacity:1;fill-rule:evenodd;stroke:none"
               id="path4172" />
          </g>
          <g
             style="fill:#000000"
             id="g4174"
             transform="translate(35.0669,22.5928)">
            <path
               d="m 0,0 21.349,0 -3.189,5.932 0.703,0 3.403,0 0.607,0 3.489,-5.932 21.689,0 0,8.588 L 0,8.588 0,0 Z"
               style="fill:#000000;fill-opacity:1;fill-rule:evenodd;stroke:none"
               id="path4176" />
          </g>
        </g>
      </g>
    </g>
  </g>
</svg>
