<?xml version="1.0" encoding="UTF-8" standalone="no"?>
<!--
  ~ Copyright (c) 2017  STMicroelectronics – All rights reserved
  ~ The STMicroelectronics corporate logo is a trademark of STMicroelectronics
  ~
  ~ Redistribution and use in source and binary forms, with or without modification,
  ~ are permitted provided that the following conditions are met:
  ~
  ~ - Redistributions of source code must retain the above copyright notice, this list of conditions
  ~   and the following disclaimer.
  ~
  ~ - Redistributions in binary form must reproduce the above copyright notice, this list of
  ~   conditions and the following disclaimer in the documentation and/or other materials provided
  ~   with the distribution.
  ~
  ~ - Neither the name nor trademarks of STMicroelectronics International N.V. nor any other
  ~   STMicroelectronics company nor the names of its contributors may be used to endorse or
  ~   promote products derived from this software without specific prior written permission.
  ~
  ~ - All of the icons, pictures, logos and other images that are provided with the source code
  ~   in a directory whose title begins with st_images may only be used for internal purposes and
  ~   shall not be redistributed to any third party or modified in any way.
  ~
  ~ - Any redistributions in binary form shall not include the capability to display any of the
  ~   icons, pictures, logos and other images that are provided with the source code in a directory
  ~   whose title begins with st_images.
  ~
  ~ THIS SOFTWARE IS PROVIDED BY THE COPYRIGHT HOLDERS AND CONTRIBUTORS "AS IS" AND ANY EXPRESS OR
  ~ IMPLIED WARRANTIES, INCLUDING, BUT NOT LIMITED TO, THE IMPLIED WARRANTIES OF MERCHANTABILITY
  ~ AND FITNESS FOR A PARTICULAR PURPOSE ARE DISCLAIMED. IN NO EVENT SHALL THE COPYRIGHT HOLDER
  ~ OR CONTRIBUTORS BE LIABLE FOR ANY DIRECT, INDIRECT, INCIDENTAL, SPECIAL, EXEMPLARY, OR
  ~ CONSEQUENTIAL DAMAGES (INCLUDING, BUT NOT LIMITED TO, PROCUREMENT OF SUBSTITUTE GOODS OR
  ~ SERVICES; LOSS OF USE, DATA, OR PROFITS; OR BUSINESS INTERRUPTION) HOWEVER CAUSED AND ON ANY
  ~ THEORY OF LIABILITY, WHETHER IN CONTRACT, STRICT LIABILITY, OR TORT (INCLUDING NEGLIGENCE OR
  ~ OTHERWISE) ARISING IN ANY WAY OUT OF THE USE OF THIS SOFTWARE, EVEN IF ADVISED OF THE POSSIBILITY
  ~ OF SUCH DAMAGE.
  -->

<svg  xmlns="http://www.w3.org/2000/svg" enable-background="new 0 0 140 140" xml:space="preserve" height="140pt" viewBox="0 0 175 175" width="140pt" version="1.1"  y="0px" x="0px"  ><g fill="#39a9dc"><rect height="28.997" width="7.5" y="65.501" x="43.886"/><rect height="28.997" width="7.5" y="65.501" x="70.475"/><rect height="28.997" width="7.5" y="65.501" x="97.066"/><rect height="28.997" width="7.5" y="65.501" x="123.66"/><polygon points="64.077 68.81 64.077 70.81 62.077 70.81 56.077 70.81 54.077 70.81 54.077 68.81 54.077 56.982 42.806 56.982 42.806 68.81 42.806 70.81 40.806 70.81 34.806 70.81 32.806 70.81 32.806 68.81 32.806 56.982 9.697 56.982 9.697 80.809 94.113 80.809 94.113 77.809 109.11 77.809 109.11 80.809 129.7 80.809 129.7 56.982 106.62 56.982 106.62 68.81 106.62 70.81 104.62 70.81 98.621 70.81 96.621 70.81 96.621 68.81 96.621 56.982 85.35 56.982 85.35 68.81 85.35 70.81 83.35 70.81 77.35 70.81 75.35 70.81 75.35 68.81 75.35 56.982 64.077 56.982" transform="matrix(1.25 0 0 1.25 .37875 8.4875)"/></g></svg>
