<?xml version="1.0" encoding="UTF-8" standalone="no"?>
<!--
  ~ Copyright (c) 2017  STMicroelectronics – All rights reserved
  ~ The STMicroelectronics corporate logo is a trademark of STMicroelectronics
  ~
  ~ Redistribution and use in source and binary forms, with or without modification,
  ~ are permitted provided that the following conditions are met:
  ~
  ~ - Redistributions of source code must retain the above copyright notice, this list of conditions
  ~   and the following disclaimer.
  ~
  ~ - Redistributions in binary form must reproduce the above copyright notice, this list of
  ~   conditions and the following disclaimer in the documentation and/or other materials provided
  ~   with the distribution.
  ~
  ~ - Neither the name nor trademarks of STMicroelectronics International N.V. nor any other
  ~   STMicroelectronics company nor the names of its contributors may be used to endorse or
  ~   promote products derived from this software without specific prior written permission.
  ~
  ~ - All of the icons, pictures, logos and other images that are provided with the source code
  ~   in a directory whose title begins with st_images may only be used for internal purposes and
  ~   shall not be redistributed to any third party or modified in any way.
  ~
  ~ - Any redistributions in binary form shall not include the capability to display any of the
  ~   icons, pictures, logos and other images that are provided with the source code in a directory
  ~   whose title begins with st_images.
  ~
  ~ THIS SOFTWARE IS PROVIDED BY THE COPYRIGHT HOLDERS AND CONTRIBUTORS "AS IS" AND ANY EXPRESS OR
  ~ IMPLIED WARRANTIES, INCLUDING, BUT NOT LIMITED TO, THE IMPLIED WARRANTIES OF MERCHANTABILITY
  ~ AND FITNESS FOR A PARTICULAR PURPOSE ARE DISCLAIMED. IN NO EVENT SHALL THE COPYRIGHT HOLDER
  ~ OR CONTRIBUTORS BE LIABLE FOR ANY DIRECT, INDIRECT, INCIDENTAL, SPECIAL, EXEMPLARY, OR
  ~ CONSEQUENTIAL DAMAGES (INCLUDING, BUT NOT LIMITED TO, PROCUREMENT OF SUBSTITUTE GOODS OR
  ~ SERVICES; LOSS OF USE, DATA, OR PROFITS; OR BUSINESS INTERRUPTION) HOWEVER CAUSED AND ON ANY
  ~ THEORY OF LIABILITY, WHETHER IN CONTRACT, STRICT LIABILITY, OR TORT (INCLUDING NEGLIGENCE OR
  ~ OTHERWISE) ARISING IN ANY WAY OUT OF THE USE OF THIS SOFTWARE, EVEN IF ADVISED OF THE POSSIBILITY
  ~ OF SUCH DAMAGE.
  -->

<!-- Created with Inkscape (http://www.inkscape.org/) -->

<svg xmlns:dc="http://purl.org/dc/elements/1.1/" xmlns:cc="http://creativecommons.org/ns#" xmlns:rdf="http://www.w3.org/1999/02/22-rdf-syntax-ns#"
    xmlns="http://www.w3.org/2000/svg" xmlns:sodipodi="http://sodipodi.sourceforge.net/DTD/sodipodi-0.dtd"
    xmlns:inkscape="http://www.inkscape.org/namespaces/inkscape" width="100" height="100" id="svg4255"
    version="1.1" inkscape:version="0.48.4 r9939" sodipodi:docname="activity_biking.svg">
  <defs
     id="defs4257" />
  <sodipodi:namedview
     id="base"
     pagecolor="#ffffff"
     bordercolor="#666666"
     borderopacity="1.0"
     inkscape:pageopacity="0.0"
     inkscape:pageshadow="2"
     inkscape:zoom="1.979899"
     inkscape:cx="-21.68038"
     inkscape:cy="42.702304"
     inkscape:document-units="px"
     inkscape:current-layer="g4264"
     showgrid="false"
     units="pt"
     inkscape:window-width="1280"
     inkscape:window-height="962"
     inkscape:window-x="-8"
     inkscape:window-y="-8"
     inkscape:window-maximized="1" />
  <metadata
     id="metadata4260">
    <rdf:RDF>
      <cc:Work
         rdf:about="">
        <dc:format>image/svg+xml</dc:format>
        <dc:type
           rdf:resource="http://purl.org/dc/dcmitype/StillImage" />
        <dc:title />
      </cc:Work>
    </rdf:RDF>
  </metadata>
  <g
     inkscape:label="Layer 1"
     inkscape:groupmode="layer"
     id="layer1"
     transform="translate(0,-952.36221)">
    <g
       id="g4264"
       transform="translate(-13.491571,959.34764)">
      <g
         id="g4331"
         transform="matrix(0.67796978,0,0,0.67796978,19.417196,14.881)">
        <path
           inkscape:connector-curvature="0"
           style="fill:#231f20"
           d="m 32.637851,83.32529 c 9.898,0 17.93,-8.031 17.93,-17.945 0,-9.891 -8.031,-17.922 -17.93,-17.922 -9.875,0 -17.906,8.031 -17.906,17.922 0,9.914 8.031,17.945 17.906,17.945 z m -21.984,-17.945 c 0,-12.148 9.859,-21.984 21.984,-21.984 12.156,0 22.008,9.836 22.008,21.984 0,12.156 -9.852,21.992 -22.008,21.992 -12.125,0 -21.984,-9.836 -21.984,-21.992 z"
           id="path4270" />
        <path
           inkscape:connector-curvature="0"
           style="fill:#231f20"
           d="m 97.380851,83.52829 c 9.874999,0 17.905999,-8.016 17.905999,-17.93 0,-9.898 -8.031,-17.93 -17.905999,-17.93 -9.898,0 -17.93,8.031 -17.93,17.93 0,9.915 8.031,17.93 17.93,17.93 z m -22.008,-17.93 c 0,-12.156 9.867,-21.984 22.008,-21.984 12.124999,0 21.983999,9.828 21.983999,21.984 0,12.156 -9.859,21.992 -21.983999,21.992 -12.141,0.001 -22.008,-9.835 -22.008,-21.992 z"
           id="path4272" />
        <path
           inkscape:connector-curvature="0"
           style="fill:#231f20"
           d="m 75.434851,11.93429 c 4.562,0 8.273,-3.6880002 8.273,-8.2500002 0,-4.56199969 -3.71,-8.2809997 -8.273,-8.2809997 -4.563,0 -8.281,3.71900001 -8.281,8.2809997 0,4.562 3.719,8.2500002 8.281,8.2500002 z"
           id="path4274" />
        <path
           inkscape:connector-curvature="0"
           style="fill:#231f20"
           d="m 75.778851,32.00529 c -1.203,0.023 -2.492,-0.578 -3.445,-2.078 l -5.367,-8.398 -11.086,10.976 10.273,5.406 c 4.227,2.023 3.594,5.742 3.594,5.742 v 23.266 c 0,2.633 -2.125,4.781 -4.766,4.781 -2.633,0 -4.758,-2.148 -4.758,-4.781 v -18.633 l -17.82,-9.898 c -2.125,-1.188 -3.562,-3.453 -3.562,-6.039 0,-1.789 0.656,-3.422 1.781,-4.641 l 17.477,-17.516 c 2.172,-2.4530002 5.203,-2.0620002 5.203,-2.0620002 3.664,0 5.586,3.1950002 5.586,3.1950002 l 9.086,14.234 13.789,-0.023 c 4.961,0 4.961,6.469 0,6.469 h -15.985 z"
           id="path4276" />
      </g>
    </g>
  </g>
</svg>
