<?xml version="1.0" encoding="UTF-8" standalone="no"?>
<svg
   xmlns:dc="http://purl.org/dc/elements/1.1/"
   xmlns:cc="http://creativecommons.org/ns#"
   xmlns:rdf="http://www.w3.org/1999/02/22-rdf-syntax-ns#"
   xmlns:svg="http://www.w3.org/2000/svg"
   xmlns="http://www.w3.org/2000/svg"
   xmlns:sodipodi="http://sodipodi.sourceforge.net/DTD/sodipodi-0.dtd"
   xmlns:inkscape="http://www.inkscape.org/namespaces/inkscape"
   inkscape:version="1.0beta1 (32d4812, 2019-09-19)"
   sodipodi:docname="adult_not_in_car.svg"
   id="svg8"
   version="1.1"
   viewBox="0 0 50.8 50.8"
   height="144pt"
   width="144pt">
  <style
     id="style202"></style>
  <defs
     id="defs2">
    <clipPath
       clipPathUnits="userSpaceOnUse"
       id="clipPath3729">
      <path
         d="M 0,200 H 200 V 0 H 0 Z"
         id="path3727"
         inkscape:connector-curvature="0" />
    </clipPath>
    <clipPath
       clipPathUnits="userSpaceOnUse"
       id="clipPath3770">
      <path
         d="M 0,200 H 200 V 0 H 0 Z"
         id="path3768"
         inkscape:connector-curvature="0" />
    </clipPath>
  </defs>
  <sodipodi:namedview
     units="pt"
     inkscape:document-rotation="0"
     fit-margin-bottom="0"
     fit-margin-right="0"
     fit-margin-left="0"
     fit-margin-top="0"
     inkscape:window-maximized="0"
     inkscape:window-y="158"
     inkscape:window-x="1478"
     inkscape:window-height="674"
     inkscape:window-width="1280"
     showgrid="false"
     inkscape:current-layer="layer1"
     inkscape:document-units="mm"
     inkscape:cy="-410.55354"
     inkscape:cx="-556.66678"
     inkscape:zoom="0.35"
     inkscape:pageshadow="2"
     inkscape:pageopacity="0.0"
     borderopacity="1.0"
     bordercolor="#666666"
     pagecolor="#ffffff"
     id="base" />
  <metadata
     id="metadata5">
    <rdf:RDF>
      <cc:Work
         rdf:about="">
        <dc:format>image/svg+xml</dc:format>
        <dc:type
           rdf:resource="http://purl.org/dc/dcmitype/StillImage" />
        <dc:title></dc:title>
      </cc:Work>
    </rdf:RDF>
  </metadata>
  <g
     transform="translate(-16.504989,-15.554193)"
     id="layer1"
     inkscape:groupmode="layer"
     inkscape:label="Layer 1">
    <g
       id="g3762"
       inkscape:label="ST15816_Adult not in car"
       transform="matrix(0.22930573,0,0,-0.22930573,18.974398,63.884825)">
      <g
         id="g3764">
        <g
           id="g3766"
           clip-path="url(#clipPath3770)">
          <g
             id="g3772"
             transform="translate(194.2257,91.959)">
            <path
               d="m 0,0 c -4.105,0.125 -8.185,0.785 -12.271,1.194 -1.2,1.661 -2.455,3.322 -3.467,5.115 -0.281,0.447 -0.295,1.221 0.355,1.325 2.256,0.135 4.512,-0.201 6.761,-0.365 C -5.197,6.841 -1.893,5.661 1.136,4.027 1.621,2.755 1.881,0.245 0,0 m -0.929,-13.239 c -0.115,-0.403 -0.177,-1.075 -0.725,-1.073 -1.632,-0.009 -3.267,10e-4 -4.899,-0.004 -0.719,-0.01 -1.343,0.589 -1.402,1.297 0.047,0.803 -0.002,1.617 0.233,2.398 0.11,0.972 0.595,2.2 1.703,2.328 1.902,0.055 3.812,0.046 5.714,0.007 -0.085,-1.661 -0.35,-3.314 -0.624,-4.953 M 5.562,4.997 c -2.38,2.138 -5.242,3.638 -8.183,4.849 -8.522,3.605 -17.751,4.892 -26.882,5.878 -3.466,0.309 -6.953,0.922 -10.44,0.811 -0.382,0.02 -0.529,1.155 -1.194,1.135 -0.404,-0.04 -1.393,-0.292 -1.748,-0.157 -0.413,0.204 -0.585,0.645 -1.274,0.597 -0.57,-0.203 -0.385,-0.813 -1.029,-0.351 -0.456,0.35 -0.992,0.573 -1.485,0.864 -7.457,3.983 -14.949,7.907 -22.586,11.538 -3.622,1.756 -7.35,3.289 -11.124,4.687 -9.724,3.236 -20.121,3.856 -30.284,4.226 -8.775,0.247 -17.606,0.183 -26.288,-1.358 -1.08,0.725 -2.803,1.318 -3.883,0.414 -2.306,1.399 -4.307,3.233 -6.493,4.801 -0.254,0.184 -0.5,-0.161 -0.302,-0.369 2.096,-1.697 4.335,-3.224 6.3,-5.08 0.187,-0.173 -0.008,-0.419 -0.026,-0.621 -1.412,-0.392 -3.006,-0.575 -4.278,-1.218 -9.884,-3.422 -19.123,-8.431 -28.314,-13.363 -5.278,-0.283 -10.572,-0.692 -15.852,-0.896 -0.6,-0.213 -1.334,0.168 -1.854,-0.257 -0.253,-2.667 0.104,-5.397 -0.364,-8.061 -0.199,-2.945 -0.098,-5.91 -0.122,-8.866 -0.05,-0.612 -0.314,-1.179 -0.456,-1.771 -0.669,0.1 -1.359,-0.179 -1.604,-0.838 0.056,-2.207 -0.181,-4.437 0.198,-6.62 0.318,-0.407 0.901,-0.168 1.338,-0.201 -0.93,-2.046 0.581,-4.049 0.816,-6.071 0.426,-0.876 0.172,-2.026 0.932,-2.741 0.773,-0.775 1.63,-1.624 2.748,-1.788 5.364,-2.02 11.241,-1.638 16.784,-0.859 0.472,0.526 1.274,0.732 1.508,1.464 0.612,1.553 0.562,3.252 0.861,4.872 0.772,4.877 3.433,10.029 7.789,12.544 4.566,2.394 10.158,2.896 15.01,1.075 4.494,-1.623 7.996,-5.913 9.495,-10.407 0.841,-3 1.444,-6.145 1.27,-9.268 -0.024,-0.741 -0.144,-1.649 0.059,-2.294 27.902,-0.048 55.809,10e-4 83.711,-0.024 1.274,-0.195 0.59,1.559 0.704,2.315 -0.183,3.965 -0.036,8.083 1.463,11.814 0.983,2.323 2.408,4.531 4.437,6.071 5.878,4.228 14.423,4.283 20.295,0.029 3.831,-2.879 6.064,-7.487 6.6,-12.19 0.209,-1.892 0.305,-3.792 0.266,-5.697 0.085,-0.693 -0.109,-1.381 -0.048,-2.071 3.684,0.05 7.383,-0.143 11.057,0.046 1.722,-0.119 3.416,0.365 5.036,0.881 1.915,0.401 3.879,0.173 5.804,0.359 0.174,0.349 0.305,0.759 0.251,1.149 -0.242,0.495 -0.861,0.827 -0.74,1.462 0.652,5.886 1.597,11.753 1.893,17.666 -0.139,0.668 0.862,1.293 0.228,1.89"
               style="fill:#39a9dc;fill-opacity:1;fill-rule:nonzero;stroke:none"
               id="path3774"
               inkscape:connector-curvature="0" />
          </g>
          <g
             id="g3776"
             transform="translate(50.3468,76.4698)">
            <path
               d="m 0,0 c -0.656,-0.094 -1.387,0.148 -2.033,0.336 -0.973,0.178 -2.002,0.594 -2.591,1.429 0.225,0.75 0.069,2.015 1.083,2.161 0.804,0.158 1.645,0.059 2.438,-0.115 C -0.475,3.64 0.305,3.568 0.773,3.105 0.693,2.058 0.532,0.922 0,0 m -2.536,-3.511 c -0.369,0.618 -0.546,1.339 -0.776,2.019 -0.688,0.98 0.526,1.414 1.293,1.017 0.361,-0.041 0.737,-0.005 1.083,-0.117 0.204,-0.012 0.417,-0.047 0.588,-0.168 -0.508,-1.064 -1.284,-1.999 -2.188,-2.751 m -3.585,-1.928 c -0.5,0.467 -0.737,1.158 -1.033,1.765 -0.403,0.789 -0.927,1.967 -0.51,2.922 0.515,0.392 1.143,0.639 1.748,0.856 1.01,-0.343 1.538,-1.386 2.014,-2.268 0.244,-0.616 0.639,-1.208 0.676,-1.882 -0.858,-0.638 -1.857,-1.135 -2.895,-1.393 m -4.383,-0.207 c 0.26,0.667 0.712,1.245 1.078,1.857 0.197,0.269 0.382,0.62 0.701,0.74 0.316,-0.122 0.505,-0.471 0.7,-0.741 0.365,-0.611 0.819,-1.187 1.079,-1.854 -1.167,-0.247 -2.391,-0.239 -3.558,-0.002 m -3.738,1.599 c 0.072,0.715 0.462,1.36 0.783,1.992 0.399,0.871 0.969,1.832 1.924,2.159 0.604,-0.219 1.234,-0.464 1.749,-0.855 0.419,-0.953 -0.113,-2.13 -0.503,-2.919 -0.301,-0.604 -0.544,-1.284 -1.044,-1.755 -1.046,0.238 -2.04,0.755 -2.909,1.378 m -2.862,3.287 c 0.308,0.176 0.682,0.188 1.029,0.222 0.504,0.148 1.169,0.148 1.735,0.153 0.583,0.021 0.328,-0.95 0.23,-1.075 -0.266,-0.678 -0.422,-1.417 -0.8,-2.041 -0.917,0.732 -1.684,1.685 -2.194,2.741 m -1.114,3.938 c 0.285,0.303 0.794,0.347 1.198,0.434 0.947,0.35 2.084,0.492 3.111,0.314 1.018,-0.151 0.846,-1.414 1.084,-2.161 -0.807,-1.119 -2.292,-1.434 -3.571,-1.661 -0.37,-0.086 -0.765,-0.119 -1.135,-0.021 -0.423,0.965 -0.663,2.044 -0.687,3.095 m 0.793,4.331 c 0.65,-0.429 1.13,-1.073 1.696,-1.603 0.245,-0.235 0.621,-0.778 0.143,-0.97 -0.835,-0.392 -1.726,-0.761 -2.626,-0.919 -0.06,1.192 0.276,2.418 0.787,3.492 m 2.439,3.301 c 0.62,-0.278 1.168,-0.721 1.662,-1.184 0.701,-0.559 1.629,-1.369 1.721,-2.392 -0.335,-0.546 -0.734,-1.122 -1.241,-1.512 -1.245,-0.109 -2.396,0.757 -3.223,1.594 -0.404,0.183 -0.794,0.58 -0.969,0.972 0.49,0.956 1.183,1.883 2.05,2.522 m 0.818,0.709 c 0.896,0.602 1.883,1.1 2.937,1.348 0.185,-0.893 -0.033,-2.135 -0.373,-3.06 -0.804,-0.055 -1.5,0.677 -2.196,1.049 -0.209,0.134 -0.755,0.421 -0.368,0.663 m 3.214,-7.69 c -0.894,-0.51 -1.491,1.082 -0.551,1.372 0.819,0.285 1.394,-1.014 0.551,-1.372 m 0.644,9.229 c 1.015,0.248 2.107,0.18 3.134,0.04 0.435,-0.575 0.207,-1.396 0.237,-2.075 0.031,-1.002 -0.07,-2.216 -0.883,-2.914 -0.591,-0.077 -1.216,-0.075 -1.807,-10e-4 -0.87,0.732 -0.899,2.018 -0.893,3.068 -10e-4,0.625 -0.087,1.31 0.212,1.882 M -7.328,2.247 c 0.84,0.324 1.334,-1.104 0.482,-1.378 -0.875,-0.408 -1.428,1.123 -0.482,1.378 m -1.583,4.824 c 0.515,0.164 1.105,-0.443 0.88,-0.953 -0.172,-0.43 -0.755,-0.667 -1.134,-0.345 -0.495,0.334 -0.324,1.17 0.254,1.298 m -1.096,-6.284 c -0.871,-0.359 -1.39,1.114 -0.49,1.387 0.893,0.372 1.398,-1.104 0.49,-1.387 m -0.028,2.477 c -0.298,0.759 0.293,1.62 1.049,1.793 1.131,0.271 2.185,-1.254 1.353,-2.163 -0.569,-0.962 -2.097,-0.649 -2.402,0.37 M -6.459,5.18 C -5.625,5.604 -4.985,4.257 -5.826,3.884 -6.653,3.442 -7.34,4.821 -6.459,5.18 m 3.212,6.297 C -2.951,11.25 -3.426,11.004 -3.6,10.877 -4.32,10.508 -4.982,9.83 -5.802,9.776 c -0.467,0.913 -0.495,2.097 -0.474,3.105 1.088,-0.248 2.126,-0.749 3.029,-1.404 M -0.379,8.241 C -0.752,7.705 -1.284,7.259 -1.839,6.915 -2.705,6.1 -4.559,4.938 -5.309,6.47 c -1.283,1.065 0.323,2.469 1.195,3.181 0.518,0.43 1.04,0.95 1.703,1.128 0.836,-0.684 1.536,-1.581 2.032,-2.538 M 0.718,3.985 c -0.945,0.327 -2.061,0.513 -2.812,1.168 0.282,0.98 1.299,1.645 2.024,2.331 C 0.485,6.552 0.854,5.136 0.718,3.985 m -8.677,14.823 c -3.334,0.146 -6.736,-0.792 -9.459,-2.742 -5.006,-3.409 -7.478,-10.022 -6.006,-15.887 0.709,-2.908 2.279,-5.609 4.505,-7.614 3.348,-3.143 8.205,-4.549 12.721,-3.762 5.496,0.87 10.246,5.059 11.888,10.362 1.411,4.273 0.688,9.155 -1.807,12.888 -2.567,3.978 -7.128,6.521 -11.842,6.755"
               style="fill:#39a9dc;fill-opacity:1;fill-rule:nonzero;stroke:none"
               id="path3778"
               inkscape:connector-curvature="0" />
          </g>
          <g
             id="g3780"
             transform="translate(166.0666,81.6856)">
            <path
               d="M 0,0 C 0.453,0.922 1.285,1.629 2.06,2.282 2.67,1.373 2.938,-0.038 2.887,-1.208 1.898,-0.95 0.748,-0.722 0,0 m 2.154,-5.262 c -1.584,0.188 -3.447,0.422 -4.56,1.689 -0.009,0.854 0.053,2.318 1.224,2.324 1.371,0.114 2.804,-0.165 4.053,-0.728 C 2.94,-3.089 2.631,-4.263 2.154,-5.262 M 1.699,-6.159 c -0.529,-0.972 -1.229,-1.887 -2.11,-2.56 -0.267,0.448 -0.411,0.959 -0.58,1.45 -0.179,0.502 -0.786,1.646 0.139,1.674 0.83,-0.012 1.669,-0.104 2.478,-0.285 0.202,0.011 0.255,-0.252 0.073,-0.279 m -5.695,-4.492 c -0.349,0.328 -0.535,0.788 -0.775,1.194 -0.437,0.937 -1.237,2.356 -0.736,3.523 0.508,0.372 1.132,0.578 1.707,0.828 1.127,-0.415 1.837,-1.7 2.201,-2.711 0.254,-0.437 0.493,-0.93 0.509,-1.442 -0.859,-0.638 -1.865,-1.138 -2.906,-1.392 m -4.337,-0.209 c 0.107,0.507 0.486,0.915 0.732,1.363 0.242,0.467 0.573,0.913 1.004,1.219 0.488,-0.237 0.77,-0.773 1.042,-1.225 0.251,-0.445 0.593,-0.856 0.734,-1.354 -1.152,-0.234 -2.362,-0.246 -3.512,-0.003 m -0.875,0.224 c -1.024,0.25 -2.021,0.74 -2.861,1.372 -0.047,0.49 0.27,0.983 0.462,1.435 0.447,1.05 1.093,2.243 2.201,2.701 0.635,-0.175 1.299,-0.487 1.802,-0.917 0.299,-1.141 -0.272,-2.424 -0.785,-3.342 -0.225,-0.43 -0.423,-0.972 -0.819,-1.249 m -3.534,1.917 c -0.907,0.675 -1.612,1.62 -2.155,2.607 -0.238,0.202 0.33,0.344 0.534,0.34 0.819,0.004 1.693,0.368 2.478,0.06 0.178,-0.509 -0.178,-1.334 -0.308,-1.662 -0.184,-0.447 -0.321,-0.918 -0.549,-1.345 m -3.338,6.306 c -0.197,0.661 0.756,0.71 1.192,0.844 1.202,0.284 2.628,0.68 3.762,-0.004 0.127,-0.751 0.825,-1.787 0.032,-2.373 -0.785,-0.634 -1.791,-0.905 -2.764,-1.087 -0.483,-0.131 -0.999,-0.216 -1.494,-0.115 -0.462,0.835 -0.561,1.809 -0.728,2.735 m 0.798,4.682 c 0.774,-0.517 1.649,-1.379 2.146,-2.274 -0.687,-0.625 -1.663,-0.787 -2.509,-1.119 -0.153,-0.029 -0.473,-0.24 -0.472,0.038 0.139,1.14 0.272,2.331 0.835,3.355 m 0.563,1.153 c 0.513,0.8 1.099,1.583 1.848,2.176 0.484,-0.188 0.924,-0.5 1.297,-0.862 0.873,-0.69 1.929,-1.48 2.106,-2.654 -0.252,-0.605 -0.738,-1.177 -1.261,-1.572 -1.209,-0.122 -2.249,0.755 -3.125,1.477 -0.407,0.346 -1.313,0.805 -0.865,1.435 m 5.406,4.172 C -8.794,7.78 -9.002,7.11 -9.03,6.814 -9.168,6.057 -9.083,5.143 -9.562,4.515 c -0.965,0.356 -1.901,0.903 -2.669,1.588 0.84,0.704 1.872,1.178 2.918,1.491 m 0.428,-9.012 c -0.908,-0.356 -1.384,1.174 -0.428,1.405 0.866,0.27 1.302,-1.148 0.428,-1.405 m 0.699,9.251 c 1.055,0.24 2.182,0.216 3.238,0.014 0.238,-0.484 0.106,-1.055 0.122,-1.576 0.094,-1.154 0.033,-2.496 -0.8,-3.386 -0.762,0.044 -1.955,-0.401 -2.317,0.535 -0.461,0.883 -0.431,1.891 -0.372,2.854 0.047,0.509 -0.158,1.114 0.129,1.559 m 2.974,-10.799 c 0.422,0.156 0.854,-0.199 0.992,-0.582 0.076,-0.56 -0.629,-1.102 -1.126,-0.751 -0.549,0.266 -0.427,1.157 0.134,1.333 m -1.583,4.824 c 0.924,0.31 1.323,-1.251 0.376,-1.429 -0.865,-0.231 -1.228,1.165 -0.376,1.429 m -0.618,-5.795 c -0.102,-0.502 -0.8,-0.715 -1.155,-0.336 -0.486,0.319 -0.293,1.121 0.26,1.229 0.517,0.207 1.101,-0.377 0.895,-0.893 m -0.041,1.354 c -0.931,0.67 -0.477,2.306 0.657,2.427 0.845,0.147 1.695,-0.644 1.578,-1.507 -0.03,-1.051 -1.473,-1.665 -2.235,-0.92 m 3.175,2.553 c 0.834,0.396 1.437,-0.976 0.578,-1.307 -0.869,-0.456 -1.534,1.016 -0.578,1.307 M -4.13,7.611 C -2.956,7.434 -1.859,6.801 -0.905,6.104 -1.66,5.479 -2.515,4.948 -3.418,4.565 -3.738,4.408 -3.853,4.858 -3.9,5.086 -4.048,5.915 -4.211,6.771 -4.13,7.611 M 1.617,3.32 C 1.944,2.886 1.357,2.481 1.02,2.288 0.07,1.42 -1.113,0.371 -2.491,0.505 c -0.486,0.438 -0.942,0.992 -1.25,1.575 0.288,1.156 1.226,2.004 2.16,2.667 0.366,0.359 0.818,0.655 1.298,0.834 0.792,-0.588 1.345,-1.454 1.9,-2.261 m -10.67,10.078 c -4.233,-0.686 -8.132,-3.265 -10.362,-6.937 -2.338,-3.704 -2.935,-8.486 -1.523,-12.637 1.443,-4.633 5.306,-8.405 9.952,-9.788 3.784,-1.183 8.031,-0.759 11.519,1.122 3.44,1.813 6.081,5.025 7.275,8.718 1.48,4.415 0.69,9.486 -1.993,13.283 -3.217,4.705 -9.257,7.237 -14.868,6.239"
               style="fill:#39a9dc;fill-opacity:1;fill-rule:nonzero;stroke:none"
               id="path3782"
               inkscape:connector-curvature="0" />
          </g>
        </g>
      </g>
    </g>
  </g>
</svg>
