<?xml version="1.0" encoding="UTF-8" standalone="no"?>
<svg
   xmlns:dc="http://purl.org/dc/elements/1.1/"
   xmlns:cc="http://creativecommons.org/ns#"
   xmlns:rdf="http://www.w3.org/1999/02/22-rdf-syntax-ns#"
   xmlns:svg="http://www.w3.org/2000/svg"
   xmlns="http://www.w3.org/2000/svg"
   xmlns:sodipodi="http://sodipodi.sourceforge.net/DTD/sodipodi-0.dtd"
   xmlns:inkscape="http://www.inkscape.org/namespaces/inkscape"
   width="144pt"
   height="144pt"
   viewBox="0 0 50.799999 50.799999"
   version="1.1"
   id="svg8"
   sodipodi:docname="adult_in_car.svg"
   inkscape:version="1.0beta1 (32d4812, 2019-09-19)">
  <style
     id="style947"></style>
  <defs
     id="defs2">
    <clipPath
       id="clipPath3729"
       clipPathUnits="userSpaceOnUse">
      <path
         inkscape:connector-curvature="0"
         id="path3727"
         d="M 0,200 H 200 V 0 H 0 Z" />
    </clipPath>
  </defs>
  <sodipodi:namedview
     id="base"
     pagecolor="#FFFFFF"
     bordercolor="#666666"
     borderopacity="1.0"
     inkscape:pageopacity="0.0"
     inkscape:pageshadow="2"
     inkscape:zoom="0.35"
     inkscape:cx="482.85714"
     inkscape:cy="560"
     inkscape:document-units="mm"
     inkscape:current-layer="layer1"
     showgrid="false"
     inkscape:window-width="1280"
     inkscape:window-height="709"
     inkscape:window-x="1486"
     inkscape:window-y="205"
     inkscape:window-maximized="0"
     fit-margin-top="0"
     fit-margin-left="0"
     fit-margin-right="0"
     fit-margin-bottom="0"
     inkscape:document-rotation="0"
     units="pt" />
  <metadata
     id="metadata5">
    <rdf:RDF>
      <cc:Work
         rdf:about="">
        <dc:format>image/svg+xml</dc:format>
        <dc:type
           rdf:resource="http://purl.org/dc/dcmitype/StillImage" />
        <dc:title></dc:title>
      </cc:Work>
    </rdf:RDF>
  </metadata>
  <g
     inkscape:label="Layer 1"
     inkscape:groupmode="layer"
     id="layer1"
     transform="translate(-1.0079671,-0.43523867)">
    <g
       transform="matrix(0.22930575,0,0,-0.22930575,3.4774114,48.76582)"
       inkscape:label="ST15815_Adult in car"
       id="g3721">
      <g
         id="g3723">
        <g
           clip-path="url(#clipPath3729)"
           id="g3725">
          <g
             transform="translate(194.2249,91.9595)"
             id="g3731">
            <path
               inkscape:connector-curvature="0"
               id="path3733"
               style="fill:#3CB4E6;fill-opacity:1;fill-rule:nonzero;stroke:none"
               d="m 0,0 c -4.104,0.124 -8.185,0.785 -12.271,1.194 -1.199,1.661 -2.454,3.322 -3.466,5.114 -0.281,0.448 -0.295,1.222 0.355,1.326 2.256,0.135 4.512,-0.202 6.761,-0.366 C -5.197,6.841 -1.892,5.66 1.137,4.027 1.622,2.755 1.882,0.244 0,0 m -0.928,-13.239 c -0.115,-0.403 -0.177,-1.075 -0.725,-1.073 -1.632,-0.01 -3.267,10e-4 -4.9,-0.005 -0.718,-0.009 -1.343,0.589 -1.401,1.297 0.047,0.804 -0.003,1.618 0.232,2.399 0.111,0.972 0.596,2.2 1.704,2.327 1.902,0.056 3.812,0.047 5.714,0.007 -0.085,-1.66 -0.35,-3.313 -0.624,-4.952 M -66,-4.301 -69.677,6.103 c -0.053,0.23 -0.208,0.31 -0.426,0.293 L -81.86,5.042 c -1.901,-0.221 -3.643,0.529 -4.404,2.303 l -3.964,9.242 c -0.835,1.959 0.12,4.214 2.139,5.044 1.754,0.721 4.149,0.41 4.961,-1.504 l 2.673,-6.283 c 0.092,-0.268 0.289,-0.368 0.573,-0.34 l 6.319,0.724 c 1.092,0.125 2.076,-0.633 2.199,-1.689 0.124,-1.06 -0.662,-2.02 -1.752,-2.147 l -8.409,-0.957 0.329,-0.815 8.176,0.943 c 1.183,0.138 2.12,0.965 2.422,2.02 l 1.944,0.223 c 1.206,0.139 2.302,-0.62 2.582,-1.735 l 4.571,-12.848 c 0.919,-2.332 -3.58,-3.829 -4.499,-1.524 m -5.059,4.243 -12.846,-1.477 c -2.856,-0.328 -5.773,1.223 -6.765,3.702 l -7.374,18.393 c -0.731,1.817 3.163,3.011 3.884,1.22 L -87.059,5.6 c 0.485,-1.193 1.163,-2.227 2.63,-2.057 l 12.783,1.473 c 1.98,0.229 2.568,-4.845 0.587,-5.074 m -18.142,31.092 c 2.387,0.271 4.539,-1.383 4.806,-3.702 0.269,-2.318 -1.446,-4.416 -3.834,-4.688 -2.382,-0.277 -4.533,1.377 -4.805,3.696 -0.267,2.313 1.449,4.419 3.833,4.694 M 5.562,4.996 c -2.38,2.139 -5.242,3.638 -8.182,4.85 -8.522,3.604 -17.752,4.891 -26.882,5.878 -3.466,0.309 -6.953,0.922 -10.44,0.81 -0.382,0.021 -0.529,1.156 -1.194,1.136 -0.404,-0.041 -1.393,-0.292 -1.748,-0.157 -0.413,0.204 -0.585,0.644 -1.274,0.596 -0.571,-0.202 -0.385,-0.813 -1.03,-0.351 -0.455,0.35 -0.991,0.574 -1.484,0.865 -7.457,3.982 -14.949,7.907 -22.586,11.537 -3.622,1.757 -7.35,3.29 -11.124,4.687 -9.724,3.236 -20.121,3.856 -30.284,4.227 -8.776,0.247 -17.606,0.183 -26.288,-1.359 -1.08,0.725 -2.803,1.318 -3.883,0.415 -2.306,1.399 -4.307,3.233 -6.493,4.8 -0.254,0.184 -0.5,-0.161 -0.302,-0.368 2.095,-1.697 4.335,-3.225 6.3,-5.081 0.186,-0.172 -0.008,-0.418 -0.026,-0.621 -1.413,-0.392 -3.007,-0.574 -4.278,-1.217 -9.885,-3.422 -19.123,-8.432 -28.314,-13.363 -5.279,-0.283 -10.572,-0.692 -15.853,-0.897 -0.599,-0.212 -1.333,0.169 -1.853,-0.256 -0.253,-2.667 0.104,-5.398 -0.364,-8.061 -0.199,-2.945 -0.098,-5.911 -0.122,-8.867 -0.05,-0.611 -0.314,-1.178 -0.457,-1.771 -0.668,0.101 -1.358,-0.179 -1.603,-0.838 0.056,-2.206 -0.182,-4.437 0.198,-6.619 0.317,-0.407 0.9,-0.168 1.338,-0.201 -0.93,-2.047 0.581,-4.049 0.815,-6.072 0.427,-0.875 0.173,-2.026 0.933,-2.741 0.773,-0.775 1.63,-1.623 2.747,-1.787 5.364,-2.02 11.242,-1.639 16.785,-0.86 0.472,0.527 1.274,0.732 1.508,1.465 0.612,1.552 0.562,3.251 0.861,4.872 0.772,4.877 3.433,10.028 7.789,12.544 4.566,2.394 10.158,2.896 15.01,1.074 4.494,-1.623 7.996,-5.912 9.495,-10.406 0.841,-3.001 1.444,-6.146 1.27,-9.268 -0.024,-0.742 -0.144,-1.649 0.059,-2.295 27.902,-0.047 55.809,0.001 83.711,-0.024 1.273,-0.195 0.59,1.56 0.704,2.316 -0.184,3.965 -0.036,8.083 1.463,11.813 0.982,2.324 2.408,4.531 4.437,6.072 5.878,4.228 14.423,4.283 20.295,0.028 3.831,-2.878 6.064,-7.486 6.6,-12.189 0.209,-1.893 0.305,-3.793 0.266,-5.697 0.085,-0.693 -0.109,-1.381 -0.048,-2.072 3.684,0.051 7.383,-0.143 11.057,0.046 1.722,-0.119 3.415,0.365 5.036,0.882 1.915,0.4 3.879,0.173 5.804,0.358 0.173,0.349 0.305,0.759 0.251,1.15 -0.242,0.494 -0.861,0.826 -0.74,1.462 0.652,5.885 1.597,11.753 1.892,17.665 -0.138,0.668 0.863,1.293 0.228,1.89" />
          </g>
          <g
             transform="translate(50.3469,76.4702)"
             id="g3735">
            <path
               inkscape:connector-curvature="0"
               id="path3737"
               style="fill:#3CB4E6;fill-opacity:1;fill-rule:nonzero;stroke:none"
               d="m 0,0 c -0.657,-0.095 -1.387,0.147 -2.033,0.336 -0.973,0.177 -2.002,0.593 -2.591,1.428 0.225,0.75 0.069,2.015 1.083,2.162 0.803,0.158 1.645,0.058 2.437,-0.115 C -0.475,3.639 0.305,3.567 0.773,3.104 0.693,2.057 0.531,0.921 0,0 m -2.536,-3.511 c -0.369,0.618 -0.547,1.339 -0.776,2.019 -0.688,0.98 0.526,1.413 1.293,1.016 0.36,-0.04 0.737,-0.005 1.083,-0.116 0.204,-0.012 0.417,-0.047 0.588,-0.169 -0.508,-1.063 -1.284,-1.998 -2.188,-2.75 M -6.121,-5.44 c -0.5,0.467 -0.737,1.159 -1.033,1.765 -0.404,0.789 -0.927,1.968 -0.51,2.923 0.515,0.391 1.143,0.639 1.748,0.856 1.01,-0.344 1.538,-1.387 2.014,-2.269 0.244,-0.615 0.639,-1.208 0.676,-1.882 -0.858,-0.638 -1.857,-1.134 -2.895,-1.393 m -4.383,-0.206 c 0.26,0.667 0.712,1.245 1.078,1.856 0.196,0.269 0.382,0.62 0.701,0.741 0.316,-0.122 0.505,-0.471 0.7,-0.741 0.365,-0.611 0.818,-1.187 1.079,-1.854 -1.167,-0.248 -2.391,-0.239 -3.558,-0.002 m -3.738,1.599 c 0.072,0.715 0.462,1.36 0.783,1.991 0.399,0.872 0.969,1.833 1.924,2.16 0.604,-0.219 1.234,-0.465 1.749,-0.855 0.419,-0.953 -0.113,-2.13 -0.504,-2.919 -0.3,-0.604 -0.543,-1.284 -1.043,-1.756 -1.046,0.239 -2.04,0.756 -2.909,1.379 m -2.863,3.287 c 0.309,0.176 0.683,0.188 1.03,0.221 0.504,0.149 1.169,0.149 1.735,0.153 0.583,0.022 0.328,-0.949 0.23,-1.075 -0.266,-0.678 -0.422,-1.417 -0.8,-2.041 -0.917,0.733 -1.684,1.685 -2.195,2.742 m -1.113,3.937 c 0.285,0.303 0.794,0.348 1.197,0.434 0.948,0.351 2.085,0.493 3.111,0.315 1.019,-0.151 0.847,-1.415 1.085,-2.161 -0.807,-1.119 -2.292,-1.434 -3.571,-1.661 -0.37,-0.087 -0.765,-0.119 -1.135,-0.022 -0.423,0.966 -0.663,2.045 -0.687,3.095 m 0.793,4.331 c 0.65,-0.428 1.13,-1.073 1.696,-1.602 0.245,-0.235 0.621,-0.778 0.143,-0.971 -0.835,-0.392 -1.726,-0.761 -2.626,-0.918 -0.06,1.191 0.276,2.418 0.787,3.491 m 2.439,3.302 c 0.619,-0.278 1.168,-0.721 1.662,-1.184 0.701,-0.559 1.629,-1.37 1.721,-2.392 -0.335,-0.546 -0.734,-1.123 -1.241,-1.513 -1.245,-0.108 -2.396,0.758 -3.223,1.595 -0.404,0.182 -0.794,0.58 -0.969,0.972 0.49,0.956 1.183,1.883 2.05,2.522 m 0.818,0.709 c 0.896,0.601 1.883,1.099 2.937,1.347 0.185,-0.892 -0.033,-2.135 -0.373,-3.059 -0.804,-0.056 -1.5,0.677 -2.196,1.049 -0.209,0.134 -0.755,0.42 -0.368,0.663 m 3.214,-7.691 c -0.894,-0.51 -1.491,1.082 -0.551,1.373 0.819,0.285 1.394,-1.014 0.551,-1.373 m 0.644,9.229 c 1.014,0.248 2.107,0.18 3.134,0.04 0.435,-0.574 0.207,-1.396 0.237,-2.075 0.031,-1.001 -0.07,-2.216 -0.883,-2.913 -0.591,-0.078 -1.216,-0.076 -1.807,-0.002 -0.87,0.732 -0.899,2.019 -0.893,3.068 -10e-4,0.625 -0.088,1.311 0.212,1.882 M -7.328,2.246 C -6.488,2.571 -5.994,1.142 -6.846,0.868 -7.721,0.46 -8.274,1.991 -7.328,2.246 M -8.911,7.07 C -8.396,7.235 -7.807,6.628 -8.031,6.117 -8.203,5.687 -8.787,5.451 -9.165,5.772 -9.66,6.106 -9.489,6.943 -8.911,7.07 m -1.096,-6.283 c -0.871,-0.36 -1.39,1.113 -0.49,1.387 0.893,0.372 1.398,-1.104 0.49,-1.387 m -0.028,2.477 c -0.298,0.758 0.293,1.619 1.049,1.792 1.131,0.272 2.185,-1.254 1.353,-2.163 C -8.202,1.932 -9.73,2.245 -10.035,3.264 M -6.459,5.18 C -5.625,5.604 -4.985,4.256 -5.826,3.883 -6.653,3.442 -7.341,4.821 -6.459,5.18 m 3.212,6.296 c 0.296,-0.226 -0.179,-0.473 -0.354,-0.6 -0.719,-0.369 -1.381,-1.046 -2.201,-1.101 -0.467,0.914 -0.495,2.097 -0.474,3.106 1.088,-0.248 2.126,-0.749 3.029,-1.405 M -0.379,8.241 C -0.752,7.705 -1.284,7.259 -1.839,6.914 -2.705,6.099 -4.559,4.937 -5.309,6.47 c -1.283,1.065 0.323,2.469 1.195,3.181 0.518,0.43 1.04,0.949 1.703,1.128 0.836,-0.685 1.536,-1.582 2.032,-2.538 M 0.718,3.984 c -0.945,0.328 -2.061,0.513 -2.812,1.169 0.282,0.98 1.299,1.644 2.023,2.33 C 0.485,6.552 0.854,5.135 0.718,3.984 m -8.677,14.823 c -3.334,0.147 -6.736,-0.792 -9.459,-2.742 -5.006,-3.409 -7.478,-10.022 -6.006,-15.887 0.709,-2.907 2.279,-5.608 4.505,-7.613 3.347,-3.143 8.205,-4.55 12.721,-3.762 5.496,0.87 10.245,5.058 11.888,10.362 1.411,4.272 0.688,9.155 -1.807,12.888 -2.567,3.977 -7.128,6.52 -11.842,6.754" />
          </g>
          <g
             transform="translate(166.0667,81.686)"
             id="g3739">
            <path
               inkscape:connector-curvature="0"
               id="path3741"
               style="fill:#3CB4E6;fill-opacity:1;fill-rule:nonzero;stroke:none"
               d="M 0,0 C 0.453,0.922 1.285,1.628 2.06,2.281 2.67,1.372 2.938,-0.038 2.887,-1.208 1.898,-0.95 0.748,-0.723 0,0 m 2.153,-5.263 c -1.583,0.188 -3.447,0.422 -4.559,1.69 -0.009,0.854 0.053,2.317 1.224,2.324 1.371,0.113 2.804,-0.166 4.053,-0.728 C 2.94,-3.089 2.631,-4.263 2.153,-5.263 M 1.699,-6.16 C 1.17,-7.131 0.47,-8.047 -0.412,-8.72 c -0.266,0.449 -0.41,0.96 -0.579,1.45 -0.179,0.503 -0.787,1.646 0.139,1.675 0.83,-0.012 1.669,-0.105 2.478,-0.285 0.202,0.01 0.254,-0.252 0.073,-0.28 m -5.695,-4.491 c -0.349,0.328 -0.535,0.787 -0.775,1.194 -0.437,0.936 -1.237,2.356 -0.736,3.523 0.508,0.372 1.132,0.577 1.707,0.828 1.127,-0.416 1.837,-1.7 2.201,-2.711 0.253,-0.438 0.492,-0.931 0.509,-1.443 -0.859,-0.638 -1.865,-1.137 -2.906,-1.391 m -4.337,-0.209 c 0.107,0.507 0.486,0.914 0.732,1.362 0.242,0.468 0.573,0.914 1.003,1.22 0.489,-0.238 0.771,-0.773 1.043,-1.226 0.251,-0.444 0.592,-0.856 0.734,-1.354 -1.152,-0.234 -2.362,-0.246 -3.512,-0.002 m -0.875,0.224 c -1.024,0.25 -2.021,0.739 -2.861,1.371 -0.047,0.49 0.269,0.983 0.462,1.435 0.447,1.051 1.093,2.244 2.201,2.702 0.635,-0.176 1.299,-0.488 1.802,-0.918 0.299,-1.14 -0.272,-2.423 -0.785,-3.341 -0.225,-0.43 -0.423,-0.973 -0.819,-1.249 m -3.534,1.916 c -0.907,0.676 -1.612,1.62 -2.155,2.607 -0.238,0.203 0.329,0.345 0.534,0.341 0.819,0.003 1.692,0.367 2.478,0.06 0.178,-0.509 -0.178,-1.335 -0.308,-1.662 -0.185,-0.447 -0.321,-0.918 -0.549,-1.346 m -3.338,6.306 c -0.197,0.662 0.756,0.711 1.192,0.845 1.202,0.284 2.628,0.679 3.762,-0.005 0.127,-0.75 0.825,-1.787 0.032,-2.372 -0.785,-0.635 -1.791,-0.906 -2.764,-1.087 -0.483,-0.131 -0.999,-0.216 -1.494,-0.116 -0.462,0.835 -0.561,1.809 -0.728,2.735 m 0.797,4.682 c 0.775,-0.517 1.65,-1.379 2.147,-2.273 -0.687,-0.625 -1.663,-0.788 -2.509,-1.12 -0.153,-0.028 -0.473,-0.24 -0.472,0.038 0.139,1.141 0.272,2.332 0.834,3.355 m 0.564,1.153 c 0.513,0.801 1.098,1.584 1.848,2.177 0.484,-0.189 0.924,-0.501 1.297,-0.863 0.872,-0.689 1.929,-1.479 2.106,-2.654 -0.252,-0.604 -0.738,-1.177 -1.261,-1.571 -1.209,-0.122 -2.249,0.754 -3.125,1.476 -0.408,0.347 -1.313,0.806 -0.865,1.435 m 5.406,4.172 C -8.794,7.779 -9.002,7.109 -9.03,6.814 -9.168,6.056 -9.083,5.143 -9.562,4.515 c -0.965,0.356 -1.901,0.902 -2.669,1.588 0.84,0.704 1.872,1.178 2.918,1.49 m 0.428,-9.011 c -0.908,-0.356 -1.384,1.173 -0.428,1.404 0.866,0.271 1.302,-1.148 0.428,-1.404 m 0.699,9.25 c 1.055,0.24 2.182,0.216 3.238,0.015 0.238,-0.484 0.106,-1.056 0.122,-1.576 0.094,-1.155 0.033,-2.496 -0.8,-3.387 -0.762,0.044 -1.955,-0.401 -2.317,0.536 -0.461,0.882 -0.431,1.89 -0.372,2.853 0.047,0.509 -0.158,1.115 0.129,1.559 m 2.974,-10.799 c 0.422,0.156 0.854,-0.198 0.991,-0.582 0.077,-0.56 -0.628,-1.102 -1.125,-0.75 -0.549,0.266 -0.427,1.156 0.134,1.332 m -1.583,4.825 c 0.923,0.309 1.323,-1.251 0.376,-1.43 -0.865,-0.231 -1.228,1.166 -0.376,1.43 m -0.618,-5.796 c -0.102,-0.502 -0.8,-0.714 -1.155,-0.335 -0.486,0.319 -0.293,1.12 0.26,1.228 0.517,0.208 1.101,-0.376 0.895,-0.893 m -0.041,1.354 c -0.932,0.671 -0.477,2.307 0.657,2.428 0.845,0.146 1.694,-0.645 1.578,-1.508 -0.03,-1.05 -1.474,-1.665 -2.235,-0.92 m 3.175,2.554 c 0.834,0.396 1.437,-0.977 0.578,-1.308 -0.87,-0.455 -1.534,1.016 -0.578,1.308 M -4.13,7.611 C -2.956,7.433 -1.859,6.801 -0.905,6.104 -1.66,5.479 -2.515,4.948 -3.418,4.564 -3.738,4.407 -3.853,4.857 -3.9,5.085 -4.048,5.915 -4.211,6.771 -4.13,7.611 M 1.617,3.319 C 1.944,2.886 1.357,2.481 1.02,2.288 0.07,1.419 -1.113,0.37 -2.491,0.504 c -0.486,0.438 -0.942,0.993 -1.25,1.576 0.287,1.155 1.226,2.003 2.16,2.667 0.366,0.358 0.818,0.655 1.298,0.834 0.792,-0.589 1.345,-1.454 1.9,-2.262 M -9.054,13.398 c -4.232,-0.687 -8.131,-3.266 -10.361,-6.937 -2.338,-3.704 -2.935,-8.487 -1.523,-12.638 1.443,-4.632 5.306,-8.405 9.952,-9.787 3.784,-1.184 8.031,-0.759 11.519,1.122 3.44,1.813 6.081,5.024 7.275,8.717 1.48,4.415 0.69,9.487 -1.993,13.283 -3.217,4.706 -9.257,7.238 -14.869,6.24" />
          </g>
        </g>
      </g>
    </g>
  </g>
</svg>
