<?xml version="1.0" encoding="utf-8"?>
<!-- Generator: Adobe Illustrator 22.1.0, SVG Export Plug-In . SVG Version: 6.00 Build 0)  -->
<svg version="1.1" id="Layer_1" xmlns="http://www.w3.org/2000/svg" xmlns:xlink="http://www.w3.org/1999/xlink" x="0px" y="0px"
	 viewBox="0 0 200 200" style="enable-background:new 0 0 200 200;" xml:space="preserve">
<style type="text/css">
	.st0{fill:#B9CE00;}
</style>
<g>
	<path class="st0" d="M175.5,80.6c-3.6-8.8-10.2-14.7-18.8-18.1c0.4-4.1,1-8,1-11.9c0-12.2-5.7-21.4-16.1-27.4
		c-10.6-6.1-21.7-6-32.3,0.2c-3.1,1.8-4.3,1.3-6.3-1.1C93.9,11.6,79,8.2,65.8,13.8C50.7,20.3,42.5,38.5,48,53c0.8,2.2,0.2,3.3-2.2,4
		C33.8,60.6,26.3,68.6,23,80.7c-3.9,14,5.1,31.7,18.6,37c9.8,3.8,19.3,3.2,28.8-1.3c1.9,2.1,3.7,4.2,5.4,6.1l9.5,11.3
		c0.1,0.1,0.2,0.2,0.3,0.3l0.6,0.7c0,0,4.8,5.8,4.8,10.3c0,0,0,0,0,0c0,0.5,0,0.9,0,1.4c-0.1,3.4-0.3,6.9-0.5,10.3
		c-0.5,10.6-1,21.3-1.5,32.1c6.7,0,13,0,19.4,0c0.1-0.7,0.2-1.1,0.2-1.5c-0.4-12.3-1-24.5-1.2-36.8c0-2.1,0.8-4.7,2.2-6.2
		c6.4-6.9,13.1-13.7,19.8-20.3c0.9-0.9,3.1-1.5,4.3-1.1c8.3,3,16.4,2.9,24.6-0.4C174.8,115.8,182.1,96.8,175.5,80.6z M91.4,125.2
		l-5.7-5.2l0,0c-2.4-2.2-4.7-4.4-7-6.7c-0.7-0.7-0.9-1.8-1.4-2.7c1.3-0.3,2.7-1.1,3.8-0.8c3.6,1,7.1,2.4,11.1,3.8
		C91.9,117.2,91.7,120.9,91.4,125.2z M105.5,127.3v-11.4h8.1l8.1,3.4L105.5,127.3z"/>
</g>
</svg>
