<?xml version="1.0" encoding="UTF-8" standalone="no"?>
<svg
   xmlns:dc="http://purl.org/dc/elements/1.1/"
   xmlns:cc="http://creativecommons.org/ns#"
   xmlns:rdf="http://www.w3.org/1999/02/22-rdf-syntax-ns#"
   xmlns:svg="http://www.w3.org/2000/svg"
   xmlns="http://www.w3.org/2000/svg"
   height="120pt"
   width="120pt"
   xml:space="preserve"
   viewBox="0 0 160 160"
   y="0px"
   x="0px"
   id="Layer_1"
   version="1.1"><metadata
     id="metadata4533"><rdf:RDF><cc:Work
         rdf:about=""><dc:format>image/svg+xml</dc:format><dc:type
           rdf:resource="http://purl.org/dc/dcmitype/StillImage" /><dc:title></dc:title></cc:Work></rdf:RDF></metadata><defs
     id="defs4531" /><style
     id="style4504"
     type="text/css">
	.st0{fill:#03234B;}
</style><g
     transform="matrix(0.29618122,0,0,0.29618122,6.2007628,6.00825)"
     style="fill:#3CB4E6;fill-opacity:1;stroke:none"
     id="g4526"><g
       style="fill:#3CB4E6;fill-opacity:1;stroke:none"
       id="g4514"><path
         style="fill:#3CB4E6;fill-opacity:1;stroke:none"
         id="path4506"
         d="m 108.6,323.5 c 20.5,59.8 77.6,101.1 141.4,101.1 63.7,0 120.9,-41.2 141.4,-101.1 23.8,1.3 43.6,-17.8 43.6,-41.4 0,-22.2 -17.6,-40.4 -39.6,-41.4 -15.8,-67.1 -75.8,-115 -145.4,-115 -69.6,0 -129.6,48 -145.4,115 -22,1 -39.6,19.2 -39.6,41.4 0,23.6 19.8,42.7 43.6,41.4 z m -2.2,-66.8 c 1,0 2.1,0.1 3.5,0.3 4.2,0.6 8.2,-2.3 9,-6.5 9.5,-50.7 47,-90.2 94.7,-103.7 -4,6.5 -6.3,14 -6.3,22.2 0,16.3 9.7,31.4 24.6,38.5 6.6,3.1 13.4,4.7 19.8,4.7 7,0 13.6,-1.8 19.4,-5.5 8.9,-5.6 14.2,-14.8 14.2,-24.4 0,-14.6 -11.8,-26.4 -26.4,-26.4 -6.3,0 -12.5,2.3 -17.3,6.4 -3,2.6 -3.3,7.1 -0.7,10.1 2.6,3 7.1,3.3 10.1,0.7 2.2,-1.9 5,-3 7.9,-3 6.7,0 12.1,5.4 12.1,12.1 0,4.8 -2.8,9.4 -7.5,12.4 -6.9,4.4 -16.2,4.4 -25.5,0 -10,-4.7 -16.4,-14.7 -16.4,-25.6 0,-12.7 8.5,-23.5 20.1,-26.9 2.7,-0.2 5.5,-0.3 8.2,-0.3 64.2,0 119.3,45.7 131.1,108.8 0.8,4.2 4.7,7.1 9,6.5 1.4,-0.2 2.5,-0.3 3.5,-0.3 14,0 25.4,11.4 25.4,25.4 0,14 -11.4,25.4 -25.4,25.4 -1.9,0 -3.9,-0.2 -5.9,-0.7 -4.2,-1 -8.4,1.5 -9.6,5.6 -16.4,56.6 -69.1,96.2 -128.1,96.2 -59,0 -111.6,-39.5 -128.1,-96.2 -1,-3.5 -4.2,-5.8 -7.7,-5.8 -0.6,0 -1.2,0.1 -1.9,0.2 -2,0.5 -4,0.7 -5.9,0.7 -14,0 -25.4,-11.4 -25.4,-25.4 0,-14 11.6,-25.5 25.5,-25.5 z"
         class="st0" /><path
         style="fill:#3CB4E6;fill-opacity:1;stroke:none"
         id="path4508"
         d="m 179.5,317 c -3.6,4.4 -5.8,10 -5.8,16.1 0,13.9 11.2,25.1 25.1,25.1 3.5,0 6.9,-0.7 9.9,-2 0.1,-0.1 0.2,-0.1 0.4,-0.2 0.5,-0.2 0.9,-0.4 1.4,-0.7 9.1,-4.2 22.4,-12.3 39.6,-12.3 17.2,0 30.5,8.1 39.6,12.3 0.4,0.2 0.9,0.4 1.4,0.7 0.1,0.1 0.2,0.1 0.4,0.2 3.1,1.3 6.4,2 9.9,2 13.9,0 25.1,-11.2 25.1,-25.1 0,-6.1 -2.2,-11.7 -5.8,-16.1 -0.7,-0.8 -22.6,-27.9 -70.5,-27.9 -48.1,0 -70,27 -70.7,27.9 z"
         class="st0" /><path
         style="fill:#3CB4E6;fill-opacity:1;stroke:none"
         id="path4510"
         d="m 173,264.4 c 0.5,0.1 1,0.2 1.5,0.2 3.3,0 6.2,-2.3 7,-5.6 0.4,-1.5 3.8,-6.3 9.5,-8.4 5.8,-2.2 12.2,-0.9 19,3.7 3.3,2.2 7.7,1.4 9.9,-1.9 2.2,-3.3 1.4,-7.7 -1.9,-9.9 -13.7,-9.4 -25.3,-8 -32.6,-5.1 -9.8,3.9 -16.6,12.4 -17.9,18.5 -0.8,3.9 1.7,7.7 5.5,8.5 z"
         class="st0" /><path
         style="fill:#3CB4E6;fill-opacity:1;stroke:none"
         id="path4512"
         d="m 290,254.3 c 6.7,-4.6 13.1,-5.9 19,-3.7 5.7,2.1 9.1,6.8 9.5,8.4 0.7,3.3 3.7,5.6 7,5.6 0.5,0 1,-0.1 1.5,-0.2 3.9,-0.8 6.3,-4.7 5.4,-8.5 -1.3,-6 -8.1,-14.6 -17.9,-18.5 -7.3,-2.9 -18.9,-4.3 -32.6,5.1 -3.3,2.2 -4.1,6.7 -1.9,9.9 2.3,3.3 6.7,4.1 10,1.9 z"
         class="st0" /></g><path
       style="fill:#3CB4E6;fill-opacity:1;stroke:none"
       id="path4516"
       d="m 463.1,206 c 0,0 0,0 0,0 -0.1,0 -0.1,0 -0.1,-0.1 -19.2,-10.5 -43.3,-5.1 -56.2,12.5 0,0 0,0 0,0.1 0,0 -0.1,0.1 -0.1,0.1 0,0 -0.1,0.1 -0.1,0.1 -0.1,0.1 -0.1,0.2 -0.2,0.3 0,0.1 -0.1,0.1 -0.1,0.2 -0.1,0.1 -0.1,0.2 -0.1,0.3 0,0.1 -0.1,0.2 -0.1,0.2 0,0.1 -0.1,0.2 -0.1,0.3 0,0.1 -0.1,0.2 -0.1,0.3 0,0.1 -0.1,0.2 -0.1,0.3 0,0.1 0,0.2 -0.1,0.3 0,0.1 0,0.2 0,0.3 0,0.1 0,0.2 0,0.3 0,0.1 0,0.2 0,0.3 0,0.1 0,0.2 0,0.3 0,0.1 0,0.1 0,0.2 0,0 0,0.1 0,0.1 0,0.1 0,0.2 0,0.3 0,0.1 0,0.2 0,0.3 0,0.1 0,0.2 0,0.3 0,0.1 0,0.2 0.1,0.3 0,0.1 0,0.1 0.1,0.2 0,0.1 0.1,0.2 0.1,0.4 0,0.1 0,0.1 0.1,0.2 0,0.1 0.1,0.2 0.2,0.4 0,0.1 0.1,0.1 0.1,0.2 0.1,0.1 0.1,0.2 0.2,0.3 0,0.1 0.1,0.1 0.1,0.2 0.1,0.1 0.1,0.2 0.2,0.3 0,0.1 0.1,0.1 0.1,0.2 0.1,0.1 0.1,0.2 0.2,0.3 0,0.1 0.1,0.1 0.2,0.2 0.1,0.1 0.2,0.2 0.3,0.3 0.1,0 0.1,0.1 0.2,0.1 0.1,0.1 0.2,0.2 0.3,0.2 0,0 0,0 0.1,0 0.1,0 0.1,0.1 0.2,0.1 0.1,0 0.1,0.1 0.2,0.1 0.1,0.1 0.3,0.2 0.4,0.2 0,0 0,0 0.1,0 0.2,0.1 0.3,0.1 0.5,0.2 0,0 0.1,0 0.1,0 0.1,0 0.3,0.1 0.4,0.1 0,0 0.1,0 0.1,0 0.1,0 0.3,0.1 0.4,0.1 0,0 0.1,0 0.1,0 0.2,0 0.4,0.1 0.6,0.1 0,0 0,0 0,0 0.1,0 0.3,0 0.4,0 0,0 0.1,0 0.1,0 0,0 0.1,0 0.1,0 10.3,-0.3 20.2,3.9 27.1,11.5 0,0 0,0 0,0 3.8,4.2 9.2,6.6 14.7,6.6 1.8,0 3.6,-0.3 5.4,-0.8 0,0 0,0 0,0 8.2,-2.4 14.1,-9.5 15,-18.2 0.6,-8.5 -3.6,-16.8 -11.1,-21.1 z m -5.8,10.2 c 3.4,2 5.3,5.7 4.9,9.5 -0.4,3.9 -3,7.1 -6.6,8.2 0,0 0,0 0,0 -2.8,0.8 -6,-0.1 -8.1,-2.4 0,0 0,0 0,0 -6.2,-6.9 -14.2,-11.7 -23,-13.9 9.6,-6.3 22.2,-7.1 32.8,-1.4 z"
       class="st0" /><path
       style="fill:#3CB4E6;fill-opacity:1;stroke:none"
       id="path4518"
       d="m 86.4,228 c 0.1,0 0.1,0 0,0 0.1,0 0.2,0 0.2,0 0.1,0 0.2,0 0.3,0 0,0 0.1,0 0.1,0 0.2,0 0.3,0 0.5,-0.1 0.1,0 0.2,0 0.2,0 0.1,0 0.2,0 0.3,-0.1 0.1,0 0.2,0 0.2,-0.1 0.1,0 0.2,-0.1 0.3,-0.1 0.1,0 0.2,-0.1 0.2,-0.1 0.1,0 0.2,-0.1 0.3,-0.1 0.1,-0.1 0.2,-0.1 0.3,-0.2 0.1,0 0.2,-0.1 0.3,-0.2 0.1,0 0.1,-0.1 0.2,-0.1 0.1,0 0.1,-0.1 0.2,-0.1 0,0 0,0 0.1,0 0.1,-0.1 0.2,-0.1 0.3,-0.2 0.1,-0.1 0.1,-0.1 0.2,-0.2 0.1,-0.1 0.1,-0.1 0.2,-0.2 0.1,-0.1 0.1,-0.1 0.2,-0.2 0.1,-0.1 0.1,-0.1 0.1,-0.2 0.1,-0.1 0.1,-0.2 0.2,-0.3 0,-0.1 0.1,-0.1 0.1,-0.2 0.1,-0.1 0.1,-0.2 0.2,-0.3 0,-0.1 0.1,-0.1 0.1,-0.2 0,-0.1 0.1,-0.2 0.1,-0.3 0,-0.1 0.1,-0.2 0.1,-0.3 0,-0.1 0.1,-0.2 0.1,-0.2 0,-0.1 0.1,-0.2 0.1,-0.3 0,-0.1 0,-0.2 0.1,-0.2 0,-0.1 0,-0.2 0.1,-0.3 0,-0.1 0,-0.2 0.1,-0.3 0,-0.1 0,-0.2 0,-0.3 0,-0.1 0,-0.2 0,-0.3 0,0 0,-0.1 0,-0.1 0,-0.1 0,-0.1 0,-0.2 0,-0.1 0,-0.2 0,-0.3 0,-0.1 0,-0.2 0,-0.3 0,-0.1 0,-0.2 0,-0.3 0,-0.1 0,-0.2 0,-0.3 0,-0.1 0,-0.2 -0.1,-0.3 0,-0.1 -0.1,-0.2 -0.1,-0.3 0,-0.1 -0.1,-0.2 -0.1,-0.3 0,-0.1 -0.1,-0.2 -0.1,-0.3 0,-0.1 -0.1,-0.2 -0.1,-0.2 0,-0.1 -0.1,-0.2 -0.1,-0.3 0,-0.1 -0.1,-0.2 -0.1,-0.2 -0.1,-0.1 -0.1,-0.2 -0.2,-0.3 0,0 -0.1,-0.1 -0.1,-0.1 0,0 -0.1,-0.1 -0.1,-0.1 0,0 0,0 0,0 C 78,200.3 54,195 35.2,206 c 0,0 0,0 0,0 0,0 0,0 0,0 0,0 -0.1,0 -0.1,0.1 0,0 -0.1,0 -0.1,0.1 -7.4,4.2 -11.7,12.6 -10.8,21 1,8.6 6.9,15.7 15.2,18.2 0,0 0,0 0,0 1.8,0.5 3.6,0.8 5.5,0.8 5.5,0 10.8,-2.3 14.6,-6.4 0,0 0,0 0,0 C 66.4,232 76.3,227.7 86.4,228 Z M 73.8,217.8 c -8.8,2.3 -16.8,7.1 -23.1,14.1 0,0 0,0 0,0 -2,2.2 -5.2,3.1 -8,2.3 0,0 0,0 0,0 -3.7,-1.1 -6.4,-4.4 -6.9,-8.2 -0.4,-3.8 1.6,-7.6 5.1,-9.5 0,0 0,0 0.1,0 0,0 0,0 0.1,0 10.3,-6.3 23,-5.4 32.7,1.3 z"
       class="st0" /><g
       style="fill:#3CB4E6;fill-opacity:1;stroke:none"
       id="g4524"><path
         style="fill:#3CB4E6;fill-opacity:1;stroke:none"
         id="path4520"
         d="m 338.8,120.5 c 0,0.1 0.1,0.2 0.1,0.3 0,0.1 0.1,0.1 0.1,0.2 0.1,0.1 0.1,0.2 0.2,0.3 0,0.1 0.1,0.1 0.1,0.2 0.1,0.1 0.1,0.2 0.2,0.3 0,0 0,0.1 0.1,0.1 0.1,0.1 0.2,0.3 0.4,0.4 0,0 0,0 0,0 0.1,0.1 0.2,0.2 0.4,0.4 0,0 0,0 0,0 0,0 0,0 0.1,0 0.1,0.1 0.2,0.2 0.3,0.2 0,0 0.1,0.1 0.1,0.1 0.1,0.1 0.2,0.1 0.3,0.2 0,0 0.1,0 0.1,0.1 0.1,0.1 0.3,0.1 0.4,0.2 0.1,0 0.1,0.1 0.2,0.1 0.1,0 0.1,0.1 0.2,0.1 0.1,0 0.2,0.1 0.2,0.1 0.1,0 0.2,0.1 0.2,0.1 0.1,0 0.1,0 0.2,0.1 0.1,0 0.2,0 0.3,0.1 0.1,0 0.1,0 0.2,0 0.1,0 0.3,0 0.4,0 0,0 0.1,0 0.1,0 0.2,0 0.3,0 0.5,0 0.2,0 0.4,0 0.6,0 0,0 0.1,0 0.1,0 0.2,0 0.3,0 0.5,-0.1 0.1,0 0.1,0 0.2,0 0.1,0 0.2,-0.1 0.4,-0.1 0.1,0 0.2,-0.1 0.2,-0.1 0,0 0.1,0 0.1,0 0,0 0.1,0 0.1,-0.1 0.1,0 0.2,-0.1 0.3,-0.1 0.1,0 0.2,-0.1 0.3,-0.1 0.1,0 0.2,-0.1 0.3,-0.1 0.1,-0.1 0.2,-0.1 0.3,-0.2 0.1,0 0.1,-0.1 0.2,-0.1 0.1,-0.1 0.2,-0.2 0.3,-0.3 0,0 0.1,-0.1 0.1,-0.1 0.2,-0.1 0.3,-0.3 0.4,-0.5 3.4,-3.9 8.9,-5.4 13.8,-3.7 0,0 0.1,0 0.1,0 0,0 0.1,0 0.1,0.1 0.1,0 0.1,0 0.2,0 0.1,0 0.1,0 0.2,0 1.6,0.5 3.3,0.7 5,0.7 6.7,0 13.3,-3.6 17.5,-9.9 4.9,-7.4 4.9,-16.9 0.1,-24.3 -4.8,-7.4 -13.6,-11.1 -22.3,-9.5 0,0 0,0 -0.1,0 0,0 0,0 -0.1,0 -9.7,2 -17.9,8 -22.7,16.7 -4.7,8.6 -5.4,18.8 -1.9,28 0.3,0.1 0.3,0.2 0.3,0.2 z m 26.8,-33.3 c 4,-0.7 8.1,1 10.3,4.4 2.3,3.4 2.2,7.9 0,11.3 -1.9,2.9 -5.8,5.5 -9.7,4.4 -5.9,-2 -12.3,-1.6 -17.9,0.9 0.1,-3.5 1,-7 2.7,-10.1 3,-5.7 8.4,-9.6 14.6,-10.9 z"
         class="st0" /><path
         style="fill:#3CB4E6;fill-opacity:1;stroke:none"
         id="path4522"
         d="m 132.8,119.5 c 1.9,0 3.7,-0.3 5.6,-1 0,0 0,0 0,0 v 0 c 4.9,-1.8 10.3,-0.4 13.7,3.5 0.1,0.2 0.3,0.3 0.4,0.5 0,0 0.1,0.1 0.1,0.1 0.1,0.1 0.2,0.2 0.3,0.3 0.1,0.1 0.1,0.1 0.2,0.1 0.1,0.1 0.2,0.1 0.3,0.2 0.1,0.1 0.2,0.1 0.3,0.1 0.1,0 0.2,0.1 0.3,0.1 0.1,0 0.2,0.1 0.3,0.1 0,0 0.1,0 0.1,0.1 0,0 0.1,0 0.1,0 0.1,0 0.2,0.1 0.3,0.1 0.1,0 0.2,0.1 0.4,0.1 0.1,0 0.1,0 0.2,0 0.2,0 0.3,0.1 0.5,0.1 0,0 0.1,0 0.1,0 0.2,0 0.4,0 0.6,0 0.2,0 0.3,0 0.5,0 0,0 0.1,0 0.1,0 0.1,0 0.3,0 0.4,0 0.1,0 0.1,0 0.2,0 0.1,0 0.2,0 0.3,-0.1 0.1,0 0.1,0 0.2,-0.1 0.1,0 0.2,0 0.2,-0.1 0.1,0 0.2,-0.1 0.2,-0.1 0.1,0 0.1,-0.1 0.2,-0.1 0.1,0 0.1,-0.1 0.2,-0.1 0.1,-0.1 0.3,-0.1 0.4,-0.2 0,0 0.1,0 0.1,-0.1 0.1,-0.1 0.2,-0.1 0.3,-0.2 0,0 0.1,-0.1 0.1,-0.1 0.1,-0.1 0.2,-0.2 0.3,-0.2 0,0 0,0 0.1,0 0,0 0,0 0,0 0.1,-0.1 0.3,-0.2 0.4,-0.4 0,0 0,0 0,0 0.1,-0.1 0.2,-0.3 0.4,-0.4 0,0 0.1,-0.1 0.1,-0.1 0.1,-0.1 0.2,-0.2 0.2,-0.3 0,-0.1 0.1,-0.1 0.1,-0.2 0.1,-0.1 0.1,-0.2 0.2,-0.3 0,-0.1 0.1,-0.1 0.1,-0.2 0.1,-0.1 0.1,-0.2 0.2,-0.3 0,-0.1 0,-0.1 0.1,-0.2 3.5,-9.2 2.8,-19.4 -1.9,-28 -4.8,-8.7 -13,-14.8 -22.6,-16.7 0,0 0,0 -0.1,0 0,0 0,0 -0.1,0 -8.7,-1.6 -17.5,2.2 -22.3,9.6 -4.9,7.4 -4.8,16.9 0.1,24.3 3.6,5.7 10.4,10.2 17.5,10.2 z m -7.9,-27.9 c 2.2,-3.4 6.3,-5.2 10.3,-4.4 6.2,1.3 11.5,5.2 14.6,10.9 1.7,3.1 2.6,6.6 2.7,10.1 -5.6,-2.5 -12,-2.8 -18,-0.6 -2.8,1 -7.2,-1.1 -9.5,-4.6 -2.3,-3.5 -2.3,-7.9 -0.1,-11.4 z"
         class="st0" /></g></g></svg>