<?xml version="1.0" encoding="UTF-8" standalone="no"?>
<svg
   xmlns:dc="http://purl.org/dc/elements/1.1/"
   xmlns:cc="http://creativecommons.org/ns#"
   xmlns:rdf="http://www.w3.org/1999/02/22-rdf-syntax-ns#"
   xmlns:svg="http://www.w3.org/2000/svg"
   xmlns="http://www.w3.org/2000/svg"
   xmlns:sodipodi="http://sodipodi.sourceforge.net/DTD/sodipodi-0.dtd"
   xmlns:inkscape="http://www.inkscape.org/namespaces/inkscape"
   height="120pt"
   width="120pt"
   xml:space="preserve"
   viewBox="0 0 160 160"
   y="0px"
   x="0px"
   id="Layer_1"
   version="1.1"
   sodipodi:docname="Baby_ST BLE-01.svg"
   inkscape:version="0.92.1 r15371"><sodipodi:namedview
     pagecolor="#FFFFFF"
     bordercolor="#666666"
     borderopacity="1"
     objecttolerance="10"
     gridtolerance="10"
     guidetolerance="10"
     inkscape:pageopacity="0"
     inkscape:pageshadow="2"
     inkscape:window-width="1920"
     inkscape:window-height="1017"
     id="namedview4511"
     showgrid="false"
     inkscape:zoom="1.475"
     inkscape:cx="80"
     inkscape:cy="80"
     inkscape:window-x="-8"
     inkscape:window-y="-8"
     inkscape:window-maximized="1"
     inkscape:current-layer="Layer_1" /><metadata
     id="metadata4502"><rdf:RDF><cc:Work
         rdf:about=""><dc:format>image/svg+xml</dc:format><dc:type
           rdf:resource="http://purl.org/dc/dcmitype/StillImage" /><dc:title /></cc:Work></rdf:RDF></metadata><defs
     id="defs4500" /><style
     id="style4485"
     type="text/css">
	.st0{fill:#03234B;}
</style><g
     transform="matrix(0.29618018,0,0,0.29618018,5.954955,-1.4939765)"
     style="fill:#3CB4E6;fill-opacity:1;stroke:none;stroke-opacity:1"
     id="g4495"><circle
       style="fill:#3CB4E6;fill-opacity:1;stroke:none;stroke-opacity:1"
       id="circle4487"
       r="18.6"
       cy="254.10001"
       cx="196.8"
       class="st0" /><circle
       style="fill:#3CB4E6;fill-opacity:1;stroke:none;stroke-opacity:1"
       id="circle4489"
       r="18.6"
       cy="254.10001"
       cx="303.20001"
       class="st0" /><path
       style="fill:#3CB4E6;fill-opacity:1;stroke:none;stroke-opacity:1"
       id="path4491"
       d="m 108.6,323.5 c 20.5,59.8 77.6,101.1 141.4,101.1 63.7,0 120.9,-41.2 141.4,-101.1 23.8,1.3 43.6,-17.8 43.6,-41.4 0,-22.2 -17.6,-40.4 -39.6,-41.4 -15.8,-67.1 -75.8,-115 -145.4,-115 -69.6,0 -129.6,48 -145.4,115 -22,1 -39.6,19.2 -39.6,41.4 0,23.6 19.8,42.7 43.6,41.4 z m -2.2,-66.8 c 1,0 2.1,0.1 3.5,0.3 4.2,0.6 8.2,-2.3 9,-6.5 9.5,-50.7 47,-90.2 94.7,-103.7 -4,6.5 -6.3,14 -6.3,22.2 0,16.3 9.7,31.4 24.6,38.5 6.6,3.1 13.4,4.7 19.8,4.7 7,0 13.6,-1.8 19.4,-5.5 8.9,-5.6 14.2,-14.8 14.2,-24.4 0,-14.6 -11.8,-26.4 -26.4,-26.4 -6.3,0 -12.5,2.3 -17.3,6.4 -3,2.6 -3.3,7.1 -0.7,10.1 2.6,3 7.1,3.3 10.1,0.7 2.2,-1.9 5,-3 7.9,-3 6.7,0 12.1,5.4 12.1,12.1 0,4.8 -2.8,9.4 -7.5,12.4 -6.9,4.4 -16.2,4.4 -25.5,0 -10,-4.7 -16.4,-14.7 -16.4,-25.6 0,-12.7 8.5,-23.5 20.1,-26.9 2.7,-0.2 5.5,-0.3 8.2,-0.3 64.2,0 119.3,45.7 131.1,108.8 0.8,4.2 4.7,7.1 9,6.5 1.4,-0.2 2.5,-0.3 3.5,-0.3 14,0 25.4,11.4 25.4,25.4 0,14 -11.4,25.4 -25.4,25.4 -1.9,0 -3.9,-0.2 -5.9,-0.7 -4.2,-1 -8.4,1.5 -9.6,5.6 -16.4,56.6 -69.1,96.2 -128.1,96.2 -59,0 -111.6,-39.5 -128.1,-96.2 -1,-3.5 -4.2,-5.8 -7.7,-5.8 -0.6,0 -1.2,0.1 -1.9,0.2 -2,0.5 -4,0.7 -5.9,0.7 -14,0 -25.4,-11.4 -25.4,-25.4 0.2,-14.1 11.6,-25.5 25.5,-25.5 z"
       class="st0"
       inkscape:connector-curvature="0" /><path
       style="fill:#3CB4E6;fill-opacity:1;stroke:none;stroke-opacity:1"
       id="path4493"
       d="m 196.6,332.7 c 0,10.5 5.3,19.9 14.1,26.9 0.2,21.5 17.7,38.9 39.3,38.9 21.5,0 39,-17.4 39.3,-38.9 8.8,-7 14.1,-16.4 14.1,-26.9 0,-22.1 -23.4,-39.4 -53.4,-39.4 -29.9,0 -53.4,17.3 -53.4,39.4 z m 78.3,27.3 c -0.1,2.9 -0.7,5.7 -1.7,8.2 -3.6,9.3 -12.7,15.9 -23.3,15.9 -10.6,0 -19.6,-6.6 -23.3,-15.9 -1,-2.6 -1.6,-5.3 -1.7,-8.2 0,-0.3 0,-0.6 0,-0.8 0,-2.3 0.3,-4.4 0.9,-6.5 2.9,-10.6 12.6,-18.5 24.1,-18.5 11.5,0 21.2,7.9 24.1,18.5 0.6,2.1 0.9,4.2 0.9,6.5 0.1,0.3 0.1,0.5 0,0.8 z M 250,307.2 c 21.4,0 39.5,11.7 39.5,25.5 0,3.7 -1.3,7.3 -3.6,10.5 C 279.8,329.5 266,320 250.1,320 c -15.9,0 -29.7,9.6 -35.8,23.2 -2.3,-3.2 -3.6,-6.8 -3.6,-10.5 -0.2,-13.8 17.9,-25.5 39.3,-25.5 z"
       class="st0"
       inkscape:connector-curvature="0" /></g><g
     inkscape:groupmode="layer"
     id="layer1"
     inkscape:label="Layer 1" /></svg>