<?xml version="1.0" encoding="utf-8"?>
<!-- Generator: Adobe Illustrator 21.1.0, SVG Export Plug-In . SVG Version: 6.00 Build 0)  -->
<svg version="1.1" id="Layer_1" xmlns="http://www.w3.org/2000/svg" xmlns:xlink="http://www.w3.org/1999/xlink" x="0px" y="0px"
	 viewBox="0 0 100 100" style="enable-background:new 0 0 100 100;" xml:space="preserve">
<style type="text/css">
	.st0{fill:#49B170;}
</style>
<g>
	<path class="st0" d="M50,99c13.1,0,25.4-5.1,34.6-14.4c9.8-9.8,15-23.5,14.3-37.4c-0.1-2.2-2-3.9-4.2-3.8c-2.2,0.1-3.9,2-3.8,4.2
		c0.6,11.6-3.7,23-11.9,31.3c-7.7,7.7-18,12-29,12c-11,0-21.2-4.3-29-12C13.3,71.2,9,61,9,50c0-11,4.3-21.2,12-29
		c8.2-8.2,19.6-12.6,31.3-11.9c2.2,0.1,4.1-1.6,4.2-3.8c0.1-2.2-1.6-4.1-3.8-4.2C38.8,0.3,25.2,5.5,15.4,15.4C6.1,24.6,1,36.9,1,50
		c0,13.1,5.1,25.4,14.4,34.6C24.6,93.9,36.9,99,50,99z"/>
	<path class="st0" d="M63,11.1c6.1,2,11.5,5.4,16,9.9c4.6,4.6,7.9,9.9,9.9,16c0.6,1.7,2.1,2.7,3.8,2.7c0.4,0,0.8-0.1,1.3-0.2
		c2.1-0.7,3.2-3,2.5-5.1c-2.4-7.3-6.4-13.7-11.8-19.2C79.2,9.9,72.8,5.9,65.5,3.5c-2.1-0.7-4.4,0.4-5.1,2.5
		C59.7,8.1,60.9,10.4,63,11.1z"/>
	<ellipse transform="matrix(0.7071 -0.7071 0.7071 0.7071 -20.7107 49.9997)" class="st0" cx="50" cy="50" rx="5.7" ry="5.7"/>
	<path class="st0" d="M61.6,46.6c0.6,1.7,2.1,2.7,3.8,2.7c0.4,0,0.8-0.1,1.3-0.2c2.1-0.7,3.2-3,2.5-5.1c-0.6-1.9-2.1-5.5-4.9-8.3
		c-2.8-2.8-6.4-4.3-8.3-4.9c-2.1-0.7-4.4,0.4-5.1,2.5c-0.7,2.1,0.4,4.4,2.5,5.1c2.1,0.7,4,1.8,5.2,3S60.9,44.5,61.6,46.6z"/>
	<path class="st0" d="M55.6,19.3c-0.9,2,0.1,4.4,2.1,5.3c3.6,1.6,6.9,3.8,9.7,6.6c3.2,3.2,5.6,7,7.2,11.2c0.6,1.6,2.1,2.6,3.7,2.6
		c0.5,0,0.9-0.1,1.4-0.3c2.1-0.8,3.1-3.1,2.3-5.1c-2-5.3-5-10-9.1-14.1c-3.5-3.5-7.7-6.3-12.2-8.3C58.8,16.4,56.4,17.3,55.6,19.3z"
		/>
</g>
</svg>
