<?xml version="1.0" encoding="UTF-8" standalone="no"?>
<svg
   xmlns:dc="http://purl.org/dc/elements/1.1/"
   xmlns:cc="http://creativecommons.org/ns#"
   xmlns:rdf="http://www.w3.org/1999/02/22-rdf-syntax-ns#"
   xmlns:svg="http://www.w3.org/2000/svg"
   xmlns="http://www.w3.org/2000/svg"
   id="svg97"
   version="1.1"
   viewBox="0 0 58.208332 58.208335"
   height="220"
   width="220">
  <defs
     id="defs91" />
  <metadata
     id="metadata94">
    <rdf:RDF>
      <cc:Work
         rdf:about="">
        <dc:format>image/svg+xml</dc:format>
        <dc:type
           rdf:resource="http://purl.org/dc/dcmitype/StillImage" />
        <dc:title></dc:title>
      </cc:Work>
    </rdf:RDF>
  </metadata>
  <g
     transform="translate(0,-238.79165)"
     id="layer1">
    <g
       transform="translate(-12.888578,73.69019)"
       id="g133">
      <g
         transform="matrix(0.10512699,0,0,-0.10512699,66.887308,188.92279)"
         id="g28">
        <path
           id="path30"
           style="fill:#3ca9dd;fill-opacity:1;fill-rule:evenodd;stroke:none"
           d="m 0,0 c 0,5.132 -0.134,10.266 0.026,15.391 0.388,12.432 -3.757,23.259 -11.267,32.975 -5.604,7.249 -12.305,13.345 -19.657,18.758 -14.136,10.41 -29.713,18.138 -46.01,24.477 -39.062,15.19 -79.831,22.367 -121.423,25.388 -28.901,2.098 -57.798,1.788 -86.682,-0.783 -26.83,-2.387 -53.311,-6.703 -79.295,-13.828 -23.495,-6.441 -46.206,-14.895 -67.156,-27.569 -10.361,-6.267 -19.749,-13.696 -28.06,-22.594 -14.028,-15.019 -15.939,-32.999 -13.763,-52.162 0.343,-0.04 0.583,-0.141 0.663,-0.068 0.811,0.75 1.644,1.484 2.378,2.304 6.958,7.793 14.898,14.441 23.509,20.321 13.385,9.143 27.781,16.343 42.828,22.274 43.933,17.314 89.845,24.958 136.723,27.628 28.37,1.614 56.708,0.908 85.002,-1.905 28.288,-2.814 56.199,-7.609 83.423,-15.832 C -62.211,43.736 -27.573,29.136 0,0 m -409.359,-108.985 c 0.287,0.265 0.574,0.528 0.859,0.795 -0.767,1.844 -1.501,3.705 -2.308,5.536 -5.98,13.572 -11.982,27.136 -17.952,40.71 -0.743,1.693 -1.54,3.404 -1.964,5.189 -0.776,3.271 0.823,6.429 3.732,7.914 3.139,1.604 6.835,0.899 8.97,-1.995 1.081,-1.466 1.776,-3.238 2.523,-4.926 8.78,-19.835 17.577,-39.663 26.289,-59.526 8.266,-18.843 16.471,-37.713 24.637,-56.599 4.055,-9.378 10.829,-16.257 19.282,-21.709 8.789,-5.671 18.296,-9.797 28.171,-13.102 22.516,-7.53 45.757,-10.845 69.409,-11.713 27.229,-0.998 54.109,1.412 80.465,8.497 13.295,3.575 26.113,8.418 37.86,15.766 8.85,5.539 15.962,12.609 20.17,22.366 2.715,6.296 5.733,12.461 8.474,18.747 14.09,32.284 28.129,64.586 42.2,96.876 0.739,1.695 1.43,3.457 2.46,4.974 2.076,3.05 5.605,3.959 8.824,2.521 3.211,-1.433 4.963,-4.733 4.171,-8.218 -0.324,-1.429 -1.013,-2.782 -1.609,-4.135 -6.188,-14.089 -12.401,-28.169 -18.583,-42.258 -0.714,-1.622 -1.306,-3.297 -1.907,-4.829 0.517,-0.371 0.675,-0.572 0.793,-0.552 0.536,0.101 1.099,0.188 1.588,0.416 14.709,6.816 28.643,14.861 40.772,25.751 6.39,5.739 11.98,12.145 16.13,19.721 4.485,8.186 6.563,16.849 5.531,26.227 -1.116,10.15 -5.683,18.714 -11.919,26.514 -6.428,8.039 -14.238,14.584 -22.7,20.372 -12.772,8.733 -26.552,15.531 -40.925,21.161 -42.772,16.757 -87.466,24.07 -133.069,26.404 -30.421,1.556 -60.819,0.717 -91.112,-2.955 -28.239,-3.424 -56.004,-8.935 -82.991,-18.021 -21.003,-7.068 -41.147,-15.946 -59.201,-29.034 -8.307,-6.024 -15.847,-12.859 -21.81,-21.287 -13.004,-18.369 -12.943,-37.506 0.175,-55.753 5.354,-7.449 11.941,-13.682 19.19,-19.239 10.928,-8.378 22.86,-15.008 35.375,-20.606 m 172.431,241.933 c 47.723,-0.022 94.723,-5.435 140.574,-19.155 21.562,-6.452 42.337,-14.802 61.628,-26.554 10.981,-6.69 21.135,-14.413 29.894,-23.895 C 8.313,49.107 15.415,32.67 14.843,12.938 14.365,-3.558 14.451,-20.087 14.823,-36.591 15.24,-55.034 8.758,-70.64 -3.229,-84.271 c -9.534,-10.842 -20.74,-19.721 -33.328,-26.61 -11.037,-6.038 -22.528,-11.266 -33.964,-16.536 -2.909,-1.341 -4.777,-2.883 -6.034,-5.875 -5.966,-14.177 -12.332,-28.189 -18.236,-42.394 -6.285,-15.128 -17.364,-25.583 -31.319,-33.45 -14.506,-8.174 -30.057,-13.589 -46.246,-17.118 -48.162,-10.494 -96.08,-9.799 -143.599,3.853 -13.423,3.858 -26.186,9.328 -37.907,17.037 -10.613,6.98 -19.087,15.821 -24.18,27.653 -6.306,14.641 -12.793,29.203 -18.969,43.895 -1.415,3.363 -3.45,5.248 -6.812,6.574 -17.487,6.892 -34.15,15.363 -49.195,26.764 -8.619,6.535 -16.432,13.888 -22.77,22.707 -8.356,11.623 -12.92,24.392 -12.688,38.928 0.294,18.546 0.243,37.102 0.015,55.65 -0.164,13.304 3.833,25.162 11.158,36.061 6.595,9.81 14.984,17.897 24.373,24.978 19.622,14.799 41.701,24.762 64.831,32.558 29.105,9.812 59.045,15.766 89.536,19.174 20.484,2.289 41.018,3.51 61.635,3.37" />
      </g>
      <g
         transform="matrix(0.10512699,0,0,-0.10512699,46.798224,187.18534)"
         id="g32">
        <path
           id="path34"
           style="fill:#3ca9dd;fill-opacity:1;fill-rule:evenodd;stroke:none"
           d="m 0,0 v -110.732 c -15.527,2.531 -30.82,3.726 -46.191,3.715 -15.191,-0.011 -30.302,-1.251 -45.651,-3.737 V -0.152 C -61.466,5 -31.113,4.823 0,0" />
      </g>
      <g
         transform="matrix(0.10512699,0,0,-0.10512699,25.601288,192.3117)"
         id="g36">
        <path
           id="path38"
           style="fill:#3ca9dd;fill-opacity:1;fill-rule:evenodd;stroke:none"
           d="M 0,0 C 12.05,10.91 24.984,19.355 39.715,26.714 51.398,-6.039 62.597,-38.429 74.093,-71.274 59.978,-76.557 46.95,-83.008 35.097,-92.798 23.29,-61.578 11.721,-30.986 0,0" />
      </g>
      <g
         transform="matrix(0.10512699,0,0,-0.10512699,54.187075,189.47064)"
         id="g40">
        <path
           id="path42"
           style="fill:#3ca9dd;fill-opacity:1;fill-rule:evenodd;stroke:none"
           d="m 0,0 c 6.572,-3.827 12.622,-6.987 18.278,-10.742 6.162,-4.088 12.035,-8.626 17.884,-13.163 3.617,-2.807 3.54,-2.99 1.857,-7.445 -9.212,-24.418 -18.452,-48.826 -27.681,-73.234 -1.819,-4.809 -3.628,-9.618 -5.752,-15.248 -11.835,9.821 -24.85,16.211 -39.009,21.546 C -22.941,-65.5 -11.599,-33.121 0,0" />
      </g>
      <g
         transform="matrix(0.10512699,0,0,-0.10512699,42.378979,209.01864)"
         id="g44">
        <path
           id="path46"
           style="fill:#3ca9dd;fill-opacity:1;fill-rule:evenodd;stroke:none"
           d="m 0,0 c -16.628,0.574 -29.002,1.478 -40.912,5.421 -3.674,1.215 -7.335,2.644 -10.74,4.464 -4.952,2.65 -9.97,5.765 -10.048,12.223 -0.081,6.478 4.813,9.786 9.827,12.331 4.424,2.247 9.108,4.235 13.9,5.478 22.672,5.877 45.437,5.866 68.142,0.083 3.748,-0.957 7.35,-2.503 10.987,-3.86 1.207,-0.449 2.356,-1.092 3.461,-1.763 4.663,-2.836 9.525,-5.868 9.588,-12.002 0.064,-6.429 -4.796,-9.958 -9.89,-12.289 C 38.297,7.331 32.004,4.755 25.56,3.466 15.795,1.515 5.794,0.745 0,0" />
      </g>
    </g>
  </g>
</svg>
