<?xml version="1.0" encoding="UTF-8" standalone="no"?>
<svg
   xmlns:dc="http://purl.org/dc/elements/1.1/"
   xmlns:cc="http://creativecommons.org/ns#"
   xmlns:rdf="http://www.w3.org/1999/02/22-rdf-syntax-ns#"
   xmlns:svg="http://www.w3.org/2000/svg"
   xmlns="http://www.w3.org/2000/svg"
   xmlns:sodipodi="http://sodipodi.sourceforge.net/DTD/sodipodi-0.dtd"
   xmlns:inkscape="http://www.inkscape.org/namespaces/inkscape"
   id="Layer_2"
   data-name="Layer 2"
   viewBox="0 0 144 144"
   version="1.1"
   inkscape:version="0.91 r13725"
   sodipodi:docname="desktop_type_standing.svg">
  <metadata
     id="metadata4331">
    <rdf:RDF>
      <cc:Work
         rdf:about="">
        <dc:format>image/svg+xml</dc:format>
        <dc:type
           rdf:resource="http://purl.org/dc/dcmitype/StillImage" />
      </cc:Work>
    </rdf:RDF>
  </metadata>
  <sodipodi:namedview
     pagecolor="#FFFFFF"
     bordercolor="#666666"
     borderopacity="1"
     objecttolerance="10"
     gridtolerance="10"
     guidetolerance="10"
     inkscape:pageopacity="0"
     inkscape:pageshadow="2"
     inkscape:window-width="735"
     inkscape:window-height="480"
     id="namedview4329"
     showgrid="false"
     inkscape:zoom="1.6388889"
     inkscape:cx="72"
     inkscape:cy="72"
     inkscape:window-x="0"
     inkscape:window-y="0"
     inkscape:window-maximized="0"
     inkscape:current-layer="Layer_2" />
  <defs
     id="defs4317">
    <style
       id="style4319">.cls-1{fill:#d1d0d3;}</style>
  </defs>
  <title
     id="title4321">transparent_Open.MEMS_unicleo_EP_GF</title>
  <path
     class="cls-1"
     d="M33,35.41a8,8,0,0,0,5.87-2.71,8.35,8.35,0,0,0,2.26-6.1,8.58,8.58,0,0,0-2.6-6,7.8,7.8,0,0,0-6-2.37A8,8,0,0,0,26.67,21a8.75,8.75,0,0,0-2.37,6.1,8,8,0,0,0,2.6,6A8.16,8.16,0,0,0,33,35.41Z"
     id="path4323"
     style="fill:#3CB4E6;fill-opacity:1" />
  <path
     class="cls-1"
     d="M62.56,54.73H49.94L39.58,44.51c-2.88-7.18-14.27-6.21-14.27,2.94h-.06c0,10.25,0,66.06,0,70.61,0,10.26,14.33,10.26,14.33,0,0,0,.56-48.3.56-53.9V59.61L48,63.9h10.8A2.23,2.23,0,0,0,60,63.81l3.6-2.08a2,2,0,0,0,1-1.93V57.26C64.54,56,63.86,54.73,62.56,54.73Z"
     id="path4325"
     style="fill:#3CB4E6;fill-opacity:1" />
  <path
     class="cls-1"
     d="M115.77,66.51H56.92a3.93,3.93,0,1,0,0,7.85H83.4v45.51h-18a2.94,2.94,0,0,0,0,5.88h41.85a2.94,2.94,0,1,0,0-5.88h-18V74.36h26.48a3.93,3.93,0,1,0,0-7.85Z"
     id="path4327"
     style="fill:#3CB4E6;fill-opacity:1" />
</svg>
