<?xml version="1.0" encoding="UTF-8" standalone="no"?>
<svg
   xmlns:dc="http://purl.org/dc/elements/1.1/"
   xmlns:cc="http://creativecommons.org/ns#"
   xmlns:rdf="http://www.w3.org/1999/02/22-rdf-syntax-ns#"
   xmlns:svg="http://www.w3.org/2000/svg"
   xmlns="http://www.w3.org/2000/svg"
   xmlns:sodipodi="http://sodipodi.sourceforge.net/DTD/sodipodi-0.dtd"
   xmlns:inkscape="http://www.inkscape.org/namespaces/inkscape"
   id="svg8"
   version="1.1"
   viewBox="0 0 120 120"
   height="120mm"
   width="120mm"
   inkscape:version="0.91 r13725"
   sodipodi:docname="desktop_type_sitting.svg">
  <sodipodi:namedview
     pagecolor="#FFFFFF"
     bordercolor="#666666"
     borderopacity="1"
     objecttolerance="10"
     gridtolerance="10"
     guidetolerance="10"
     inkscape:pageopacity="0"
     inkscape:pageshadow="2"
     inkscape:window-width="985"
     inkscape:window-height="594"
     id="namedview4222"
     showgrid="false"
     inkscape:zoom="1.8060293"
     inkscape:cx="231.97854"
     inkscape:cy="222.34582"
     inkscape:window-x="0"
     inkscape:window-y="0"
     inkscape:window-maximized="0"
     inkscape:current-layer="g4579" />
  <defs
     id="defs2">
    <clipPath
       clipPathUnits="userSpaceOnUse"
       id="clipPath4507">
      <path
         d="M 0,144 H 144 V 0 H 0 Z"
         id="path4505" />
    </clipPath>
  </defs>
  <metadata
     id="metadata5">
    <rdf:RDF>
      <cc:Work
         rdf:about="">
        <dc:format>image/svg+xml</dc:format>
        <dc:type
           rdf:resource="http://purl.org/dc/dcmitype/StillImage" />
        <dc:title />
      </cc:Work>
    </rdf:RDF>
  </metadata>
  <g
     transform="translate(-68.841957,-49.092855)"
     id="layer1"
     style="fill:#3CB4E6;fill-opacity:1;stroke:#3CB4E6;stroke-opacity:1">
    <g
       id="g4493"
       transform="matrix(0.35277777,0,0,-0.35277777,60.022618,176.50119)"
       style="fill:#3CB4E6;fill-opacity:1;stroke:#3CB4E6;stroke-opacity:1">
      <g
         transform="matrix(2.7884635,0,0,2.7884635,-44.71105,-37.557733)"
         id="g4501"
         style="fill:#3CB4E6;fill-opacity:1;stroke:#3CB4E6;stroke-opacity:1">
        <g
           id="g4503"
           clip-path="url(#clipPath4507)"
           style="fill:#3CB4E6;fill-opacity:1;stroke:#3CB4E6;stroke-opacity:1">
          <g
             transform="translate(13.9722,17.772135)"
             id="g4579"
             style="fill:#3CB4E6;fill-opacity:1;stroke:#3CB4E6;stroke-opacity:1">
            <g
               transform="translate(46.7339,90.2023)"
               id="g4509"
               style="fill:#3CB4E6;fill-opacity:1;stroke:#3CB4E6;stroke-opacity:1">
              <path
                 id="path4511"
                 style="fill:#3CB4E6;fill-opacity:1;fill-rule:nonzero;stroke:#3CB4E6;stroke-opacity:1"
                 d="m 0,0 c 2.343,0.075 4.309,0.982 5.897,2.721 1.588,1.739 2.343,3.78 2.268,6.123 -0.076,2.345 -0.945,4.348 -2.608,6.01 -1.663,1.664 -3.667,2.457 -6.01,2.382 -2.344,-0.076 -4.31,-0.983 -5.897,-2.722 -1.588,-1.739 -2.382,-3.779 -2.382,-6.123 0,-2.344 0.87,-4.347 2.61,-6.01 C -4.384,0.717 -2.343,-0.075 0,0" />
            </g>
            <g
               transform="translate(43.5021,85.8437)"
               id="g4513"
               style="fill:#3CB4E6;fill-opacity:1;stroke:#3CB4E6;stroke-opacity:1">
              <path
                 id="path4515"
                 style="fill:#3CB4E6;fill-opacity:1;fill-rule:nonzero;stroke:#3CB4E6;stroke-opacity:1"
                 d="m 0,0 -5.993,-3.179 c -1.396,-1.062 -2.216,-2.715 -2.216,-4.469 v -21.698 c 0,-0.556 0.087,-1.108 0.259,-1.637 l 0.468,-1.443 c 0.532,-1.639 1.827,-2.918 3.472,-3.429 l 0.946,-0.293 c 0.509,-0.159 1.04,-0.239 1.573,-0.239 h 16.023 l 3.537,-24.891 c 0.177,-1.242 0.966,-2.311 2.1,-2.847 1.32,-0.622 2.881,-0.418 3.996,0.524 l 0.766,0.647 c 0.943,0.796 1.431,2.008 1.302,3.236 l -2.808,26.791 c -0.154,1.479 -0.979,2.805 -2.237,3.598 l -0.737,0.464 c -0.774,0.489 -1.671,0.748 -2.586,0.748 H 9.708 v 11.715 l 5.868,-3.446 h 9.427 c 0.364,0 0.721,0.096 1.036,0.278 l 3.312,1.918 c 0.638,0.369 1.031,1.051 1.031,1.789 v 2.217 c 0,1.142 -0.925,2.068 -2.067,2.068 H 17.289 L 5.917,-0.494 C 5.15,0.347 4.064,0.826 2.925,0.826 H 2.452 C 1.566,0.826 0.705,0.536 0,0" />
            </g>
            <g
               transform="translate(28,86)"
               id="g4517"
               style="fill:#3CB4E6;fill-opacity:1;stroke:#3CB4E6;stroke-opacity:1">
              <path
                 id="path4519"
                 style="fill:#3CB4E6;stroke:#3CB4E6;stroke-width:6;stroke-linecap:round;stroke-linejoin:round;stroke-miterlimit:10;stroke-dasharray:none;stroke-opacity:1;fill-opacity:1"
                 d="M 0,0 V -39.752 -61" />
            </g>
            <g
               transform="translate(51,25)"
               id="g4521"
               style="fill:none;fill-opacity:1;stroke:#3CB4E6;stroke-opacity:1">
              <path
                 id="path4523"
                 style="fill:none;stroke:#3CB4E6;stroke-width:6;stroke-linecap:round;stroke-linejoin:round;stroke-miterlimit:10;stroke-dasharray:none;stroke-opacity:1;fill-opacity:1"
                 d="M 0,0 V 16 H -21" />
            </g>
            <path
               id="path4525"
               style="fill:#3CB4E6;fill-opacity:1;fill-rule:nonzero;stroke:#3CB4E6;stroke-opacity:1"
               d="m 76,21 h 34 V 57 H 76 Z" />
            <g
               transform="translate(69,59)"
               id="g4527"
               style="fill:#3CB4E6;fill-opacity:1;stroke:#3CB4E6;stroke-opacity:1">
              <path
                 id="path4529"
                 style="fill:#3CB4E6;stroke:#3CB4E6;stroke-width:6;stroke-linecap:round;stroke-linejoin:round;stroke-miterlimit:10;stroke-dasharray:none;stroke-opacity:1;fill-opacity:1"
                 d="M 0,0 H 30.808 47" />
            </g>
          </g>
        </g>
      </g>
    </g>
  </g>
</svg>
