<svg xmlns="http://www.w3.org/2000/svg" height="170pt" width="200" viewBox="0 0 200 226.667" id="Layer_1"><g transform="matrix(1.00905 0 0 1.0204 24.324 45.418)" id="g95"><g transform="translate(-35.602 -8.82)" id="g672"><g id="g37" transform="matrix(1.19735 .43408 -.4439 1.19735 63.642 -82.334)"><path class="st0" id="polygon35" fill="#bc0" d="M14.47 80.47L1 78.54l2.25-7.7z"/></g><g id="g639" transform="matrix(1.32915 0 0 1.32915 -1.547 -36.742)"><g id="g51"><g id="g41"><path id="path39" d="M46.45 83.83a50.127 50.127 0 0 1-5.35-24.77c1.14-26.47 22.74-47.18 49.18-47.18h.11c.6 0 1.24.02 2.02.05l-.11 2.57c-.73-.03-1.34-.05-1.91-.05h-.1c-25.06 0-45.53 19.62-46.61 44.71-.35 8.12 1.4 16.25 5.08 23.49z" class="st1" fill="#d4007a"/></g><g id="g45"><path id="path43" d="M133.06 88.3l-2.72-1.72c3.96-6.25 6.37-13.13 7.15-20.45.09-.83.15-1.64.2-2.42.04-.79.07-1.61.07-2.43.11-24.22-17.97-44.15-42.06-46.35-.57-.05-1.2-.09-1.91-.13l.16-3.21c.75.04 1.42.08 2.04.14 12.4 1.14 23.82 6.82 32.15 16.01 8.33 9.19 12.89 21.11 12.83 33.57-.01.88-.03 1.75-.08 2.59-.04.83-.11 1.7-.21 2.59-.82 7.8-3.39 15.14-7.62 21.81z" fill="#002052"/></g><g id="g49"><path id="path47" d="M50.19 59.48l-1.93-.11c.03-.47.07-1.1.13-1.73 1-10.56 5.86-20.29 13.7-27.41 7.82-7.1 17.94-11 28.52-11h.09c.74 0 1.48.02 2.2.06.74.04 1.49.1 2.2.17 6.66.69 12.91 2.86 18.58 6.45l-1.03 1.63a40.776 40.776 0 0 0-17.75-6.16c-.68-.07-1.39-.13-2.11-.17-.69-.04-1.4-.06-2.11-.06h-.09c-21.01 0-38.32 15.74-40.3 36.66-.03.61-.07 1.21-.1 1.67z" class="st0" fill="#bc0"/></g></g><g id="g55"><path id="path53" d="M93.5 85.32c-14.18-6.53-20.33-23.43-13.74-37.73 6.59-14.3 23.43-20.59 37.61-14.05 14.18 6.54 20.33 23.43 13.74 37.72-6.58 14.3-23.43 20.59-37.61 14.06" class="st3" fill="#39a9dc"/></g><g id="g59"><path id="path57" d="M108.74 106.63C94.56 100.09 88.41 83.2 95 68.9c6.59-14.3 23.43-20.59 37.61-14.05 14.18 6.54 20.33 23.43 13.74 37.73-6.59 14.3-23.43 20.59-37.61 14.05" class="st3" fill="#39a9dc"/></g><g id="g63"><path id="path61" d="M94.68 124.69c-12.91-5.95-18.56-21.22-12.62-34.11 5.94-12.88 21.23-18.5 34.13-12.55 12.91 5.95 18.56 21.22 12.62 34.11-5.94 12.88-21.22 18.51-34.13 12.55" class="st3" fill="#39a9dc"/></g><g id="g67"><path id="path65" d="M49.66 133.69C23.87 121.8 12.6 91.25 24.49 65.46c11.89-25.8 42.44-37.06 68.23-25.18 25.79 11.89 37.06 42.44 25.17 68.24-11.89 25.79-42.44 37.06-68.23 25.17" class="st3" fill="#39a9dc"/></g><g id="g71"><path id="path69" d="M51.45 126.08c-21.9-10.09-31.47-36.02-21.37-57.92C40.17 46.26 66.1 36.69 88 46.79c21.9 10.09 31.47 36.03 21.37 57.93-10.1 21.89-36.03 31.46-57.92 21.36" fill="#fff"/></g><g id="g93"><g id="g75"><path id="path73" d="M74.37 54.74h-9.38c-3.59 0-6.53 2.94-6.53 6.53v1.12c0 3.59 2.94 6.53 6.53 6.53h9.38c3.59 0 6.53-2.94 6.53-6.53v-1.12c.01-3.59-2.94-6.53-6.53-6.53zm1.92 7.66c0 1.04-.88 1.92-1.92 1.92h-9.38c-1.04 0-1.92-.88-1.92-1.92v-1.12c0-1.04.88-1.92 1.92-1.92h9.38c1.04 0 1.92.88 1.92 1.92z" class="st1" fill="#d4007a"/></g><g id="g79"><path id="path77" d="M74.37 79.34h-9.38c-3.59 0-6.53 2.94-6.53 6.53V87c0 3.59 2.94 6.53 6.53 6.53h9.38c3.59 0 6.53-2.94 6.53-6.53v-1.12c.01-3.6-2.94-6.54-6.53-6.54zM76.29 87c0 1.04-.88 1.92-1.92 1.92h-9.38c-1.04 0-1.92-.88-1.92-1.92v-1.12c0-1.04.88-1.92 1.92-1.92h9.38c1.04 0 1.92.88 1.92 1.92z" class="st1" fill="#d4007a"/></g><g id="g83"><path id="path81" d="M74.37 103.93h-9.38c-3.59 0-6.53 2.94-6.53 6.53v1.12c0 3.59 2.94 6.53 6.53 6.53h9.38c3.59 0 6.53-2.94 6.53-6.53v-1.12c.01-3.59-2.94-6.53-6.53-6.53zm1.92 7.66c0 1.04-.88 1.92-1.92 1.92h-9.38c-1.04 0-1.92-.88-1.92-1.92v-1.12c0-1.04.88-1.92 1.92-1.92h9.38c1.04 0 1.92.88 1.92 1.92z" class="st1" fill="#d4007a"/></g><g id="g87"><path id="path85" d="M106.03 74.22c0-8.1-7.44-14.7-16.57-14.7h-2.73v4.61h2.73c6.6 0 11.96 4.52 11.96 10.09 0 5.2-4.65 9.49-10.62 10.06v-2.23l-7.96 4.6 7.96 4.6V88.9c8.51-.61 15.23-6.96 15.23-14.68z" class="st1" fill="#d4007a"/></g><g id="g91"><path id="path89" d="M48.64 108.89c-5.97-.57-10.62-4.86-10.62-10.06 0-5.56 5.37-10.09 11.96-10.09h2.73v-4.61h-2.73c-9.14 0-16.57 6.59-16.57 14.7 0 7.72 6.72 14.07 15.23 14.69v2.35l7.96-4.6-7.96-4.6z" class="st1" fill="#d4007a"/></g></g></g></g></g></svg>