<?xml version="1.0" encoding="UTF-8" standalone="no"?>
<svg
   xmlns:dc="http://purl.org/dc/elements/1.1/"
   xmlns:cc="http://creativecommons.org/ns#"
   xmlns:rdf="http://www.w3.org/1999/02/22-rdf-syntax-ns#"
   xmlns:svg="http://www.w3.org/2000/svg"
   xmlns="http://www.w3.org/2000/svg"
   xmlns:sodipodi="http://sodipodi.sourceforge.net/DTD/sodipodi-0.dtd"
   xmlns:inkscape="http://www.inkscape.org/namespaces/inkscape"
   inkscape:version="1.0beta1 (32d4812, 2019-09-19)"
   height="170pt"
   width="150pt"
   sodipodi:docname="flow_button.svg"
   xml:space="preserve"
   viewBox="0 0 199.99999 226.66666"
   y="0px"
   x="0px"
   id="Layer_1"
   version="1.1"><style
   id="style29"></style>
<metadata
   id="metadata27">
  <rdf:RDF>
    <cc:Work
       rdf:about="">
      <dc:format>image/svg+xml</dc:format>
      <dc:type
         rdf:resource="http://purl.org/dc/dcmitype/StillImage" />
      <dc:title></dc:title>
    </cc:Work>
  </rdf:RDF>
</metadata>
<defs
   id="defs25" />
<sodipodi:namedview
   inkscape:current-layer="Layer_1"
   inkscape:window-maximized="1"
   inkscape:window-y="23"
   inkscape:window-x="1280"
   inkscape:cy="560"
   inkscape:cx="400"
   inkscape:zoom="0.35"
   units="pt"
   showgrid="false"
   id="namedview23"
   inkscape:window-height="1005"
   inkscape:window-width="1680"
   inkscape:pageshadow="2"
   inkscape:pageopacity="0"
   guidetolerance="10"
   gridtolerance="10"
   objecttolerance="10"
   borderopacity="1"
   inkscape:document-rotation="0"
   bordercolor="#666666"
   pagecolor="#FFFFFF" />

<g
   transform="matrix(0.12229637,0,0,0.12229637,13.333332,13.333211)"
   id="g20">
	<path
   inkscape:connector-curvature="0"
   id="path12"
   d="M 779.335,670.864 H 636.716 c -15.858,0 -29.255,13.397 -29.255,29.255 v 17.086 c 0,15.858 13.398,29.255 29.255,29.255 h 142.619 c 15.858,0 29.255,-13.398 29.255,-29.255 v -17.086 c 0,-15.858 -13.397,-29.255 -29.255,-29.255 z"
   style="fill:#3CB4E6" />

	<path
   inkscape:connector-curvature="0"
   id="path14"
   d="M 779.335,1044.853 H 636.716 c -15.858,0 -29.255,13.397 -29.255,29.255 v 17.086 c 0,15.858 13.398,29.255 29.255,29.255 h 142.619 c 15.858,0 29.255,-13.397 29.255,-29.255 v -17.086 c 0,-15.858 -13.397,-29.255 -29.255,-29.255 z"
   style="fill:#3CB4E6" />

	<path
   inkscape:connector-curvature="0"
   id="path16"
   d="M 779.335,296.875 H 636.716 c -15.858,0 -29.255,13.397 -29.255,29.255 v 17.086 c 0,15.858 13.398,29.255 29.255,29.255 h 142.619 c 15.858,0 29.255,-13.398 29.255,-29.255 V 326.13 c 0,-15.858 -13.397,-29.255 -29.255,-29.255 z"
   style="fill:#3CB4E6" />

	<path
   inkscape:connector-curvature="0"
   id="path18"
   d="M 708.662,0.001 C 317.279,0.001 0,317.279 0,708.662 c 0,391.383 317.279,708.661 708.661,708.661 391.382,0 708.661,-317.279 708.661,-708.661 0,-391.382 -317.278,-708.661 -708.66,-708.661 z M 388.136,1156.018 v -35.66 c -129.429,-9.297 -231.57,-105.857 -231.57,-223.294 0,-123.213 113.058,-223.453 252.026,-223.453 h 41.552 v 70.104 h -41.552 c -100.313,0 -181.924,68.79 -181.924,153.349 0,79.056 70.753,144.358 161.468,152.994 v -33.86 l 121.07,69.911 z m 490.557,-64.824 c 0,54.647 -44.711,99.358 -99.357,99.358 h -142.62 c -54.647,0 -99.358,-44.711 -99.358,-99.358 v -17.086 c 0,-54.647 44.711,-99.357 99.358,-99.357 h 142.619 c 54.647,0 99.357,44.711 99.357,99.357 v 17.086 z m 0,-373.989 c 0,54.647 -44.711,99.358 -99.357,99.358 h -142.62 c -54.647,0 -99.358,-44.711 -99.358,-99.358 v -17.086 c 0,-54.647 44.711,-99.357 99.358,-99.357 h 142.619 c 54.647,0 99.357,44.711 99.357,99.357 v 17.086 z m 0,-373.989 c 0,54.647 -44.711,99.358 -99.357,99.358 h -142.62 c -54.647,0 -99.358,-44.711 -99.358,-99.358 V 326.13 c 0,-54.647 44.711,-99.358 99.358,-99.358 h 142.619 c 54.647,0 99.357,44.711 99.357,99.358 v 17.086 z m 150.496,403.02 v 35.66 l -121.07,-69.911 121.07,-69.911 v 33.861 c 90.714,-8.636 161.466,-73.938 161.466,-152.995 0,-84.557 -81.609,-153.349 -181.922,-153.349 h -41.552 v -70.102 h 41.552 c 138.967,0 252.024,100.24 252.024,223.451 0,117.439 -102.141,213.999 -231.568,223.296 z"
   style="fill:#3CB4E6" />

</g>

</svg>
