<?xml version="1.0" encoding="UTF-8" standalone="no"?>
<!-- Generator: Adobe Illustrator 21.1.0, SVG Export Plug-In . SVG Version: 6.00 Build 0)  -->

<svg
   xmlns:dc="http://purl.org/dc/elements/1.1/"
   xmlns:cc="http://creativecommons.org/ns#"
   xmlns:rdf="http://www.w3.org/1999/02/22-rdf-syntax-ns#"
   xmlns:svg="http://www.w3.org/2000/svg"
   xmlns="http://www.w3.org/2000/svg"
   xmlns:sodipodi="http://sodipodi.sourceforge.net/DTD/sodipodi-0.dtd"
   xmlns:inkscape="http://www.inkscape.org/namespaces/inkscape"
   version="1.1"
   id="Layer_3"
   x="0px"
   y="0px"
   viewBox="0 0 699.99998 700"
   xml:space="preserve"
   inkscape:version="0.91 r13725"
   sodipodi:docname="RS8586_SensorTile_FINAL.svg"
   width="700"
   height="700"><metadata
     id="metadata51"><rdf:RDF><cc:Work
         rdf:about=""><dc:format>image/svg+xml</dc:format><dc:type
           rdf:resource="http://purl.org/dc/dcmitype/StillImage" /><dc:title></dc:title></cc:Work></rdf:RDF></metadata><defs
     id="defs49" /><sodipodi:namedview
     pagecolor="#ffffff"
     bordercolor="#666666"
     borderopacity="1"
     objecttolerance="10"
     gridtolerance="10"
     guidetolerance="10"
     inkscape:pageopacity="0"
     inkscape:pageshadow="2"
     inkscape:window-width="1280"
     inkscape:window-height="962"
     id="namedview47"
     showgrid="false"
     inkscape:zoom="0.23046875"
     inkscape:cx="-292.21948"
     inkscape:cy="512"
     inkscape:window-x="-8"
     inkscape:window-y="-8"
     inkscape:window-maximized="1"
     inkscape:current-layer="Layer_3" /><style
     type="text/css"
     id="style3">
	.st0{opacity:0.6;}
	.st1{fill:#39A9DC;}
	.st2{fill:none;stroke:#39A9DC;stroke-width:3;stroke-linecap:round;stroke-linejoin:round;stroke-miterlimit:10;}
	.st3{fill:#FFFFFF;}
</style><g
     id="g5"
     transform="matrix(1.4818474,0,0,1.4818474,-168.5725,-408.33541)"><g
       class="st0"
       id="g7"
       style="opacity:0.6"><path
         class="st1"
         d="m 540.1,408.3 c 0,-6 4.9,-10.8 10.8,-10.8 l 0,-16.1 c -6,0 -10.8,-4.9 -10.8,-10.8 0,-5.9 4.9,-10.8 10.8,-10.8 l 0,-46.2 -401.9,0 0,46.2 c 6,0 10.8,4.9 10.8,10.8 0,5.9 -4.9,10.8 -10.8,10.8 l 0,16.1 c 6,0 10.8,4.9 10.8,10.8 0,6 -4.9,10.8 -10.8,10.8 l 0,16.1 c 6,0 10.8,4.9 10.8,10.8 0,5.9 -4.9,10.8 -10.8,10.8 l 0,16.2 c 6,0 10.8,4.9 10.8,10.8 0,6 -4.9,10.8 -10.8,10.8 l 0,16.1 c 6,0 10.8,4.9 10.8,10.8 0,6 -4.9,10.8 -10.8,10.8 l 0,16.1 c 6,0 10.8,4.9 10.8,10.8 0,5.9 -4.9,10.8 -10.8,10.8 l 0,16.1 c 6,0 10.8,4.9 10.8,10.8 0,5.9 -4.9,10.8 -10.8,10.8 l 0,16.1 c 6,0 10.8,4.9 10.8,10.8 0,6 -4.9,10.8 -10.8,10.8 l 0,16.1 c 6,0 10.8,4.9 10.8,10.8 0,5.9 -4.9,10.8 -10.8,10.8 l 0,26.8 401.9,0 0,-26.8 c -6,0 -10.8,-4.9 -10.8,-10.8 0,-5.9 4.9,-10.8 10.8,-10.8 l 0,-15.5 c -6,0 -10.8,-4.9 -10.8,-10.8 0,-6 4.9,-10.8 10.8,-10.8 l 0,-16.1 c -6,0 -10.8,-4.9 -10.8,-10.8 0,-5.9 4.9,-10.8 10.8,-10.8 l 0,-16.1 c -6,0 -10.8,-4.9 -10.8,-10.8 0,-5.9 4.9,-10.8 10.8,-10.8 l 0,-16.1 c -6,0 -10.8,-4.9 -10.8,-10.8 0,-6 4.9,-10.8 10.8,-10.8 l 0,-16.1 c -6,0 -10.8,-4.9 -10.8,-10.8 0,-6 4.9,-10.8 10.8,-10.8 l 0,-16.1 c -6,0 -10.8,-4.9 -10.8,-10.8 0,-5.9 4.9,-10.8 10.8,-10.8 l 0,-16.1 c -6,-0.7 -10.8,-5.5 -10.8,-11.5 z"
         id="path9"
         inkscape:connector-curvature="0"
         style="fill:#39a9dc" /></g><g
       id="g11"><path
         class="st2"
         d="m 540.1,408.3 c 0,-6 4.9,-10.8 10.8,-10.8 l 0,-16.1 c -6,0 -10.8,-4.9 -10.8,-10.8 0,-5.9 4.9,-10.8 10.8,-10.8 l 0,-46.2 -401.9,0 0,46.2 c 6,0 10.8,4.9 10.8,10.8 0,5.9 -4.9,10.8 -10.8,10.8 l 0,16.1 c 6,0 10.8,4.9 10.8,10.8 0,6 -4.9,10.8 -10.8,10.8 l 0,16.1 c 6,0 10.8,4.9 10.8,10.8 0,5.9 -4.9,10.8 -10.8,10.8 l 0,16.2 c 6,0 10.8,4.9 10.8,10.8 0,6 -4.9,10.8 -10.8,10.8 l 0,16.1 c 6,0 10.8,4.9 10.8,10.8 0,6 -4.9,10.8 -10.8,10.8 l 0,16.1 c 6,0 10.8,4.9 10.8,10.8 0,5.9 -4.9,10.8 -10.8,10.8 l 0,16.1 c 6,0 10.8,4.9 10.8,10.8 0,5.9 -4.9,10.8 -10.8,10.8 l 0,16.1 c 6,0 10.8,4.9 10.8,10.8 0,6 -4.9,10.8 -10.8,10.8 l 0,16.1 c 6,0 10.8,4.9 10.8,10.8 0,5.9 -4.9,10.8 -10.8,10.8 l 0,26.8 401.9,0 0,-26.8 c -6,0 -10.8,-4.9 -10.8,-10.8 0,-5.9 4.9,-10.8 10.8,-10.8 l 0,-15.5 c -6,0 -10.8,-4.9 -10.8,-10.8 0,-6 4.9,-10.8 10.8,-10.8 l 0,-16.1 c -6,0 -10.8,-4.9 -10.8,-10.8 0,-5.9 4.9,-10.8 10.8,-10.8 l 0,-16.1 c -6,0 -10.8,-4.9 -10.8,-10.8 0,-5.9 4.9,-10.8 10.8,-10.8 l 0,-16.1 c -6,0 -10.8,-4.9 -10.8,-10.8 0,-6 4.9,-10.8 10.8,-10.8 l 0,-16.1 c -6,0 -10.8,-4.9 -10.8,-10.8 0,-6 4.9,-10.8 10.8,-10.8 l 0,-16.1 c -6,0 -10.8,-4.9 -10.8,-10.8 0,-5.9 4.9,-10.8 10.8,-10.8 l 0,-16.1 c -6,-0.7 -10.8,-5.5 -10.8,-11.5 z"
         id="path13"
         inkscape:connector-curvature="0"
         style="fill:none;stroke:#39a9dc;stroke-width:3;stroke-linecap:round;stroke-linejoin:round;stroke-miterlimit:10" /></g><g
       class="st0"
       id="g15"
       style="opacity:0.6"><path
         class="st3"
         d="m 290,321.5 -118.6,0 0,91.5 118.6,0 0,-91.5 z m -71.5,57.8 c -6.6,0 -12,-5.4 -12,-12 0,-6.6 5.4,-12 12,-12 6.6,0 12,5.4 12,12 0,6.6 -5.3,12 -12,12 z"
         id="path17"
         inkscape:connector-curvature="0"
         style="fill:#ffffff" /><rect
         x="178.2"
         y="484.89999"
         class="st3"
         width="131.5"
         height="112.5"
         id="rect19"
         style="fill:#ffffff" /><rect
         x="423.5"
         y="644.20001"
         class="st3"
         width="58.599998"
         height="58.599998"
         id="rect21"
         style="fill:#ffffff" /><rect
         x="325.20001"
         y="644.20001"
         class="st3"
         width="58.599998"
         height="58.599998"
         id="rect23"
         style="fill:#ffffff" /><rect
         x="178.2"
         y="629.29999"
         class="st3"
         width="92.900002"
         height="73.5"
         id="rect25"
         style="fill:#ffffff" /><rect
         x="418.10001"
         y="512"
         class="st3"
         width="76.599998"
         height="82"
         id="rect27"
         style="fill:#ffffff" /><rect
         x="443.20001"
         y="463.89999"
         class="st3"
         width="24.4"
         height="41.299999"
         id="rect29"
         style="fill:#ffffff" /></g><rect
       x="171.39999"
       y="321.5"
       class="st2"
       width="118.6"
       height="91.5"
       id="rect31"
       style="fill:none;stroke:#39a9dc;stroke-width:3;stroke-linecap:round;stroke-linejoin:round;stroke-miterlimit:10" /><rect
       x="178.2"
       y="484.89999"
       class="st2"
       width="131.5"
       height="112.5"
       id="rect33"
       style="fill:none;stroke:#39a9dc;stroke-width:3;stroke-linecap:round;stroke-linejoin:round;stroke-miterlimit:10" /><rect
       x="423.5"
       y="644.20001"
       class="st2"
       width="58.599998"
       height="58.599998"
       id="rect35"
       style="fill:none;stroke:#39a9dc;stroke-width:3;stroke-linecap:round;stroke-linejoin:round;stroke-miterlimit:10" /><rect
       x="325.20001"
       y="644.20001"
       class="st2"
       width="58.599998"
       height="58.599998"
       id="rect37"
       style="fill:none;stroke:#39a9dc;stroke-width:3;stroke-linecap:round;stroke-linejoin:round;stroke-miterlimit:10" /><rect
       x="178.2"
       y="629.29999"
       class="st2"
       width="92.900002"
       height="73.5"
       id="rect39"
       style="fill:none;stroke:#39a9dc;stroke-width:3;stroke-linecap:round;stroke-linejoin:round;stroke-miterlimit:10" /><rect
       x="418.10001"
       y="512"
       class="st2"
       width="76.599998"
       height="82"
       id="rect41"
       style="fill:none;stroke:#39a9dc;stroke-width:3;stroke-linecap:round;stroke-linejoin:round;stroke-miterlimit:10" /><rect
       x="443.20001"
       y="463.89999"
       class="st2"
       width="24.4"
       height="41.299999"
       id="rect43"
       style="fill:none;stroke:#39a9dc;stroke-width:3;stroke-linecap:round;stroke-linejoin:round;stroke-miterlimit:10" /><circle
       class="st2"
       cx="218.5"
       cy="367.29999"
       r="12"
       id="circle45"
       style="fill:none;stroke:#39a9dc;stroke-width:3;stroke-linecap:round;stroke-linejoin:round;stroke-miterlimit:10" /></g></svg>