<?xml version="1.0" encoding="UTF-8" standalone="no"?>
<!-- Generator: Adobe Illustrator 21.1.0, SVG Export Plug-In . SVG Version: 6.00 Build 0)  -->

<svg
   xmlns:dc="http://purl.org/dc/elements/1.1/"
   xmlns:cc="http://creativecommons.org/ns#"
   xmlns:rdf="http://www.w3.org/1999/02/22-rdf-syntax-ns#"
   xmlns:svg="http://www.w3.org/2000/svg"
   xmlns="http://www.w3.org/2000/svg"
   xmlns:sodipodi="http://sodipodi.sourceforge.net/DTD/sodipodi-0.dtd"
   xmlns:inkscape="http://www.inkscape.org/namespaces/inkscape"
   version="1.1"
   id="Layer_3"
   x="0px"
   y="0px"
   viewBox="0 0 700 700"
   xml:space="preserve"
   inkscape:version="0.91 r13725"
   sodipodi:docname="RS8587_BlueCoin_FINAL.svg"
   width="700"
   height="700"><metadata
     id="metadata65"><rdf:RDF><cc:Work
         rdf:about=""><dc:format>image/svg+xml</dc:format><dc:type
           rdf:resource="http://purl.org/dc/dcmitype/StillImage" /><dc:title></dc:title></cc:Work></rdf:RDF></metadata><defs
     id="defs63" /><sodipodi:namedview
     pagecolor="#ffffff"
     bordercolor="#666666"
     borderopacity="1"
     objecttolerance="10"
     gridtolerance="10"
     guidetolerance="10"
     inkscape:pageopacity="0"
     inkscape:pageshadow="2"
     inkscape:window-width="1280"
     inkscape:window-height="962"
     id="namedview61"
     showgrid="false"
     inkscape:zoom="0.23046875"
     inkscape:cx="-258.16949"
     inkscape:cy="512"
     inkscape:window-x="-8"
     inkscape:window-y="-8"
     inkscape:window-maximized="1"
     inkscape:current-layer="Layer_3" /><style
     type="text/css"
     id="style3">
	.st0{opacity:0.6;fill:#39A9DC;}
	.st1{fill:none;stroke:#39A9DC;stroke-width:3;stroke-linecap:round;stroke-linejoin:round;stroke-miterlimit:10;}
	.st2{opacity:0.6;}
	.st3{fill:#FFFFFF;}
</style><g
     id="g5"
     transform="matrix(0.95846645,0,0,0.95846645,-18.051117,-140.73482)"><path
       class="st0"
       d="m 655.9,472.5 c -8.3,0 -15.9,2.5 -22.3,6.9 -2.8,1.7 -12.6,7.2 -21.5,6.4 -11.8,-1.1 -14,-14.6 -14,-14.6 l 0,0.1 C 579.1,370.3 490.5,294 384,294 277.5,294 188.9,370.3 169.8,471.2 l 0,-0.1 c 0,0 -2.1,13.5 -14,14.6 -8.8,0.8 -18.7,-4.7 -21.5,-6.4 -6.3,-4.3 -14,-6.9 -22.3,-6.9 -21.8,0 -39.5,17.7 -39.5,39.5 0,21.8 17.7,39.5 39.5,39.5 8.3,0 15.9,-2.5 22.3,-6.9 2.8,-1.7 12.6,-7.2 21.5,-6.4 11.8,1.1 14,14.6 14,14.6 l 0,-0.1 C 188.9,653.7 277.5,730 384,730 490.5,730 579.1,653.7 598.2,552.8 l 0,0.1 c 0,0 2.1,-13.5 14,-14.6 8.8,-0.8 18.7,4.7 21.5,6.4 6.3,4.3 14,6.9 22.3,6.9 21.8,0 39.5,-17.7 39.5,-39.5 0,-21.8 -17.8,-39.6 -39.6,-39.6 z m -541.2,58.7 c -11.2,0 -20.3,-9.1 -20.3,-20.3 0,-11.2 9.1,-20.3 20.3,-20.3 11.2,0 20.3,9.1 20.3,20.3 0,11.2 -9.1,20.3 -20.3,20.3 z m 540.7,0 c -11.2,0 -20.3,-9.1 -20.3,-20.3 0,-11.2 9.1,-20.3 20.3,-20.3 11.2,0 20.3,9.1 20.3,20.3 0,11.2 -9.1,20.3 -20.3,20.3 z"
       id="path7"
       inkscape:connector-curvature="0"
       style="opacity:0.6;fill:#39a9dc" /><path
       class="st1"
       d="m 655.9,472.5 c -8.3,0 -15.9,2.5 -22.3,6.9 -2.8,1.7 -12.6,7.2 -21.5,6.4 -11.8,-1.1 -14,-14.6 -14,-14.6 l 0,0.1 C 579.1,370.3 490.5,294 384,294 277.5,294 188.9,370.3 169.8,471.2 l 0,-0.1 c 0,0 -2.1,13.5 -14,14.6 -8.8,0.8 -18.7,-4.7 -21.5,-6.4 -6.3,-4.3 -14,-6.9 -22.3,-6.9 -21.8,0 -39.5,17.7 -39.5,39.5 0,21.8 17.7,39.5 39.5,39.5 8.3,0 15.9,-2.5 22.3,-6.9 2.8,-1.7 12.6,-7.2 21.5,-6.4 11.8,1.1 14,14.6 14,14.6 l 0,-0.1 C 188.9,653.7 277.5,730 384,730 490.5,730 579.1,653.7 598.2,552.8 l 0,0.1 c 0,0 2.1,-13.5 14,-14.6 8.8,-0.8 18.7,4.7 21.5,6.4 6.3,4.3 14,6.9 22.3,6.9 21.8,0 39.5,-17.7 39.5,-39.5 0,-21.8 -17.8,-39.6 -39.6,-39.6 z"
       id="path9"
       inkscape:connector-curvature="0"
       style="fill:none;stroke:#39a9dc;stroke-width:3;stroke-linecap:round;stroke-linejoin:round;stroke-miterlimit:10" /><g
       class="st2"
       id="g11"
       style="opacity:0.6"><path
         class="st3"
         d="m 323.8,503.7 50.7,0 0,-70.7 -50.7,0 0,70.7 z m 25.4,-36.5 c 3.9,0 7.1,3.2 7.1,7.1 0,3.9 -3.2,7.1 -7.1,7.1 -3.9,0 -7.1,-3.2 -7.1,-7.1 -0.1,-3.9 3.1,-7.1 7.1,-7.1 z"
         id="path13"
         inkscape:connector-curvature="0"
         style="fill:#ffffff" /><path
         class="st3"
         d="m 393.5,433 0,70.7 50.7,0 0,-70.7 -50.7,0 z m 25.3,48.5 c -3.9,0 -7.1,-3.2 -7.1,-7.1 0,-3.9 3.2,-7.1 7.1,-7.1 3.9,0 7.1,3.2 7.1,7.1 0.1,3.9 -3.1,7.1 -7.1,7.1 z"
         id="path15"
         inkscape:connector-curvature="0"
         style="fill:#ffffff" /><path
         class="st3"
         d="m 323.8,591 50.7,0 0,-70.7 -50.7,0 0,70.7 z m 25.4,-48.5 c 3.9,0 7.1,3.2 7.1,7.1 0,3.9 -3.2,7.1 -7.1,7.1 -3.9,0 -7.1,-3.2 -7.1,-7.1 -0.1,-3.9 3.1,-7.1 7.1,-7.1 z"
         id="path17"
         inkscape:connector-curvature="0"
         style="fill:#ffffff" /><path
         class="st3"
         d="m 393.5,591 50.7,0 0,-70.7 -50.7,0 0,70.7 z m 25.3,-48.5 c 3.9,0 7.1,3.2 7.1,7.1 0,3.9 -3.2,7.1 -7.1,7.1 -3.9,0 -7.1,-3.2 -7.1,-7.1 0,-3.9 3.2,-7.1 7.1,-7.1 z"
         id="path19"
         inkscape:connector-curvature="0"
         style="fill:#ffffff" /></g><rect
       x="323.79999"
       y="433"
       class="st1"
       width="50.700001"
       height="70.699997"
       id="rect21"
       style="fill:none;stroke:#39a9dc;stroke-width:3;stroke-linecap:round;stroke-linejoin:round;stroke-miterlimit:10" /><rect
       x="393.5"
       y="433"
       class="st1"
       width="50.700001"
       height="70.699997"
       id="rect23"
       style="fill:none;stroke:#39a9dc;stroke-width:3;stroke-linecap:round;stroke-linejoin:round;stroke-miterlimit:10" /><g
       id="g25"><rect
         x="323.79999"
         y="520.29999"
         class="st1"
         width="50.700001"
         height="70.699997"
         id="rect27"
         style="fill:none;stroke:#39a9dc;stroke-width:3;stroke-linecap:round;stroke-linejoin:round;stroke-miterlimit:10" /><rect
         x="393.5"
         y="520.29999"
         class="st1"
         width="50.700001"
         height="70.699997"
         id="rect29"
         style="fill:none;stroke:#39a9dc;stroke-width:3;stroke-linecap:round;stroke-linejoin:round;stroke-miterlimit:10" /></g><circle
       class="st1"
       cx="114.7"
       cy="510.89999"
       r="20.299999"
       id="circle31"
       style="fill:none;stroke:#39a9dc;stroke-width:3;stroke-linecap:round;stroke-linejoin:round;stroke-miterlimit:10" /><circle
       class="st1"
       cx="655.5"
       cy="510.89999"
       r="20.299999"
       id="circle33"
       style="fill:none;stroke:#39a9dc;stroke-width:3;stroke-linecap:round;stroke-linejoin:round;stroke-miterlimit:10" /><g
       id="g35"><g
         class="st2"
         id="g37"
         style="opacity:0.6"><path
           class="st3"
           d="m 555.8,380.8 -23.9,23.9 c -0.7,0.7 -1.7,1.1 -2.7,1.1 -1,0 -1.9,-0.4 -2.7,-1.1 l -4.8,-4.8 -7.2,0 -3.4,3.4 c -1.5,1.5 -3.8,1.5 -5.3,0 l -12.4,-12.4 c -1.5,-1.5 -1.5,-3.8 0,-5.3 l 3.4,-3.4 0,-7.2 -4.8,-4.8 c -1.5,-1.5 -1.5,-3.8 0,-5.3 l 24.2,-24.2 c 0,0 12.8,10.4 21.6,19.4 8.4,8.5 18,20.7 18,20.7 z m -42.8,11.5 10.3,0 c 1,0 1.9,0.4 2.7,1.1 l 3.3,3.3 23.2,-23.2 c -9,-10.5 -18.8,-20.4 -29.3,-29.4 l -23.2,23.2 3.3,3.3 c 0.7,0.7 1.1,1.7 1.1,2.7 l 0,10.3 c 0,1 -0.4,1.9 -1.1,2.7 l -1.9,1.9 7.1,7.1 1.9,-1.9 c 0.6,-0.7 1.6,-1.1 2.6,-1.1 z"
           id="path39"
           inkscape:connector-curvature="0"
           style="fill:#ffffff" /></g><g
         id="g41"><path
           class="st1"
           d="m 557.2,379.4 -25.3,25.3 c -0.7,0.7 -1.7,1.1 -2.7,1.1 -1,0 -1.9,-0.4 -2.7,-1.1 l -4.8,-4.8 -7.2,0 -3.4,3.4 c -1.5,1.5 -3.8,1.5 -5.3,0 l -12.4,-12.4 c -1.5,-1.5 -1.5,-3.8 0,-5.3 l 3.4,-3.4 0,-7.2 -4.8,-4.8 c -1.5,-1.5 -1.5,-3.8 0,-5.3 l 25.4,-25.4 m -4.4,52.8 10.3,0 c 1,0 1.9,0.4 2.7,1.1 l 3.3,3.3 23.2,-23.2 c -9,-10.5 -18.8,-20.4 -29.3,-29.4 l -23.2,23.2 3.3,3.3 c 0.7,0.7 1.1,1.7 1.1,2.7 l 0,10.3 c 0,1 -0.4,1.9 -1.1,2.7 l -1.9,1.9 7.1,7.1 1.9,-1.9 c 0.6,-0.7 1.6,-1.1 2.6,-1.1 z"
           id="path43"
           inkscape:connector-curvature="0"
           style="fill:none;stroke:#39a9dc;stroke-width:3;stroke-linecap:round;stroke-linejoin:round;stroke-miterlimit:10" /></g><g
         class="st2"
         id="g45"
         style="opacity:0.6"><path
           class="st3"
           d="m 537.7,664.2 c -8.8,9 -21.6,19.4 -21.6,19.4 l -24.2,-24.2 c -1.5,-1.5 -1.5,-3.8 0,-5.3 l 4.8,-4.8 0,-7.3 -3.4,-3.4 c -1.5,-1.5 -1.5,-3.8 0,-5.3 l 12.4,-12.4 c 1.5,-1.5 3.8,-1.5 5.3,0 l 3.4,3.4 7.2,0 4.8,-4.8 c 0.7,-0.7 1.7,-1.1 2.7,-1.1 1,0 1.9,0.4 2.7,1.1 l 23.9,23.9 c 0.1,0 -9.5,12.2 -18,20.8 z m -27.4,-33.5 -1.9,-1.9 -7.1,7.1 1.9,1.9 c 0.7,0.7 1.1,1.7 1.1,2.7 l 0,10.3 c 0,1 -0.4,1.9 -1.1,2.7 l -3.3,3.3 23.2,23.2 c 10.5,-9 20.3,-18.9 29.3,-29.4 l -23.2,-23.2 -3.3,3.3 c -0.7,0.7 -1.7,1.1 -2.7,1.1 l -10.2,0 c -1,0 -2,-0.4 -2.7,-1.1 z"
           id="path47"
           inkscape:connector-curvature="0"
           style="fill:#ffffff" /></g><g
         id="g49"><path
           class="st1"
           d="m 517.3,684.8 -25.4,-25.4 c -1.5,-1.5 -1.5,-3.8 0,-5.3 l 4.8,-4.8 0,-7.3 -3.4,-3.4 c -1.5,-1.5 -1.5,-3.8 0,-5.3 l 12.4,-12.4 c 1.5,-1.5 3.8,-1.5 5.3,0 l 3.4,3.4 7.2,0 4.8,-4.8 c 0.7,-0.7 1.7,-1.1 2.7,-1.1 1,0 1.9,0.4 2.7,1.1 l 25.3,25.3 m -46.8,-14.1 -1.9,-1.9 -7.1,7.1 1.9,1.9 c 0.7,0.7 1.1,1.7 1.1,2.7 l 0,10.3 c 0,1 -0.4,1.9 -1.1,2.7 l -3.3,3.3 23.2,23.2 c 10.5,-9 20.3,-18.9 29.3,-29.4 l -23.2,-23.2 -3.3,3.3 c -0.7,0.7 -1.7,1.1 -2.7,1.1 l -10.2,0 c -1,0 -2,-0.4 -2.7,-1.1 z"
           id="path51"
           inkscape:connector-curvature="0"
           style="fill:none;stroke:#39a9dc;stroke-width:3;stroke-linecap:round;stroke-linejoin:round;stroke-miterlimit:10" /></g></g><circle
       class="st1"
       cx="349.20001"
       cy="474.29999"
       r="7.0999999"
       id="circle53"
       style="fill:none;stroke:#39a9dc;stroke-width:3;stroke-linecap:round;stroke-linejoin:round;stroke-miterlimit:10" /><circle
       class="st1"
       cx="418.79999"
       cy="474.29999"
       r="7.0999999"
       id="circle55"
       style="fill:none;stroke:#39a9dc;stroke-width:3;stroke-linecap:round;stroke-linejoin:round;stroke-miterlimit:10" /><circle
       class="st1"
       cx="349.20001"
       cy="549.70001"
       r="7.0999999"
       id="circle57"
       style="fill:none;stroke:#39a9dc;stroke-width:3;stroke-linecap:round;stroke-linejoin:round;stroke-miterlimit:10" /><circle
       class="st1"
       cx="418.79999"
       cy="549.70001"
       r="7.0999999"
       id="circle59"
       style="fill:none;stroke:#39a9dc;stroke-width:3;stroke-linecap:round;stroke-linejoin:round;stroke-miterlimit:10" /></g></svg>