<?xml version="1.0" encoding="utf-8"?>
<!-- Generator: Adobe Illustrator 22.0.1, SVG Export Plug-In . SVG Version: 6.00 Build 0)  -->
<svg version="1.1" id="Layer_1" xmlns="http://www.w3.org/2000/svg" xmlns:xlink="http://www.w3.org/1999/xlink" x="0px" y="0px"
	 viewBox="0 0 500 500" style="enable-background:new 0 0 500 500;" xml:space="preserve">
<style type="text/css">
	.st0{fill:#B9C4CA;}
	.st1{fill:#FFD300;}
</style>
<g>
	<g>
		<path class="st1" d="M172.1,156.4c0-43,34.9-77.9,77.9-77.9h0c43,0,77.9,34.9,77.9,77.9v90.7H172.1V156.4z"/>
	</g>
	<g>
		<rect x="159.8" y="264.5" class="st1" width="180.4" height="45.3"/>
	</g>
	<g>
		<polygon class="st1" points="299.9,373.5 293,373.5 293,476.9 284.1,476.9 284.1,373.5 277.2,373.5 277.2,326.9 299.9,326.9 		"/>
	</g>
	<g>
		<polygon class="st1" points="222.7,373.5 215.8,373.5 215.8,495 206.9,495 206.9,373.5 200,373.5 200,326.9 222.7,326.9 		"/>
	</g>
	<g>
		<path class="st1" d="M150.4,164h-45.2c-4,0-7.2-3.2-7.2-7.2c0-4,3.2-7.2,7.2-7.2h45.2c4,0,7.2,3.2,7.2,7.2
			C157.6,160.8,154.3,164,150.4,164z"/>
	</g>
	<g>
		<path class="st1" d="M179.5,93.7c-1.8,0-3.7-0.7-5.1-2.1l-32-32c-2.8-2.8-2.8-7.4,0-10.2c2.8-2.8,7.4-2.8,10.2,0l32,32
			c2.8,2.8,2.8,7.4,0,10.2C183.2,93,181.3,93.7,179.5,93.7z"/>
	</g>
	<g>
		<path class="st1" d="M249.8,64.6c-4,0-7.2-3.2-7.2-7.2V12.2c0-4,3.2-7.2,7.2-7.2s7.2,3.2,7.2,7.2v45.2
			C257,61.4,253.7,64.6,249.8,64.6z"/>
	</g>
	<g>
		<path class="st1" d="M320.1,93.7c-1.8,0-3.7-0.7-5.1-2.1c-2.8-2.8-2.8-7.4,0-10.2l32-32c2.8-2.8,7.4-2.8,10.2,0
			c2.8,2.8,2.8,7.4,0,10.2l-32,32C323.8,93,321.9,93.7,320.1,93.7z"/>
	</g>
	<g>
		<path class="st1" d="M394.8,164.4h-45.2c-4,0-7.2-3.2-7.2-7.2c0-4,3.2-7.2,7.2-7.2h45.2c4,0,7.2,3.2,7.2,7.2
			C402,161.2,398.8,164.4,394.8,164.4z"/>
	</g>
</g>
</svg>
