<?xml version="1.0" encoding="UTF-8" standalone="no"?>
<svg
   xmlns:dc="http://purl.org/dc/elements/1.1/"
   xmlns:cc="http://creativecommons.org/ns#"
   xmlns:rdf="http://www.w3.org/1999/02/22-rdf-syntax-ns#"
   xmlns:svg="http://www.w3.org/2000/svg"
   xmlns="http://www.w3.org/2000/svg"
   xmlns:sodipodi="http://sodipodi.sourceforge.net/DTD/sodipodi-0.dtd"
   xmlns:inkscape="http://www.inkscape.org/namespaces/inkscape"
   version="1.1"
   id="svg2"
   viewBox="0 0 100 100"
   height="100"
   width="100"
   inkscape:version="0.91 r13725"
   sodipodi:docname="motion_intensity_background.svg">
  <sodipodi:namedview
     pagecolor="#FFFFFF"
     bordercolor="#666666"
     borderopacity="1"
     objecttolerance="10"
     gridtolerance="10"
     guidetolerance="10"
     inkscape:pageopacity="0"
     inkscape:pageshadow="2"
     inkscape:window-width="1280"
     inkscape:window-height="962"
     id="namedview4230"
     showgrid="false"
     inkscape:zoom="7.8"
     inkscape:cx="50"
     inkscape:cy="50"
     inkscape:window-x="-8"
     inkscape:window-y="-8"
     inkscape:window-maximized="1"
     inkscape:current-layer="g4172" />
  <defs
     id="defs4">
    <clipPath
       clipPathUnits="userSpaceOnUse"
       id="clipPath4150">
      <path
         d="M 0,64 64,64 64,0 0,0 0,64 Z"
         id="path4152" />
    </clipPath>
    <clipPath
       clipPathUnits="userSpaceOnUse"
       id="clipPath4166">
      <path
         d="m 7.78352,56.2165 48.43298,0 0,-48.43298 -48.43298,0 0,48.43298 z"
         id="path4168" />
    </clipPath>
  </defs>
  <metadata
     id="metadata7">
    <rdf:RDF>
      <cc:Work
         rdf:about="">
        <dc:format>image/svg+xml</dc:format>
        <dc:type
           rdf:resource="http://purl.org/dc/dcmitype/StillImage" />
        <dc:title />
      </cc:Work>
    </rdf:RDF>
  </metadata>
  <g
     transform="translate(-287.14281,-462.36221)"
     id="layer1">
    <g
       id="g4144"
       transform="matrix(1.25,0,0,-1.25,297.14281,552.36221)">
      <g
         id="g4146">
        <g
           transform="translate(0.40406102,0.40406102)"
           id="g4148"
           clip-path="url(#clipPath4150)">
          <g
             transform="translate(-0.49562628,-0.30304576)"
             id="g4233">
            <g
               id="g4162"
               transform="translate(0.20203051,-0.20203051)">
              <g
                 id="g4164" />
              <g
                 id="g4170">
                <g
                   style="opacity:0.16999799"
                   id="g4172"
                   clip-path="url(#clipPath4166)">
                  <g
                     id="g4174"
                     transform="translate(56.2163,32)"
                     style="fill:#96f0f9;fill-opacity:1">
                    <path
                       id="path4176"
                       style="fill:#96f0f9;fill-opacity:1;fill-rule:nonzero;stroke:none"
                       d="m 0,0 c 0,-13.375 -10.842,-24.216 -24.216,-24.216 -13.375,0 -24.217,10.841 -24.217,24.216 0,13.375 10.842,24.216 24.217,24.216 C -10.842,24.216 0,13.375 0,0" />
                  </g>
                </g>
              </g>
            </g>
            <g
               transform="translate(32.0073,53.4292)"
               id="g4178">
              <path
                 id="path4180"
                 style="fill:#3CB4E6;fill-opacity:1;fill-rule:nonzero;stroke:none"
                 d="M 0,0 -0.015,-2.67" />
            </g>
            <g
               transform="translate(32.1899,50.7578)"
               id="g4182">
              <path
                 id="path4184"
                 style="fill:#3CB4E6;fill-opacity:1;fill-rule:nonzero;stroke:none"
                 d="M 0,0 -0.395,0.002 -0.38,2.672 0.015,2.67 0,0 Z" />
            </g>
            <g
               transform="translate(16.8286,16.8472)"
               id="g4186">
              <path
                 id="path4188"
                 style="fill:#3CB4E6;fill-opacity:1;fill-rule:nonzero;stroke:none"
                 d="M 0,0 1.888,1.888" />
            </g>
            <g
               transform="translate(16.9683,16.707)"
               id="g4190">
              <path
                 id="path4192"
                 style="fill:#3CB4E6;fill-opacity:1;fill-rule:nonzero;stroke:none"
                 d="M 0,0 -0.28,0.28 1.609,2.168 1.888,1.889 0,0 Z" />
            </g>
            <g
               transform="translate(11.5933,25.4009)"
               id="g4194">
              <path
                 id="path4196"
                 style="fill:#3CB4E6;fill-opacity:1;fill-rule:nonzero;stroke:none"
                 d="M 0,0 2.541,0.822" />
            </g>
            <g
               transform="translate(11.6543,25.2129)"
               id="g4198">
              <path
                 id="path4200"
                 style="fill:#3CB4E6;fill-opacity:1;fill-rule:nonzero;stroke:none"
                 d="M 0,0 -0.122,0.376 2.419,1.198 2.541,0.822 0,0 Z" />
            </g>
            <g
               transform="translate(10.8232,35.3999)"
               id="g4202">
              <path
                 id="path4204"
                 style="fill:#3CB4E6;fill-opacity:1;fill-rule:nonzero;stroke:none"
                 d="M 0,0 2.637,-0.423" />
            </g>
            <g
               transform="translate(13.4282,34.7813)"
               id="g4206">
              <path
                 id="path4208"
                 style="fill:#3CB4E6;fill-opacity:1;fill-rule:nonzero;stroke:none"
                 d="M 0,0 -2.636,0.424 -2.573,0.814 0.063,0.39 0,0 Z" />
            </g>
            <g
               transform="translate(14.6875,44.6548)"
               id="g4210">
              <path
                 id="path4212"
                 style="fill:#3CB4E6;fill-opacity:1;fill-rule:nonzero;stroke:none"
                 d="M 0,0 2.155,-1.577" />
            </g>
            <g
               transform="translate(16.7256,42.9185)"
               id="g4214">
              <path
                 id="path4216"
                 style="fill:#3CB4E6;fill-opacity:1;fill-rule:nonzero;stroke:none"
                 d="M 0,0 -2.155,1.577 -1.921,1.896 0.233,0.319 0,0 Z" />
            </g>
            <g
               transform="translate(22.3389,51.1377)"
               id="g4218">
              <path
                 id="path4220"
                 style="fill:#3CB4E6;fill-opacity:1;fill-rule:nonzero;stroke:none"
                 d="M 0,0 1.202,-2.385" />
            </g>
            <g
               transform="translate(23.3643,48.6641)"
               id="g4222">
              <path
                 id="path4224"
                 style="fill:#3CB4E6;fill-opacity:1;fill-rule:nonzero;stroke:none"
                 d="M 0,0 -1.202,2.385 -0.849,2.563 0.353,0.178 0,0 Z" />
            </g>
            <g
               transform="translate(41.8394,51.0273)"
               id="g4226">
              <path
                 id="path4228"
                 style="fill:#3CB4E6;fill-opacity:1;fill-rule:nonzero;stroke:none"
                 d="M 0,0 -1.229,-2.371" />
            </g>
            <g
               transform="translate(40.7866,48.5654)"
               id="g4230">
              <path
                 id="path4232"
                 style="fill:#3CB4E6;fill-opacity:1;fill-rule:nonzero;stroke:none"
                 d="M 0,0 -0.351,0.182 0.877,2.553 1.229,2.371 0,0 Z" />
            </g>
            <g
               transform="translate(49.4175,44.4585)"
               id="g4234">
              <path
                 id="path4236"
                 style="fill:#3CB4E6;fill-opacity:1;fill-rule:nonzero;stroke:none"
                 d="M 0,0 -2.173,-1.552" />
            </g>
            <g
               transform="translate(47.3594,42.7451)"
               id="g4238">
              <path
                 id="path4240"
                 style="fill:#3CB4E6;fill-opacity:1;fill-rule:nonzero;stroke:none"
                 d="M 0,0 -0.229,0.322 1.943,1.874 2.173,1.553 0,0 Z" />
            </g>
            <g
               transform="translate(53.1768,35.1611)"
               id="g4242">
              <path
                 id="path4244"
                 style="fill:#3CB4E6;fill-opacity:1;fill-rule:nonzero;stroke:none"
                 d="M 0,0 -2.641,-0.394" />
            </g>
            <g
               transform="translate(50.5645,34.5718)"
               id="g4246">
              <path
                 id="path4248"
                 style="fill:#3CB4E6;fill-opacity:1;fill-rule:nonzero;stroke:none"
                 d="M 0,0 -0.058,0.391 2.583,0.785 2.641,0.394 0,0 Z" />
            </g>
            <g
               transform="translate(52.2939,25.1709)"
               id="g4250">
              <path
                 id="path4252"
                 style="fill:#3CB4E6;fill-opacity:1;fill-rule:nonzero;stroke:none"
                 d="M 0,0 -2.531,0.851" />
            </g>
            <g
               transform="translate(52.231,24.9839)"
               id="g4254">
              <path
                 id="path4256"
                 style="fill:#3CB4E6;fill-opacity:1;fill-rule:nonzero;stroke:none"
                 d="M 0,0 -2.531,0.851 -2.405,1.226 0.125,0.375 0,0 Z" />
            </g>
            <g
               transform="translate(46.9624,16.6768)"
               id="g4258">
              <path
                 id="path4260"
                 style="fill:#3CB4E6;fill-opacity:1;fill-rule:nonzero;stroke:none"
                 d="M 0,0 -1.867,1.91" />
            </g>
            <g
               transform="translate(46.8213,16.5386)"
               id="g4262">
              <path
                 id="path4264"
                 style="fill:#3CB4E6;fill-opacity:1;fill-rule:nonzero;stroke:none"
                 d="M 0,0 -1.867,1.91 -1.584,2.186 0.282,0.276 0,0 Z" />
            </g>
            <g
               transform="translate(14.9634,20.8818)"
               id="g4266">
              <path
                 id="path4268"
                 style="fill:#3CB4E6;fill-opacity:1;fill-rule:nonzero;stroke:none"
                 d="M 0,0 0.294,0 C 0.485,0 0.605,0.008 0.652,0.024 0.7,0.041 0.737,0.068 0.764,0.108 0.791,0.147 0.805,0.197 0.805,0.256 0.805,0.322 0.787,0.376 0.751,0.417 0.716,0.458 0.666,0.483 0.601,0.494 0.569,0.499 0.472,0.501 0.311,0.501 L 0,0.501 0,0 Z m -0.398,-1.138 0,1.972 0.838,0 C 0.651,0.834 0.804,0.817 0.899,0.781 0.995,0.746 1.071,0.683 1.129,0.592 1.186,0.501 1.215,0.398 1.215,0.281 1.215,0.133 1.171,0.011 1.084,-0.085 0.998,-0.182 0.867,-0.243 0.694,-0.268 0.78,-0.318 0.852,-0.373 0.908,-0.433 0.963,-0.493 1.039,-0.6 1.134,-0.753 l 0.241,-0.385 -0.477,0 -0.287,0.429 c -0.103,0.153 -0.173,0.25 -0.21,0.29 -0.038,0.04 -0.078,0.067 -0.12,0.082 -0.042,0.015 -0.109,0.022 -0.2,0.022 l -0.081,0 0,-0.823 -0.398,0 z" />
            </g>
            <g
               transform="translate(16.5537,19.7437)"
               id="g4270">
              <path
                 id="path4272"
                 style="fill:#3CB4E6;fill-opacity:1;fill-rule:nonzero;stroke:none"
                 d="m 0,0 0,1.973 1.463,0 0,-0.334 -1.065,0 0,-0.437 0.991,0 0,-0.333 -0.991,0 0,-0.536 1.103,0 L 1.501,0 0,0 Z" />
            </g>
            <g
               transform="translate(18.291,20.3853)"
               id="g4274">
              <path
                 id="path4276"
                 style="fill:#3CB4E6;fill-opacity:1;fill-rule:nonzero;stroke:none"
                 d="m 0,0 0.388,0.038 c 0.023,-0.13 0.07,-0.226 0.142,-0.287 0.071,-0.061 0.167,-0.091 0.288,-0.091 0.129,0 0.225,0.027 0.29,0.081 0.065,0.054 0.098,0.118 0.098,0.191 0,0.046 -0.014,0.086 -0.041,0.119 C 1.138,0.083 1.09,0.112 1.022,0.136 0.975,0.152 0.869,0.181 0.703,0.222 0.489,0.275 0.339,0.34 0.253,0.417 0.132,0.526 0.072,0.658 0.072,0.814 0.072,0.915 0.1,1.009 0.157,1.096 0.214,1.184 0.296,1.25 0.403,1.296 0.51,1.342 0.64,1.365 0.792,1.365 1.039,1.365 1.226,1.311 1.351,1.202 1.476,1.093 1.542,0.948 1.548,0.767 L 1.149,0.75 C 1.132,0.851 1.096,0.924 1.04,0.968 0.984,1.013 0.899,1.035 0.788,1.035 0.672,1.035 0.581,1.011 0.516,0.964 0.474,0.933 0.452,0.893 0.452,0.841 0.452,0.794 0.472,0.755 0.512,0.722 0.562,0.679 0.684,0.635 0.877,0.589 1.072,0.544 1.215,0.497 1.308,0.448 1.4,0.398 1.473,0.332 1.525,0.247 1.578,0.162 1.604,0.058 1.604,-0.067 1.604,-0.18 1.573,-0.286 1.51,-0.385 1.447,-0.483 1.358,-0.557 1.244,-0.605 1.129,-0.653 0.986,-0.677 0.814,-0.677 0.565,-0.677 0.374,-0.619 0.24,-0.504 0.106,-0.389 0.026,-0.221 0,0" />
            </g>
            <g
               transform="translate(20.6748,19.7437)"
               id="g4278">
              <path
                 id="path4280"
                 style="fill:#3CB4E6;fill-opacity:1;fill-rule:nonzero;stroke:none"
                 d="m 0,0 0,1.639 -0.585,0 0,0.334 1.567,0 0,-0.334 -0.584,0 L 0.398,0 0,0 Z" />
            </g>
            <path
               id="path4282"
               style="fill:#3CB4E6;fill-opacity:1;fill-rule:nonzero;stroke:none"
               d="m 21.902,21.716 0.398,0 0,-1.973 -0.398,0 0,1.973 z" />
            <g
               transform="translate(22.6836,19.7437)"
               id="g4284">
              <path
                 id="path4286"
                 style="fill:#3CB4E6;fill-opacity:1;fill-rule:nonzero;stroke:none"
                 d="m 0,0 0,1.973 0.388,0 0.807,-1.318 0,1.318 0.37,0 L 1.565,0 1.166,0 0.37,1.286 0.37,0 0,0 Z" />
            </g>
            <g
               transform="translate(25.5879,20.4688)"
               id="g4288">
              <path
                 id="path4290"
                 style="fill:#3CB4E6;fill-opacity:1;fill-rule:nonzero;stroke:none"
                 d="m 0,0 0,0.333 0.859,0 0,-0.787 C 0.775,-0.534 0.654,-0.605 0.496,-0.667 0.338,-0.728 0.177,-0.759 0.015,-0.759 c -0.206,0 -0.386,0.043 -0.54,0.13 -0.153,0.087 -0.268,0.211 -0.346,0.372 -0.077,0.16 -0.115,0.336 -0.115,0.525 0,0.205 0.043,0.388 0.129,0.548 0.086,0.159 0.212,0.282 0.378,0.367 0.126,0.066 0.284,0.098 0.473,0.098 C 0.238,1.281 0.43,1.23 0.567,1.127 0.705,1.024 0.793,0.882 0.833,0.701 L 0.437,0.627 C 0.41,0.724 0.357,0.801 0.281,0.856 0.204,0.913 0.108,0.941 -0.006,0.941 c -0.175,0 -0.313,-0.055 -0.416,-0.166 -0.102,-0.11 -0.154,-0.274 -0.154,-0.491 0,-0.234 0.052,-0.41 0.156,-0.527 0.104,-0.117 0.241,-0.175 0.409,-0.175 0.084,0 0.167,0.016 0.251,0.049 0.084,0.033 0.156,0.072 0.217,0.119 L 0.457,0 0,0 Z" />
            </g>
            <g
               transform="translate(34.2822,20.3853)"
               id="g4292">
              <path
                 id="path4294"
                 style="fill:#3CB4E6;fill-opacity:1;fill-rule:nonzero;stroke:none"
                 d="m 0,0 0.388,0.038 c 0.023,-0.13 0.07,-0.226 0.141,-0.287 0.072,-0.061 0.168,-0.091 0.289,-0.091 0.128,0 0.225,0.027 0.29,0.081 0.065,0.054 0.098,0.118 0.098,0.191 0,0.046 -0.014,0.086 -0.041,0.119 C 1.137,0.083 1.089,0.112 1.021,0.136 0.975,0.152 0.869,0.181 0.703,0.222 0.489,0.275 0.339,0.34 0.253,0.417 0.132,0.526 0.071,0.658 0.071,0.814 0.071,0.915 0.1,1.009 0.157,1.096 0.214,1.184 0.296,1.25 0.403,1.296 0.51,1.342 0.64,1.365 0.792,1.365 1.039,1.365 1.225,1.311 1.351,1.202 1.476,1.093 1.542,0.948 1.548,0.767 L 1.149,0.75 C 1.132,0.851 1.096,0.924 1.04,0.968 0.983,1.013 0.899,1.035 0.787,1.035 0.671,1.035 0.581,1.011 0.515,0.964 0.473,0.933 0.452,0.893 0.452,0.841 0.452,0.794 0.472,0.755 0.511,0.722 0.562,0.679 0.684,0.635 0.877,0.589 1.071,0.544 1.214,0.497 1.308,0.448 1.4,0.398 1.473,0.332 1.525,0.247 1.578,0.162 1.604,0.058 1.604,-0.067 1.604,-0.18 1.573,-0.286 1.51,-0.385 1.447,-0.483 1.358,-0.557 1.243,-0.605 1.128,-0.653 0.985,-0.677 0.814,-0.677 0.565,-0.677 0.373,-0.619 0.24,-0.504 0.106,-0.389 0.026,-0.221 0,0" />
            </g>
            <g
               transform="translate(36.6201,21.3828)"
               id="g4296">
              <path
                 id="path4298"
                 style="fill:#3CB4E6;fill-opacity:1;fill-rule:nonzero;stroke:none"
                 d="m 0,0 0,-0.56 0.218,0 c 0.157,0 0.261,0.01 0.315,0.031 0.052,0.021 0.094,0.053 0.124,0.097 0.03,0.044 0.045,0.095 0.045,0.153 0,0.072 -0.021,0.131 -0.063,0.178 -0.042,0.046 -0.096,0.076 -0.16,0.087 C 0.431,-0.005 0.336,0 0.192,0 L 0,0 Z m -0.399,-1.639 0,1.972 0.64,0 c 0.242,0 0.4,-0.009 0.473,-0.029 C 0.827,0.274 0.922,0.21 0.998,0.111 1.075,0.012 1.113,-0.116 1.113,-0.273 1.113,-0.395 1.091,-0.497 1.047,-0.579 1.003,-0.662 0.947,-0.726 0.879,-0.773 0.812,-0.82 0.743,-0.852 0.673,-0.867 0.578,-0.886 0.44,-0.895 0.259,-0.895 l -0.259,0 0,-0.744 -0.399,0 z" />
            </g>
            <g
               transform="translate(38.4595,20.8818)"
               id="g4300">
              <path
                 id="path4302"
                 style="fill:#3CB4E6;fill-opacity:1;fill-rule:nonzero;stroke:none"
                 d="m 0,0 0.295,0 c 0.191,0 0.31,0.008 0.358,0.024 0.047,0.017 0.084,0.044 0.112,0.084 0.026,0.039 0.04,0.089 0.04,0.148 0,0.066 -0.018,0.12 -0.054,0.161 C 0.716,0.458 0.666,0.483 0.602,0.494 0.569,0.499 0.473,0.501 0.311,0.501 L 0,0.501 0,0 Z m -0.398,-1.138 0,1.972 0.838,0 C 0.651,0.834 0.804,0.817 0.9,0.781 0.995,0.746 1.072,0.683 1.129,0.592 1.187,0.501 1.215,0.398 1.215,0.281 1.215,0.133 1.172,0.011 1.085,-0.085 0.998,-0.182 0.868,-0.243 0.694,-0.268 0.781,-0.318 0.852,-0.373 0.908,-0.433 0.964,-0.493 1.04,-0.6 1.135,-0.753 l 0.24,-0.385 -0.476,0 -0.288,0.429 c -0.102,0.153 -0.173,0.25 -0.21,0.29 -0.038,0.04 -0.077,0.067 -0.12,0.082 -0.042,0.015 -0.109,0.022 -0.2,0.022 l -0.081,0 0,-0.823 -0.398,0 z" />
            </g>
            <path
               id="path4304"
               style="fill:#3CB4E6;fill-opacity:1;fill-rule:nonzero;stroke:none"
               d="m 40.038,21.716 0.398,0 0,-1.973 -0.398,0 0,1.973 z" />
            <g
               transform="translate(40.8198,19.7437)"
               id="g4306">
              <path
                 id="path4308"
                 style="fill:#3CB4E6;fill-opacity:1;fill-rule:nonzero;stroke:none"
                 d="m 0,0 0,1.973 0.388,0 0.807,-1.318 0,1.318 0.37,0 L 1.565,0 1.166,0 0.37,1.286 0.37,0 0,0 Z" />
            </g>
            <g
               transform="translate(43.2505,19.7437)"
               id="g4310">
              <path
                 id="path4312"
                 style="fill:#3CB4E6;fill-opacity:1;fill-rule:nonzero;stroke:none"
                 d="m 0,0 0,1.639 -0.585,0 0,0.334 1.567,0 0,-0.334 -0.584,0 L 0.398,0 0,0 Z" />
            </g>
            <path
               id="path4314"
               style="fill:#3CB4E6;fill-opacity:1;fill-rule:nonzero;stroke:none"
               d="m 44.478,21.716 0.398,0 0,-1.973 -0.398,0 0,1.973 z" />
            <g
               transform="translate(45.2598,19.7437)"
               id="g4316">
              <path
                 id="path4318"
                 style="fill:#3CB4E6;fill-opacity:1;fill-rule:nonzero;stroke:none"
                 d="m 0,0 0,1.973 0.388,0 0.807,-1.318 0,1.318 0.37,0 L 1.565,0 1.165,0 0.37,1.286 0.37,0 0,0 Z" />
            </g>
            <g
               transform="translate(48.1641,20.4688)"
               id="g4320">
              <path
                 id="path4322"
                 style="fill:#3CB4E6;fill-opacity:1;fill-rule:nonzero;stroke:none"
                 d="m 0,0 0,0.333 0.858,0 0,-0.787 C 0.775,-0.534 0.654,-0.605 0.496,-0.667 0.337,-0.728 0.177,-0.759 0.015,-0.759 c -0.207,0 -0.387,0.043 -0.54,0.13 -0.154,0.087 -0.269,0.211 -0.346,0.372 -0.077,0.16 -0.116,0.336 -0.116,0.525 0,0.205 0.043,0.388 0.13,0.548 0.086,0.159 0.211,0.282 0.378,0.367 0.126,0.066 0.284,0.098 0.472,0.098 0.245,0 0.436,-0.051 0.574,-0.154 C 0.705,1.024 0.793,0.882 0.833,0.701 L 0.437,0.627 C 0.409,0.724 0.357,0.801 0.28,0.856 0.204,0.913 0.108,0.941 -0.007,0.941 c -0.174,0 -0.312,-0.055 -0.415,-0.166 -0.103,-0.11 -0.154,-0.274 -0.154,-0.491 0,-0.234 0.052,-0.41 0.156,-0.527 0.104,-0.117 0.24,-0.175 0.409,-0.175 0.083,0 0.167,0.016 0.251,0.049 0.084,0.033 0.156,0.072 0.216,0.119 L 0.456,0 0,0 Z" />
            </g>
            <g
               transform="translate(9.6318,32)"
               id="g4324">
              <path
                 id="path4326"
                 style="fill:#3CB4E6;fill-opacity:1;fill-rule:nonzero;stroke:none"
                 d="m 0,0 c 0,12.343 10.006,22.35 22.35,22.35 12.343,0 22.349,-10.007 22.349,-22.35 0,-6.403 -2.694,-12.177 -7.009,-16.251 l 1.33,-1.313 C 43.668,-13.152 46.566,-6.915 46.566,0 46.566,13.375 35.724,24.216 22.35,24.216 8.975,24.216 -1.867,13.375 -1.867,0 c 0,-6.83 2.829,-12.999 7.377,-17.401 l 1.329,1.311 C 2.624,-12.024 0,-6.319 0,0" />
            </g>
          </g>
          <path
             id="path4231"
             d="M 31.595703,63.148438 C 14.198099,63.148438 0.04296875,48.993307 0.04296875,31.595703 0.04296833,14.198099 14.198099,0.04296833 31.595703,0.04296875 c 17.397604,0 31.552735,14.15513025 31.552735,31.55273425 0,17.397604 -14.155131,31.552735 -31.552735,31.552735 z m 0,-4.800782 c 14.803491,0 26.751953,-11.948462 26.751953,-26.751953 C 58.347657,16.792212 46.399194,4.84375 31.595703,4.84375 16.792212,4.8437496 4.8437496,16.792212 4.84375,31.595703 c 0,14.803491 11.948462,26.751954 26.751953,26.751953 z"
             style="color:#000000;font-style:normal;font-variant:normal;font-weight:normal;font-stretch:normal;font-size:medium;line-height:normal;font-family:sans-serif;text-indent:0;text-align:start;text-decoration:none;text-decoration-line:none;text-decoration-style:solid;text-decoration-color:#000000;letter-spacing:normal;word-spacing:normal;text-transform:none;direction:ltr;block-progression:tb;writing-mode:lr-tb;baseline-shift:baseline;text-anchor:start;white-space:normal;clip-rule:nonzero;display:inline;overflow:visible;visibility:visible;opacity:1;isolation:auto;mix-blend-mode:normal;color-interpolation:sRGB;color-interpolation-filters:linearRGB;solid-color:#000000;solid-opacity:1;fill:#3CB4E6;fill-opacity:1;fill-rule:evenodd;stroke:none;stroke-width:4.80000019;stroke-linecap:round;stroke-linejoin:round;stroke-miterlimit:4;stroke-dasharray:none;stroke-dashoffset:0;stroke-opacity:1;color-rendering:auto;image-rendering:auto;shape-rendering:auto;text-rendering:auto;enable-background:accumulate" />
        </g>
      </g>
    </g>
  </g>
</svg>
