<?xml version="1.0" encoding="utf-8"?>
<!-- Generator: Adobe Illustrator 23.0.3, SVG Export Plug-In . SVG Version: 6.00 Build 0)  -->
<svg version="1.1" xmlns="http://www.w3.org/2000/svg" xmlns:xlink="http://www.w3.org/1999/xlink" x="0px" y="0px"
	 viewBox="0 0 200 200" style="enable-background:new 0 0 200 200;" xml:space="preserve">
<style type="text/css">
	.st0{fill:#3CB4E6;}
</style>
<g id="Layer_1">
	<path class="st0" d="M195.6,83.5l2-12.1c0.3-2.1-0.3-4.1-1.7-5.6l-24.2-26.3c-0.9-1-2-1.6-3.3-2l-53.5-13.4c0-0.2,0-0.4,0-0.6
		c0-4.2-3.4-7.7-7.7-7.7c-3.9,0-7.1,2.9-7.6,6.6c-8.9,1.3-27.1,4.2-34.2,6.4c-4.4,1.3-13.4,5.3-20.6,8.7c-1.4-1.5-3.4-2.5-5.6-2.5
		c-4.2,0-7.7,3.4-7.7,7.7c0,1,0.2,2,0.6,2.9l-10,8.1c-0.5,0.4-1,1-1.4,1.5L7.8,74.8c-0.5,0.7-0.8,1.5-1,2.4l-4.7,23.7
		C2,101.2,2,101.4,2,101.7L0,130.9c-0.1,1.3,0.2,2.6,0.8,3.7l7.5,13.6c1.4,2.5,4.2,3.8,6.9,3.4l9.1-1.5c1.2-0.2,2.4,0.3,3.1,1.4
		l6.4,10.1c-1.2,1.3-1.9,3.1-1.9,5c0,4.2,3.4,7.7,7.7,7.7c2.8,0,5.2-1.5,6.5-3.7l5.9,1.2c0.7,0.2,1.5,0.2,2.2,0.1l18.3-2.5
		c1.1-0.2,2.2,0.3,2.9,1.2c0.7,0.9,0.8,2.1,0.3,3.1l-0.4,0.8c-1.2,2.5-0.8,5.4,1,7.4c1.3,1.5,3.1,2.2,4.9,2.2c0.8,0,1.6-0.1,2.3-0.4
		c1.7-0.6,3.2-2,3.9-3.7l4.9-11.5c0.5,0.1,1.1,0.2,1.6,0.2c4.2,0,7.7-3.4,7.7-7.7c0-2.3-1-4.4-2.7-5.8l6.6-11.4
		c0.6-1.1,1.9-1.7,3.2-1.5l4.4,0.8c1.6,0.3,3.3,0,4.6-0.9l22.6-13.6c2-1.2,3.3-3.5,3.2-5.8l-0.1-5.9c3.4-0.8,6-3.8,6-7.5
		c0-0.1,0-0.1,0-0.2l19.6-4.6c0.6-0.2,1.2-0.4,1.8-0.7l15.2-8.8c1.4,1.7,3.6,2.9,6,2.9c4.2,0,7.7-3.4,7.7-7.7
		C200,87.4,198.2,84.7,195.6,83.5z M193.9,70.8l-2,12c-1,0-2,0.3-2.8,0.7l-10.5-20c1.3-1.4,2.2-3.3,2.2-5.4c0-4.2-3.4-7.6-7.5-7.7
		l-0.5-4.4l20.4,22.2C193.8,68.9,194.1,69.8,193.9,70.8z M157.5,84.2L171,65.5c0.2,0.1,0.4,0.1,0.6,0.1l-2,33.9L157.5,84.2z
		 M156.2,81.4c-0.2-0.2-0.4-0.5-0.7-0.7l-26.7-18.9c0.5-0.8,0.8-1.8,0.9-2.8h35.8c0.3,2.1,1.4,4,3,5.2L156.2,81.4z M154.2,84.5
		C154.2,84.6,154.2,84.6,154.2,84.5l-10,17.6c-0.7-0.2-1.4-0.3-2.1-0.3c-1.4,0-2.7,0.4-3.8,1l-15.6-0.1c-0.2-0.3-0.5-0.5-0.7-0.8
		l19.7-27.8l12.3,8.7c0.3,0.2,0.5,0.6,0.5,0.9l-0.3,0.5L154.2,84.5z M116.7,110.8c-1.7,0-3.1-1.4-3.1-3.1s1.4-3.1,3.1-3.1
		c1.7,0,3.1,1.4,3.1,3.1S118.4,110.8,116.7,110.8z M86.7,159.4l-4.4,3.9l0.9-23.3c2.6-0.3,4.9-1.9,6-4.2l3.4,1L91.3,154
		C89,155,87.3,157,86.7,159.4z M33.5,144c-0.2,0-0.6,0-1-0.3l-5.6-8.1c0.9-1.3,1.5-2.8,1.5-4.5c0-2-0.8-3.8-2-5.1l15.8-9.8
		c0.5,0.4,1.2,0.8,1.8,1.1l-9.6,26c-0.2,0.4-0.5,0.6-0.7,0.7L33.5,144z M3.7,131.5c0-0.1,0-0.2,0-0.3l1.5-22.1L16.1,125
		c-1.7,1.3-2.8,3.2-3,5.4L3.7,131.5z M30.4,76.7l13.8-1.8c0.4-0.1,0.8,0.1,1.1,0.3c0.3,0.3,0.5,0.6,0.5,1v26.5
		c-0.7,0.1-1.5,0.4-2.1,0.7L28.7,81.3C29.8,80,30.4,78.4,30.4,76.7L30.4,76.7z M127.1,64l12.3,8.7l-19.8,27.9
		c-0.1,0-0.2-0.1-0.3-0.1c0,0,0-0.1,0-0.1l3.1-34.6C124.2,65.7,125.8,65,127.1,64z M82.5,135.5c-1.7,0-3.1-1.4-3.1-3.1
		c0-1.7,1.4-3.1,3.1-3.1c1.7,0,3.1,1.4,3.1,3.1C85.5,134.1,84.2,135.5,82.5,135.5z M76.6,127.4l-22.5-14c0.5-1,0.7-2.1,0.7-3.2
		c0-0.5-0.1-1-0.1-1.4l23-10.1c0,0,0.1,0,0.1-0.1l3.1,26.2C79.1,125.2,77.6,126.2,76.6,127.4z M114.5,59.1c-0.1,0-0.3,0.1-0.4,0.2
		L83.4,73.8c-0.7-1.2-1.8-2.2-3.1-2.9l9-27.2l25.3,12.7c-0.1,0.5-0.2,1.1-0.2,1.6C114.4,58.5,114.4,58.8,114.5,59.1z M52,104.4
		l20.5-40.1l1.5,6.4c-2.8,1.1-4.9,3.9-4.9,7.1c0,3.9,2.9,7.1,6.6,7.6l1.4,9.5c0.1,0.5-0.2,1-0.7,1.2l-22.9,10.1
		C53.2,105.5,52.6,104.9,52,104.4z M76.8,80.9c-1.7,0-3.1-1.4-3.1-3.1c0-1.7,1.4-3.1,3.1-3.1c1.7,0,3.1,1.4,3.1,3.1
		C79.9,79.5,78.5,80.9,76.8,80.9z M77.7,70.2c-0.3,0-0.5,0-0.8,0c0,0-0.1,0-0.1,0l-8.7-37l18.8,9.4L77.7,70.2z M49.6,103
		c-0.4-0.1-0.8-0.2-1.2-0.3V76.2c0-0.3,0-0.6-0.1-0.8c0.2-0.1,0.5-0.1,0.7-0.3l20.3-10.8L49.6,103z M47.1,113.3
		c-1.7,0-3.1-1.4-3.1-3.1c0-1.7,1.4-3.1,3.1-3.1c1.7,0,3.1,1.4,3.1,3.1C50.2,111.9,48.8,113.3,47.1,113.3z M84.5,77.8
		c0-0.5,0-0.9-0.1-1.4l30.9-14.7c0,0,0,0,0.1,0c0.9,1.7,2.5,3,4.3,3.6l-3.1,34.6c-1.8,0-3.4,0.7-4.7,1.7c0,0-0.1,0-0.1-0.1l-28-20.6
		C84.2,80.1,84.5,79,84.5,77.8z M122.1,61.2c-1.7,0-3.1-1.4-3.1-3.1c0-1.7,1.4-3.1,3.1-3.1s3.1,1.4,3.1,3.1
		C125.2,59.8,123.8,61.2,122.1,61.2z M115.6,53.9l-25-12.6l11.6-12.2c1.4,1.2,3.1,2,5.1,2c0.5,0,1-0.1,1.5-0.2l8.8,20.9
		C116.8,52.4,116.2,53.1,115.6,53.9z M100.5,27c-0.1,0.1-0.2,0.2-0.3,0.3L88.1,40.1l-17.5-8.8c8.3-1.9,22-4.1,29.5-5.2
		C100.2,26.4,100.3,26.7,100.5,27z M71.3,59.1c-0.4-0.3-0.9-0.5-1.4-0.6l-25.4-3.9c-0.4-0.1-0.6-0.2-0.7-0.3c0-0.1,0.1-0.3,0.4-0.6
		l21-20.5L71.3,59.1z M44,57.3l25.4,3.9c0,0,0.1,0,0.1,0L47.8,72.7c-0.4,0.2-0.8,0.2-1.2,0c-0.4-0.2-0.6-0.5-0.7-0.9l-2.2-14.6
		C43.9,57.3,43.9,57.3,44,57.3z M22.7,79.7c-1.7,0-3.1-1.4-3.1-3.1s1.4-3.1,3.1-3.1c1.7,0,3.1,1.4,3.1,3.1S24.4,79.7,22.7,79.7z
		 M18.5,82.9c1.2,0.8,2.7,1.3,4.3,1.3c1.4,0,2.8-0.4,3.9-1.1l14.7,21.9c-0.9,1-1.5,2.2-1.8,3.5l-33.9-6.8c0-0.1,0-0.1,0-0.2L6,100
		L18.5,82.9z M5.4,104.5l34,6.8c0.1,1,0.5,1.9,0.9,2.7L24,124.2c-1-0.5-2.1-0.8-3.3-0.8c-0.7,0-1.5,0.1-2.1,0.3L5.4,104.5L5.4,104.5
		z M17.6,131.1c0-1.7,1.3-3,3-3.1l1.4,0.2c1.1,0.5,1.9,1.6,1.9,2.8c0,1.7-1.4,3.1-3.1,3.1C19,134.2,17.6,132.8,17.6,131.1z
		 M46.7,117.9c0.1,0,0.2,0,0.3,0c2.1,0,4-0.8,5.4-2.2l22.8,14.1c-0.3,0.8-0.4,1.6-0.4,2.5c0,0.3,0,0.5,0,0.8L37.5,143L46.7,117.9z
		 M86.6,125.9c-0.9-0.6-1.9-0.9-3-1.1l-3.5-29.1l-0.2,0c0.1-0.4,0.1-0.8,0-1.2l-1.4-9.2c1.4-0.3,2.6-1,3.6-1.9l27.9,20.5
		c-0.6,1.1-1,2.4-1,3.8c0,1,0.2,1.9,0.5,2.8L86.6,125.9z M173.1,61.2c-1.7,0-3.1-1.4-3.1-3.1c0-1.7,1.4-3.1,3.1-3.1
		c1.7,0,3.1,1.4,3.1,3.1C176.2,59.8,174.8,61.2,173.1,61.2z M169.6,42.6l1,8.3c-2.4,0.9-4.3,2.9-4.9,5.4h-36.2
		c-0.1-0.2-0.1-0.4-0.2-0.6L167.3,41l0.2,0.1c0.6,0.1,1.1,0.5,1.5,0.9L169.6,42.6z M162.7,39.8L128,53.2c-1.4-1.7-3.5-2.8-5.9-2.8
		c-0.7,0-1.3,0.1-1.9,0.3l-8.7-20.8c1-0.6,1.8-1.4,2.4-2.4L162.7,39.8z M107.3,20.4c1.7,0,3.1,1.4,3.1,3.1c0,1.7-1.4,3.1-3.1,3.1
		c-1.7,0-3.1-1.4-3.1-3.1C104.2,21.8,105.6,20.4,107.3,20.4z M59.5,35L42.9,51.2l-0.2-1.7c2.5-1.3,4.2-3.9,4.2-6.8
		c0-0.7-0.1-1.3-0.3-2C50.3,39,55.2,36.7,59.5,35z M39.2,39.5c1.7,0,3.1,1.4,3.1,3.1c0,1.7-1.4,3.1-3.1,3.1c-1.7,0-3.1-1.4-3.1-3.1
		C36.1,40.9,37.5,39.5,39.2,39.5z M24.4,56.5l9.9-8c1.3,1.1,3.1,1.8,4.9,1.8c0.3,0,0.5,0,0.8,0l3.2,22L30,74l0.1,0.5
		c-0.2-0.8-0.6-1.6-1.1-2.3l-5.1-15.3C24.1,56.8,24.2,56.6,24.4,56.5z M22,59.8l3.2,9.5c-0.8-0.3-1.6-0.4-2.4-0.4
		c-3.9,0-7.1,2.9-7.6,6.7l-3.7,0.3L22,59.8z M10.2,78.7l5-0.4c0.2,1,0.6,1.9,1.2,2.7L7.3,93.6L10.2,78.7z M4.8,134.1l8.5-1
		c0.5,1.7,1.5,3.2,2.9,4.2l-4.6,9.1c0,0,0,0,0,0L4.8,134.1z M23.9,146.4l-9.1,1.5c-0.3,0-0.5,0-0.8,0l4.7-9.4c0.6,0.2,1.3,0.3,2,0.3
		c1.5,0,3-0.5,4.2-1.2L30,145l-5.2,1.4l0,0C24.5,146.4,24.2,146.4,23.9,146.4z M39.8,169.6c-1.7,0-3.1-1.4-3.1-3.1
		c0-1.7,1.4-3.1,3.1-3.1c1.7,0,3.1,1.4,3.1,3.1c0,0.1,0,0.2,0,0.3l-0.1,0.6C42.3,168.7,41.1,169.6,39.8,169.6z M72.2,165.7
		l-18.3,2.5c-0.3,0-0.7,0-1,0l-5.5-1.1c0-0.2,0-0.3,0-0.5c0-4.2-3.4-7.7-7.7-7.7c-1,0-2,0.2-2.8,0.5l-6.3-9.9
		c-0.4-0.6-0.8-1.1-1.3-1.5l4.8-1.3c0.1,0,0.3-0.1,0.4-0.1l41-10.8c1,1.9,2.8,3.4,4.9,4l-1,25.6l-1.4,2.6
		C76.6,166.3,74.4,165.4,72.2,165.7z M82.5,180.3c-1.2,0.4-2.4,0.1-3.3-0.8c-0.9-1-1-2.2-0.5-3.4l0.4-0.8c0.7-1.4,0.8-3,0.5-4.4
		l0.7-1.4l3.4,9.9C83.5,179.8,83,180.2,82.5,180.3z M85.5,175.8l-3.1-8.9l4.3-3.9c0.4,1.6,1.3,2.9,2.5,3.9L85.5,175.8z M94.2,164.2
		c-1.7,0-3.1-1.4-3.1-3.1c0-1.7,1.4-3.1,3.1-3.1c1.7,0,3.1,1.4,3.1,3.1C97.3,162.8,95.9,164.2,94.2,164.2z M102.6,142.1l-6.7,11.6
		c-0.6-0.1-1.1-0.2-1.7-0.2c0,0,0,0-0.1,0l1.3-15.7l8.6,2.7C103.5,140.9,103,141.4,102.6,142.1z M109.6,138.8
		c-0.5-0.1-1-0.1-1.4-0.1l-18-5.6c0-0.3,0-0.6,0-0.8c0-1.7-0.6-3.3-1.5-4.6l22.4-15c1.2,1.4,3,2.3,4.9,2.5l-1.4,24.4
		c-0.2,0-0.4,0-0.6,0L109.6,138.8z M138.7,125.6l-21.3,12.9l1.4-23.4c3.3-0.9,5.7-3.9,5.7-7.4c0-0.7-0.1-1.4-0.3-2.1l11.4,0
		c-0.7,1.1-1.1,2.5-1.1,3.9c0,3.5,2.4,6.5,5.7,7.4l0.1,6C140.2,124,139.6,125,138.7,125.6z M142.1,112.6c-1.7,0-3.1-1.4-3.1-3.1
		c0-1.7,1.4-3.1,3.1-3.1s3.1,1.4,3.1,3.1C145.2,111.3,143.8,112.6,142.1,112.6z M146.7,103.4l9.4-16.6l11.5,14.5l-18.8,4.5
		C148.3,104.9,147.6,104.1,146.7,103.4z M172.5,99l1.9-33.3c0.7-0.1,1.4-0.3,2-0.6l10.5,20c-1.4,1.4-2.2,3.3-2.2,5.4
		c0,0.5,0.1,1,0.1,1.5L172.5,99z M192.3,93.5c-1.7,0-3.1-1.4-3.1-3.1s1.4-3.1,3.1-3.1c1.7,0,3.1,1.4,3.1,3.1S194,93.5,192.3,93.5z"
		/>
</g>
<g id="Layer_4">
</g>
</svg>
