<?xml version="1.0" encoding="UTF-8" standalone="no"?>
<svg
   xmlns:dc="http://purl.org/dc/elements/1.1/"
   xmlns:cc="http://creativecommons.org/ns#"
   xmlns:rdf="http://www.w3.org/1999/02/22-rdf-syntax-ns#"
   xmlns:svg="http://www.w3.org/2000/svg"
   xmlns="http://www.w3.org/2000/svg"
   id="svg102"
   version="1.1"
   viewBox="0 0 22.577778 22.577778"
   height="64pt"
   width="64pt">
  <defs
     id="defs96" />
  <metadata
     id="metadata99">
    <rdf:RDF>
      <cc:Work
         rdf:about="">
        <dc:format>image/svg+xml</dc:format>
        <dc:type
           rdf:resource="http://purl.org/dc/dcmitype/StillImage" />
        <dc:title></dc:title>
      </cc:Work>
    </rdf:RDF>
  </metadata>
  <g
     transform="translate(0,-274.42223)"
     id="layer1">
    <g
       id="g380"
       transform="matrix(0.53912803,0,0,-0.53912803,12.178081,293.05243)">
      <path
         d="m 0,0 c -0.439,-0.428 -0.961,-0.643 -1.568,-0.643 -0.607,0 -1.129,0.215 -1.568,0.643 -0.439,0.428 -0.658,0.944 -0.658,1.551 0,0.607 0.219,1.13 0.658,1.568 0.439,0.439 0.961,0.658 1.568,0.658 C -0.961,3.777 -0.439,3.558 0,3.119 0.438,2.681 0.658,2.158 0.658,1.551 0.658,0.944 0.438,0.428 0,0 m -3.063,22.705 c 0.39,0.423 0.888,0.634 1.495,0.634 0.607,0 1.105,-0.208 1.495,-0.625 0.39,-0.417 0.585,-0.941 0.585,-1.568 0,-0.542 -0.179,-2.362 -0.536,-5.459 -0.358,-3.098 -0.672,-6.093 -0.943,-8.985 h -1.267 c -0.239,2.892 -0.534,5.887 -0.886,8.985 -0.352,3.097 -0.527,4.917 -0.527,5.459 0,0.618 0.194,1.137 0.584,1.559 M 17.742,-1.146 -0.057,30.189 c -0.325,0.574 -0.933,0.928 -1.592,0.928 -0.659,0 -1.268,-0.354 -1.593,-0.928 L -21.041,-1.146 c -0.322,-0.568 -0.318,-1.263 0.01,-1.827 0.328,-0.563 0.931,-0.91 1.583,-0.91 h 35.597 c 0.653,0 1.255,0.347 1.583,0.91 0.329,0.564 0.332,1.259 0.01,1.827"
         style="fill:#FFD200;fill-opacity:1;fill-rule:nonzero;stroke:none"
         id="path382" />
    </g>
  </g>
</svg>
