<?xml version="1.0" encoding="UTF-8" standalone="no"?>
<!-- Created with Inkscape (http://www.inkscape.org/) -->

<svg
   xmlns:dc="http://purl.org/dc/elements/1.1/"
   xmlns:cc="http://creativecommons.org/ns#"
   xmlns:rdf="http://www.w3.org/1999/02/22-rdf-syntax-ns#"
   xmlns:svg="http://www.w3.org/2000/svg"
   xmlns="http://www.w3.org/2000/svg"
   xmlns:sodipodi="http://sodipodi.sourceforge.net/DTD/sodipodi-0.dtd"
   xmlns:inkscape="http://www.inkscape.org/namespaces/inkscape"
   width="64pt"
   height="64pt"
   viewBox="0 0 22.577778 22.577778"
   version="1.1"
   id="svg50"
   inkscape:version="0.92.1 r15371"
   sodipodi:docname="predictive_good.svg">
  <defs
     id="defs44" />
  <sodipodi:namedview
     id="base"
     pagecolor="#FFFFFF"
     bordercolor="#666666"
     borderopacity="1.0"
     inkscape:pageopacity="0.0"
     inkscape:pageshadow="2"
     inkscape:zoom="5.6"
     inkscape:cx="10.381986"
     inkscape:cy="29.784129"
     inkscape:document-units="mm"
     inkscape:current-layer="g384"
     showgrid="false"
     fit-margin-top="0"
     fit-margin-left="0"
     fit-margin-right="0"
     fit-margin-bottom="0"
     units="pt"
     inkscape:window-width="1920"
     inkscape:window-height="1017"
     inkscape:window-x="-8"
     inkscape:window-y="-8"
     inkscape:window-maximized="1" />
  <metadata
     id="metadata47">
    <rdf:RDF>
      <cc:Work
         rdf:about="">
        <dc:format>image/svg+xml</dc:format>
        <dc:type
           rdf:resource="http://purl.org/dc/dcmitype/StillImage" />
        <dc:title></dc:title>
      </cc:Work>
    </rdf:RDF>
  </metadata>
  <g
     inkscape:label="Layer 1"
     inkscape:groupmode="layer"
     id="layer1"
     transform="translate(-69.421451,-51.542262)">
    <g
       transform="matrix(0.60474463,0,0,-0.60476191,86.98003,61.60046)"
       id="g384">
      <path
         inkscape:connector-curvature="0"
         id="path386"
         style="fill:#49B170;fill-opacity:1;fill-rule:nonzero;stroke:none"
         d="m 0,0 -9.738,-9.736 c -0.785,-0.784 -1.808,-1.175 -2.839,-1.175 -1.023,0 -2.045,0.391 -2.831,1.175 l -5.324,5.333 c -1.569,1.559 -1.569,4.097 0,5.662 1.558,1.56 4.098,1.56 5.662,0 l 2.493,-2.496 6.906,6.904 c 1.57,1.562 4.1,1.562 5.671,0 C 1.563,4.101 1.563,1.562 0,0 m -10.367,15.465 c -9.665,0 -17.501,-7.836 -17.501,-17.501 0,-9.665 7.836,-17.499 17.501,-17.499 9.665,0 17.5,7.834 17.5,17.499 0,9.665 -7.835,17.501 -17.5,17.501" />
    </g>
  </g>
</svg>
