<?xml version="1.0" encoding="UTF-8" standalone="no"?>
<svg
   xmlns:dc="http://purl.org/dc/elements/1.1/"
   xmlns:cc="http://creativecommons.org/ns#"
   xmlns:rdf="http://www.w3.org/1999/02/22-rdf-syntax-ns#"
   xmlns:svg="http://www.w3.org/2000/svg"
   xmlns="http://www.w3.org/2000/svg"
   id="svg76"
   version="1.1"
   viewBox="0 0 22.577778 22.577778"
   height="64pt"
   width="64pt">
  <defs
     id="defs70" />
  <metadata
     id="metadata73">
    <rdf:RDF>
      <cc:Work
         rdf:about="">
        <dc:format>image/svg+xml</dc:format>
        <dc:type
           rdf:resource="http://purl.org/dc/dcmitype/StillImage" />
        <dc:title></dc:title>
      </cc:Work>
    </rdf:RDF>
  </metadata>
  <g
     transform="translate(0,-274.42223)"
     id="layer1">
    <g
       id="g360"
       transform="matrix(0.53912803,0,0,-0.53912803,12.178081,293.05243)">
      <path
         d="m 0,0 c -0.439,-0.428 -0.961,-0.642 -1.568,-0.642 -0.607,0 -1.129,0.214 -1.568,0.642 -0.439,0.428 -0.658,0.945 -0.658,1.552 0,0.606 0.219,1.129 0.658,1.568 0.439,0.438 0.961,0.658 1.568,0.658 C -0.961,3.778 -0.439,3.558 0,3.12 0.438,2.681 0.658,2.158 0.658,1.552 0.658,0.945 0.438,0.428 0,0 m -3.063,22.706 c 0.39,0.422 0.888,0.634 1.495,0.634 0.607,0 1.105,-0.209 1.495,-0.626 0.39,-0.417 0.585,-0.94 0.585,-1.568 0,-0.542 -0.179,-2.361 -0.536,-5.459 -0.358,-3.098 -0.672,-6.093 -0.943,-8.985 h -1.267 c -0.239,2.892 -0.534,5.887 -0.886,8.985 -0.352,3.098 -0.527,4.917 -0.527,5.459 0,0.618 0.194,1.138 0.584,1.56 M 17.742,-1.146 -0.057,30.19 c -0.325,0.573 -0.933,0.927 -1.592,0.927 -0.659,0 -1.268,-0.354 -1.593,-0.927 L -21.041,-1.146 c -0.322,-0.567 -0.318,-1.263 0.01,-1.826 0.328,-0.564 0.931,-0.91 1.583,-0.91 l 35.597,-10e-4 c 0.653,0 1.255,0.347 1.583,0.911 0.329,0.563 0.332,1.259 0.01,1.826"
         style="fill:#d4007a;fill-opacity:1;fill-rule:nonzero;stroke:none"
         id="path362" />
    </g>
  </g>
</svg>
