<?xml version="1.0" encoding="UTF-8" standalone="no"?>
<!--
  ~ Copyright (c) 2017  STMicroelectronics – All rights reserved
  ~ The STMicroelectronics corporate logo is a trademark of STMicroelectronics
  ~
  ~ Redistribution and use in source and binary forms, with or without modification,
  ~ are permitted provided that the following conditions are met:
  ~
  ~ - Redistributions of source code must retain the above copyright notice, this list of conditions
  ~   and the following disclaimer.
  ~
  ~ - Redistributions in binary form must reproduce the above copyright notice, this list of
  ~   conditions and the following disclaimer in the documentation and/or other materials provided
  ~   with the distribution.
  ~
  ~ - Neither the name nor trademarks of STMicroelectronics International N.V. nor any other
  ~   STMicroelectronics company nor the names of its contributors may be used to endorse or
  ~   promote products derived from this software without specific prior written permission.
  ~
  ~ - All of the icons, pictures, logos and other images that are provided with the source code
  ~   in a directory whose title begins with st_images may only be used for internal purposes and
  ~   shall not be redistributed to any third party or modified in any way.
  ~
  ~ - Any redistributions in binary form shall not include the capability to display any of the
  ~   icons, pictures, logos and other images that are provided with the source code in a directory
  ~   whose title begins with st_images.
  ~
  ~ THIS SOFTWARE IS PROVIDED BY THE COPYRIGHT HOLDERS AND CONTRIBUTORS "AS IS" AND ANY EXPRESS OR
  ~ IMPLIED WARRANTIES, INCLUDING, BUT NOT LIMITED TO, THE IMPLIED WARRANTIES OF MERCHANTABILITY
  ~ AND FITNESS FOR A PARTICULAR PURPOSE ARE DISCLAIMED. IN NO EVENT SHALL THE COPYRIGHT HOLDER
  ~ OR CONTRIBUTORS BE LIABLE FOR ANY DIRECT, INDIRECT, INCIDENTAL, SPECIAL, EXEMPLARY, OR
  ~ CONSEQUENTIAL DAMAGES (INCLUDING, BUT NOT LIMITED TO, PROCUREMENT OF SUBSTITUTE GOODS OR
  ~ SERVICES; LOSS OF USE, DATA, OR PROFITS; OR BUSINESS INTERRUPTION) HOWEVER CAUSED AND ON ANY
  ~ THEORY OF LIABILITY, WHETHER IN CONTRACT, STRICT LIABILITY, OR TORT (INCLUDING NEGLIGENCE OR
  ~ OTHERWISE) ARISING IN ANY WAY OUT OF THE USE OF THIS SOFTWARE, EVEN IF ADVISED OF THE POSSIBILITY
  ~ OF SUCH DAMAGE.
  -->

<!-- Generator: Adobe Illustrator 16.0.0, SVG Export Plug-In . SVG Version: 6.00 Build 0)  -->

<svg
   xmlns:dc="http://purl.org/dc/elements/1.1/"
   xmlns:cc="http://creativecommons.org/ns#"
   xmlns:rdf="http://www.w3.org/1999/02/22-rdf-syntax-ns#"
   xmlns="http://www.w3.org/2000/svg"
   xmlns:sodipodi="http://sodipodi.sourceforge.net/DTD/sodipodi-0.dtd"
   xmlns:inkscape="http://www.inkscape.org/namespaces/inkscape"
   version="1.1"
   id="Layer_1"
   x="0px"
   y="0px"
   width="150pt"
   height="150pt"
   viewBox="0 0 187.5 187.5"
   enable-background="new 0 0 400 400"
   xml:space="preserve"
   inkscape:version="0.91 r13725"
   sodipodi:docname="search_button_icon.svg"><metadata
     id="metadata3365"><rdf:RDF><cc:Work
         rdf:about=""><dc:format>image/svg+xml</dc:format><dc:type
           rdf:resource="http://purl.org/dc/dcmitype/StillImage" /><dc:title></dc:title></cc:Work></rdf:RDF></metadata><defs
     id="defs3363" /><sodipodi:namedview
     pagecolor="#ffffff"
     bordercolor="#666666"
     borderopacity="1"
     objecttolerance="10"
     gridtolerance="10"
     guidetolerance="10"
     inkscape:pageopacity="0"
     inkscape:pageshadow="2"
     inkscape:window-width="1280"
     inkscape:window-height="962"
     id="namedview3361"
     showgrid="false"
     units="pt"
     inkscape:zoom="1.95"
     inkscape:cx="40.128574"
     inkscape:cy="110.04999"
     inkscape:window-x="-8"
     inkscape:window-y="-8"
     inkscape:window-maximized="1"
     inkscape:current-layer="g3409" /><g
     id="g3367"
     transform="matrix(0.49359682,0,0,0.49359682,-4.9692262,-31.093883)"><g
       id="g3337"><g
         id="g3409"
         transform="matrix(0.85920373,0,0,0.85920373,3.2002343,9.6539742)"><g
           id="g3466"
           transform="translate(0,47.158073)"><path
             id="path3339"
             d="m 376.603,159.783 c 6.164,52.127 -31.09,99.381 -83.216,105.554 -52.127,6.169 -99.38,-31.09 -105.546,-83.21 -6.172,-52.127 31.085,-99.385 83.204,-105.554 52.128,-6.172 99.383,31.083 105.558,83.21"
             inkscape:connector-curvature="0"
             style="fill:#39a9dc" /><path
             id="path3341"
             d="m 25.578,263.398 c -2.477,-2.88 -3.51,-6.883 -2.411,-10.789 1.759,-6.225 8.267,-9.828 14.545,-8.062 5.403,1.524 8.866,6.552 8.591,11.895 l 0.098,-0.011 c 0,0 -3.488,15.4 9.714,26.207 10e-4,0 -22.863,-9.087 -30.537,-19.24"
             inkscape:connector-curvature="0"
             style="fill:#bbcc00" /><path
             id="path3343"
             d="m 150.214,195.402 c -4.815,-22.627 -3.693,-46.312 3.246,-68.492 21.489,-68.606 92.679,-108.083 162.067,-89.874 1.547,0.402 3.218,0.881 5.253,1.503 l -2.34,7.65 C 316.516,45.6 314.948,45.151 313.505,44.776 248.246,27.65 181.304,64.78 161.095,129.3 c -6.529,20.869 -7.586,43.152 -3.056,64.437 l -7.825,1.665 z"
             inkscape:connector-curvature="0"
             style="fill:#002052" /><path
             id="path3345"
             d="m 177.522,135.046 -4.765,-1.515 c 0.535,-1.685 1.032,-3.153 1.519,-4.489 9.843,-27.105 29.233,-49.351 54.6,-62.639 25.371,-13.29 54.611,-16.512 82.334,-9.073 1.909,0.513 3.832,1.081 5.715,1.686 1.95,0.637 3.844,1.306 5.643,1.992 16.934,6.452 31.781,16.518 44.13,29.916 l -3.677,3.389 C 351.202,81.488 336.992,71.855 320.787,65.68 c -1.724,-0.657 -3.542,-1.299 -5.404,-1.907 -1.796,-0.577 -3.641,-1.122 -5.471,-1.614 -55.079,-14.779 -111.371,14.708 -130.938,68.592 -0.462,1.273 -0.937,2.677 -1.452,4.295 z"
             inkscape:connector-curvature="0"
             style="fill:#39a9dc" /><path
             id="path3347"
             d="m 202.028,354.549 c -48.285,5.717 -92.069,-28.799 -97.774,-77.096 -5.721,-48.281 28.8,-92.07 77.079,-97.785 48.294,-5.718 92.062,28.802 97.781,77.084 5.719,48.29 -28.793,92.078 -77.086,97.797"
             inkscape:connector-curvature="0"
             style="fill:#39a9dc" /><path
             id="path3349"
             d="m 168.488,251.726 c -38.201,4.523 -72.843,-22.795 -77.371,-60.995 -4.522,-38.208 22.793,-72.851 60.998,-77.37 38.201,-4.515 72.841,22.779 77.365,60.992 4.521,38.197 -22.788,72.857 -60.992,77.373"
             inkscape:connector-curvature="0"
             style="fill:#002052" /><path
             id="path3351"
             d="M 226.579,362.519 C 160.199,370.373 100.003,322.934 92.154,256.544 84.289,190.152 131.74,129.98 198.124,122.119 c 66.387,-7.862 126.575,39.573 134.436,105.968 7.853,66.387 -39.593,126.564 -105.981,134.432"
             inkscape:connector-curvature="0"
             style="fill:#002052" /><path
             id="path3353"
             d="m 212.352,346.995 c 57.814,0 104.684,-46.867 104.684,-104.682 0,-57.812 -46.87,-104.678 -104.684,-104.678 -57.812,0 -104.676,46.866 -104.676,104.678 0,57.814 46.864,104.682 104.676,104.682"
             inkscape:connector-curvature="0"
             style="fill:#ffffff" /><g
             id="g3355"
             transform="translate(8.9014542,0)"><path
               id="path3357"
               d="m 206.285,163.04 c -5.327,-1.807 -10.925,-2.607 -16.675,-2.37 -5.68,0.222 -11.308,1.684 -16.736,4.319 -5.444,2.64 -10.045,6.16 -13.697,10.451 -3.691,4.363 -6.471,9.227 -8.244,14.467 -1.786,5.224 -2.54,10.767 -2.26,16.476 0.265,5.61 1.759,11.195 4.443,16.608 2.446,4.645 5.531,8.723 9.16,12.123 3.673,3.435 7.777,6.214 12.253,8.279 4.45,2.055 9.207,3.322 14.123,3.79 4.952,0.443 9.887,0.069 14.673,-1.15 l 8.148,-2.063 -3.746,7.443 c -0.67,1.331 -0.993,2.872 -0.967,4.584 0.038,1.812 0.387,3.466 1.108,5.066 l 28.502,56.705 c 1.314,2.795 3.325,4.568 6.313,5.587 2.988,1.017 5.844,0.838 8.705,-0.558 l 0.581,-0.269 c 2.819,-1.372 4.697,-3.491 5.714,-6.45 0.986,-2.935 0.781,-5.66 -0.647,-8.344 l -0.038,-0.086 -28.238,-56.828 c -0.803,-1.621 -1.843,-2.885 -3.174,-3.9 -1.334,-1.008 -2.807,-1.68 -4.516,-2.026 l -8.143,-1.7 6.551,-5.017 c 3.882,-2.98 7.207,-6.598 9.866,-10.763 2.625,-4.102 4.509,-8.576 5.588,-13.337 1.053,-4.753 1.368,-9.716 0.923,-14.75 -0.434,-4.937 -1.863,-9.748 -4.255,-14.316 l -0.041,-0.061 c -2.692,-5.419 -6.268,-10.009 -10.635,-13.629 -4.412,-3.695 -9.329,-6.471 -14.639,-8.281 z m 10.902,12.498 c 3.787,3.249 6.928,7.214 9.313,11.779 l 0.076,0.129 c 2.191,4.628 3.479,9.499 3.81,14.476 0.302,4.96 -0.332,9.785 -1.879,14.358 -1.558,4.55 -4.003,8.772 -7.246,12.512 -3.3,3.749 -7.285,6.831 -11.865,9.147 l -0.126,0.068 c -4.713,2.177 -9.62,3.375 -14.597,3.566 -4.931,0.204 -9.78,-0.482 -14.395,-2.051 -4.614,-1.568 -8.877,-3.975 -12.681,-7.148 -3.836,-3.212 -6.998,-7.156 -9.386,-11.733 l -0.077,-0.129 c -2.22,-4.666 -3.473,-9.548 -3.701,-14.493 -0.223,-4.913 0.436,-9.711 1.981,-14.256 1.561,-4.559 3.938,-8.766 7.12,-12.504 3.209,-3.788 7.169,-6.901 11.766,-9.248 l 0.138,-0.053 c 4.652,-2.157 9.551,-3.379 14.564,-3.664 4.981,-0.28 9.874,0.376 14.513,1.957 4.642,1.574 8.913,4.024 12.672,7.287 z"
               inkscape:connector-curvature="0"
               style="fill:#bbcc00" /><path
               id="path3359"
               d="m 169.629,183.994 c 0,0 16.72,-6.708 33.853,6.103 20.088,15.018 15.447,30.755 15.447,30.755 10.172,-13.615 7.387,-32.911 -6.229,-43.082 -13.613,-10.18 -32.899,-7.391 -43.071,6.224 z"
               inkscape:connector-curvature="0"
               style="fill:#bbcc00" /></g></g></g></g></g></svg>