<?xml version="1.0" encoding="UTF-8" standalone="no"?>
<!--
  ~ Copyright (c) 2017  STMicroelectronics – All rights reserved
  ~ The STMicroelectronics corporate logo is a trademark of STMicroelectronics
  ~
  ~ Redistribution and use in source and binary forms, with or without modification,
  ~ are permitted provided that the following conditions are met:
  ~
  ~ - Redistributions of source code must retain the above copyright notice, this list of conditions
  ~   and the following disclaimer.
  ~
  ~ - Redistributions in binary form must reproduce the above copyright notice, this list of
  ~   conditions and the following disclaimer in the documentation and/or other materials provided
  ~   with the distribution.
  ~
  ~ - Neither the name nor trademarks of STMicroelectronics International N.V. nor any other
  ~   STMicroelectronics company nor the names of its contributors may be used to endorse or
  ~   promote products derived from this software without specific prior written permission.
  ~
  ~ - All of the icons, pictures, logos and other images that are provided with the source code
  ~   in a directory whose title begins with st_images may only be used for internal purposes and
  ~   shall not be redistributed to any third party or modified in any way.
  ~
  ~ - Any redistributions in binary form shall not include the capability to display any of the
  ~   icons, pictures, logos and other images that are provided with the source code in a directory
  ~   whose title begins with st_images.
  ~
  ~ THIS SOFTWARE IS PROVIDED BY THE COPYRIGHT HOLDERS AND CONTRIBUTORS "AS IS" AND ANY EXPRESS OR
  ~ IMPLIED WARRANTIES, INCLUDING, BUT NOT LIMITED TO, THE IMPLIED WARRANTIES OF MERCHANTABILITY
  ~ AND FITNESS FOR A PARTICULAR PURPOSE ARE DISCLAIMED. IN NO EVENT SHALL THE COPYRIGHT HOLDER
  ~ OR CONTRIBUTORS BE LIABLE FOR ANY DIRECT, INDIRECT, INCIDENTAL, SPECIAL, EXEMPLARY, OR
  ~ CONSEQUENTIAL DAMAGES (INCLUDING, BUT NOT LIMITED TO, PROCUREMENT OF SUBSTITUTE GOODS OR
  ~ SERVICES; LOSS OF USE, DATA, OR PROFITS; OR BUSINESS INTERRUPTION) HOWEVER CAUSED AND ON ANY
  ~ THEORY OF LIABILITY, WHETHER IN CONTRACT, STRICT LIABILITY, OR TORT (INCLUDING NEGLIGENCE OR
  ~ OTHERWISE) ARISING IN ANY WAY OUT OF THE USE OF THIS SOFTWARE, EVEN IF ADVISED OF THE POSSIBILITY
  ~ OF SUCH DAMAGE.
  -->

<!-- Generator: Adobe Illustrator 16.0.0, SVG Export Plug-In . SVG Version: 6.00 Build 0)  -->

<svg
   xmlns:dc="http://purl.org/dc/elements/1.1/"
   xmlns:cc="http://creativecommons.org/ns#"
   xmlns:rdf="http://www.w3.org/1999/02/22-rdf-syntax-ns#"
   xmlns="http://www.w3.org/2000/svg"
   xmlns:sodipodi="http://sodipodi.sourceforge.net/DTD/sodipodi-0.dtd"
   xmlns:inkscape="http://www.inkscape.org/namespaces/inkscape"
   version="1.1"
   id="Layer_1"
   x="0px"
   y="0px"
   width="100pt"
   height="100pt"
   viewBox="0 0 125 125"
   enable-background="new 0 0 400 400"
   xml:space="preserve"
   inkscape:version="0.91 r13725"
   sodipodi:docname="signal_strenght.svg"><metadata
     id="metadata5186"><rdf:RDF><cc:Work
         rdf:about=""><dc:format>image/svg+xml</dc:format><dc:type
           rdf:resource="http://purl.org/dc/dcmitype/StillImage" /><dc:title></dc:title></cc:Work></rdf:RDF></metadata><defs
     id="defs5184" /><sodipodi:namedview
     pagecolor="#ffffff"
     bordercolor="#666666"
     borderopacity="1"
     objecttolerance="10"
     gridtolerance="10"
     guidetolerance="10"
     inkscape:pageopacity="0"
     inkscape:pageshadow="2"
     inkscape:window-width="1280"
     inkscape:window-height="962"
     id="namedview5182"
     showgrid="false"
     units="pt"
     inkscape:zoom="0.59"
     inkscape:cx="-9.3220339"
     inkscape:cy="200"
     inkscape:window-x="-8"
     inkscape:window-y="-8"
     inkscape:window-maximized="1"
     inkscape:current-layer="Layer_1" /><g
     id="g5174"
     transform="matrix(0.27691779,0,0,0.27691779,12.276658,6.648174)"><path
       d="m 188.852,61.511 c 25.838,24.051 43.832,52.668 53.986,85.835 10.148,33.167 11.551,66.835 4.221,101.057 -7.327,34.199 -22.886,64.719 -46.688,91.548 -1.328,1.487 -2.646,2.982 -3.969,4.47 l 40.06,37.829 c 1.899,-2.133 3.592,-4.057 5.108,-5.761 22.661,-25.546 39.45,-54.213 50.338,-86.021 10.896,-31.796 15.67,-63.527 14.271,-95.205 -1.393,-31.669 -8.85,-62.823 -22.38,-93.459 C 270.282,71.165 251.332,44.259 226.964,21.132 l -38.112,40.379 z"
       id="path5176"
       inkscape:connector-curvature="0"
       style="fill:#39a9dc" /><path
       d="m 124.859,134.289 c 19.498,19.2 29.671,42.473 30.499,69.852 0.832,27.363 -8.012,51.481 -26.519,72.347 -1.137,1.276 -2.274,2.561 -3.411,3.838 l 39.209,38.769 c 1.924,-1.71 3.832,-3.646 5.719,-5.777 18.51,-20.867 30.686,-44.688 36.556,-71.445 5.834,-26.755 5.02,-53.17 -2.48,-79.229 -7.5,-26.056 -21.12,-48.784 -40.83,-68.168 l -38.743,39.813 z"
       id="path5178"
       inkscape:connector-curvature="0"
       style="fill:#39a9dc" /><path
       d="m 64.891,183.246 c -6.23,7.027 -9.066,15.252 -8.508,24.697 0.564,9.449 4.364,17.272 11.391,23.505 7.027,6.228 15.249,9.081 24.7,8.506 9.444,-0.563 17.283,-4.359 23.516,-11.383 6.231,-7.022 9.056,-15.251 8.496,-24.708 -0.564,-9.444 -4.359,-17.279 -11.387,-23.509 -7.023,-6.237 -15.25,-9.064 -24.701,-8.499 -9.444,0.576 -17.273,4.363 -23.507,11.391 z"
       id="path5180"
       inkscape:connector-curvature="0"
       style="fill:#39a9dc" /></g></svg>