<?xml version="1.0" encoding="utf-8"?>
<!-- Generator: Adobe Illustrator 21.1.0, SVG Export Plug-In . SVG Version: 6.00 Build 0)  -->
<svg version="1.1" id="Layer_1" xmlns="http://www.w3.org/2000/svg" xmlns:xlink="http://www.w3.org/1999/xlink" x="0px" y="0px"
	 viewBox="0 0 100 100" style="enable-background:new 0 0 100 100;" xml:space="preserve">
<style type="text/css">
	.st0{fill:#4F5251;}
</style>
<g>
	<path class="st0" d="M89.4,6.4L81.7,14C73,6.2,61.8,2,50,2C23.5,2,2,23.5,2,50s21.5,48,48,48c7.1,0,13.9-1.5,20.3-4.5
		c1.5-0.7,2.1-2.5,1.4-4c-0.7-1.5-2.5-2.2-4-1.4C62.2,90.7,56.2,92,50,92C26.8,92,8,73.2,8,50S26.8,8,50,8
		c10.2,0,19.9,3.6,27.5,10.3l-4.9,4.9c-6.1-5-13.7-7.7-21.7-7.7c-19,0-34.5,15.5-34.5,34.5s15.5,34.5,34.5,34.5
		c4.8,0,9.5-1,13.8-2.9c1.5-0.7,2.2-2.4,1.5-4c-0.7-1.5-2.4-2.2-4-1.5c-3.6,1.6-7.5,2.4-11.4,2.4c-15.7,0-28.5-12.8-28.5-28.5
		s12.8-28.5,28.5-28.5c6.4,0,12.5,2.1,17.5,6l-7,7c-3.3-2.4-7.2-3.7-11.3-3.7c-10.6,0-19.3,8.6-19.3,19.3S39.4,69.3,50,69.3
		c2.8,0,5.6-0.6,8.2-1.8c1.5-0.7,2.1-2.5,1.4-4c-0.7-1.5-2.5-2.2-4-1.4c-1.8,0.8-3.6,1.2-5.6,1.2c-7.3,0-13.3-6-13.3-13.3
		s6-13.3,13.3-13.3c2.5,0,4.9,0.7,7,2l-4.9,4.9c-0.7-0.2-1.4-0.3-2.1-0.3c-3.7,0-6.7,3-6.7,6.7s3,6.7,6.7,6.7s6.7-3,6.7-6.7
		c0-0.7-0.1-1.4-0.3-2.1l18.5-18.5c0,0,0,0,0,0c0,0,0,0,0,0l18.8-18.8c1.2-1.2,1.2-3.1,0-4.2C92.4,5.2,90.6,5.2,89.4,6.4z"/>
</g>
</svg>
