<?xml version="1.0" encoding="UTF-8" standalone="no"?>
<!-- Created with Inkscape (http://www.inkscape.org/) -->

<svg
   xmlns:dc="http://purl.org/dc/elements/1.1/"
   xmlns:cc="http://creativecommons.org/ns#"
   xmlns:rdf="http://www.w3.org/1999/02/22-rdf-syntax-ns#"
   xmlns:svg="http://www.w3.org/2000/svg"
   xmlns="http://www.w3.org/2000/svg"
   xmlns:sodipodi="http://sodipodi.sourceforge.net/DTD/sodipodi-0.dtd"
   xmlns:inkscape="http://www.inkscape.org/namespaces/inkscape"
   width="620pt"
   height="239.51045pt"
   viewBox="0 0 775.00002 299.38806"
   id="svg2"
   version="1.1"
   inkscape:version="0.91 r13725"
   sodipodi:docname="st_images_svg-press_contact.svg">
  <defs
     id="defs4">
    <clipPath
       id="clipPath4154"
       clipPathUnits="userSpaceOnUse">
      <path
         inkscape:connector-curvature="0"
         id="path4156"
         d="m 0,268.5 626.5,0 L 626.5,0 0,0 0,268.5 Z" />
    </clipPath>
  </defs>
  <sodipodi:namedview
     id="base"
     pagecolor="#ffffff"
     bordercolor="#666666"
     borderopacity="1.0"
     inkscape:pageopacity="0.0"
     inkscape:pageshadow="2"
     inkscape:zoom="1.516"
     inkscape:cx="469.38866"
     inkscape:cy="122.37098"
     inkscape:document-units="px"
     inkscape:current-layer="g4152"
     showgrid="false"
     units="pt"
     fit-margin-top="10"
     fit-margin-left="10"
     fit-margin-right="10"
     fit-margin-bottom="10"
     inkscape:window-width="1280"
     inkscape:window-height="962"
     inkscape:window-x="-8"
     inkscape:window-y="-8"
     inkscape:window-maximized="1" />
  <metadata
     id="metadata7">
    <rdf:RDF>
      <cc:Work
         rdf:about="">
        <dc:format>image/svg+xml</dc:format>
        <dc:type
           rdf:resource="http://purl.org/dc/dcmitype/StillImage" />
        <dc:title />
      </cc:Work>
    </rdf:RDF>
  </metadata>
  <g
     inkscape:label="Layer 1"
     inkscape:groupmode="layer"
     id="layer1"
     transform="translate(8.3556046,-201.16936)">
    <g
       transform="matrix(1.2377455,0,0,-1.2377455,-7.6880481,527.75755)"
       inkscape:label="module"
       id="g4144">
      <g
         transform="translate(308.7969,131.0557)"
         id="g4146">
        <path
           inkscape:connector-curvature="0"
           id="path4148"
           style="fill:none;stroke:#222d55;stroke-width:1;stroke-linecap:butt;stroke-linejoin:miter;stroke-miterlimit:10;stroke-dasharray:none;stroke-opacity:1"
           d="M 0,0 217.703,-28.764" />
      </g>
      <g
         id="g4150">
        <g
           clip-path="url(#clipPath4154)"
           id="g4152">
          <g
             transform="translate(542.5156,148.9487)"
             id="g4158">
            <path
               inkscape:connector-curvature="0"
               id="path4160"
               style="fill:#d81781;fill-opacity:1;fill-rule:nonzero;stroke:none"
               d="M 0,0 -1.066,4.689 C -1.689,4.545 -2.305,4.392 -2.918,4.223 c -23.164,-6.381 -37.783,-29.331 -33.777,-53.02 0.134,-0.789 0.287,-1.58 0.463,-2.373 0.175,-0.791 0.371,-1.573 0.582,-2.346 1.99,-7.217 5.588,-13.598 10.31,-18.85 l 3.524,3.278 c -4.664,5.209 -8.1,11.648 -9.721,18.959 C -36.535,-27.575 -22.437,-5.239 0,0" />
          </g>
          <g
             transform="translate(540.8535,156.062)"
             id="g4162">
            <path
               inkscape:connector-curvature="0"
               id="path4164"
               style="fill:#222d55;fill-opacity:1;fill-rule:nonzero;stroke:none"
               d="m 0,0 -1.252,5.503 c -0.73,-0.17 -1.455,-0.348 -2.172,-0.546 -27.183,-7.491 -44.338,-34.418 -39.637,-62.217 0.157,-0.928 0.338,-1.858 0.543,-2.783 0.207,-0.932 0.436,-1.848 0.686,-2.754 2.332,-8.467 6.555,-15.957 12.096,-22.12 l 4.136,3.848 c -5.472,6.11 -9.504,13.668 -11.406,22.246 C -42.875,-32.358 -26.33,-6.147 0,0" />
          </g>
          <g
             transform="translate(599.0371,92.4385)"
             id="g4166">
            <path
               inkscape:connector-curvature="0"
               id="path4168"
               style="fill:#bacf1b;fill-opacity:1;fill-rule:nonzero;stroke:none"
               d="m 0,0 c -5.295,-15.977 -18.611,-28.85 -36.238,-32.758 -17.649,-3.912 -35.18,2.147 -46.729,14.422 l -4.137,-3.848 c 12.87,-13.691 32.415,-20.445 52.086,-16.084 19.643,4.354 34.487,18.694 40.383,36.497 L 0,0 Z" />
          </g>
          <g
             transform="translate(536.9258,139.8853)"
             id="g4170">
            <path
               inkscape:connector-curvature="0"
               id="path4172"
               style="fill:#222d55;fill-opacity:1;fill-rule:nonzero;stroke:none"
               d="M 0,0 C 17.76,8.572 39.18,1.273 47.844,-16.302 56.506,-33.878 49.127,-55.074 31.371,-63.648 13.609,-72.22 -7.811,-64.921 -16.471,-47.347 -25.133,-29.771 -17.76,-8.574 0,0" />
          </g>
          <g
             transform="translate(364.627,235.8813)"
             id="g4174">
            <path
               inkscape:connector-curvature="0"
               id="path4176"
               style="fill:none;stroke:#222d55;stroke-width:1;stroke-linecap:butt;stroke-linejoin:miter;stroke-miterlimit:10;stroke-dasharray:none;stroke-opacity:1"
               d="M 0,0 -34.578,-45.828" />
          </g>
          <g
             transform="translate(329.9746,222.3003)"
             id="g4178">
            <path
               inkscape:connector-curvature="0"
               id="path4180"
               style="fill:#bacf1b;fill-opacity:1;fill-rule:nonzero;stroke:none"
               d="m 0,0 c 18.998,-10.75 25.686,-34.866 14.936,-53.862 -10.745,-18.998 -34.862,-25.688 -53.86,-14.94 -19,10.752 -25.688,34.864 -14.936,53.866 C -43.114,4.062 -18.998,10.749 0,0" />
          </g>
          <g
             transform="translate(344.2773,72.0869)"
             id="g4182">
            <path
               inkscape:connector-curvature="0"
               id="path4184"
               style="fill:#bacf1b;fill-opacity:1;fill-rule:nonzero;stroke:none"
               d="m 0,0 c -0.652,-1.947 -2.229,-3.537 -4.352,-4.105 -3.38,-0.905 -6.859,1.123 -7.773,4.533 -0.787,2.935 0.592,5.937 3.154,7.289 L -9.004,7.76 c 0,0 8.129,2.638 9.502,11.767 C 0.498,19.527 2.6,6.381 0,0" />
          </g>
          <g
             transform="translate(61.3345,92.4385)"
             id="g4186">
            <path
               inkscape:connector-curvature="0"
               id="path4188"
               style="fill:none;stroke:#222d55;stroke-width:1;stroke-linecap:butt;stroke-linejoin:miter;stroke-miterlimit:10;stroke-dasharray:none;stroke-opacity:1"
               d="M 0,0 202.002,36.047" />
          </g>
          <g
             transform="translate(500.2227,177.2593)"
             id="g4190">
            <path
               inkscape:connector-curvature="0"
               id="path4192"
               style="fill:#d81781;fill-opacity:1;fill-rule:nonzero;stroke:none"
               d="M 0,0 17.109,-15.694 11.576,4.946 0,0 Z" />
          </g>
          <g
             transform="translate(48.8018,149.6333)"
             id="g4194">
            <path
               inkscape:connector-curvature="0"
               id="path4196"
               style="fill:#3fabe2;fill-opacity:1;fill-rule:nonzero;stroke:none"
               d="M 0,0 7.529,-16.455 9.812,0.043 0,0 Z" />
          </g>
          <g
             transform="translate(326.3926,132.9619)"
             id="g4198">
            <path
               inkscape:connector-curvature="0"
               id="path4200"
               style="fill:#222d55;fill-opacity:1;fill-rule:nonzero;stroke:none"
               d="m 0,0 c -7.156,-12.65 -23.203,-17.1 -35.854,-9.945 -12.64,7.156 -17.095,23.209 -9.94,35.855 7.156,12.646 23.21,17.096 35.855,9.941 C 2.707,28.696 7.158,12.645 0,0" />
          </g>
          <g
             transform="translate(296.166,110.208)"
             id="g4202">
            <path
               inkscape:connector-curvature="0"
               id="path4204"
               style="fill:#222d55;fill-opacity:1;fill-rule:nonzero;stroke:none"
               d="m 0,0 c -8.457,-14.764 -27.43,-19.971 -42.369,-11.609 -14.953,8.351 -20.216,27.099 -11.762,41.863 8.458,14.771 27.426,19.969 42.379,11.613 C 3.191,33.512 8.456,14.768 0,0" />
          </g>
          <g
             transform="translate(334.8262,98.1045)"
             id="g4206">
            <path
               inkscape:connector-curvature="0"
               id="path4208"
               style="fill:#222d55;fill-opacity:1;fill-rule:nonzero;stroke:none"
               d="M 0,0 C -11.105,-19.625 -36.018,-26.533 -55.638,-15.432 -75.264,-4.324 -82.17,20.586 -71.07,40.208 -59.966,59.833 -35.063,66.745 -15.434,55.635 4.191,44.537 11.104,19.627 0,0" />
          </g>
          <g
             transform="translate(301.7773,148.8716)"
             id="g4210">
            <path
               inkscape:connector-curvature="0"
               id="path4212"
               style="fill:#222d55;fill-opacity:1;fill-rule:nonzero;stroke:none"
               d="m 0,0 c -5.618,-9.928 -18.221,-13.423 -28.148,-7.809 -9.93,5.621 -13.428,18.226 -7.808,28.154 5.614,9.927 18.22,13.423 28.151,7.804 C 2.122,22.533 5.615,9.931 0,0" />
          </g>
          <g
             transform="translate(369.4727,232.6138)"
             id="g4214">
            <path
               inkscape:connector-curvature="0"
               id="path4216"
               style="fill:#d81781;fill-opacity:1;fill-rule:nonzero;stroke:none"
               d="m 0,0 c -1.807,-2.678 -5.437,-3.383 -8.113,-1.577 -2.676,1.806 -3.381,5.436 -1.578,8.114 1.806,2.676 5.437,3.381 8.115,1.576 C 1.098,6.307 1.805,2.677 0,0" />
          </g>
          <g
             transform="translate(377.3262,225.5767)"
             id="g4218">
            <path
               inkscape:connector-curvature="0"
               id="path4220"
               style="fill:none;stroke:#222d55;stroke-width:1.5;stroke-linecap:round;stroke-linejoin:round;stroke-miterlimit:4;stroke-dasharray:none;stroke-opacity:1"
               d="m 0,0 0,0 m 5.59,20.865 0,0 m -20.863,5.591 0,0 m -5.59,-20.865 0,0" />
          </g>
          <g
             transform="translate(111.1235,162.4678)"
             id="g4222">
            <path
               inkscape:connector-curvature="0"
               id="path4224"
               style="fill:none;stroke:#222d55;stroke-width:1;stroke-linecap:butt;stroke-linejoin:miter;stroke-miterlimit:10;stroke-dasharray:none;stroke-opacity:1"
               d="M 0,0 -36.562,-59.311" />
          </g>
          <path
             d="m 122.6191,149.3267 0,0 m -26.807,17.445 0,0 m 17.444,26.808 0,0 m 26.809,-17.445 0,0"
             style="fill:none;stroke:#222d55;stroke-width:1.32700002;stroke-linecap:round;stroke-linejoin:round;stroke-miterlimit:10;stroke-dasharray:none;stroke-opacity:1"
             id="path4228"
             inkscape:connector-curvature="0" />
          <g
             transform="translate(47.1904,55.002)"
             id="g4230">
            <path
               inkscape:connector-curvature="0"
               id="path4232"
               style="fill:#222d55;fill-opacity:1;fill-rule:nonzero;stroke:none"
               d="M 0,0 C 15.668,-7.814 34.701,-1.445 42.514,14.225 50.325,29.893 43.956,48.924 28.288,56.736 12.62,64.549 -6.414,58.182 -14.227,42.514 -22.038,26.844 -15.668,7.811 0,0" />
          </g>
          <g
             transform="translate(104.6689,92.8086)"
             id="g4238">
            <path
               inkscape:connector-curvature="0"
               id="path4240"
               style="fill:#3fabe2;fill-opacity:1;fill-rule:nonzero;stroke:none"
               d="M 0,0 C 3.4,-15.121 -1.008,-31.596 -13.066,-43.041 -25.141,-54.5 -41.852,-58.033 -56.791,-53.82 l -1.439,-4.998 c 16.65,-4.703 35.282,-0.766 48.742,12.007 13.437,12.75 18.351,31.11 14.562,47.959 L 0,0 Z" />
          </g>
          <g
             transform="translate(28.5693,115.4336)"
             id="g4242">
            <path
               inkscape:connector-curvature="0"
               id="path4244"
               style="fill:#bacf1b;fill-opacity:1;fill-rule:nonzero;stroke:none"
               d="M 0,0 -3.599,3.75 C -4.095,3.271 -4.582,2.785 -5.053,2.289 c -17.904,-18.803 -18.674,-48.193 -1.779,-67.908 0.564,-0.656 1.147,-1.305 1.75,-1.94 0.603,-0.634 1.219,-1.25 1.846,-1.849 5.856,-5.574 12.742,-9.483 20.039,-11.719 l 1.439,4.996 C 11.023,-73.902 4.258,-69.85 -1.312,-63.98 -18.494,-45.873 -17.867,-17.34 0,0" />
          </g>
          <g
             transform="translate(33.2549,110.6074)"
             id="g4246">
            <path
               inkscape:connector-curvature="0"
               id="path4248"
               style="fill:#222d55;fill-opacity:1;fill-rule:nonzero;stroke:none"
               d="M 0,0 -3.066,3.197 C -3.488,2.787 -3.904,2.373 -4.306,1.951 -19.562,-14.074 -20.219,-39.121 -5.82,-55.92 c 0.479,-0.56 0.976,-1.111 1.49,-1.654 0.514,-0.541 1.038,-1.065 1.572,-1.574 4.991,-4.752 10.86,-8.084 17.078,-9.989 l 1.227,4.26 C 9.395,-62.979 3.631,-59.527 -1.117,-54.525 -15.761,-39.094 -15.226,-14.777 0,0" />
          </g>
          <g
             transform="translate(320.3047,140.2134)"
             id="g4250">
            <path
               inkscape:connector-curvature="0"
               id="path4252"
               style="fill:#ffffff;fill-opacity:1;fill-rule:nonzero;stroke:none"
               d="m 0,0 c 0,-2.104 -1.703,-3.81 -3.811,-3.81 -2.101,0 -3.808,1.706 -3.808,3.81 0,2.104 1.707,3.811 3.808,3.811 C -1.703,3.811 0,2.104 0,0" />
          </g>
          <g
             transform="translate(294.3477,129.8564)"
             id="g4254">
            <path
               inkscape:connector-curvature="0"
               id="path4256"
               style="fill:#ffffff;fill-opacity:1;fill-rule:nonzero;stroke:none"
               d="m 0,0 c 0,-4.307 -3.491,-7.799 -7.796,-7.799 -4.306,0 -7.796,3.492 -7.796,7.799 0,4.307 3.49,7.797 7.796,7.797 C -3.491,7.797 0,4.307 0,0" />
          </g>
          <g
             transform="translate(287.2324,131.0615)"
             id="g4258">
            <path
               inkscape:connector-curvature="0"
               id="path4260"
               style="fill:none;stroke:#ffffff;stroke-width:1.722;stroke-linecap:butt;stroke-linejoin:miter;stroke-miterlimit:10;stroke-dasharray:none;stroke-opacity:1"
               d="M 0,0 -11.074,27.946" />
          </g>
          <g
             transform="translate(279.1348,159.0073)"
             id="g4262">
            <path
               inkscape:connector-curvature="0"
               id="path4264"
               style="fill:#ffffff;fill-opacity:1;fill-rule:nonzero;stroke:none"
               d="m 0,0 c 0,-1.643 -1.334,-2.975 -2.977,-2.975 -1.642,0 -2.971,1.332 -2.971,2.975 0,1.642 1.329,2.975 2.971,2.975 C -1.334,2.975 0,1.642 0,0" />
          </g>
          <g
             transform="translate(283.6123,130.1748)"
             id="g4266">
            <path
               inkscape:connector-curvature="0"
               id="path4268"
               style="fill:none;stroke:#ffffff;stroke-width:1.722;stroke-linecap:butt;stroke-linejoin:miter;stroke-miterlimit:10;stroke-dasharray:none;stroke-opacity:1"
               d="M 0,0 31.206,-21.803" />
          </g>
          <g
             transform="translate(320.9004,108.374)"
             id="g4270">
            <path
               inkscape:connector-curvature="0"
               id="path4272"
               style="fill:#ffffff;fill-opacity:1;fill-rule:nonzero;stroke:none"
               d="m 0,0 c 0,-3.359 -2.723,-6.082 -6.082,-6.082 -3.361,0 -6.083,2.723 -6.083,6.082 0,3.357 2.722,6.082 6.083,6.082 C -2.723,6.082 0,3.357 0,0" />
          </g>
          <g
             transform="translate(275.9492,105.9697)"
             id="g4274">
            <path
               inkscape:connector-curvature="0"
               id="path4276"
               style="fill:#ffffff;fill-opacity:1;fill-rule:nonzero;stroke:none"
               d="m 0,0 c 0,-2.521 -2.047,-4.566 -4.566,-4.566 -2.526,0 -4.571,2.045 -4.571,4.566 0,2.523 2.045,4.566 4.571,4.566 C -2.047,4.566 0,2.523 0,0" />
          </g>
          <g
             transform="translate(266.4258,131.5713)"
             id="g4278">
            <path
               inkscape:connector-curvature="0"
               id="path4280"
               style="fill:#ffffff;fill-opacity:1;fill-rule:nonzero;stroke:none"
               d="m 0,0 c 0,-1.705 -1.385,-3.086 -3.089,-3.086 -1.703,0 -3.084,1.381 -3.084,3.086 0,1.705 1.381,3.087 3.084,3.087 C -1.385,3.087 0,1.705 0,0" />
          </g>
          <g
             transform="translate(287.2324,131.0615)"
             id="g4282">
            <path
               inkscape:connector-curvature="0"
               id="path4284"
               style="fill:none;stroke:#ffffff;stroke-width:1.722;stroke-linecap:butt;stroke-linejoin:miter;stroke-miterlimit:10;stroke-dasharray:none;stroke-opacity:1"
               d="m 0,0 -15.854,-25.092 m 7.377,23.887 -15.418,1.717 m 20.871,-2.532 33.37,12.386" />
          </g>
          <g
             transform="translate(381.7539,235.8813)"
             id="g4286">
            <path
               inkscape:connector-curvature="0"
               id="path4288"
               style="fill:none;stroke:#222d55;stroke-width:1.5;stroke-linecap:round;stroke-linejoin:round;stroke-miterlimit:4;stroke-dasharray:0, 4.89;stroke-dashoffset:0;stroke-opacity:1"
               d="m 0,0 c 0,-9.459 -7.668,-17.127 -17.127,-17.127 -9.459,0 -17.127,7.668 -17.127,17.127 0,9.459 7.668,17.127 17.127,17.127 C -7.668,17.127 0,9.459 0,0 Z" />
          </g>
          <path
             d="m 112.001,157.5898 c 3.42,-0.093 6.272,2.605 6.365,6.028 0.093,3.42 -2.609,6.272 -6.029,6.365 -3.421,0.092 -6.271,-2.608 -6.364,-6.029 -0.093,-3.422 2.607,-6.271 6.028,-6.364"
             style="fill:#bacf1b;fill-opacity:1;fill-rule:nonzero;stroke:none"
             id="path4236"
             inkscape:connector-curvature="0" />
          <path
             d="m 126.835,154.9399 c -4.886,-8.1 -15.413,-10.705 -23.512,-5.819 -8.1,4.885 -10.705,15.412 -5.82,23.511 4.886,8.1 15.413,10.705 23.513,5.82 8.099,-4.886 10.705,-15.412 5.819,-23.512 z"
             style="fill:none;stroke:#222d55;stroke-width:1.5;stroke-linecap:round;stroke-linejoin:round;stroke-miterlimit:4;stroke-dasharray:0, 4.89;stroke-dashoffset:0;stroke-opacity:1"
             id="path4292"
             inkscape:connector-curvature="0" />
          <g
             transform="translate(546.9434,150.7617)"
             id="g4294">
            <path
               inkscape:connector-curvature="0"
               id="path4296"
               style="fill:#3fabe2;fill-opacity:1;fill-rule:nonzero;stroke:none"
               d="m 0,0 c 0,-0.289 0.292,-0.58 0.509,-0.652 0.219,-0.073 0.58,-0.725 0.58,-0.725 l 1.889,-2.685 c 0,0 -0.075,-0.438 -0.146,-0.727 -0.073,-0.292 -0.507,-2.107 -0.652,-2.685 -0.146,-0.583 -0.146,-0.872 0,-1.453 0.145,-0.58 -0.363,-1.452 -0.363,-1.452 l 1.523,-0.216 0.072,-0.436 c 0,0 -0.29,-0.799 -0.364,-1.308 -0.07,-0.509 0.364,-1.67 0.437,-2.102 0.073,-0.438 0.58,-2.903 0.509,-3.341 -0.073,-0.432 0.29,-2.394 0.29,-2.394 l 0.288,-0.075 c 0,0 0.149,-2.32 0,-2.828 -0.142,-0.511 -0.216,-2.253 -0.434,-3.194 -0.217,-0.945 -0.073,-1.744 0,-2.396 0.072,-0.653 0.943,-4.286 1.017,-4.648 0.073,-0.363 0.871,-3.046 0.871,-3.046 l -0.363,-0.291 0.072,-0.655 c 0,0 0,-0.942 -0.29,-1.159 -0.29,-0.22 -0.433,-1.381 -0.145,-1.527 0.29,-0.145 0.29,-0.359 0.943,-0.434 0.654,-0.071 0.944,0 0.944,0 l 0.218,0 c 0.216,0 0.362,-0.292 0.87,-0.434 0.507,-0.147 1.525,-0.293 1.888,-0.293 0.362,0 1.089,-0.072 1.597,0 0.436,0.065 1.161,0 1.45,0 0.291,0 1.035,0.532 0.727,0.874 -0.364,0.399 -0.943,0.433 -0.943,0.433 l -0.509,0.219 c 0,0 -0.109,0.036 -0.29,0.222 -0.161,0.157 -0.292,0.14 -0.363,0.358 -0.042,0.129 -0.109,0.202 -0.158,0.249 0.117,-0.081 0.392,-0.249 0.668,-0.249 0.362,0 0.722,-0.507 1.231,-0.652 0.509,-0.147 1.382,-0.438 1.742,-0.509 0.364,-0.071 2.469,-0.51 2.469,-0.51 0,0 0.508,0.15 0.799,0.439 0.289,0.287 -0.218,0.58 -0.361,0.943 -0.147,0.362 -0.872,0.509 -0.872,0.509 l -1.089,0.797 c -0.146657,1.078425 -1.164774,1.853733 -1.379,2.833 0,0.363 -0.364,0.868 -0.364,0.868 0,0 -0.291,0 -0.581,-0.073 -0.29,-0.074 -0.364,-0.359 -0.364,-0.359 0,0 -0.217,0.285 -0.291,0.942 -0.072,0.653 0,0 0.509,2.468 0.509,2.465 0.872,4.281 0.872,4.5 0,0.214 0.145,2.034 0.219,2.394 0.073,0.362 0.506,1.308 0.506,1.308 0,0 0.364,0.507 0.437,0.868 0.071,0.365 0.071,0.945 0,1.234 -0.073,0.293 -0.51,1.019 -0.29,1.019 0.217,0 0.144,0.219 0.144,0.219 0,0 -0.291,0.58 -0.364,2.105 -0.072,1.522 -0.36,2.248 -0.36,2.248 0,0 -0.22,3.047 -0.147,3.34 0.071,0.289 -0.073,1.231 0,1.524 0.071,0.289 -0.581,2.685 -0.581,2.685 0,0 -0.072,0.725 0.145,1.234 0.218,0.506 -0.29,1.304 -0.581,1.74 -0.29,0.436 -0.362,1.524 -0.362,1.887 0,0.362 -0.147,1.963 -0.073,2.251 0.073,0.291 -0.724,1.599 -0.724,1.888 0,0.289 -0.073,2.467 -0.073,2.467 l 0.651,0.145 c 0,0 -0.216,1.888 -0.289,2.326 -0.073,0.434 0.073,1.014 0.217,1.666 0.144,0.655 -0.144,2.105 0,2.685 0.144,0.583 -0.363,1.237 -0.434,1.526 -0.072,0.289 -2.104,1.019 -2.324,1.526 -0.217,0.506 -0.871,1.086 -0.871,1.086 l 0,0.511 c 0,0 0.58,-0.151 0.871,-0.151 0.291,0 0.435,0.367 0.435,0.657 0,0.291 0.073,0.437 0.365,0.798 0.289,0.364 0.58,1.67 0.652,1.961 0.08409,0.466589 0.02645,0.891435 0,1.233 0,0.363 0.218,0.799 0.436,1.233 0.217,0.438 0,0.509 -0.073,1.09 -0.073,0.58 -0.435,0.509 -0.726,0.798 -0.289,0.29 -0.509,0.363 -0.798,0.652 C 10.38,23.592 9.729,23.446 9.509,23.808 9.292,24.171 9.22,23.592 8.493,23.735 7.767,23.881 7.767,23.519 6.897,23.446 6.026,23.373 6.605,23.373 6.243,23.156 5.88,22.937 5.88,22.574 5.88,22.574 c 0,0 0,-0.07 -0.217,-0.359 -0.218,-0.293 -0.582,-1.308 -0.582,-1.673 0,-0.364 0.364,-1.452 0.364,-1.452 0,0 0.072,-1.014 0.29,-1.377 0.164,-0.277 0.371,-0.428 0.461,-0.482 0.015,-0.052 0.031,-0.112 0.047,-0.172 0.508,-1.89 -0.58,-2.106 -0.58,-2.106 L 4.646,15.028 4.502,14.226 c 0,0 -0.292,-0.579 -0.581,-0.726 C 3.63,13.357 3.048,12.849 2.688,12.706 2.325,12.559 1.598,11.905 1.31,11.616 1.015,11.325 0.8,10.306 0.8,9.874 0.8,9.438 0.8,8.277 0.728,7.841 0.654,7.405 0.509,6.898 0.437,6.606 0.363,6.317 0.363,5.879 0.219,5.374 c -0.146,-0.509 0,-1.454 0,-1.454 0,0 0.218,-0.292 0.218,-0.581 C 0.437,3.05 0.146,2.178 0.146,2.178 0.146,2.178 0,0.292 0,0 m 7.694,-30.408 c 0.073,0.505 0,3.699 0.073,4.207 0.074,0.507 0.364,2.25 0.508,2.54 0.146,0.289 0.435,0.941 0.58,1.232 0.146,0.293 0.218,1.672 0.218,1.672 l 0.292,0.219 0.073,0.287 c 0,0 0.651,0 0.942,0.145 0.291,0.148 0.872,0.221 0.872,0.221 0,0 0.144,-1.67 0.291,-2.106 0.145,-0.438 -0.074,-1.019 -0.219,-1.454 -0.144,-0.432 -0.581,-1.741 -0.581,-2.249 0,-0.507 -0.507,-2.249 -0.218,-3.048 0.29,-0.798 0.363,-3.339 0.29,-3.992 -0.072,-0.653 -0.579,-1.745 -0.579,-1.745 0,0 -0.436,-0.142 -0.582,-0.362 -0.145,-0.216 -0.434,-0.941 -0.434,-0.941 l -0.799,-0.073 c 0,0 -0.146,0.291 -0.29,0.725 -0.145,0.436 -0.22,0.944 -0.29,1.381 -0.074,0.432 -0.22,2.831 -0.147,3.341"
               sodipodi:nodetypes="ccccccccccccccccccccccccccscscsccccccscccccccccccccsccccsccccccccscscccccccccsscccccccccccccsccccccccccsccccscccccsccccccssccccccccc" />
          </g>
          <g
             transform="translate(584.4424,133.4736)"
             id="g4298">
            <path
               inkscape:connector-curvature="0"
               id="path4300"
               style="fill:#3fabe2;fill-opacity:1;fill-rule:nonzero;stroke:none"
               d="m 0,0 c 0.39830902,0.75314144 0.96535275,1.1960768 1.782,1.431 0.137,0.133 0.305,0.274 0.493,0.378 0,0 0.317,0.212 0.402,0.467 0,0 0.106,0.575 0.868,0.826 0,0 0.87,0.277 1.358,0.912 0,0 4.259,5.295 5.127,6.039 0,0 0.359,0.551 0.403,0.847 0,0 0.993,2.818 1.418,3.177 0,0 0.358,0.655 0.403,0.785 0,0 0.7,1.082 1.717,1.568 0,0 0.592,0.255 0.634,0.444 0,0 0.096,0.129 0.27,0.329 l -0.27,0.052 c -0.806,0 -1.038,0.953 -1.038,0.953 -0.023,0.128 -0.148,0.297 -0.148,0.297 -0.295,0.382 -0.512,1.335 -0.512,1.335 l -0.208,0.062 c -0.339,0.172 0.041,1.4 0.041,1.4 0.066,0.34 -0.191,0.656 -0.191,0.656 -0.08279,0.744882 0.122453,1.40803 0.344,2.082 0,0.007 0,0.019 -0.004,0.028 0,0 0.011,0 -0.111,0.247 0,0 -0.546,0.83 0.028,1.335 0,0 0.121,0.05 0.164,0.176 0,0 0.121,0.981 2.031,0.495 0,0 0.412,-0.042 0.673,0 0,0 2.366,0.573 2.931,-0.467 0,0 0.691,-1.041 0.819,-1.147 0,0 0.805,-1.437 0.177,-3.258 0,0 -0.24,-0.91 -0.22,-1.335 0,0 0.172,-0.702 -0.093,-0.843 0.093,-0.143 0.263,-0.357 0.525,-0.59 0.004,0.002 0.005,0.002 0.007,0.002 l 0.024,-0.027 -0.004,0 c 0.227,-0.197 0.524,-0.401 0.91,-0.596 0,0 3.791,-1.649 4.024,-3.389 0,0 0.616,-1.547 0.851,-1.738 0,0 0.568,-1.121 0.568,-1.503 0,0 0.975,-2.605 1.293,-3.075 0,0 1.209,-2.966 0.404,-3.896 0,0 -1.414,-1.292 -1.644,-1.373 l 0,-0.085 -0.006,0 c 0.01,-0.334 0.01,-1.651 -0.615,-1.89 0,0 -0.623,-0.247 -1.453,-0.332 0.039,-0.214 0.18,-0.953 0.307,-1.152 0,0 0.868,-3.622 -0.424,-7.054 0,0 -1.08,-2.627 -1.187,-3.07 0,0 -1.045,-2.882 -1.452,-3.36 0,0 0,-0.004 0.002,-0.004 l -0.012,-0.006 c 0,0 0.107,-0.234 0.382,-0.53 0,0 1.144,-2.246 1.144,-2.774 0,0 0.297,-1.04 0.488,-1.296 0,0 1.271,-3.453 1.292,-3.962 0,0 2.248,-4.976 2.733,-5.675 0,0 0.953,-1.91 0.953,-2.268 0,0 0.147,-0.595 0.404,-0.762 0,0 0.528,-0.743 0.445,-1.059 0,0 -0.046,-0.04 -0.127,-0.097 0.16,-0.03 0.318,-0.135 0.318,-0.412 0.04252,-0.59766 0.464646,-1.097492 0.741,-1.59 0,0 0.38,-0.297 0.465,-0.509 0,0 0.593,-0.506 0.359,-0.868 -1.283641,-0.715575 -2.421479,-0.942055 -3.835,-1.038 0,0 -0.147,0.17 -0.463,0.019 0,0 -1.25,-0.74 -2.397,-0.844 0,0 -3.897,-0.109 -4.194,0.146 0,0 -0.297,0.34 0.021,0.637 0,0 -0.276,0.783 0.488,1.207 0,0 0.443,0.189 1.397,0.064 0,0 0.91,0.233 1.376,0.804 0,0 0.508,0.861 0.79,1.25 -0.044,-0.054 -0.089,-0.115 -0.131,-0.19 0,0 -0.384,-0.253 -0.384,0.022 0,0 -0.042,1.399 -0.253,1.715 0,0 -0.443,0.421 -0.423,0.934 0,0 -0.36,1.608 -0.784,2.011 0,0 -1.505,2.077 -1.76,2.777 0,0 -1.865,3.515 -2.223,3.707 0,0 -2.289,-6.929 -3.411,-8.264 0,0 -0.316,-0.382 -0.316,-0.76 0,0 -0.405,-1.824 -0.785,-1.971 0,0 -0.087,-0.004 -0.23,-0.004 0.112,-0.005 0.197,-0.005 0.23,0.004 0,0 -0.042,-0.446 0.041,-0.829 0,0 0.107,-0.76 0.042,-0.932 0,0 0.085,-0.422 0.106,-0.615 0,0 0.151,-0.635 -0.041,-0.675 0,0 -1.907,-0.213 -3.412,-0.128 0,0 -0.257,0 -0.257,0.085 l 0,0.421 c 0,0 -0.038,0.174 -0.316,0.192 0,0 -1.886,0.19 -2.032,1.611 0,0 -0.063,0.549 0.231,0.549 0.05,0.201 0.193,0.625 0.596,0.722 0,0 0.295,0.128 0.783,0.02 0,0 0.36,-0.062 0.615,0.15 0,0 0.02,0.229 0.097,0.366 -0.012,0.02 -0.023,0.037 -0.035,0.058 0,0 -0.232,0.108 -0.168,0.255 0,0 0.423,1.036 0.741,1.462 0,0 1.187,1.863 1.187,2.458 0,0 0.782,3.028 1.06,3.665 0,0 0.783,1.61 0.762,2.138 0,0 0.021,0.17 0.189,0.359 0,0 0.171,1.229 -0.041,1.718 0,0 0.064,3.727 0.976,5.127 0,0 0.294,0.487 0.102,1.335 0,0 -0.589,1.907 -1.014,2.734 0,0 -0.384,0.656 -0.384,2.033 0,0 -0.528,5.827 -0.189,6.334 0,0 0.274,0.7 0.319,0.978 0,0 0.133,0.858 0.256,1.126 -0.127,-0.026 -0.254,-0.021 -0.386,0.035 0,0 -0.505,0.024 -0.548,0.255 0,0 -0.19,0.721 0.02,1.25 0,0 0.108,1.103 -0.255,1.716 0,0 -0.38,1.463 -0.232,1.76 0,0 -1.567,-1.526 -1.822,-1.63 0,0 -0.592,-0.51 -0.722,-0.701 0,0 -1.268,-0.953 -2.158,-0.953 C 6.0016015,0.7191484 4.7070929,0.07283787 3.271,-0.479 2.5803627,-0.89208096 1.9015126,-1.0141699 1.138,-1.051 0.87109421,-1.1566312 0.80612046,-1.4217766 0.669,-1.663 0.67170902,-1.9909898 0.87954418,-2.1819131 0.934,-2.308 1.07,-2.562 0.783,-2.691 0.783,-2.691 c -0.405,0.06 -0.716,0.704 -0.716,0.704 -0.16,0.129 -0.253,0.475 -0.253,0.475 C -0.486,-0.926 0,0 0,0"
               sodipodi:nodetypes="ccccccccccccccccccccccccccccccccccccccccccccccccccccccccccccccccccccccccccccccccccccccccccccsccccccccccccccccccccccccccccccccccccccc" />
          </g>
          <g
             transform="translate(574.6152,112.208)"
             id="g4302">
            <path
               inkscape:connector-curvature="0"
               id="path4304"
               style="fill:#3fabe2;fill-opacity:1;fill-rule:nonzero;stroke:none"
               d="m 0,0 c 0,0 0.114,1.104 0.049,1.44 0,0 0.048,0.675 0.16,0.996 0,0 0.209,1.234 0.048,1.539 -0.16,0.305 0.016,0.513 0.032,0.706 0.015,0.193 0,1.026 -0.016,1.297 -0.016,0.273 0.127,0.466 0.161,0.609 0.03,0.146 0.096,1.604 0.046,1.877 0,0 0.77,-0.496 1.09,-0.593 0,0 1.013,-0.962 0.914,-1.331 0,0 0.144,-1.458 0.628,-2.113 0,0 0.096,-0.548 0.062,-0.724 0,0 0.082,-0.53 0.224,-0.642 0,0 0.195,-0.08 -0.112,-0.208 0,0 -0.256,-0.255 -0.526,-0.722 0,0 -0.098,-0.16 -0.339,-0.287 0,0 -0.609,-0.404 -0.865,-0.691 C 1.556,1.153 0.32,0.032 0,0 m -9.01,24.191 c 0.417,-0.464 0.528,-1.282 0.528,-1.282 0,-0.432 0.465,-1.138 0.465,-1.138 0.241,-0.209 0.338,-0.625 0.338,-0.625 0,-0.178 0.16,-0.785 0.16,-0.785 0.05,-0.049 0.093,-0.118 0.129,-0.199 0.004,-0.008 0.004,-0.012 0.004,-0.016 l 0.002,0.004 c 0.175,-0.408 0.185,-1.103 0.185,-1.103 -0.03,-1.026 0.578,-3.609 0.578,-3.609 0.006,0 0.011,-0.001 0.02,-0.001 -0.268,-0.708 0.092,-1.505 0.092,-1.505 0.113,-0.259 0.129,-0.562 0.129,-0.562 -0.065,-0.321 0.304,-0.85 0.304,-0.85 0.24,-0.241 0.29,-1.314 0.29,-1.314 -0.017,-0.675 0.319,-1.187 0.319,-1.187 0.177,-0.24 0.274,-0.832 0.274,-0.832 -0.082,-0.29 0,-0.335 0.015,-0.899 0.016,-0.563 0.817,-2.213 0.817,-2.213 0.097,-0.337 0,-0.657 0,-0.657 C -4.521,5.129 -4.568,3.317 -4.568,3.317 -4.488,3.03 -4.762,1.267 -4.762,1.267 -4.858,0.866 -4.744,0.738 -4.744,0.738 -4.633,0.657 -4.667,0.432 -4.667,0.432 -4.825,0 -4.904,-1.942 -4.904,-1.942 -4.772,-2.29 -4.977,-3.748 -5.012,-4.003 -5.022,-4.015 -5.03,-4.028 -5.03,-4.038 l 0.013,-0.003 -0.161,-0.158 C -5.339,-4.312 -6.813,-5.5 -6.813,-5.5 c -0.242,-0.625 0.255,-1.33 0.255,-1.33 0,0 -1.007,-0.498 -0.976,-1.313 l 10e-4,-0.004 c -0.026,-0.057 -0.02,-0.091 -0.02,-0.091 0,-1.254 2.055,-3.16 2.055,-3.16 0.414,-0.398 0.59,-0.77 0.667,-1.03 -0.155,-0.391 -0.042,-1.744 -0.042,-1.744 0.143,-0.193 -0.064,-0.868 -0.064,-0.868 -0.096,-0.353 -0.111,-0.945 -0.111,-0.945 0.055,-0.035 0.111,-0.07 0.165,-0.1 -0.025,-0.138 -0.104,-0.61 0.17,-0.733 0,0 1.715,-0.386 3.367,0.177 0,0 1.362,0.305 2.356,0.289 0,0 1.938,-0.049 2.452,0.977 0,0 0.064,0.447 -0.047,0.368 l -0.017,0.176 c 0,1.076 -2.452,0.754 -2.452,0.754 l -0.009,-0.008 c -0.126,0.422 -0.508,0.951 -0.574,1.038 0,0 0.002,0.005 0.002,0.007 l -0.011,0.006 0.304,0.593 c 0.754,1.058 -0.514,4.569 -0.514,4.569 -0.271,0.48 -0.256,1.892 -0.256,1.892 0.08,0.256 0.803,0.849 0.803,0.849 1.217,0.434 3.895,2.309 3.895,2.309 0.225,0.289 1.829,1.523 1.829,1.523 1.136,0.996 2.034,4.329 2.034,4.329 0.53,0.752 0.577,4.168 0.305,4.76 -0.272,0.595 -0.691,2.728 -0.691,2.728 0.059,0.713 -0.536,3.688 -0.663,4.321 0.633,0.641 0.699,5.169 0.633,5.362 -0.004,0.011 -0.008,0.027 -0.013,0.042 -0.049,0.185 -0.002,0.423 -0.002,0.423 0.189,0.302 -0.196,0.929 -0.196,0.929 -0.206,0.336 -0.142,2.772 -0.142,2.772 0.063,0.642 0.257,1.348 0.257,1.348 0.512,0.834 0.576,5.419 0.576,5.419 0,0 -0.368,1.666 -0.078,2.166 0.285,0.495 0.047,2.644 0.047,2.644 -0.047,0.143 -0.114,0.706 -0.114,0.706 0,1.234 -2.789,2.629 -2.789,2.629 -0.017,0.353 -1.121,1.298 -1.121,1.298 -0.161,0.066 -0.257,0.239 -0.257,0.239 -0.03,0.059 -0.109,0.13 -0.22,0.209 0.157,0.054 0.308,0.249 0.404,0.397 0.048,-0.027 0.103,-0.027 0.103,-0.027 0.049,0.081 0.436,0.336 0.436,0.336 0.224,0.127 0.558,0.787 0.558,0.787 0.087,0.22 -0.025,0.312 -0.131,0.351 0.432,1.03 0.453,2.455 0.453,2.455 -0.065,0.13 -0.032,0.384 -0.032,0.384 0.209,1.393 -2.196,2.34 -2.196,2.34 -0.114,0 -0.305,0.193 -0.305,0.193 C 2.34,48.706 1.363,48.017 1.363,48.017 1.074,47.903 0.755,47.841 0.755,47.841 c -2.294,-0.916 -1.893,-3.383 -1.893,-3.383 0,-0.089 0.078,-0.104 0.159,-0.092 -0.0354722,-0.199508 0.0554177,-0.367225 0.083,-0.55 0.047,-0.145 -0.066,-0.77 -0.066,-0.77 -0.062,-0.196 0.051,-0.904 0.064,-0.987 -0.671,-0.228 -0.834,-1.177 -0.834,-1.177 -0.032,-0.177 0.128,-0.289 0.128,-0.289 -0.08,-0.11 -0.382,-0.305 -0.382,-0.305 -0.337,-0.176 -0.947,-0.656 -0.947,-0.656 -0.275,-0.241 -1.252,-0.563 -1.252,-0.563 -0.881,-0.384 -2.595,-2.162 -2.595,-2.162 -1.396,-1.318 -1.605,-4.219 -1.605,-4.219 0.065,-0.382 -0.258,-1.313 -0.258,-1.313 -0.255,-0.801 -0.367,-2.869 -0.367,-2.869 0.065,-0.37 -0.128,-1.122 -0.128,-1.122 l -0.175,-0.947 c -0.18,-0.866 0.303,-2.246 0.303,-2.246"
               sodipodi:nodetypes="ccccccccccccccccccccccccccccccccccccccccccccccccccccccccccccccccccccccccccccccccccccccccccccccccccccccccccccccccccccccccc" />
          </g>
          <g
             transform="translate(309.5869,182.9209)"
             id="g4306">
            <path
               inkscape:connector-curvature="0"
               id="path4308"
               style="fill:#ffffff;fill-opacity:1;fill-rule:nonzero;stroke:none"
               d="m 0,0 -5.463,5.465 c -0.203,0.2 -0.474,0.314 -0.757,0.314 l -8.858,0 0,12.17 8.242,0 c 0.304,0 0.59,0.127 0.796,0.353 L 0,24.903 0,0 Z M 1.465,28.675 C 1.05,28.839 0.58,28.729 0.28,28.4 l -7.588,-8.296 -8.848,0 c -0.593,0 -1.075,-0.485 -1.075,-1.079 l 0,-14.32 c 0,-0.595 0.482,-1.076 1.075,-1.076 l 9.488,0 6.981,-6.982 c 0.309,-0.309 0.771,-0.401 1.173,-0.234 0.401,0.167 0.663,0.556 0.663,0.991 l 0,30.272 c 0,0.443 -0.271,0.84 -0.684,0.999" />
          </g>
          <g
             transform="translate(317.6299,204.1748)"
             id="g4310">
            <path
               inkscape:connector-curvature="0"
               id="path4312"
               style="fill:#ffffff;fill-opacity:1;fill-rule:nonzero;stroke:none"
               d="m 0,0 c -0.299,0.549 -0.983,0.75 -1.533,0.453 -0.549,-0.297 -0.753,-0.984 -0.456,-1.534 0.046,-0.084 4.509,-8.547 -0.42,-16.37 -0.333,-0.529 -0.174,-1.228 0.354,-1.562 0.188,-0.117 0.397,-0.174 0.603,-0.174 0.376,0 0.743,0.188 0.959,0.529 C 5.154,-9.691 0.213,-0.392 0,0" />
          </g>
          <g
             transform="translate(320.4824,208.6099)"
             id="g4314">
            <path
               inkscape:connector-curvature="0"
               id="path4316"
               style="fill:#ffffff;fill-opacity:1;fill-rule:nonzero;stroke:none"
               d="m 0,0 c -0.328,0.513 -1.005,0.661 -1.518,0.336 -0.511,-0.325 -0.663,-1.005 -0.338,-1.518 0.335,-0.526 8.085,-13.049 -0.761,-25.039 -0.362,-0.489 -0.257,-1.178 0.231,-1.538 0.198,-0.146 0.426,-0.215 0.653,-0.215 0.337,0 0.671,0.154 0.885,0.446 C 8.909,-14.304 0.09,-0.142 0,0" />
          </g>
          <g
             transform="translate(323.5723,212.4604)"
             id="g4318">
            <path
               inkscape:connector-curvature="0"
               id="path4320"
               style="fill:#ffffff;fill-opacity:1;fill-rule:nonzero;stroke:none"
               d="m 0,0 c -0.358,0.528 -1.077,0.666 -1.606,0.308 -0.529,-0.358 -0.666,-1.078 -0.308,-1.606 0.113,-0.167 11.196,-16.897 -1.053,-32.506 -0.394,-0.502 -0.306,-1.23 0.196,-1.623 0.211,-0.167 0.462,-0.247 0.712,-0.247 0.343,0 0.683,0.151 0.911,0.442 C 12.132,-18.309 0.123,-0.181 0,0" />
          </g>
          <g
             transform="translate(81.3398,87.2637)"
             id="g4322">
            <path
               inkscape:connector-curvature="0"
               id="path4324"
               style="fill:#ffffff;fill-opacity:1;fill-rule:nonzero;stroke:none"
               d="M 0,0 C 0.078,-0.373 0.141,-0.751 0.196,-1.132 0.202,-1.13 0.206,-1.128 0.21,-1.127 0.153,-0.745 0.079,-0.372 0,0" />
          </g>
          <g
             transform="translate(78.0547,79.3877)"
             id="g4326">
            <path
               style="fill:#ffffff;fill-opacity:1;fill-rule:nonzero;stroke:none"
               d="M 0,0 C -0.86682553,-1.5113921 0.6425808,-3.2021889 -0.26801562,-4.750998 -1.6201639,-5.3280873 -1.7332492,-6.3594578 -1.606625,-7.578625 -2.7977321,-8.7383326 -2.9940595,-11.398057 -5.266,-11.229 c -1.417577,-0.268309 -1.2270625,2.1926789 -1.9343987,3.1818691 -0.4536342,2.8217096 -1.3040081,13.5508207 -4.2624763,10.8326934 -1.388706,-0.2921434 -2.800164,0.4692356 -3.628277,1.5076485 -1.340693,1.394246 -0.218066,3.2081851 -0.326614,4.8284609 0.696237,1.5748141 1.901354,2.5072921 2.616907,4.0473751 1.125915,0.728544 3.0323161,1.087364 4.456859,1.141953 0.4305372,-0.243762 -0.2322956,-1.727505 1.1662676,-1.482775 0.5894792,-0.616401 1.418357,-1.022247 1.5452324,0.06874 C -4.4188877,12.636908 -3.2592925,12.235827 -1.982,12.462 -1.3993895,11.133939 -2.3651734,11.526838 -2.4407051,11.778887 -1.6077455,10.315926 -1.1304015,8.7011162 -0.399,7.224 0.49372415,6.0679445 1.1868693,4.3322331 2.893,5.641 3.1654156,3.6523096 1.5957357,1.9953964 0.29684375,0.70098437 0.13797291,0.49098123 0.09236229,0.23860237 0,0 Z m -15.655,18.963 c -0.293804,0.276581 2.580879,-0.03916 0.72875,-0.274375 -0.568186,0.115921 -0.523282,0.09156 -0.72875,0.274375 z m -0.243,0.421 c -0.822503,0.107307 0.585301,-0.44058 -0.553,-0.231875 0.757833,-0.244317 -2.073673,-0.419194 -2.582984,-1.101547 -1.178133,0.647349 0.139242,1.044886 -0.542016,1.287422 -0.802236,0.52288 -1.138497,0.2386 -0.76025,0.5545 0.701158,0.450559 1.923111,0.374158 2.733203,0.631031 0.799692,0.05439 3.04148,0.159293 1.709047,-0.239531 1.032158,0.112891 2.734122,0.38246 0.845,-0.09287 -1.072161,-0.179298 0.562433,-0.239169 -0.55,-0.333125 1.219554,-0.14147 -0.984326,-0.410806 -0.299,-0.474005 z m -4.86,-3.973 c -0.283644,-0.215452 -1.867277,-0.06632 -0.547125,0.538875 0.751553,0.523164 0.049,-0.38297 0.843125,-0.363875 -0.07335,0.03486 0.03056,-0.775743 -0.296,-0.175 z m -1.59,-0.078 c 0.325638,0.07841 0.630344,-0.366339 0,0 z m 0.823,0.761 c 0.161898,-0.02628 -0.145722,-0.102822 0,0 z m 0.57,3.843 c -0.979917,-0.33098 -2.309986,-0.0056 -0.795,0.013 -0.34979,0.137518 -1.591999,-0.09679 -0.657,0.09 -1.161768,-0.01385 0.193865,0.293504 0.685,0.05338 0.685479,0.142248 -0.611918,0.242011 0.202,0.261625 -1.518187,0.191073 4.540323,0.280738 1.7085,-0.04812 -0.101115,0.0047 -1.289047,-0.249763 -1.1435,-0.369875 z m -1.88,-0.339 c -1.557047,0.28291 0.594343,0.08439 1.272,0.081 -0.133457,-0.226071 -0.915271,0.09005 -1.272,-0.081 z m -1.628,-0.264 c 0.490602,-0.164421 -1.169882,-0.127975 -0.115125,0.0455 0.04065,0.0071 0.07675,-0.03033 0.115125,-0.0455 z m -0.844,-0.376 c -0.553155,-0.292122 -2.517113,-0.284813 -1.651125,-0.0047 1.163858,0.865575 1.557168,0.06129 1.651125,0.0048 z m -0.975,0.59 c 0.879696,0.169649 2.005154,0.04003 0.224,-0.052 0.104665,-0.05487 -0.391455,-0.0238 -0.224,0.052 z m 0.367,0.189 c -0.06789,-0.156427 -0.469648,-0.08232 0,0 z m 0.054,-0.057 c 0.343352,0.12145 0.02939,-0.113822 0,0 z m 13.585,-1.475 c 1.040766,0.875904 0.819593,-0.984293 -0.05038,-0.334375 L -12.139,18.091 Z m 1.384,0.746 c -0.216628,-0.289848 0.354377,-0.179794 0.253484,-0.548406 1.5271979,-0.702991 0.05085,-1.300742 -0.581343,-0.96011 0.819788,0.225623 -0.607156,0.315663 0.418859,0.705516 -0.470121,0.131272 -1.157659,0.724534 -0.18325,0.89375 l 0.06794,-0.02341 z m 2.9,-4.142 c 0.017821,0.700625 0.3849424,-0.738986 0,0 z m 0.085,0.643 c 0.367536,-0.811226 -0.5414789,0.01941 0,0 z m 1.523,-1.317 c 0.067116,-0.89521 -1.2527885,0.501801 0,0 z m 4.636,-1.098 c -0.280277,-0.447734 -0.6635811,0.0238 0,0 z M -26.971,5.949 c 0.653295,0.2963119 0.301747,-0.7465701 0,0 z m -0.925,0.256 C -28.529287,6.0607002 -29.406902,6.3942371 -28.358281,6.7316563 -28.461424,8.1599834 -26.228578,5.8290467 -27.896,6.205 Z m -1.572,1.094 c 0.66483,1.6565403 -2.214075,0.6965998 -0.552,1.514875 0.777118,0.1293258 2.293547,-2.387731 0.552,-1.514875 z m -0.247,-0.764 c 0.699378,-0.2166046 -0.416527,-0.4509209 0,0 z m -0.728,1.581 c 0.29644,0.4962073 0.273587,-0.034221 0,0 z m 2.464,-0.123 c -0.09031,-0.3247382 -0.438011,-0.06838 0,0 z m 18.825,12.572 c 0.5700191,-0.0367 0.9032754,-0.07722 0.72,0.043 1.3249543,0.07441 0.818558,-0.165408 0.297,-0.193 1.1954159,-0.176547 -1.4416752,-0.110677 -0.840875,-0.051 C -8.94424,20.49569 -9.037219,20.3555 -9.479,20.55 Z M -9.474,20.5 c 0.013058,0.0073 0.3111932,-0.167909 0,0 z M 1.538,6.705 c -0.79302673,1.9848209 -2.6016799,3.2788915 -3.268,5.276 1.01293695,2.151853 -2.2533591,0.727075 -2.310125,2.199125 C -4.3941051,14.670867 -4.06,14.56 -4.06,14.56 -4.9232124,14.762623 -4.4059768,14.187493 -4.424125,13.886 -4.7915243,13.201962 -5.8710135,15.777224 -7.1904688,15.98125 -7.6172004,15.327863 -5.0644808,14.73744 -6.001,14.354 -6.5951855,13.719952 -7.4549089,16.473504 -8.7241094,15.625344 -10.001137,15.625011 -10.408156,13.293403 -12.067,14.342 c -0.46807,0.962333 0.0033,2.143703 1.23,1.487 1.8236967,0.205755 -1.507859,1.494136 0.36,1.165 0.296404,0.617285 2.4372714,0.509498 2.0820938,1.512469 0.8475501,-0.0028 -0.1909899,-0.779514 1.0407597,-0.630645 1.0962515,-0.273083 1.9224423,0.475214 2.0401934,0.873801 2.2714919,-0.164451 -2.5941763,0.276422 -0.2000469,0.889375 -0.3292916,0.253814 -2.0492894,-0.280982 -1.014,-0.768 -0.3658149,-0.586319 -1.0697029,-1.151907 -1.53575,0.03588 -1.3750871,-0.58018 -1.334749,0.76683 -0.54425,0.739125 0.5651534,0.132469 1.6463429,0.657813 0.945,0.59 0.7339525,-0.0087 1.4954236,0.391883 2.466,-0.129 -6.659559,4.339271 -16.017928,3.810135 -22.126404,-1.288072 -3.524918,-2.83548 -5.985957,-6.96099 -6.779596,-11.416933 0.807752,4.323432 3.123021,8.43274 6.598125,11.156125 0.804579,0.09305 1.202438,0.163453 1.195875,0.176875 1.654109,-0.2416 1.337155,0.194353 2.282422,0.376828 -0.297171,-0.266024 0.629314,-0.506989 0.765656,-0.07764 -0.58377,-0.128452 -0.883588,0.287161 -0.255547,0.448593 0.412519,-0.003 -0.0262,-0.07082 0.707469,-0.03178 -0.423101,-0.0382 1.997638,-0.186823 1.954875,-0.56525 0.532081,-0.403314 -0.71865,-0.03464 -0.275,-0.58875 -0.299539,0.02224 -0.08748,-0.594007 -0.974875,-0.025 -2.122964,-0.223203 1.277012,0.495345 -0.062,0.561 0.714386,0.174571 -0.803629,0.26322 -0.453,0.159 -1.083683,-0.479215 -0.961759,-0.465239 -0.80275,-0.750469 -1.198312,-0.293231 -0.543481,0.201116 -0.732875,0.234344 -0.416212,0.107014 0.280444,-0.294726 -0.753062,-0.265703 -0.732286,-0.244539 -2.415505,-0.946298 -0.658188,-1.322984 0.594983,-0.179598 0.08493,-1.054318 0.777922,-0.06223 0.703517,0.344369 0.759117,1.773693 2.039375,0.95575 1.411983,0.184175 0.925313,-0.209184 1.766703,-0.861828 0.671317,-0.09992 -1.233108,-0.418747 0.258703,-0.155125 0.593475,-0.794289 -4.314839,-1.102248 -1.322828,-0.96875 -1.242638,-0.318997 1.199427,-0.973032 -0.612266,-1.070156 -0.956526,-0.282607 0.996085,0.801211 -0.439859,0.218531 -0.801904,-0.165634 -1.80583,-1.058848 -1.803875,-0.928375 -0.858848,-0.150457 -1.286105,-1.132419 -1.3185,-0.7555 -0.077,-1.070716 -1.869656,-0.989527 -2.311494,-2.213207 0.08626,-1.1111342 -1.203574,-2.1076467 -0.579985,-0.4281 0.275581,1.216425 -1.122956,0.474714 -1.466271,0.544557 -1.481723,0.08121 -2.627247,-2.3524173 -2.39075,-3.57075 0.680679,-0.074588 2.436752,1.8788886 1.454,0.201 -0.868118,-0.8112077 -0.969341,-1.3573467 0.05772,-1.7824941 C -31.854886,4.9471443 -32.843323,3.0404212 -31.208625,2.97375 -30.971735,2.172477 -31.54282,1.9501606 -31.496,2.849 -31.981458,2.3355154 -32.349204,1.7353114 -32.400125,3.0105 -32.718846,3.9295744 -32.690093,4.186663 -32.554,5.436 -33.528752,5.6250925 -32.899526,7.2080324 -33.833891,6.8532813 -34.423375,8.0191253 -34.363937,4.7458757 -34.426,3.981 c -0.06911,-6.5814212 3.598072,-13.0125113 9.261,-16.352 -0.45785,1.483434 -0.820439,3.05229 -1.085877,4.617668 0.162144,2.4393814 -2.471857,2.3169149 -3.358217,4.0586133 -1.517707,1.1879869 -1.468932,2.74587632 -0.898156,4.2360937 -0.945269,0.8491689 0.671818,2.867791 1.12425,2.341625 0.22818,-1.8376819 0.07787,1.1668913 0.927,-0.186 1.518317,0.2642906 1.836806,-0.4974586 3.329875,-1.194125 1.707432,0.3947652 1.313749,-1.58083089 2.114125,-2.030875 0.587008,0.96737876 1.531182,-0.34659793 2.502797,-0.0659844 2.292835,-0.4869047 -0.136885,-2.6696308 0.799203,-4.1080156 -0.355168,-1.2543069 -1.769076,-1.7999459 -1.362,-3.169 0.153679,-1.0362347 -0.794514,-1.8309275 -1.309963,-1.8651309 1.48982,-0.7526801 -0.82389,-1.1876291 -0.418162,-1.9688691 -1.051408,-0.07449 0.611938,-0.424087 -0.01337,-0.876375 -0.787162,-1.360582 1.916956,-1.545838 2.8844,-1.947133 7.200191,-1.865847 15.3184604,0.990532 19.74617684,6.9740589 C 2.8775351,-3.5423953 4.2862404,1.7353695 3.481,6.744 2.85787,6.5726414 1.9447215,5.7186415 1.538,6.705 Z"
               id="path4328"
               inkscape:connector-curvature="0"
               sodipodi:nodetypes="ccccccccccccccccccccccccccccccccccccccccccccccccccccccccccccccccccccccccccccccccccccccccccccccccccccccccccccccccccccccccccccccccccccccccccccccccccccccccccccccccccccccccccccccccccccc" />
          </g>
          <g
             transform="translate(81.3398,87.2637)"
             id="g4330">
            <path
               inkscape:connector-curvature="0"
               id="path4332"
               style="fill:#ffffff;fill-opacity:1;fill-rule:nonzero;stroke:none"
               d="M 0,0 C -0.085,0.407 -0.19,0.807 -0.3,1.203 -0.187,0.807 -0.086,0.407 0,0" />
          </g>
          <g
             transform="translate(74.7148,98.165)"
             id="g4334">
            <path
               inkscape:connector-curvature="0"
               id="path4336"
               style="fill:#ffffff;fill-opacity:1;fill-rule:nonzero;stroke:none"
               d="m 0,0 c 0.329,-0.299 0.633,-0.591 0.889,-0.826 1.331,-1.226 2.486,-2.637 3.421,-4.183 -0.022,0 -0.043,-0.004 -0.06,-0.012 0.639,-0.926 1.133,-1.962 1.542,-3.034 -0.231,0.326 -1.008,0.807 -0.635,0.05 0.185,-0.372 0.634,-0.561 0.766,-0.929 0.092,0.017 0.043,0.139 0.119,0.148 C 6.132,-8.965 6.033,-9.167 6.209,-9.302 5.095,-5.607 2.918,-2.375 0,0" />
          </g>
        </g>
      </g>
    </g>
  </g>
</svg>
