<?xml version="1.0" encoding="UTF-8" standalone="no"?>
<!--
  ~ Copyright (c) 2017  STMicroelectronics – All rights reserved
  ~ The STMicroelectronics corporate logo is a trademark of STMicroelectronics
  ~
  ~ Redistribution and use in source and binary forms, with or without modification,
  ~ are permitted provided that the following conditions are met:
  ~
  ~ - Redistributions of source code must retain the above copyright notice, this list of conditions
  ~   and the following disclaimer.
  ~
  ~ - Redistributions in binary form must reproduce the above copyright notice, this list of
  ~   conditions and the following disclaimer in the documentation and/or other materials provided
  ~   with the distribution.
  ~
  ~ - Neither the name nor trademarks of STMicroelectronics International N.V. nor any other
  ~   STMicroelectronics company nor the names of its contributors may be used to endorse or
  ~   promote products derived from this software without specific prior written permission.
  ~
  ~ - All of the icons, pictures, logos and other images that are provided with the source code
  ~   in a directory whose title begins with st_images may only be used for internal purposes and
  ~   shall not be redistributed to any third party or modified in any way.
  ~
  ~ - Any redistributions in binary form shall not include the capability to display any of the
  ~   icons, pictures, logos and other images that are provided with the source code in a directory
  ~   whose title begins with st_images.
  ~
  ~ THIS SOFTWARE IS PROVIDED BY THE COPYRIGHT HOLDERS AND CONTRIBUTORS "AS IS" AND ANY EXPRESS OR
  ~ IMPLIED WARRANTIES, INCLUDING, BUT NOT LIMITED TO, THE IMPLIED WARRANTIES OF MERCHANTABILITY
  ~ AND FITNESS FOR A PARTICULAR PURPOSE ARE DISCLAIMED. IN NO EVENT SHALL THE COPYRIGHT HOLDER
  ~ OR CONTRIBUTORS BE LIABLE FOR ANY DIRECT, INDIRECT, INCIDENTAL, SPECIAL, EXEMPLARY, OR
  ~ CONSEQUENTIAL DAMAGES (INCLUDING, BUT NOT LIMITED TO, PROCUREMENT OF SUBSTITUTE GOODS OR
  ~ SERVICES; LOSS OF USE, DATA, OR PROFITS; OR BUSINESS INTERRUPTION) HOWEVER CAUSED AND ON ANY
  ~ THEORY OF LIABILITY, WHETHER IN CONTRACT, STRICT LIABILITY, OR TORT (INCLUDING NEGLIGENCE OR
  ~ OTHERWISE) ARISING IN ANY WAY OUT OF THE USE OF THIS SOFTWARE, EVEN IF ADVISED OF THE POSSIBILITY
  ~ OF SUCH DAMAGE.
  -->

<svg xmlns:dc="http://purl.org/dc/elements/1.1/" xmlns:cc="http://creativecommons.org/ns#" xmlns:rdf="http://www.w3.org/1999/02/22-rdf-syntax-ns#"
    xmlns="http://www.w3.org/2000/svg" version="1.1" id="svg4521" viewBox="0 0 60.000002 60" height="48pt"
    width="48pt">
  <defs
     id="defs4523" />
  <metadata
     id="metadata4526">
    <rdf:RDF>
      <cc:Work
         rdf:about="">
        <dc:format>image/svg+xml</dc:format>
        <dc:type
           rdf:resource="http://purl.org/dc/dcmitype/StillImage" />
        <dc:title></dc:title>
      </cc:Work>
    </rdf:RDF>
  </metadata>
  <g
     transform="translate(0,-992.36224)"
     id="layer1">
    <g
       id="g4529"
       transform="matrix(1.1455022,0,0,-1.1455022,-409.23411,1606.8593)">
      <g
         transform="matrix(0.16000002,0,0,0.16000002,304.45742,406.61424)"
         id="g5134">
        <g
           id="g3509"
           transform="translate(446.73067,686.04487)"
           style="fill:#39a9dc;fill-opacity:1">
          <path
             d="M 0,0 6.086,51.053 7.892,66.194 7.887,89.289 -5.308,51.053 -9.157,39.9 -8.049,-47.315 C -6.021,-26.558 -4.787,-19.864 0,0"
             style="fill:#39a9dc;fill-opacity:1;fill-rule:nonzero;stroke:none"
             id="path3511" />
        </g>
        <g
           id="g3513"
           transform="translate(549.73847,648.24897)"
           style="fill:#39a9dc;fill-opacity:1">
          <path
             d="m 0,0 0,78.039 -3.454,10.81 -12.152,38.03 -1.112,-15.881 3.336,-22.149 L 0,0 Z"
             style="fill:#39a9dc;fill-opacity:1;fill-rule:nonzero;stroke:none"
             id="path3515" />
        </g>
        <g
           id="g3517"
           transform="translate(453.09097,705.56877)"
           style="fill:#39a9dc;fill-opacity:1">
          <path
             d="M 0,0 0,0.001 -0.119,-1.008 0,0 Z m -11.517,-80.109 -0.328,-11.349 104.946,0 0,25.544 0.27,3.003 -14.425,94.44 -3.203,20.963 0.078,1.127 -0.078,0.523 0,-0.729 -70.117,0 0,-5.815 L 0.769,6.504 C 0.172,5.478 -9.086,-51.423 -11.517,-80.109"
             style="fill:#39a9dc;fill-opacity:1;fill-rule:nonzero;stroke:none"
             id="path3519" />
        </g>
        <g
           id="g3521"
           transform="translate(528.83418,763.66937)"
           style="fill:#39a9dc;fill-opacity:1">
          <path
             d="m 0,0 1.411,20.482 -71.528,0 0,-19.75 L 0,0.732 0,0 Z"
             style="fill:#39a9dc;fill-opacity:1;fill-rule:nonzero;stroke:none"
             id="path3523" />
        </g>
        <g
           id="g3525"
           transform="translate(525.00317,553.56927)"
           style="fill:#39a9dc;fill-opacity:1">
          <path
             d="m 0,0 -4.542,0 -17.576,26.297 0,-26.297 -4.246,0 0,33.465 4.543,0 17.575,-26.275 0,26.275 4.246,0 L 0,0 Z m -34.079,7.579 c -1.37,-2.678 -3.31,-4.706 -5.82,-6.084 -2.512,-1.378 -5.219,-2.065 -8.127,-2.065 -3.149,0 -5.965,0.761 -8.444,2.285 -2.481,1.519 -4.362,3.597 -5.639,6.23 -1.279,2.632 -1.917,5.416 -1.917,8.354 0,5.554 1.491,9.901 4.473,13.046 2.984,3.141 6.832,4.713 11.549,4.713 3.09,0 5.874,-0.739 8.355,-2.214 2.481,-1.477 4.372,-3.535 5.673,-6.175 1.302,-2.641 1.952,-5.634 1.952,-8.981 0,-3.394 -0.686,-6.43 -2.055,-9.109 m 55.267,47.404 -105.049,0 c -0.131,-1.813 -0.2,-2.837 -0.2,-2.837 l 1.852,-63.922 c 0.072,-0.8 0.059,-2.125 0.223,-3.698 0.953,-9.233 3.84,-26.75 3.84,-26.75 l 92.238,0 c 12.063,46.83 7.096,97.915 7.096,97.915 l 0,-0.708 z"
             style="fill:#39a9dc;fill-opacity:1;fill-rule:nonzero;stroke:none"
             id="path3527" />
        </g>
        <g
           id="g3529"
           transform="translate(482.99237,582.13667)"
           style="fill:#39a9dc;fill-opacity:1">
          <path
             d="m 0,0 c -1.773,1.12 -3.763,1.679 -5.969,1.679 -3.135,0 -5.834,-1.075 -8.091,-3.231 -2.26,-2.152 -3.39,-5.748 -3.39,-10.785 0,-4.033 1.084,-7.21 3.251,-9.529 2.169,-2.321 4.889,-3.483 8.162,-3.483 3.333,0 6.074,1.173 8.227,3.516 2.154,2.343 3.232,5.668 3.232,9.975 0,2.723 -0.462,5.102 -1.382,7.133 C 3.119,-2.692 1.771,-1.118 0,0"
             style="fill:#39a9dc;fill-opacity:1;fill-rule:nonzero;stroke:none"
             id="path3531" />
        </g>
      </g>
    </g>
  </g>
</svg>
