<?xml version="1.0" encoding="UTF-8" standalone="no"?>
<svg
   xmlns:dc="http://purl.org/dc/elements/1.1/"
   xmlns:cc="http://creativecommons.org/ns#"
   xmlns:rdf="http://www.w3.org/1999/02/22-rdf-syntax-ns#"
   xmlns:svg="http://www.w3.org/2000/svg"
   xmlns="http://www.w3.org/2000/svg"
   xmlns:sodipodi="http://sodipodi.sourceforge.net/DTD/sodipodi-0.dtd"
   xmlns:inkscape="http://www.inkscape.org/namespaces/inkscape"
   inkscape:version="1.0beta1 (32d4812, 2019-09-19)"
   height="170pt"
   width="150pt"
   sodipodi:docname="toolbox_icon.svg"
   xml:space="preserve"
   viewBox="0 0 199.99999 226.66665"
   y="0px"
   x="0px"
   id="Layer_1"
   version="1.1"><style></style>
<metadata
   id="metadata21">
  <rdf:RDF>
    <cc:Work
       rdf:about="">
      <dc:format>image/svg+xml</dc:format>
      <dc:type
         rdf:resource="http://purl.org/dc/dcmitype/StillImage" />
      <dc:title></dc:title>
    </cc:Work>
  </rdf:RDF>
</metadata>
<defs
   id="defs19" />
<sodipodi:namedview
   inkscape:current-layer="Layer_1"
   inkscape:window-maximized="1"
   inkscape:window-y="23"
   inkscape:window-x="1280"
   inkscape:cy="560"
   inkscape:cx="400"
   inkscape:zoom="0.35"
   units="pt"
   showgrid="false"
   id="namedview17"
   inkscape:window-height="1005"
   inkscape:window-width="1680"
   inkscape:pageshadow="2"
   inkscape:pageopacity="0"
   guidetolerance="10"
   gridtolerance="10"
   objecttolerance="10"
   borderopacity="1"
   inkscape:document-rotation="0"
   bordercolor="#666666"
   pagecolor="#FFFFFF" />

<path
   inkscape:connector-curvature="0"
   d="M 99.924637,13.333341 A 86.66665,86.66665 0 0 0 13.333333,99.999887 86.66665,86.66665 0 0 0 99.999879,186.66667 86.66665,86.66665 0 0 0 186.66666,99.999887 86.66665,86.66665 0 0 0 99.999879,13.333341 a 86.66665,86.66665 0 0 0 -0.07524,0 z m 0.101993,26.141799 c 6.70991,0 12.43436,2.348477 17.16233,7.087216 4.71783,4.717826 7.0662,10.421332 7.0662,17.183831 H 75.765854 c 0,-6.762499 2.369269,-12.466005 7.087216,-17.183831 4.74938,-4.738739 10.431975,-7.087216 17.17356,-7.087216 z M 51.494808,58.871053 c 1.35272,0 2.463803,0.471847 3.418326,1.415485 l 13.115328,13.147096 h 63.964088 l 13.12607,-13.147096 c 0.97531,-0.943638 2.08641,-1.415485 3.39731,-1.415485 1.35223,0 2.46334,0.471847 3.4071,1.415485 0.96455,0.964674 1.43651,2.128331 1.43651,3.459649 0,1.268457 -0.47184,2.421766 -1.43651,3.39659 L 138.8495,80.25882 v 22.27896 h 16.96313 c 1.32104,0 2.43301,0.49261 3.3868,1.45728 0.97458,0.95379 1.46731,2.05487 1.46731,3.39683 0,1.3312 -0.49273,2.43217 -1.46755,3.37581 -0.95379,0.98558 -2.06576,1.45752 -3.38681,1.45752 h -16.96311 c 0,8.63853 -1.70908,15.99851 -5.11662,21.97465 l 15.78984,15.88347 c 0.95379,0.94364 1.43578,2.05487 1.43578,3.39683 0,1.32104 -0.48212,2.42188 -1.43578,3.38655 -0.89179,0.97483 -2.04471,1.45682 -3.40758,1.45682 -1.38378,0 -2.50587,-0.48211 -3.43886,-1.45682 l -14.97151,-14.9297 c -0.30379,0.28287 -0.63932,0.59748 -1.16373,0.99629 -0.52429,0.38755 -1.56216,1.143 -3.18687,2.1495 -1.62556,1.06924 -3.24025,1.98117 -4.9069,2.79872 -1.68818,0.78636 -3.7639,1.54129 -6.2278,2.20205 -2.45314,0.6291 -4.95896,0.94349 -7.34924,0.94349 V 83.12108 h -9.697483 v 67.90599 c -2.569202,0 -5.158532,-0.31449 -7.727122,-0.98552 -2.515881,-0.71287 -4.71793,-1.53094 -6.584417,-2.49562 -1.82405,-1.0065 -3.480523,-2.01297 -4.979754,-2.96688 -1.478318,-0.98559 -2.589483,-1.82398 -3.312989,-2.4949 l -1.152978,-1.03832 -13.849821,15.67376 c -1.017261,1.06924 -2.211878,1.60395 -3.616819,1.60395 -1.248034,0 -2.327527,-0.3875 -3.302718,-1.19478 -0.943271,-0.91197 -1.446833,-2.03396 -1.551396,-3.39683 -0.0318,-1.32105 0.324748,-2.51635 1.205526,-3.49117 l 15.29636,-17.23591 c -2.924962,-5.73509 -4.393115,-12.66514 -4.393115,-20.77987 H 44.219131 c -1.300132,0 -2.442923,-0.4717 -3.39659,-1.45728 -0.985708,-0.94364 -1.489292,-2.04461 -1.489292,-3.37581 0,-1.34196 0.503584,-2.44304 1.489292,-3.39683 0.953789,-0.96467 2.09658,-1.45752 3.39659,-1.45752 H 61.203274 V 80.25882 L 48.108728,67.142777 c -0.964551,-0.974824 -1.447015,-2.128133 -1.447015,-3.39659 0,-1.331196 0.482464,-2.494975 1.447015,-3.459649 0.964674,-0.943638 2.075797,-1.415485 3.38608,-1.415485 z"
   style="fill:#3CB4E6;stroke-width:0.122296"
   id="circle12" />


</svg>
