<?xml version="1.0" encoding="UTF-8" standalone="no"?>
<svg
   xmlns:dc="http://purl.org/dc/elements/1.1/"
   xmlns:cc="http://creativecommons.org/ns#"
   xmlns:rdf="http://www.w3.org/1999/02/22-rdf-syntax-ns#"
   xmlns:svg="http://www.w3.org/2000/svg"
   xmlns="http://www.w3.org/2000/svg"
   xmlns:sodipodi="http://sodipodi.sourceforge.net/DTD/sodipodi-0.dtd"
   xmlns:inkscape="http://www.inkscape.org/namespaces/inkscape"
   sodipodi:docname="hsdatalog.svg"
   inkscape:version="1.0 (4035a4fb49, 2020-05-01)"
   id="svg8"
   version="1.1"
   viewBox="0 0 70.555481 67.599915"
   height="67.599915mm"
   width="70.555481mm">
  <defs
     id="defs2">
    <clipPath
       clipPathUnits="userSpaceOnUse"
       id="clipPath26">
      <path
         d="M 0,200 H 200 V 0 H 0 Z"
         id="path24" />
    </clipPath>
  </defs>
  <sodipodi:namedview
     inkscape:window-maximized="0"
     inkscape:window-y="0"
     inkscape:window-x="1972"
     inkscape:window-height="1040"
     inkscape:window-width="1274"
     showgrid="false"
     inkscape:document-rotation="0"
     inkscape:current-layer="layer1"
     inkscape:document-units="mm"
     inkscape:cy="151.5065"
     inkscape:cx="93.613182"
     inkscape:zoom="1.979899"
     inkscape:pageshadow="2"
     inkscape:pageopacity="0.0"
     borderopacity="1.0"
     bordercolor="#666666"
     pagecolor="#ffffff"
     id="base" />
  <metadata
     id="metadata5">
    <rdf:RDF>
      <cc:Work
         rdf:about="">
        <dc:format>image/svg+xml</dc:format>
        <dc:type
           rdf:resource="http://purl.org/dc/dcmitype/StillImage" />
        <dc:title></dc:title>
      </cc:Work>
    </rdf:RDF>
  </metadata>
  <g
     transform="translate(0.50392989,-0.97385369)"
     id="layer1"
     inkscape:groupmode="layer"
     inkscape:label="Layer 1">
    <path
       d="m 67.469244,31.108869 c -0.648052,1.72579 -2.578452,2.603148 -4.304242,1.955094 -1.726141,-0.6477 -2.601735,-2.579159 -1.953683,-4.304946 0.648052,-1.72579 2.5781,-2.603148 4.304242,-1.955096 1.725789,0.648054 2.601735,2.579158 1.953683,4.304948 M 54.713859,52.203214 c -1.249892,-0.189087 -2.501548,0.05186 -3.57505,0.633238 l -11.649427,-13.9319 c 1.0033,-1.029758 1.624893,-2.433814 1.624893,-3.98145 0,-0.0019 -2.64e-4,-0.0039 -2.64e-4,-0.0056 L 59.006898,31.95311 c 0.428625,1.129946 1.2065,2.121604 2.260952,2.794704 z m 2.273652,6.821313 c -0.648052,1.726142 -2.578452,2.6035 -4.304242,1.9558 -1.726142,-0.648406 -2.601735,-2.579158 -1.953683,-4.3053 0.648051,-1.725789 2.5781,-2.6035 4.304241,-1.955448 1.726142,0.648052 2.601735,2.57951 1.953684,4.304948 m -8.475486,-3.182056 c -0.2286,0.60819 -0.340077,1.231193 -0.356658,1.847498 L 29.531523,60.780302 C 29.098311,59.676106 28.330667,58.708086 27.295617,58.047331 L 33.9102,40.430317 c 0.476957,0.129821 0.975784,0.20461 1.492957,0.20461 0.743654,0 1.452737,-0.147108 2.105377,-0.407106 l 11.8237,14.140743 c -0.336902,0.437447 -0.616302,0.93063 -0.820209,1.473907 m -21.159964,8.193617 c -0.648052,1.726141 -2.578805,2.6035 -4.304594,1.955448 -1.725789,-0.648055 -2.601736,-2.578807 -1.953683,-4.304948 0.648053,-1.72579 2.578805,-2.6035 4.304594,-1.955449 1.725789,0.648055 2.601737,2.579513 1.953683,4.304949 M 9.6083977,43.216554 c 0.3929943,-0.474837 0.7189613,-1.01741 0.9472083,-1.625952 0.204964,-0.545393 0.31997,-1.103841 0.353484,-1.65735 l 19.100094,-3.150658 c 0.34925,1.010002 0.969433,1.894417 1.779764,2.558698 l -6.710892,17.873485 c -1.213555,-0.183798 -2.428522,0.03986 -3.481211,0.585611 z M 8.2819535,34.769292 14.835859,17.313847 c 1.234017,0.186972 2.469797,-0.04621 3.534481,-0.612422 l 12.245621,15.118292 c -0.497417,0.764117 -0.816327,1.653117 -0.898877,2.610202 L 10.55349,37.591161 C 10.127334,36.449925 9.3448728,35.447684 8.2819535,34.769292 M 8.3383975,40.7584 C 7.6903448,42.484542 5.7599448,43.3619 4.0341559,42.713846 2.3083672,42.065794 1.4299505,40.133984 2.0780032,38.407488 2.7260559,36.6817 4.6589255,35.8054 6.3847142,36.4531 c 1.725789,0.648052 2.601736,2.579159 1.9536833,4.3053 M 12.559737,10.491831 c 0.648053,-1.7257896 2.580922,-2.6024423 4.306711,-1.9543896 1.725789,0.6477 2.601736,2.5791586 1.953683,4.3049476 -0.648052,1.725789 -2.578452,2.603147 -4.304241,1.955447 -1.726142,-0.648405 -2.604206,-2.580216 -1.956153,-4.306005 m 8.477603,3.183114 c 0.225425,-0.59937 0.337255,-1.21285 0.356658,-1.820334 L 40.006907,8.7663941 c 0.43321,1.1038414 1.201208,2.0722169 2.236258,2.7329699 l -6.654448,17.722145 c -0.06209,-0.0021 -0.123119,-0.0095 -0.18556,-0.0095 -1.144059,0 -2.20839,0.341487 -3.103034,0.92357 L 20.189967,15.184833 c 0.34925,-0.446263 0.638175,-0.951794 0.847373,-1.509888 M 42.186719,5.5102554 c 0.648054,-1.7261417 2.5781,-2.602089 4.30389,-1.954389 1.725789,0.6480529 2.602089,2.5784527 1.954035,4.3042416 -0.648052,1.7257885 -2.578452,2.603148 -4.304242,1.9550945 C 42.414615,9.1675024 41.538667,7.236397 42.186719,5.5102554 M 32.060586,34.923102 c 0,-1.843616 1.498954,-3.342568 3.342571,-3.342568 1.843262,0 3.342216,1.498952 3.342216,3.342568 0,1.843617 -1.498954,3.343627 -3.342216,3.343627 -1.843617,0 -3.342571,-1.50001 -3.342571,-3.343627 m 27.862389,-8.601781 c -0.384529,0.4699 -0.704146,1.005771 -0.929216,1.60514 -0.208492,0.555273 -0.324205,1.123243 -0.3556,1.686277 L 40.614742,32.599002 C 40.066877,31.376627 39.102736,30.383911 37.90294,29.796536 l 6.557433,-17.464969 c 1.214261,0.18415 2.429227,-0.03951 3.481563,-0.585259 z m 6.425142,-1.73496 c -1.551871,-0.582789 -3.198638,-0.437445 -4.574471,0.255764 L 49.776382,10.247003 c 0.36618,-0.4575535 0.668864,-0.9768423 0.885822,-1.5543396 1.107017,-2.9481637 -0.391935,-6.2473414 -3.339039,-7.354358 -2.947106,-1.10631105 -6.24699,0.3912305 -7.354006,3.3393943 -0.216607,0.5771444 -0.330552,1.1676944 -0.356307,1.7526 L 20.974545,9.5231025 C 20.394931,8.0957637 19.25052,6.9026691 17.698651,6.3198804 14.749429,5.2125107 11.449545,6.710758 10.342176,9.6592745 9.3780339,12.227497 10.391916,15.061361 12.618651,16.481644 L 6.0643922,33.936736 c -2.6109081,-0.396169 -5.23945527,1.070327 -6.20359692,3.63855 -1.10701668,2.948164 0.39123054,6.2484 3.34045252,7.355768 1.5426973,0.579263 3.1792334,0.439209 4.5501277,-0.243062 L 19.762754,59.299339 c -0.366184,0.457555 -0.66922,0.977197 -0.886178,1.554692 -1.107017,2.948165 0.39123,6.248755 3.338336,7.355417 2.947105,1.106313 6.247695,-0.392287 7.354711,-3.340452 0.216604,-0.577144 0.3302,-1.167694 0.355952,-1.752952 L 48.58505,60.020065 c 0.583142,1.415698 1.722967,2.598562 3.266017,3.177471 2.946752,1.106662 6.247342,-0.391938 7.354004,-3.3401 0.964496,-2.568223 -0.04904,-5.401734 -2.273652,-6.821313 l 6.553906,-17.455444 c 2.609496,0.395113 5.237337,-1.071385 6.201479,-3.639254 1.107017,-2.948164 -0.391229,-6.2484 -3.338687,-7.355064"
       style="fill:#0d2050;fill-opacity:1;fill-rule:nonzero;stroke:none;stroke-width:0.352777"
       id="path30" />
  </g>
</svg>
