<?xml version="1.0" encoding="UTF-8" standalone="no"?>
<svg
   xmlns:dc="http://purl.org/dc/elements/1.1/"
   xmlns:cc="http://creativecommons.org/ns#"
   xmlns:rdf="http://www.w3.org/1999/02/22-rdf-syntax-ns#"
   xmlns:svg="http://www.w3.org/2000/svg"
   xmlns="http://www.w3.org/2000/svg"
   version="1.1"
   id="svg2"
   viewBox="0 0 225 222.23388"
   height="177.78711pt"
   width="180pt">
  <defs
     id="defs4" />
  <metadata
     id="metadata7">
    <rdf:RDF>
      <cc:Work
         rdf:about="">
        <dc:format>image/svg+xml</dc:format>
        <dc:type
           rdf:resource="http://purl.org/dc/dcmitype/StillImage" />
        <dc:title></dc:title>
      </cc:Work>
    </rdf:RDF>
  </metadata>
  <g
     transform="translate(-210.76429,-505.13544)"
     id="layer1">
    <g
       transform="matrix(0.49394912,0,0,0.49394912,150.40679,363.47392)"
       id="g4139">
      <g
         style="opacity:0.6"
         class="st0"
         id="g4141">
        <path
           style="fill:#39a9dc"
           class="st1"
           d="m 540.1,408.3 c 0,-6 4.9,-10.8 10.8,-10.8 l 0,-16.1 c -6,0 -10.8,-4.9 -10.8,-10.8 0,-5.9 4.9,-10.8 10.8,-10.8 l 0,-46.2 -401.9,0 0,46.2 c 6,0 10.8,4.9 10.8,10.8 0,5.9 -4.9,10.8 -10.8,10.8 l 0,16.1 c 6,0 10.8,4.9 10.8,10.8 0,6 -4.9,10.8 -10.8,10.8 l 0,16.1 c 6,0 10.8,4.9 10.8,10.8 0,5.9 -4.9,10.8 -10.8,10.8 l 0,16.2 c 6,0 10.8,4.9 10.8,10.8 0,6 -4.9,10.8 -10.8,10.8 l 0,16.1 c 6,0 10.8,4.9 10.8,10.8 0,6 -4.9,10.8 -10.8,10.8 l 0,16.1 c 6,0 10.8,4.9 10.8,10.8 0,5.9 -4.9,10.8 -10.8,10.8 l 0,16.1 c 6,0 10.8,4.9 10.8,10.8 0,5.9 -4.9,10.8 -10.8,10.8 l 0,16.1 c 6,0 10.8,4.9 10.8,10.8 0,6 -4.9,10.8 -10.8,10.8 l 0,16.1 c 6,0 10.8,4.9 10.8,10.8 0,5.9 -4.9,10.8 -10.8,10.8 l 0,26.8 401.9,0 0,-26.8 c -6,0 -10.8,-4.9 -10.8,-10.8 0,-5.9 4.9,-10.8 10.8,-10.8 l 0,-15.5 c -6,0 -10.8,-4.9 -10.8,-10.8 0,-6 4.9,-10.8 10.8,-10.8 l 0,-16.1 c -6,0 -10.8,-4.9 -10.8,-10.8 0,-5.9 4.9,-10.8 10.8,-10.8 l 0,-16.1 c -6,0 -10.8,-4.9 -10.8,-10.8 0,-5.9 4.9,-10.8 10.8,-10.8 l 0,-16.1 c -6,0 -10.8,-4.9 -10.8,-10.8 0,-6 4.9,-10.8 10.8,-10.8 l 0,-16.1 c -6,0 -10.8,-4.9 -10.8,-10.8 0,-6 4.9,-10.8 10.8,-10.8 l 0,-16.1 c -6,0 -10.8,-4.9 -10.8,-10.8 0,-5.9 4.9,-10.8 10.8,-10.8 l 0,-16.1 c -6,-0.7 -10.8,-5.5 -10.8,-11.5 z"
           id="path4143" />
      </g>
      <g
         id="g4145">
        <path
           style="fill:none;stroke:#39a9dc;stroke-width:3;stroke-linecap:round;stroke-linejoin:round;stroke-miterlimit:10"
           class="st2"
           d="m 540.1,408.3 c 0,-6 4.9,-10.8 10.8,-10.8 l 0,-16.1 c -6,0 -10.8,-4.9 -10.8,-10.8 0,-5.9 4.9,-10.8 10.8,-10.8 l 0,-46.2 -401.9,0 0,46.2 c 6,0 10.8,4.9 10.8,10.8 0,5.9 -4.9,10.8 -10.8,10.8 l 0,16.1 c 6,0 10.8,4.9 10.8,10.8 0,6 -4.9,10.8 -10.8,10.8 l 0,16.1 c 6,0 10.8,4.9 10.8,10.8 0,5.9 -4.9,10.8 -10.8,10.8 l 0,16.2 c 6,0 10.8,4.9 10.8,10.8 0,6 -4.9,10.8 -10.8,10.8 l 0,16.1 c 6,0 10.8,4.9 10.8,10.8 0,6 -4.9,10.8 -10.8,10.8 l 0,16.1 c 6,0 10.8,4.9 10.8,10.8 0,5.9 -4.9,10.8 -10.8,10.8 l 0,16.1 c 6,0 10.8,4.9 10.8,10.8 0,5.9 -4.9,10.8 -10.8,10.8 l 0,16.1 c 6,0 10.8,4.9 10.8,10.8 0,6 -4.9,10.8 -10.8,10.8 l 0,16.1 c 6,0 10.8,4.9 10.8,10.8 0,5.9 -4.9,10.8 -10.8,10.8 l 0,26.8 401.9,0 0,-26.8 c -6,0 -10.8,-4.9 -10.8,-10.8 0,-5.9 4.9,-10.8 10.8,-10.8 l 0,-15.5 c -6,0 -10.8,-4.9 -10.8,-10.8 0,-6 4.9,-10.8 10.8,-10.8 l 0,-16.1 c -6,0 -10.8,-4.9 -10.8,-10.8 0,-5.9 4.9,-10.8 10.8,-10.8 l 0,-16.1 c -6,0 -10.8,-4.9 -10.8,-10.8 0,-5.9 4.9,-10.8 10.8,-10.8 l 0,-16.1 c -6,0 -10.8,-4.9 -10.8,-10.8 0,-6 4.9,-10.8 10.8,-10.8 l 0,-16.1 c -6,0 -10.8,-4.9 -10.8,-10.8 0,-6 4.9,-10.8 10.8,-10.8 l 0,-16.1 c -6,0 -10.8,-4.9 -10.8,-10.8 0,-5.9 4.9,-10.8 10.8,-10.8 l 0,-16.1 c -6,-0.7 -10.8,-5.5 -10.8,-11.5 z"
           id="path4147" />
      </g>
      <g
         style="opacity:0.6"
         class="st0"
         id="g4149">
        <path
           style="fill:#ffffff"
           class="st3"
           d="m 290,321.5 -118.6,0 0,91.5 118.6,0 0,-91.5 z m -71.5,57.8 c -6.6,0 -12,-5.4 -12,-12 0,-6.6 5.4,-12 12,-12 6.6,0 12,5.4 12,12 0,6.6 -5.3,12 -12,12 z"
           id="path4151" />
        <rect
           style="fill:#ffffff"
           x="178.2"
           y="484.89999"
           class="st3"
           width="131.5"
           height="112.5"
           id="rect4153" />
        <rect
           style="fill:#ffffff"
           x="423.5"
           y="644.20001"
           class="st3"
           width="58.599998"
           height="58.599998"
           id="rect4155" />
        <rect
           style="fill:#ffffff"
           x="325.20001"
           y="644.20001"
           class="st3"
           width="58.599998"
           height="58.599998"
           id="rect4157" />
        <rect
           style="fill:#ffffff"
           x="178.2"
           y="629.29999"
           class="st3"
           width="92.900002"
           height="73.5"
           id="rect4159" />
        <rect
           style="fill:#ffffff"
           x="418.10001"
           y="512"
           class="st3"
           width="76.599998"
           height="82"
           id="rect4161" />
        <rect
           style="fill:#ffffff"
           x="443.20001"
           y="463.89999"
           class="st3"
           width="24.4"
           height="41.299999"
           id="rect4163" />
      </g>
      <rect
         style="fill:none;stroke:#39a9dc;stroke-width:3;stroke-linecap:round;stroke-linejoin:round;stroke-miterlimit:10"
         x="171.39999"
         y="321.5"
         class="st2"
         width="118.6"
         height="91.5"
         id="rect4165" />
      <rect
         style="fill:none;stroke:#39a9dc;stroke-width:3;stroke-linecap:round;stroke-linejoin:round;stroke-miterlimit:10"
         x="178.2"
         y="484.89999"
         class="st2"
         width="131.5"
         height="112.5"
         id="rect4167" />
      <rect
         style="fill:none;stroke:#39a9dc;stroke-width:3;stroke-linecap:round;stroke-linejoin:round;stroke-miterlimit:10"
         x="423.5"
         y="644.20001"
         class="st2"
         width="58.599998"
         height="58.599998"
         id="rect4169" />
      <rect
         style="fill:none;stroke:#39a9dc;stroke-width:3;stroke-linecap:round;stroke-linejoin:round;stroke-miterlimit:10"
         x="325.20001"
         y="644.20001"
         class="st2"
         width="58.599998"
         height="58.599998"
         id="rect4171" />
      <rect
         style="fill:none;stroke:#39a9dc;stroke-width:3;stroke-linecap:round;stroke-linejoin:round;stroke-miterlimit:10"
         x="178.2"
         y="629.29999"
         class="st2"
         width="92.900002"
         height="73.5"
         id="rect4173" />
      <rect
         style="fill:none;stroke:#39a9dc;stroke-width:3;stroke-linecap:round;stroke-linejoin:round;stroke-miterlimit:10"
         x="418.10001"
         y="512"
         class="st2"
         width="76.599998"
         height="82"
         id="rect4175" />
      <rect
         style="fill:none;stroke:#39a9dc;stroke-width:3;stroke-linecap:round;stroke-linejoin:round;stroke-miterlimit:10"
         x="443.20001"
         y="463.89999"
         class="st2"
         width="24.4"
         height="41.299999"
         id="rect4177" />
      <circle
         style="fill:none;stroke:#39a9dc;stroke-width:3;stroke-linecap:round;stroke-linejoin:round;stroke-miterlimit:10"
         class="st2"
         cx="218.5"
         cy="367.29999"
         r="12"
         id="circle4179" />
    </g>
  </g>
  <style
     type="text/css"
     id="style4137">
	.st0{opacity:0.6;}
	.st1{fill:#39A9DC;}
	.st2{fill:none;stroke:#39A9DC;stroke-width:3;stroke-linecap:round;stroke-linejoin:round;stroke-miterlimit:10;}
	.st3{fill:#FFFFFF;}
</style>
</svg>
