<?xml version="1.0" encoding="iso-8859-1"?>
<!-- Generator: Adobe Illustrator 24.1.1, SVG Export Plug-In . SVG Version: 6.00 Build 0)  -->
<svg version="1.1" id="Layer_1" xmlns="http://www.w3.org/2000/svg" xmlns:xlink="http://www.w3.org/1999/xlink" x="0px" y="0px"
	 viewBox="0 0 500 500" style="enable-background:new 0 0 500 500;" xml:space="preserve">
<g>
	<path style="fill:#03234B;" d="M434.582,188.556l-58.568,55.081l28.974,0.081c-3.554,114.676-45.931,201.14-173.534,222.373
		c-1.846,0.295-6.96,2.62-6.96,2.62c168.344,5.168,232.208-118.51,235.43-223.425l27.576,0.677L434.582,188.556z"/>
	<path style="fill:#03234B;" d="M144.195,111.29c101.081-54.27,197.165-60.794,279.334,39.115c1.187,1.428,5.759,4.717,5.759,4.717
		C349.6,6.724,210.54,13.281,118.082,62.932l-13.198-24.233l-23.267,74.528l76.968,23.185L144.195,111.29z"/>
	<path style="fill:#03234B;" d="M156.781,397.874c-97.539-60.406-151.21-140.35-105.809-261.48c0.662-1.735,1.208-7.325,1.208-7.325
		c-88.642,143.192-13.451,260.341,75.796,315.584l-14.384,23.559l76.142-17.108l-18.385-78.265L156.781,397.874z"/>
	<path style="fill:#03234B;" d="M340.329,248.136c-0.32-52.09,15.661-66.189,15.661-66.189c-13.8-0.645-47.37-2.563-59.514-1
		c-28.546,3.626-43.985,9.65-55.017,16.758c3.289,2.433,6.183,4.978,8.797,7.647c8.349,8.575,17.884,21.49,23.86,37.393
		c13.806-9.428,25.878-15.023,32.823-17.68c0,0-20.221,13.493-25.781,18.014c-0.759,0.63-2.699,2.069-5.464,4.256
		c1.434,4.494,2.578,9.183,3.295,14.077c2.765,18.855,3.591,46.28,1.524,67.333C296.995,323.131,340.63,302.729,340.329,248.136z"/>
	<path style="fill:#03234B;" d="M257.395,351.003c4.048-3.488,8.156-11.035,9.168-15.155c4.21-17.619,3.934-50.539,0.897-71.255
		c-3.108-20.866-14.74-37.699-24.447-47.668c-11.972-12.282-30.621-24.456-71.61-32.916c-12.424-2.578-43.313-4.885-57.634-5.331
		c0,0,16.05,18.36,11.55,72.188c-4.993,59.917,42.811,86.169,56.638,91.512c12.074,4.692,50.888,13.921,68.432,11.313
		c-18.174-56.268-59.523-90.332-63.764-94.362c-5.403-5.153-25.221-20.697-25.221-20.697
		C179.933,247.401,234.24,280.369,257.395,351.003z"/>
</g>
</svg>
