<?xml version="1.0" encoding="iso-8859-1"?>
<!-- Generator: Adobe Illustrator 24.0.2, SVG Export Plug-In . SVG Version: 6.00 Build 0)  -->
<svg version="1.1" id="Layer_1" xmlns="http://www.w3.org/2000/svg" xmlns:xlink="http://www.w3.org/1999/xlink" x="0px" y="0px"
	 viewBox="0 0 500 500" style="enable-background:new 0 0 500 500;" xml:space="preserve">
<path style="fill:#03234B;" d="M193.694,244.161l12.881-10.156l-12.365-15.672l3.729-2.932l12.394,15.668l12.659-10.032
	l-12.373-15.672l3.728-2.923l12.377,15.676l13.99-11.052l-12.373-15.663l3.74-2.966l12.353,15.671l11.588-9.124l9.622,12.203
	l16.324-12.872l2.941,3.726l-16.304,12.873l10.515,13.353l16.315-12.89l2.952,3.731l-16.324,12.889l10.535,13.335l16.315-12.873
	l2.931,3.711l-16.293,12.884l9.63,12.223l-11.563,9.127l12.365,15.664l-3.719,2.941l-12.386-15.673l-13.979,11.041l12.373,15.674
	l-3.719,2.959l-12.382-15.674l-12.672,10.001l12.373,15.683l-3.715,2.933l-12.396-15.666l-12.87,10.175l-9.632-12.223l-15.011,11.84
	l-2.963-3.726l15.023-11.853l-10.538-13.34l-15,11.871l-2.94-3.739l15.011-11.85l-10.526-13.321L191.3,271.974l-2.951-3.741
	l15.021-11.853L193.694,244.161z M381.445,315.056c1.166,1.29,2.321,2.61,3.406,3.978c22.134,28.024,17.365,68.693-10.665,90.821
	c-28.017,22.128-68.689,17.334-90.823-10.681c-1.083-1.368-2.122-2.798-3.076-4.235c22.69,24.424,60.749,27.714,87.4,6.685
	C394.324,380.59,399.945,342.814,381.445,315.056 M349.268,304.097c0.85,0.902,1.671,1.861,2.447,2.859
	c15.792,19.988,12.367,49.01-7.626,64.788c-19.98,15.792-49.023,12.402-64.802-7.6c-0.756-0.989-1.492-2.018-2.196-3.028
	c16.21,17.417,43.375,19.77,62.355,4.758C358.461,350.884,362.485,323.906,349.268,304.097 M319.349,293.486
	c0.56,0.566,1.085,1.181,1.558,1.808c9.979,12.646,7.813,31-4.833,40.987c-12.637,9.979-31.011,7.839-40.99-4.828
	c-0.483-0.636-0.946-1.264-1.385-1.913c10.253,11.029,27.437,12.519,39.443,3.024C325.193,323.07,327.722,306.01,319.349,293.486
	 M12.5,376.559l154.051-113.684l50.371,63.82L71.631,451.697L12.5,376.559z M281.809,171.864L428.224,48.303l59.276,75.29
	L332.777,236.403L281.809,171.864z"/>
</svg>
