<?xml version="1.0" encoding="UTF-8" standalone="no"?>
<svg
   xmlns:dc="http://purl.org/dc/elements/1.1/"
   xmlns:cc="http://creativecommons.org/ns#"
   xmlns:rdf="http://www.w3.org/1999/02/22-rdf-syntax-ns#"
   xmlns:svg="http://www.w3.org/2000/svg"
   xmlns="http://www.w3.org/2000/svg"
   xmlns:sodipodi="http://sodipodi.sourceforge.net/DTD/sodipodi-0.dtd"
   xmlns:inkscape="http://www.inkscape.org/namespaces/inkscape"
   version="1.1"
   id="svg1113"
   xml:space="preserve"
   width="266.66666"
   height="266.66666"
   viewBox="0 0 266.66666 266.66666"
   sodipodi:docname="ic_qvar_demo.svg"
   inkscape:export-filename="C:\Users\pezzonil\Downloads\g1143.png"
   inkscape:export-xdpi="96"
   inkscape:export-ydpi="96"
   inkscape:version="1.0.1 (3bc2e813f5, 2020-09-07)"><metadata
     id="metadata1119"><rdf:RDF><cc:Work
         rdf:about=""><dc:format>image/svg+xml</dc:format><dc:type
           rdf:resource="http://purl.org/dc/dcmitype/StillImage" /><dc:title></dc:title></cc:Work></rdf:RDF></metadata><defs
     id="defs1117"><clipPath
       clipPathUnits="userSpaceOnUse"
       id="clipPath1129"><path
         d="M 0,200 H 200 V 0 H 0 Z"
         id="path1127" /></clipPath><clipPath
       clipPathUnits="userSpaceOnUse"
       id="clipPath1149"><path
         d="M 0,200 H 200 V 0 H 0 Z"
         id="path1147" /></clipPath></defs><sodipodi:namedview
     pagecolor="#ffffff"
     bordercolor="#666666"
     borderopacity="1"
     objecttolerance="10"
     gridtolerance="10"
     guidetolerance="10"
     inkscape:pageopacity="0"
     inkscape:pageshadow="2"
     inkscape:window-width="1976"
     inkscape:window-height="1171"
     id="namedview1115"
     showgrid="false"
     inkscape:zoom="3.7800001"
     inkscape:cx="133.33333"
     inkscape:cy="133.33333"
     inkscape:window-x="0"
     inkscape:window-y="0"
     inkscape:window-maximized="0"
     inkscape:current-layer="g1121" /><g
     id="g1121"
     inkscape:groupmode="layer"
     inkscape:label="ST17123_QVAR_subBrand"
     transform="matrix(1.3333333,0,0,-1.3333333,0,266.66667)"><text
       transform="matrix(1,0,0,-1,25.9824,112.8838)"
       style="font-variant:normal;font-weight:300;font-stretch:condensed;font-size:40.9604px;font-family:'HelveticaNeueLT Std Lt Cn';-inkscape-font-specification:HelveticaNeueLTStd-LtCn;writing-mode:lr-tb;fill:#ffffff;fill-opacity:1;fill-rule:nonzero;stroke:none"
       id="text1137"><tspan
         x="0"
         y="0"
         id="tspan1135">Q</tspan></text><text
       transform="matrix(1,0,0,-1,48.756382,112.8838)"
       style="font-variant:normal;font-weight:bold;font-stretch:condensed;font-size:40.9604px;font-family:'HelveticaNeueLT Std Cn';-inkscape-font-specification:HelveticaNeueLTStd-BdCn;writing-mode:lr-tb;fill:#ffffff;fill-opacity:1;fill-rule:nonzero;stroke:none"
       id="text1141"><tspan
         x="0 17.531052 37.233002"
         y="0"
         sodipodi:role="line"
         id="tspan1139">var</tspan></text><g
       id="g1143"
       transform="translate(-10.714286,2.1825397)"><g
         id="g1145"
         clip-path="url(#clipPath1149)"><g
           id="g1151"
           transform="translate(138.9443,45.3865)"><path
             d="m 0,0 -0.053,-0.553 -0.137,-0.13 c -0.126,-0.118 -0.239,-0.241 -0.348,-0.362 -0.109,-0.117 -0.181,-0.192 -0.271,-0.27 -0.142,-0.122 -0.282,-0.238 -0.468,-0.387 l -0.591,-0.495 -0.283,0.566 c -0.224,0.471 -0.556,1.065 -1.429,2.021 -0.188,0.225 -0.717,1.1 -1.574,2.542 -0.729,1.223 -1.554,2.609 -2.111,3.376 -0.15,0.233 -0.594,1.196 -0.767,1.616 -0.09,0.232 -0.237,0.788 -0.343,1.302 -0.063,0.329 -0.169,0.685 -0.315,1.068 l -0.142,0.369 0.326,0.223 c 0.988,0.674 1.872,1.493 2.364,2.19 0.474,0.684 1.015,1.17 1.451,1.562 l 0.05,0.046 c 0.238,0.214 0.428,0.394 0.561,0.549 0.311,0.367 0.642,0.763 0.967,1.196 l 0.733,0.974 0.161,-1.209 c 0.079,-0.585 0.19,-1.193 0.309,-1.85 0.113,-0.61 0.222,-1.205 0.301,-1.798 0.065,-0.499 0.119,-0.992 0.188,-1.619 C -1.283,9.673 -1.153,8.488 -0.854,7.339 -0.528,6.083 0.018,3.48 0.1,1.838 0.128,1.277 0.068,0.686 0,0 M 3.054,-0.181 C 3.119,0.479 3.193,1.217 3.15,1.986 3.055,4.004 2.424,6.873 2.104,8.109 1.858,9.055 1.733,10.2 1.612,11.307 c -0.056,0.539 -0.118,1.086 -0.189,1.638 -0.082,0.632 -0.201,1.279 -0.35,2.079 -0.118,0.653 -0.22,1.221 -0.287,1.777 -0.169,1.431 -0.184,2.856 -0.197,4.002 -0.011,1.052 -0.02,1.883 -0.148,2.46 l -1.117,5.049 -1.807,-4.843 c -0.07,-0.175 -0.362,-0.723 -0.812,-1.554 -0.273,-0.499 -0.48,-0.882 -0.582,-1.095 -0.061,-0.11 -0.141,-0.216 -0.225,-0.323 -0.23,-0.296 -0.469,-0.604 -0.654,-0.973 -0.413,-0.824 -1.065,-1.619 -1.643,-2.3 -0.04,-0.046 -0.088,-0.092 -0.201,-0.192 l -0.128,-0.114 c -0.47,-0.421 -1.241,-1.109 -1.924,-2.091 -0.337,-0.479 -1.562,-1.588 -2.805,-2.102 l -1.613,-0.66 0.862,-1.509 c 0.577,-1.019 0.771,-1.609 0.833,-1.925 0.112,-0.538 0.292,-1.301 0.501,-1.831 0.13,-0.321 0.739,-1.741 1.114,-2.259 0.463,-0.641 1.188,-1.849 2.018,-3.243 0.929,-1.558 1.43,-2.391 1.786,-2.832 l 0.419,-0.52 -0.843,-0.351 1.617,-1.731 c 0.265,-0.427 0.705,-1.14 1.557,-1.31 l 0.163,-0.037 c 0.345,-0.088 0.705,-0.167 1.1,-0.167 0.926,0 1.425,0.463 1.64,0.738 0.102,0.126 0.324,0.321 0.856,0.753 0.206,0.169 0.419,0.344 0.631,0.523 0.143,0.124 0.27,0.249 0.416,0.405 l 0.162,0.172 1.683,-0.111 -0.404,1.963 c -0.062,0.292 -0.049,0.418 0.013,1.026"
             style="fill:#ffffff;fill-opacity:1;fill-rule:nonzero;stroke:none"
             id="path1153" /></g><g
           id="g1155"
           transform="translate(182.7001,64.4881)"><path
             d="m 0,0 c -0.549,0.677 -1.305,1.44 -2.105,2.248 -1.222,1.232 -2.587,2.61 -3.276,3.793 l -3.264,5.592 0.418,-6.461 C -8.207,4.873 -8.226,4.567 -8.254,4.104 L -8.261,3.988 c -0.045,-0.756 -0.1,-1.697 -0.025,-2.994 0.037,-0.681 0.023,-1.63 0.007,-2.543 l -0.01,-1.1 c 0,-1.14 -0.173,-2.299 -0.341,-3.421 -0.133,-0.883 -0.299,-1.982 -0.355,-3.127 -0.04,-0.812 -0.037,-1.664 -0.035,-2.49 0.006,-1.303 0.012,-2.528 -0.164,-3.315 l -0.12,-0.514 c -0.402,-1.798 -0.652,-2.911 -1.219,-3.529 l -2.566,-2.806 3.827,0.25 h 0.002 c 0.379,0 0.906,-0.232 1.984,-0.854 l 0.006,-0.004 c 0.624,0.821 1.24,1.648 1.837,2.49 l -0.13,0.062 c -0.048,0.022 -0.095,0.049 -0.144,0.078 -0.303,0.171 -0.637,0.36 -0.991,0.54 l -0.38,0.192 0.129,0.406 c 0.236,0.743 0.433,1.625 0.642,2.557 l 0.156,0.716 c 0.197,1.074 0.194,2.351 0.19,3.829 -0.003,0.743 -0.006,1.508 0.027,2.24 0.047,0.949 0.19,1.911 0.328,2.841 0.184,1.234 0.374,2.502 0.374,3.863 l 0.012,1.114 c 0.008,0.501 0.015,0.931 0.015,1.35 v 1.246 l 0.988,-1.028 c 0.712,-0.72 1.387,-1.401 1.847,-1.969 1.098,-1.344 3.768,-3.993 4.56,-4.773 l 0.18,-0.177 c 0.477,0.967 0.943,1.941 1.388,2.926 C 2.33,-2.536 0.67,-0.82 0,0"
             style="fill:#ffffff;fill-opacity:1;fill-rule:nonzero;stroke:none"
             id="path1157" /></g><g
           id="g1159"
           transform="translate(121.5507,22.6062)"><path
             d="m 0,0 c -1.013,0.507 -5.778,4.935 -11.021,12.387 -2.811,4.021 -6.515,10.06 -8.206,16.005 l -0.16,0.562 2.635,0.319 -3.371,4.493 -0.006,0.339 c 0,13.083 9.972,27.955 19.354,35.306 4.147,3.252 7.547,4.495 10.031,5.403 3.282,1.201 5.874,2.149 6.586,6.425 0.523,3.137 -0.524,6.772 -1.536,10.286 -1.017,3.534 -2.063,7.172 -0.849,8.688 2.957,3.695 5.76,11.26 3.93,20.416 -3.634,18.166 -17.922,29.857 -41.32,33.809 l -0.475,0.081 0.364,2.77 -7.928,-3.294 6.815,-5.219 0.353,2.709 0.513,-0.088 c 21.95,-3.752 35.325,-14.599 38.681,-31.368 1.52,-7.601 -0.574,-14.47 -3.323,-17.906 C 8.864,99.368 10.081,95.144 11.37,90.671 12.287,87.488 13.234,84.198 12.826,81.74 12.406,79.224 11.347,78.835 8.2,77.684 5.521,76.704 1.867,75.367 -2.662,71.818 -12.611,64.019 -23.186,48.15 -23.186,34.105 c 0,-0.259 0.009,-0.523 0.023,-0.79 l 0.007,-0.116 -2.116,-4.956 2.831,0.343 0.112,-0.42 c 1.114,-4.19 3.382,-9.062 6.558,-14.089 4.609,-7.348 10.557,-14.139 13.559,-16.285 v 0.324 l 0.857,-0.872 c 0.306,-0.312 1.122,-1.144 2.066,-12.843 1.013,0.25 2.021,0.512 3.021,0.794 C 2.967,-5.402 2.007,-1.002 0,0"
             style="fill:#ffffff;fill-opacity:1;fill-rule:nonzero;stroke:none"
             id="path1161" /></g><g
           id="g1163"
           transform="translate(187.7675,93.4754)"><path
             d="m 0,0 c -1.791,0.896 -2.925,1.392 -5.409,2.476 l -3.529,1.545 c -2.558,1.135 -6.184,2.966 -6.524,3.195 -0.356,0.344 -0.841,0.739 -1.34,1.094 l -0.294,0.208 0.105,0.343 c 0.718,2.373 2.613,6.572 3.327,8.153 l 0.439,0.953 c 0.047,0.062 0.092,0.133 0.136,0.208 1.08,1.947 -1.066,16.227 -2.078,18.065 -1.311,2.389 -2.996,4.159 -5.302,5.571 l -0.143,0.087 -0.062,0.157 c -0.174,0.446 -0.486,1.501 -0.615,3.548 -0.396,6.301 -0.204,6.928 1.63,12.928 0.505,1.655 1.092,3.578 1.797,6.043 0.397,1.385 1.031,2.768 1.846,4.142 -0.691,0.803 -1.397,1.593 -2.115,2.372 -1.197,-1.857 -2.12,-3.751 -2.67,-5.671 -0.729,-2.55 -1.33,-4.514 -1.821,-6.12 -1.78,-5.825 -2.15,-7.037 -1.718,-13.885 0.188,-2.986 0.765,-4.959 1.715,-5.866 l 0.201,-0.131 c 2,-1.139 3.467,-2.623 4.578,-4.648 0.867,-1.578 2.146,-12.375 2.041,-14.899 l -0.031,-0.154 -0.137,-0.366 c -0.013,-0.038 -0.047,-0.116 -0.092,-0.22 l -0.909,-2.085 -0.056,2.258 c -0.005,0.248 -0.026,0.494 -0.058,0.733 -0.119,0.874 -0.607,1.639 -1.339,2.098 l -0.234,0.147 -0.018,0.288 c 10e-4,1.372 -0.121,4.788 -1.271,6.876 -1.167,2.128 -2.661,3.706 -4.7,4.969 l -0.149,0.091 -0.058,0.164 c -0.143,0.392 -0.397,1.304 -0.504,3.015 -0.052,0.838 -0.118,1.758 -0.189,2.748 -0.558,7.828 -1.403,19.657 1.215,28.805 0.546,1.906 1.218,3.996 1.977,6.171 -0.804,0.77 -1.623,1.524 -2.454,2.266 -0.966,-2.7 -1.8,-5.283 -2.462,-7.595 -2.766,-9.658 -1.9,-21.818 -1.327,-29.865 l 0.014,-0.183 c 0.066,-0.912 0.125,-1.761 0.174,-2.54 0.171,-2.718 0.691,-4.462 1.591,-5.332 l 0.199,-0.131 c 1.744,-0.991 3.025,-2.287 3.993,-4.054 0.791,-1.437 1.021,-4.609 0.834,-6.863 l -0.193,-2.28 1.94,0.632 -0.049,-0.737 c -0.026,-0.4 -0.091,-0.822 -0.178,-1.16 -0.172,-0.674 -0.482,-1.29 -0.827,-1.644 -0.228,-0.236 -0.794,-0.463 -1.211,-0.484 l -0.999,-0.055 -0.662,-1.723 c -0.212,-0.512 -0.469,-1.137 -0.794,-2.11 l -0.027,-0.251 c -0.043,-0.984 -0.034,-2.477 -0.026,-3.794 0.008,-1.209 0.015,-2.459 -0.023,-3.404 l -0.039,-1.107 1.025,-0.374 c 0.263,-0.123 1.071,-0.68 1.394,-1.005 0.718,-0.71 5.449,-2.918 6.724,-3.479 0.978,-0.434 1.798,-0.792 2.541,-1.115 l 0.627,-0.275 c 2.204,-0.963 3.116,-1.361 4.641,-2.125 0.765,-0.381 1.735,-1.92 2.529,-4.015 0.554,-1.47 1.453,-3.024 2.245,-4.395 0.519,-0.899 0.986,-1.71 1.27,-2.334 0.358,-0.781 1.322,-2.148 2.253,-3.471 l 0.288,-0.406 c 0.194,-0.275 0.345,-0.49 0.449,-0.646 0.196,-0.3 0.381,-0.595 0.59,-0.928 0.22,-0.353 0.497,-0.796 0.855,-1.332 0.41,1.279 0.795,2.569 1.152,3.87 -0.015,0.023 -0.03,0.049 -0.046,0.072 -0.171,0.258 -0.452,0.659 -0.808,1.159 -0.878,1.247 -1.732,2.474 -1.949,2.951 -0.362,0.792 -0.893,1.709 -1.456,2.678 -0.716,1.246 -1.528,2.656 -1.982,3.866 -1.141,2.997 -2.494,4.903 -4.021,5.666 -1.577,0.789 -2.528,1.205 -4.827,2.209 l -3.112,1.364 c -2.374,1.052 -5.478,2.635 -5.707,2.774 l -0.097,0.076 c -0.276,0.281 -0.752,0.665 -1.24,1.004 l -0.219,0.152 0.003,0.264 c 0.007,0.713 0.003,1.499 -0.002,2.275 l -0.001,0.153 c -0.008,1.155 -0.016,2.35 0.014,3.269 l 0.031,0.157 c 0.162,0.437 0.325,0.84 0.501,1.271 l 0.089,0.218 0.224,0.07 c 0.455,0.144 0.897,0.35 1.279,0.597 l 1.313,0.849 -0.577,-1.453 c -0.923,-2.329 -1.39,-3.911 -1.427,-4.836 l -0.039,-1.112 1.064,-0.386 c 0.274,-0.122 1.217,-0.775 1.595,-1.154 0.751,-0.746 5.778,-3.111 7.523,-3.887 1.394,-0.616 2.502,-1.101 3.509,-1.54 2.522,-1.101 3.565,-1.557 5.3,-2.423 0.343,-0.172 1.569,-1.013 2.941,-4.629 0.617,-1.637 1.627,-3.381 2.517,-4.921 0.304,-0.528 0.608,-1.058 0.88,-1.554 0.33,1.537 0.623,3.087 0.879,4.65 C 5.302,-8.199 4.78,-7.192 4.436,-6.282 3.169,-2.951 1.677,-0.838 0,0"
             style="fill:#ffffff;fill-opacity:1;fill-rule:nonzero;stroke:none"
             id="path1165" /></g><g
           id="g1167"
           transform="translate(185.7031,100.2908)"><path
             d="m 0,0 c -3.147,1.151 -4.205,1.538 -4.625,4.056 -0.408,2.451 0.541,5.751 1.459,8.942 1.287,4.466 2.503,8.686 0.3,11.44 -2.749,3.436 -4.843,10.305 -3.322,17.906 0.438,2.192 1.052,4.28 1.83,6.267 -0.642,1.071 -1.304,2.127 -1.986,3.17 -1.259,-2.749 -2.214,-5.693 -2.843,-8.836 -1.828,-9.153 0.975,-16.719 3.931,-20.417 1.215,-1.516 0.166,-5.161 -0.848,-8.686 -1.015,-3.524 -2.06,-7.149 -1.537,-10.287 0.713,-4.278 3.312,-5.228 6.602,-6.43 2.456,-0.899 5.813,-2.133 9.907,-5.317 0.097,1.205 0.168,2.418 0.219,3.635 C 5.372,-1.97 2.314,-0.846 0,0"
             style="fill:#ffffff;fill-opacity:1;fill-rule:nonzero;stroke:none"
             id="path1169" /></g><g
           id="g1171"
           transform="translate(148.08,182.0642)"><path
             d="M 0,0 C -1.523,0.906 -3.074,1.772 -4.65,2.595 -1.115,-4.45 2.1,-12.92 3.943,-19.354 6.562,-28.503 5.717,-40.331 5.158,-48.156 5.087,-49.148 5.021,-50.07 4.969,-50.905 4.866,-52.524 4.641,-53.438 4.469,-53.918 L 4.41,-54.083 4.261,-54.175 c -2.044,-1.264 -3.537,-2.843 -4.698,-4.965 -1.157,-2.093 -1.278,-5.509 -1.276,-6.881 v -0.268 l -0.223,-0.149 c -0.756,-0.473 -1.248,-1.24 -1.37,-2.118 -0.033,-0.238 -0.05,-0.484 -0.056,-0.732 l -0.057,-2.22 -0.9,2.029 c -0.051,0.115 -0.088,0.203 -0.113,0.267 l -0.154,0.458 c -0.117,2.438 1.183,13.373 2.043,14.937 1.119,2.041 2.599,3.519 4.799,4.791 l 0.173,0.152 c 0.347,0.35 1.264,1.672 1.518,5.695 0.433,6.85 0.062,8.064 -1.72,13.898 -0.488,1.595 -1.088,3.56 -1.819,6.109 -3.059,10.68 -17.496,20.55 -28.038,27.756 -1.43,0.976 -2.796,1.914 -4.04,2.789 l -0.43,0.302 1.673,2.14 -8.502,1.196 3.214,-7.958 1.73,2.211 0.388,-0.274 c 1.302,-0.918 2.74,-1.903 4.246,-2.934 10.156,-6.941 24.065,-16.448 26.821,-26.071 0.712,-2.487 1.301,-4.422 1.819,-6.118 1.815,-5.938 2.004,-6.554 1.607,-12.853 -0.128,-2.041 -0.437,-3.096 -0.609,-3.542 l -0.061,-0.159 -0.145,-0.088 c -2.309,-1.413 -3.995,-3.182 -5.307,-5.571 -1.01,-1.841 -3.152,-16.13 -2.067,-18.085 0.037,-0.066 0.08,-0.13 0.126,-0.191 l 0.058,-0.098 0.384,-0.863 c 0.787,-1.744 2.615,-5.801 3.324,-8.144 l 0.104,-0.345 -0.296,-0.208 c -0.472,-0.333 -0.932,-0.703 -1.143,-0.922 -0.486,-0.369 -4.07,-2.192 -6.714,-3.361 l -3.48,-1.527 c -2.586,-1.128 -3.655,-1.595 -5.463,-2.499 -1.683,-0.841 -3.175,-2.955 -4.436,-6.285 -0.529,-1.398 -1.472,-3.032 -2.302,-4.474 -0.607,-1.048 -1.18,-2.036 -1.578,-2.912 -0.255,-0.561 -1.258,-1.997 -2.264,-3.419 l -0.139,-0.198 c -0.3,-0.425 -0.555,-0.786 -0.708,-1.022 -0.243,-0.36 -0.464,-0.715 -0.714,-1.118 -0.571,-0.915 -1.21,-1.939 -2.384,-3.486 -0.918,-1.204 -1.499,-2.051 -2.061,-2.87 l -0.228,-0.334 c -0.2,-0.292 -0.4,-0.584 -0.618,-0.889 -0.145,-0.2 -0.28,-0.405 -0.413,-0.612 l -0.065,-0.101 -4.671,-2.747 2.468,-1.398 -0.209,-0.423 c -0.205,-0.418 -0.418,-0.848 -0.644,-1.283 -1.235,-2.367 -0.471,-4.736 0.086,-6.467 0.085,-0.268 0.169,-0.535 0.244,-0.792 0.799,-2.736 2.038,-5.533 4.143,-9.354 0.697,-1.263 1.499,-2.661 2.454,-4.272 l 0.298,-0.507 c 1.706,-2.884 3.298,-5.541 4.038,-6.369 l 0.69,-1.103 0.946,0.464 0.167,-0.034 c 0.824,-0.17 2.82,-0.787 3.779,-1.083 l 0.432,-0.134 c 1.625,-0.501 2.906,-0.895 3.633,-1.019 0.45,-0.074 1.594,-0.547 2.241,-1.531 0.386,-0.586 0.482,-1.194 0.303,-1.911 -0.249,-1.033 -0.958,-4.555 0.404,-6.39 l 0.112,-0.151 -0.015,-0.189 c -0.268,-3.162 -0.403,-6.406 -0.422,-9.708 1.031,0.353 2.053,0.726 3.066,1.112 0.048,3.171 0.208,6.289 0.492,9.335 l 0.109,1.159 -0.981,0.358 -0.047,0.288 c -0.093,0.573 -0.108,2.019 0.252,3.457 0.381,1.53 0.133,3.023 -0.716,4.316 -1.099,1.672 -2.947,2.647 -4.291,2.871 -0.519,0.087 -1.929,0.522 -3.293,0.942 -2.391,0.737 -3.764,1.141 -4.638,1.295 l -0.207,0.036 -0.118,0.173 c -0.894,1.303 -2.403,3.852 -3.305,5.376 l -0.299,0.503 c -3.621,6.111 -5.326,9.615 -6.292,12.927 -0.087,0.302 -0.184,0.607 -0.3,0.963 -0.118,0.37 -0.235,0.738 -0.334,1.112 -0.405,1.511 -0.26,2.26 0.083,2.92 0.197,0.379 0.384,0.752 0.57,1.128 l 0.235,0.472 2.334,-1.322 -0.045,5.602 0.173,0.258 c 0.343,0.483 0.616,0.88 0.893,1.286 0.506,0.741 1.08,1.579 2.002,2.788 1.272,1.682 1.989,2.832 2.622,3.846 0.197,0.317 0.384,0.615 0.586,0.915 0.175,0.265 0.474,0.691 0.822,1.185 0.947,1.337 2.125,3.001 2.527,3.884 0.307,0.677 0.786,1.51 1.393,2.566 l 0.061,0.106 c 0.884,1.533 1.886,3.268 2.502,4.896 1.374,3.622 2.603,4.462 2.947,4.633 1.697,0.851 2.751,1.311 5.295,2.425 0.955,0.415 2.083,0.908 3.51,1.538 1.434,0.632 6.744,3.112 7.534,3.896 0.355,0.357 1.312,1.025 1.57,1.14 l 1.08,0.39 -0.04,1.122 c -0.037,0.917 -0.504,2.498 -1.427,4.827 l -0.576,1.455 1.312,-0.851 c 0.381,-0.247 0.824,-0.453 1.279,-0.597 l 0.222,-0.069 0.089,-0.217 c 0.155,-0.375 0.328,-0.8 0.503,-1.273 l 0.031,-0.159 c 0.027,-0.881 0.021,-2.026 0.013,-3.26 L 1.37,-81.286 c -0.003,-0.721 -0.007,-1.443 -0.001,-2.106 l 0.002,-0.264 -0.217,-0.152 c -0.51,-0.353 -0.942,-0.71 -1.104,-0.879 -0.453,-0.339 -3.62,-1.947 -5.934,-2.971 l -3.212,-1.408 c -2.267,-0.992 -3.181,-1.391 -4.731,-2.168 -1.534,-0.765 -2.887,-2.673 -4.023,-5.672 -0.463,-1.229 -1.296,-2.67 -2.03,-3.942 -0.488,-0.84 -1.041,-1.792 -1.409,-2.6 -0.214,-0.472 -1.096,-1.735 -2.058,-3.098 -0.323,-0.46 -0.55,-0.785 -0.692,-0.998 -0.186,-0.276 -0.361,-0.556 -0.543,-0.847 l -0.1,-0.16 c -0.506,-0.81 -1.078,-1.721 -2.097,-3.071 -0.805,-1.057 -1.314,-1.795 -1.852,-2.577 l -0.723,-1.045 c -0.156,-0.217 -0.299,-0.428 -0.437,-0.644 l -0.063,-0.1 -4.64,-2.765 2.473,-1.382 -0.484,-0.957 c -1.129,-2.165 -0.471,-4.229 0.059,-5.887 0.076,-0.234 0.151,-0.466 0.217,-0.695 0.938,-3.204 2.529,-6.491 5.87,-12.128 l 0.254,-0.432 c 1.866,-3.157 3.075,-5.126 3.732,-5.846 l 0.776,-0.847 1.029,0.511 c 0.155,0.077 1.029,0.534 1.928,1.052 l 0.373,0.215 0.269,-0.338 c 1.009,-1.276 2.394,-2.779 4.164,-3.08 0.853,-0.143 1.587,0.023 2.211,0.189 l 0.915,0.244 -0.314,-0.893 c -0.223,-0.635 -0.435,-1.367 -0.686,-2.374 -0.224,-0.894 -1.069,-3.791 -1.1,-3.893 l -0.213,-0.737 0.47,-0.615 c 0.141,-0.182 0.43,-0.471 0.994,-0.801 l 0.271,-0.158 -0.026,-0.314 c -0.321,-4.013 -0.39,-8.17 -0.264,-12.405 1.013,0.428 2.013,0.88 3.008,1.342 -0.081,4.173 0.056,8.254 0.424,12.197 l 0.108,1.157 -1.517,0.577 0.127,0.443 c 0.261,0.906 0.563,1.972 0.685,2.464 0.405,1.621 0.615,2.164 0.933,2.984 0.206,0.529 0.448,1.15 0.79,2.184 l 0.585,1.773 -1.848,0.224 c -1.713,0.218 -2.977,-0.126 -3.899,-0.38 -0.539,-0.149 -0.879,-0.237 -1.136,-0.194 -0.466,0.08 -1.31,0.515 -3.33,3.368 l -1.043,1.483 -1.236,-1.235 c -0.209,-0.171 -0.873,-0.568 -1.455,-0.901 l -0.413,-0.236 -0.256,0.4 c -0.818,1.279 -1.903,3.116 -2.425,3.999 l -0.254,0.43 c -3.206,5.413 -4.714,8.512 -5.565,11.431 -0.079,0.269 -0.167,0.542 -0.259,0.826 -0.402,1.259 -0.781,2.448 -0.243,3.48 l 0.446,0.879 2.351,-1.313 -0.082,5.613 0.211,0.304 c 0.266,0.378 0.51,0.731 0.759,1.095 0.479,0.701 0.974,1.422 1.765,2.46 1.113,1.468 1.753,2.493 2.268,3.317 0.198,0.32 0.383,0.616 0.586,0.918 0.113,0.172 0.284,0.415 0.487,0.702 l 0.254,0.362 c 0.929,1.315 1.889,2.673 2.244,3.455 0.281,0.616 0.739,1.413 1.27,2.336 0.808,1.399 1.695,2.934 2.248,4.394 0.794,2.095 1.761,3.634 2.527,4.016 1.528,0.765 2.463,1.173 4.721,2.159 l 3.087,1.354 c 1.556,0.692 6.049,2.81 6.745,3.5 0.272,0.274 1.075,0.85 1.315,0.961 l 1.084,0.398 -0.039,1.117 c -0.04,0.987 -0.031,2.326 -0.022,3.507 0.007,1.191 0.018,2.674 -0.06,3.962 l -0.072,0.265 c -0.223,0.609 -0.459,1.193 -0.664,1.693 l -0.082,0.203 c -0.108,0.259 -0.203,0.496 -0.281,0.705 l -0.352,0.938 -1.003,0.055 c -0.421,0.021 -0.98,0.25 -1.22,0.499 -0.332,0.341 -0.635,0.948 -0.811,1.622 -0.089,0.349 -0.15,0.761 -0.171,1.159 l -0.04,0.725 1.924,-0.616 -0.194,2.281 c -0.187,2.254 0.042,5.428 0.836,6.871 0.977,1.78 2.277,3.075 4.215,4.2 l 0.172,0.153 c 0.32,0.323 1.165,1.532 1.394,5.16 0.049,0.778 0.109,1.627 0.174,2.537 l 0.013,0.191 c 0.574,8.046 1.44,20.202 -1.327,29.859 C 5.348,-13.156 2.887,-6.343 0,0"
             style="fill:#ffffff;fill-opacity:1;fill-rule:nonzero;stroke:none"
             id="path1173" /></g><g
           id="g1175"
           transform="translate(101.8144,25.8728)"><path
             d="m 0,0 -6.102,9.856 c -0.252,0.434 -0.492,0.853 -0.729,1.276 l -0.283,0.498 c -0.325,0.585 -0.642,1.164 -0.94,1.73 l -0.201,0.392 c -0.232,0.442 -0.46,0.887 -0.677,1.324 l -0.376,0.78 c -0.145,0.304 -0.291,0.607 -0.427,0.906 l -0.314,0.703 c -0.142,0.325 -0.28,0.646 -0.409,0.958 l -0.3,0.739 c -0.122,0.308 -0.236,0.607 -0.388,1.031 l -0.221,0.61 c -0.098,0.282 -0.185,0.555 -0.293,0.909 l -0.217,0.696 c -0.055,0.187 -0.102,0.365 -0.147,0.542 l -0.148,0.565 0.567,0.116 2.067,0.209 -3.275,4.547 -0.007,0.358 c 0.251,15.526 6.73,36.906 15.627,42.763 11.418,7.522 18.761,14.488 20.095,25.958 0.113,0.966 0.248,1.971 0.389,3.004 l 0.025,0.187 c 1.495,10.932 3.54,25.903 -16.133,33.622 -13.14,5.158 -25.231,4.934 -31.271,4.341 l -0.466,-0.046 -0.456,2.761 -6.636,-5.446 8.036,-3.023 -0.446,2.687 0.535,0.05 c 5.725,0.529 17.188,0.696 29.587,-4.169 17.436,-6.842 15.654,-19.883 14.222,-30.361 -0.155,-1.12 -0.301,-2.208 -0.426,-3.256 -1.196,-10.294 -8.056,-16.72 -18.739,-23.754 -9.691,-6.382 -16.737,-28.981 -17,-45.27 -0.005,-0.24 0.004,-0.482 0.015,-0.764 l 0.004,-0.117 -2.221,-4.935 2.826,0.286 0.103,-0.424 c 0.094,-0.395 0.195,-0.792 0.314,-1.204 l 0.261,-0.844 c 0.091,-0.298 0.185,-0.594 0.289,-0.901 l 0.272,-0.756 c 0.12,-0.335 0.245,-0.671 0.379,-1.017 l 0.3,-0.739 c 0.145,-0.351 0.295,-0.704 0.455,-1.072 l 0.308,-0.69 c 0.176,-0.388 0.363,-0.781 0.554,-1.179 l 0.287,-0.596 c 0.245,-0.494 0.499,-0.994 0.826,-1.621 l 0.08,-0.156 c 0.323,-0.616 0.659,-1.239 1.002,-1.854 l 0.104,-0.184 C -9.41,9.474 -9.097,8.923 -8.762,8.349 l 6.188,-10.004 c 4.06,-6.367 8.215,-12.889 11.07,-19.363 1.055,0.122 2.106,0.257 3.15,0.413 -1.451,3.406 -3.373,7.115 -5.908,11.382 C 3.853,-6.044 1.806,-2.833 0,0"
             style="fill:#ffffff;fill-opacity:1;fill-rule:nonzero;stroke:none"
             id="path1177" /></g></g></g></g></svg>
