<?xml version="1.0" encoding="iso-8859-1"?>
<!-- Generator: Adobe Illustrator 24.1.2, SVG Export Plug-In . SVG Version: 6.00 Build 0)  -->
<svg version="1.1" id="Layer_1" xmlns="http://www.w3.org/2000/svg" xmlns:xlink="http://www.w3.org/1999/xlink" x="0px" y="0px"
	 viewBox="0 0 300 300" style="enable-background:new 0 0 300 300;" xml:space="preserve">
<g>
	<path style="fill:#03234B;" d="M68.75,112.917c4.783,0,9.244,1.362,13.004,3.714c0.81-6.675,2.577-13.056,5.159-19
		C81.381,95.139,75.23,93.75,68.75,93.75C44.588,93.75,25,113.058,25,136.875c0,15.878,14.583,49.42,43.75,100.625
		c12.338-21.66,22.066-40.16,29.185-55.499c-4.757-10.848-8.494-20.501-11.215-28.994c-4.446,4.808-10.85,7.826-17.97,7.826
		c-13.424,0-24.306-10.727-24.306-23.958C44.444,123.643,55.326,112.917,68.75,112.917z"/>
	<path style="fill:#03234B;" d="M206.25,112.5c0-31.066-25.184-56.25-56.25-56.25S93.75,81.434,93.75,112.5
		c0,20.711,18.75,64.461,56.25,131.25C187.5,176.961,206.25,133.211,206.25,112.5z M118.75,112.5c0-17.259,13.991-31.25,31.25-31.25
		s31.25,13.991,31.25,31.25s-13.991,31.25-31.25,31.25S118.75,129.759,118.75,112.5z"/>
	<path style="fill:#03234B;" d="M231.25,93.75c-6.48,0-12.631,1.389-18.164,3.881c2.583,5.944,4.349,12.325,5.159,19
		c3.761-2.352,8.221-3.714,13.004-3.714c13.424,0,24.306,10.727,24.306,23.959c0,13.232-10.882,23.958-24.306,23.958
		c-7.12,0-13.524-3.017-17.97-7.826c-2.721,8.493-6.458,18.146-11.215,28.994c7.119,15.339,16.847,33.838,29.185,55.499
		C260.417,186.295,275,152.753,275,136.875C275,113.058,255.412,93.75,231.25,93.75z"/>
</g>
</svg>
